<svg xmlns="http://www.w3.org/2000/svg" width="16" height="16">
    <g fill="#fdfdfd" opacity=".7">
        <path d="M6.834 4 3.5 9h3l-.75 3h.416L9.5 7h-3l.75-3z"/>
        <path d="M2 3C.892 3 0 3.892 0 5v6c0 1.108.892 2 2 2h9c1.108 0 2-.892 2-2V5c0-1.108-.892-2-2-2zm0 1h9c.554 0 1 .446 1 1v6c0 .554-.446 1-1 1H2c-.554 0-1-.446-1-1V5c0-.554.446-1 1-1z"/>
        <path fill="#add49f" d="M2.527 5A.535.535 0 0 0 2 5.545v4.91c0 .303.235.545.527.545H4.97l.25-1h-1.72a1 1 0 0 1-.831-1.555L4.965 5H2.527zm5.504 0-.25 1H9v-.455A.535.535 0 0 0 8.473 5H8.03zM9 9.553 8.035 11h.438A.535.535 0 0 0 9 10.455v-.902z" class="success"/>
        <path d="M14 6v4a2 2 0 0 0 2-2 2 2 0 0 0-2-2z"/>
    </g>
</svg>
