<svg xmlns="http://www.w3.org/2000/svg" width="16" height="16">
    <path fill="#fdfdfd" fill-opacity=".7" d="M7.48 1.002a.5.5 0 0 0-.185.043A.5.5 0 0 0 7 1.5v5.285L4.266 5.076a.5.5 0 0 0-.69.158.5.5 0 0 0 .158.69L7 7.964v.071l-3.266 2.041a.5.5 0 0 0-.158.69.5.5 0 0 0 .69.158L7 9.214V14.5a.5.5 0 0 0 .832.373L9 13.834V13c0-.22.042-.423.117-.607L8 13.387V8.59l2.738 1.71a3.03 3.03 0 0 1 .68-.753L8.943 8l3.323-2.076a.5.5 0 0 0 .066-.797l-4.5-4a.5.5 0 0 0-.351-.125zM8 2.613l3.17 2.817L8 7.41V2.613zM13 10c-1.108 0-2 .892-2 2-.554 0-1 .446-1 1v2c0 .554.446 1 1 1h4c.554 0 1-.446 1-1v-2c0-.554-.446-1-1-1 0-1.108-.892-2-2-2zm0 1c.554 0 1 .446 1 1h-2c0-.554.446-1 1-1z"/>
</svg>
