<svg xmlns="http://www.w3.org/2000/svg" width="16" height="16">
    <path fill="#fdfdfd" fill-opacity=".7" d="M4 4v1h1V4zm1 1v1h1V5zm1 0h1V4H6zm0 1v1h1V6zM5 6H4v1h1zm4-2v1h1V4zm1 1v1h1V5zm1 0h1V4h-1zm0 1v1h1V6zm-1 0H9v1h1zM5 8v1h6V8zm6 1v1h1V9zM5 9H4v1h1z"/>
    <path fill="#fdfdfd" fill-opacity=".7" fill-rule="evenodd" d="M2 1C.892 1 0 1.892 0 3v8c0 1.108.892 2 2 2h12c1.108 0 2-.892 2-2V3c0-1.108-.892-2-2-2H2zm0 1h12c.554 0 1 .446 1 1v8c0 .554-.446 1-1 1H2c-.554 0-1-.446-1-1V3c0-.554.446-1 1-1z" style="paint-order:stroke fill markers"/>
    <rect width="8" height="1" x="4" y="14" fill="#fdfdfd" fill-opacity=".7" fill-rule="evenodd" rx=".5" ry=".5" style="paint-order:stroke fill markers"/>
</svg>
