<svg xmlns="http://www.w3.org/2000/svg" width="16" height="16">
    <path fill="#fdfdfd" d="M8 0c-.624 0-1.248.19-1.717.57L0 5.662V13c0 .206.03.403.088.59l.002.004v.002c.019.06.04.12.064.177l.002.006A2.007 2.007 0 0 0 2 15h12a1.995 1.995 0 0 0 1.66-.88l.004-.007.012-.017a1.988 1.988 0 0 0 .234-.5A2.01 2.01 0 0 0 16 13V5.66L9.719.57C9.249.19 8.624 0 8 0zm0 .893c.337 0 .673.105.932.314L14.848 6l-5.916 4.793c-.259.21-.595.314-.932.314s-.673-.105-.932-.314L1.152 6l5.916-4.793c.259-.21.595-.314.932-.314zM1 7.148 4.52 10 1 12.852V7.149zm14 .002v5.7L11.482 10 15 7.15zm-9.695 3.487.978.793c.47.38 1.093.57 1.717.57s1.25-.19 1.719-.57l.978-.793 3.903 3.162A.995.995 0 0 1 14 14H2a.996.996 0 0 1-.6-.201l3.905-3.162z" opacity=".7" style="paint-order:stroke fill markers"/>
</svg>
