<svg xmlns="http://www.w3.org/2000/svg" width="16" height="16">
    <defs>
        <style id="current-color-scheme" type="text/css">
            .ColorScheme-Text{color:#fdfdfd;opacity:.7}
        </style>
    </defs>
    <path fill="#fdfdfd" fill-opacity=".7" d="M3 1C1.338 1 0 2.338 0 4v6c0 1.662 1.338 3 3 3 0 1.108.892 2 2 2h4.277A1.964 1.964 0 0 1 9 14H5c-.554 0-1-.446-1-1v-1H3c-1.108 0-2-.892-2-2V4c0-1.108.892-2 2-2h10c1.108 0 2 .892 2 2v4.945c.326.38.567.846.707 1.352.09.038.176.082.26.129.02-.14.033-.28.033-.426V4c0-1.662-1.338-3-3-3H3zm2.5 4c-.277 0-.5.223-.5.5v3a.499.499 0 1 0 1 0v-3c0-.277-.223-.5-.5-.5zm5 0c-.277 0-.5.223-.5.5v3a.499.499 0 1 0 1 0v-3c0-.277-.223-.5-.5-.5z"/>
    <path fill="#fdfdfd" fill-opacity=".7" stroke-width="2" d="M13 9c-1.108 0-2 .892-2 2-.554 0-1 .446-1 1v2c0 .554.446 1 1 1h4c.554 0 1-.446 1-1v-2c0-.554-.446-1-1-1 0-1.108-.892-2-2-2zm0 1c.554 0 1 .446 1 1h-2c0-.554.446-1 1-1zm-2 2h4v2h-4z" color="#000" style="-inkscape-stroke:none"/>
</svg>
