<svg xmlns="http://www.w3.org/2000/svg" width="16" height="16">
    <path fill="#fdfdfd" fill-opacity=".7" d="M7.995 4c.657 0 1.192.196 1.604.586.412.383.617.874.617 1.474 0 .26-.068.524-.206.792-.137.267-.258.457-.367.573a8.62 8.62 0 0 1-.435.424l-.052.055c-.44.397-.661.792-.661 1.19v.435H7.474v-.51c0-.326.068-.603.206-.834.137-.239.38-.518.726-.836.195-.18.332-.314.412-.401.086-.094.17-.219.25-.378.086-.166.13-.337.13-.51 0-.332-.109-.6-.326-.802-.21-.203-.501-.305-.877-.305-.622 0-1.048.348-1.279 1.042l-.932-.39c.152-.413.413-.782.781-1.108.376-.332.852-.497 1.43-.497zm-.01 6.526c.209 0 .383.072.52.216.145.145.216.319.216.521s-.071.376-.216.52c-.137.145-.311.217-.52.217a.723.723 0 0 1-.738-.737.722.722 0 0 1 .737-.737z"/>
    <path fill="#fdfdfd" fill-opacity=".7" d="M3 1C1.338 1 0 2.338 0 4v6c0 1.662 1.338 3 3 3 0 1.108.892 2 2 2h6c1.108 0 2-.892 2-2 1.662 0 3-1.338 3-3V4c0-1.662-1.338-3-3-3zm0 1h10c1.108 0 2 .892 2 2v6c0 1.108-.892 2-2 2h-1v1c0 .554-.446 1-1 1H5c-.554 0-1-.446-1-1v-1H3c-1.108 0-2-.892-2-2V4c0-1.108.892-2 2-2z"/>
</svg>
