<svg xmlns="http://www.w3.org/2000/svg" width="16" height="16">
    <path fill="#fdfdfd" fill-opacity=".7" d="M5 6a1 1 0 1 0 0 2 1 1 0 0 0 0-2zm3 0a1 1 0 1 0 0 2 1 1 0 0 0 0-2zm3 0a1 1 0 1 0 0 2 1 1 0 0 0 0-2z"/>
    <path fill="#fdfdfd" fill-opacity=".7" d="M3 1C1.338 1 0 2.338 0 4v6c0 1.662 1.338 3 3 3 0 1.108.892 2 2 2h6c1.108 0 2-.892 2-2 1.662 0 3-1.338 3-3V4c0-1.662-1.338-3-3-3zm0 1h10c1.108 0 2 .892 2 2v6c0 1.108-.892 2-2 2h-1v1c0 .554-.446 1-1 1H5c-.554 0-1-.446-1-1v-1H3c-1.108 0-2-.892-2-2V4c0-1.108.892-2 2-2z"/>
</svg>
