<svg xmlns="http://www.w3.org/2000/svg" width="16" height="16">
    <path fill="#fae3a8" fill-rule="evenodd" d="M12.48 9.729a.443.443 0 0 0-.36.22l-3.061 5.397a.437.437 0 0 0 .379.654h6.125a.437.437 0 0 0 .378-.654l-3.058-5.397a.442.442 0 0 0-.402-.22zM12 11h1v.168c0 .348-.016.667-.047.957s-.069.581-.115.875h-.666a12.898 12.898 0 0 1-.125-.875 9.146 9.146 0 0 1-.047-.957zm.5 3a.5.5 0 1 1 0 1 .5.5 0 0 1 0-1z" color="#000" style="-inkscape-stroke:none"/>
    <path fill="#fdfdfd" fill-opacity=".7" d="M12.738 1.29c-.376.026-.624.49-.283.87A8 8 0 0 1 15 8a8 8 0 0 1-.512 2.752l.621 1.098A9 9 0 0 0 16 8a9 9 0 0 0-2.86-6.572.581.581 0 0 0-.401-.139zm-2.39 1.415c-.396.012-.643.536-.256.916A6 6 0 0 1 12 8a6.006 6.006 0 0 1-.07.85 1.434 1.434 0 0 1 .507-.12c.175-.007.346.018.508.07.034-.265.052-.532.055-.8a7 7 0 0 0-2.225-5.111c-.147-.134-.296-.188-.428-.184zM6 3 3 6H1c-.554 0-1 .446-1 1v2c0 .554.446 1 1 1h2l3 3zm2.017 1.184c-.376.016-.645.514-.29.896A4 4 0 0 1 9 8a4 4 0 0 1-1.278 2.926c-.473.43.14 1.152.68.73A5 5 0 0 0 10 8a5 5 0 0 0-1.59-3.65.536.536 0 0 0-.393-.166z"/>
</svg>
