<svg xmlns="http://www.w3.org/2000/svg" width="16" height="16">
    <path fill="#fdfdfd" fill-opacity=".7" d="M8 3.2c-1.836 0-3.367 1.202-3.938 2.844C2.34 6.262 1 7.717 1 9.5A3.5 3.5 0 0 0 4.5 13h7.7a2.8 2.8 0 1 0 0-5.6A4.2 4.2 0 0 0 8 3.2z"/>
    <path fill="#fafafa" d="M53 4.2a2.5 2.5 0 0 0-2.164 1.254A1.5 1.5 0 0 0 50 5.2a1.5 1.5 0 0 0-1.5 1.5 1.5 1.5 0 0 0 .102.543A2 2 0 0 0 47 9.2a2 2 0 0 0 2 2h6a2 2 0 0 0 2-2 2 2 0 0 0-1.564-1.951A2.5 2.5 0 0 0 55.5 6.7 2.5 2.5 0 0 0 53 4.2z" opacity=".6"/>
    <path fill="#fdfdfd" d="m11.504 1.7.184.816.828.196-.83.168-.16.82-.19-.83-.82-.182.816-.162zM14 3.2l.277 1.225 1.239.29-1.244.255-.24 1.23-.286-1.244-1.23-.272 1.224-.246z" color="#000" opacity=".7" style="font-feature-settings:normal;font-variant-alternates:normal;font-variant-caps:normal;font-variant-east-asian:normal;font-variant-ligatures:normal;font-variant-numeric:normal;font-variant-position:normal;font-variation-settings:normal;inline-size:0;isolation:auto;mix-blend-mode:normal;shape-margin:0;shape-padding:0;text-decoration-color:#000;text-decoration-line:none;text-decoration-style:solid;text-indent:0;text-orientation:mixed;text-transform:none;white-space:normal"/>
</svg>
