<svg xmlns="http://www.w3.org/2000/svg" viewBox="0 0 24 24">
    <path fill="currentColor" d="M6 4c-1.108 0-2 .892-2 2v3c0 1.108.892 2 2 2h2c1.108 0 2-.892 2-2V6c0-1.108-.892-2-2-2H6zm0 1h2c.554 0 1 .446 1 1v3c0 .554-.446 1-1 1H6c-.554 0-1-.446-1-1V6c0-.554.446-1 1-1zm10 0c-1.108 0-2 .892-2 2v2c0 1.108.892 2 2 2h2c1.108 0 2-.892 2-2V7c0-1.108-.892-2-2-2h-2zm0 1h2c.554 0 1 .446 1 1v2c0 .554-.446 1-1 1h-2c-.554 0-1-.446-1-1V7c0-.554.446-1 1-1zM4.5 13a.499.499 0 1 0 0 1h15a.499.499 0 1 0 0-1h-15zM15 16c-.554 0-1 .446-1 1v2c0 .554.446 1 1 1h4c.554 0 1-.446 1-1v-2c0-.554-.446-1-1-1h-4z" style="color:#050505;opacity:.7"/>
</svg>
