<svg xmlns="http://www.w3.org/2000/svg" viewBox="0 0 24 24">
    <defs>
        <style id="current-color-scheme" type="text/css">
            .ColorScheme-Text{color:#050505;opacity:.7;}
        </style>
    </defs>
    <g class="ColorScheme-Text" fill="currentColor" transform="rotate(90 12 12)">
        <path d="M9 4c-1.108 0-2 .892-2 2v2c0 1.108.892 2 2 2h9c1.108 0 2-.892 2-2V6c0-1.108-.892-2-2-2zm0 1h9c.554 0 1 .446 1 1v2c0 .554-.446 1-1 1H9c-.554 0-1-.446-1-1V6c0-.554.446-1 1-1zM9 14c-1.108 0-2 .892-2 2v2c0 1.108.892 2 2 2h2c1.108 0 2-.892 2-2v-2c0-1.108-.892-2-2-2zm0 1h2c.554 0 1 .446 1 1v2c0 .554-.446 1-1 1H9c-.554 0-1-.446-1-1v-2c0-.554.446-1 1-1z" />
        <rect width="1" height="16" x="4" y="4" rx=".5" ry=".5"/>
    </g>
</svg>
