<svg xmlns="http://www.w3.org/2000/svg" viewBox="0 0 24 24">
    <path fill="currentColor" d="M4 18c0 1.108.892 2 2 2h3c1.108 0 2-.892 2-2v-2c0-1.108-.892-2-2-2H6c-1.108 0-2 .892-2 2zm1 0v-2c0-.554.446-1 1-1h3c.554 0 1 .446 1 1v2c0 .554-.446 1-1 1H6c-.554 0-1-.446-1-1zM5 8c0 1.108.892 2 2 2h2c1.108 0 2-.892 2-2V6c0-1.108-.892-2-2-2H7c-1.108 0-2 .892-2 2zm1 0V6c0-.554.446-1 1-1h2c.554 0 1 .446 1 1v2c0 .554-.446 1-1 1H7c-.554 0-1-.446-1-1zm7 11.5a.499.499 0 1 0 1 0v-15a.499.499 0 1 0-1 0zM16 9c0 .554.446 1 1 1h2c.554 0 1-.446 1-1V5c0-.554-.446-1-1-1h-2c-.554 0-1 .446-1 1z" style="color:#050505;opacity:.7"/>
</svg>
