<svg xmlns="http://www.w3.org/2000/svg" width="24" height="24">
    <defs>
        <style id="current-color-scheme" type="text/css">
            .ColorScheme-Text{color:#050505;opacity:.7}
        </style>
    </defs>
    <path fill="currentColor" d="M17 15v2h-2v1h2v2h1v-2h2v-1h-2v-2z" class="ColorScheme-Text"/>
    <path fill="currentColor" d="M12 4a3 3 0 0 0-3 3H7c-1.108 0-2 .892-2 2v9c0 1.108.892 2 2 2h7v-1H7c-.554 0-1-.446-1-1V9c0-.554.446-1 1-1h2v1.088a1.5 1.5 0 1 0 1 0V8h4v1.088a1.5 1.5 0 1 0 1 0V8h2c.554 0 1 .446 1 1v5h1V9c0-1.108-.892-2-2-2h-2a3 3 0 0 0-3-3zm0 1a2 2 0 0 1 2 2h-4a2 2 0 0 1 2-2zm-2.5 5a.5.5 0 1 1 0 1 .5.5 0 0 1 0-1zm5 0a.5.5 0 1 1 0 1 .5.5 0 0 1 0-1z" class="ColorScheme-Text"/>
</svg>
