<svg xmlns="http://www.w3.org/2000/svg" viewBox="0 0 24 24">
    <defs>
        <style id="current-color-scheme" type="text/css">
            .ColorScheme-Text{color:#050505;opacity:.7}
        </style>
    </defs>
    <path fill="currentColor" d="M12 6v1h4v2c0 1.108.892 2 2 2h2v3h1v-4l-4-4h-5zM9 17c0 1.662 1.338 3 3 3h3v-1h-3c-1.108 0-2-.892-2-2H9z" class="ColorScheme-Text"/>
    <path fill="currentColor" d="m16.707 15-.707.707 1.793 1.793L16 19.293l.707.707 1.793-1.793L20.293 20l.707-.707-1.793-1.793L21 15.707 20.293 15 18.5 16.793Z" style="color:#d98c8c"/>
    <path fill="currentColor" d="M6 4C4.338 4 3 5.338 3 7v8c0 1.662 1.338 3 3 3h6c1.662 0 3-1.338 3-3V8l-4-4zm0 1h4v2c0 1.108.892 2 2 2h2v6c0 1.108-.892 2-2 2H6c-1.108 0-2-.892-2-2V7c0-1.108.892-2 2-2z" class="ColorScheme-Text"/>
</svg>
