<svg xmlns="http://www.w3.org/2000/svg" viewBox="0 0 24 24">
    <style id="current-color-scheme" type="text/css">
        .ColorScheme-Text{color:#050505;opacity:.7}
    </style>
    <path d="m16.238 5-.352.36-8.97 9.095-.03.045c-.06.1-.27.45-.583 1.087-.314.638-.7 1.511-1.013 2.493L5 19l.92-.29a18.176 18.176 0 0 0 2.493-1.012c.638-.314.986-.52 1.087-.585l.045-.029L19 7.762zm-7.811 9.16 7.778-7.779 1.414 1.414-7.778 7.779zm-.538.73 1.221 1.22-.178.176c.007-.005-.379.227-.961.514-.214.105-.536.22-.834.337l-.274-.274c.116-.298.232-.62.337-.834.287-.582.52-.966.515-.96z" class="ColorScheme-Text" style="fill:currentColor"/>
    <path d="M6 17h12c.554 0 1 .446 1 1s-.446 1-1 1H5z" class="ColorScheme-Text" opacity=".25" style="fill:currentColor"/>
</svg>
