<svg xmlns="http://www.w3.org/2000/svg" viewBox="0 0 24 24">
    <defs>
        <style id="current-color-scheme" type="text/css">
            .ColorScheme-Text{color:#050505;opacity:.7}
        </style>
    </defs>
    <path fill="currentColor" d="M17 13.5v1h-1v5h5v-5h-1v-1zm0 2h3v3h-3z" class="ColorScheme-Text"/>
    <path fill="currentColor" d="M5 4.5c-1.108 0-2 .892-2 2v11c0 1.108.892 2 2 2h10v-1H5c-.554 0-1-.446-1-1v-8h16v3h1v-5c0-1.108-.892-2-2-2H9.371c-.58-.023-.605.077-1.039-.357C7.898 4.709 7.719 4.5 7 4.5zm0 1h2c.311 0 .52 0 .998.47.479.472.639.53 1 .53H19c.554 0 1 .446 1 1v1H4v-2c0-.554.446-1 1-1z" class="ColorScheme-Text"/>
</svg>
