<svg xmlns="http://www.w3.org/2000/svg" viewBox="0 0 24 24">
    <defs>
        <style id="current-color-scheme" type="text/css">
            .ColorScheme-Text{color:#050505;opacity:.7}
        </style>
    </defs>
    <path fill="currentColor" d="M12 4C9.784 4 8 5.784 8 8v1h1v-.5C9 6.561 10.338 5 12 5s3 1.561 3 3.5V12h1V8c0-2.216-1.784-4-4-4zM8 12c-1.108 0-2 .892-2 2v4c0 1.108.892 2 2 2h8c1.108 0 2-.892 2-2v-4c0-1.108-.892-2-2-2H8zm0 1h8c.554 0 1 .446 1 1v4c0 .554-.446 1-1 1H8c-.554 0-1-.446-1-1v-4c0-.554.446-1 1-1z" class="ColorScheme-Text"/>
</svg>
