<svg xmlns="http://www.w3.org/2000/svg" viewBox="0 0 24 24">
    <defs>
        <style id="current-color-scheme" type="text/css">
            .ColorScheme-Text{color:#050505;opacity:.7}
        </style>
    </defs>
    <path fill="currentColor" d="M17.5 12.5A3.5 3.5 0 0 0 14 16a3.5 3.5 0 0 0 3.5 3.5A3.5 3.5 0 0 0 21 16a3.5 3.5 0 0 0-3.5-3.5zm0 1.086 2.5 2.5-.707.707L18 15.5v3h-1v-3l-1.293 1.293-.707-.707 2.5-2.5z" class="ColorScheme-Text"/>
    <path fill="currentColor" d="M5 4.5c-1.108 0-2 .892-2 2v11c0 1.108.892 2 2 2h8v-1H5c-.554 0-1-.446-1-1v-8h16v2h1v-4c0-1.108-.892-2-2-2H9.371c-.58-.023-.605.077-1.039-.357C7.898 4.709 7.719 4.5 7 4.5zm0 1h2c.311 0 .52 0 .998.47.479.472.639.53 1 .53H19c.554 0 1 .446 1 1v1H4v-2c0-.554.446-1 1-1z" class="ColorScheme-Text"/>
</svg>
