<svg xmlns="http://www.w3.org/2000/svg" width="24" height="24">
    <defs>
        <style id="current-color-scheme" type="text/css">
            .ColorScheme-Text{color:#050505;opacity:.7}
        </style>
    </defs>
    <path fill="currentColor" d="m6 13-3 3 3 3v-2h2v-2H6z" class="ColorScheme-Text"/>
    <path fill="currentColor" d="M6 5C4.338 5 3 6.338 3 8v5h1V9.11L7.8 12l.81.615.72.55c1.465 1.113 3.876 1.113 5.342 0l.719-.548 4.597 3.496A1.99 1.99 0 0 1 18 18H8v1h10c1.662 0 3-1.338 3-3V8c0-1.662-1.338-3-3-3zm0 1h12a1.99 1.99 0 0 1 1.988 1.887l-6.129 4.66c-1.03.783-2.688.783-3.718 0l-6.13-4.66A1.99 1.99 0 0 1 6 6zm14 3.111v5.778l-3.797-2.89z" class="ColorScheme-Text"/>
</svg>
