<svg xmlns="http://www.w3.org/2000/svg" width="24" height="24">
    <defs>
        <style id="current-color-scheme" type="text/css">
            .ColorScheme-Text{color:#050505;opacity:.7}
        </style>
    </defs>
    <path fill="currentColor" d="M17.502 13a3.5 3.5 0 0 0-3.5 3.5 3.5 3.5 0 0 0 3.5 3.5 3.5 3.5 0 0 0 3.5-3.5 3.5 3.5 0 0 0-3.5-3.5zm0 .982A2.517 2.517 0 0 1 20.02 16.5a2.517 2.517 0 0 1-.871 1.898 3.5 3.5 0 0 0-1.647-.416 3.5 3.5 0 0 0-1.65.414 2.517 2.517 0 0 1-.868-1.896 2.517 2.517 0 0 1 2.518-2.518zm0 1a1 1 0 0 0-1 1 1 1 0 0 0 1 1 1 1 0 0 0 1-1 1 1 0 0 0-1-1z" class="ColorScheme-Text"/>
    <g fill="currentColor" class="ColorScheme-Text">
        <path d="M5.998 5.982c-1.662 0-3 1.338-3 3v8c0 1.662 1.338 3 3 3h7v-1h-7a1.99 1.99 0 0 1-1.989-1.887l4.598-3.498.72.55c.988.75 2.403.983 3.67.722v-.903c-.951.3-2.083.153-2.859-.437L4.01 8.869a1.99 1.99 0 0 1 1.989-1.887v-1zm12 0v1a1.99 1.99 0 0 1 1.988 1.887l-4.094 3.113h1.623l2.482-1.889v1.889h1v-3c0-1.662-1.338-3-3-3zm-14 4.11 3.8 2.89-3.8 2.889z"/>
        <g class="ColorScheme-Text" transform="translate(.998 1.982)">
            <path d="M7 1c-1.108 0-2 .892-2 2v6.371h1V3c0-.554.446-1 1-1h8c.554 0 1 .446 1 1v6.371h1V3c0-1.108-.892-2-2-2z"/>
            <rect width="8" height="1" x="7" y="4" ry=".5"/>
            <rect width="8" height="1" x="7" y="7" ry=".5"/>
        </g>
    </g>
</svg>
