<svg xmlns="http://www.w3.org/2000/svg" width="24" height="24">
    <defs>
        <style id="current-color-scheme" type="text/css">
            .ColorScheme-Text{color:#050505;opacity:.7}
        </style>
    </defs>
    <path fill="currentColor" d="m5 14.5-3 3 3 3v-2h2v-2H5z" class="ColorScheme-Text"/>
    <path fill="currentColor" d="M6 3.5c-1.108 0-2 .892-2 2v2c-1.108 0-2 .892-2 2v5h1v-3h18v7c0 .554-.446 1-1 1H8v1h12c1.108 0 2-.892 2-2v-9c0-1.108-.892-2-2-2v-2c0-1.108-.892-2-2-2zm0 1h12c.554 0 1 .446 1 1v5H5v-5c0-.554.446-1 1-1zm-2 4v2H3v-1c0-.554.446-1 1-1zm16 0c.554 0 1 .446 1 1v1h-1z" class="ColorScheme-Text"/>
</svg>
