<svg xmlns="http://www.w3.org/2000/svg" width="24" height="24">
    <defs>
        <style id="current-color-scheme" type="text/css">
            .ColorScheme-Text{color:#050505;opacity:.7}
        </style>
    </defs>
    <path fill="currentColor" d="M17.5 12a3.5 3.5 0 0 0-3.5 3.5 3.5 3.5 0 0 0 3.5 3.5 3.5 3.5 0 0 0 3.5-3.5 3.5 3.5 0 0 0-3.5-3.5zm0 .5.574 1.613 1.547-.734-.734 1.547 1.613.574-1.613.574.734 1.547-1.547-.734L17.5 18.5l-.574-1.613-1.547.734.734-1.547L14.5 15.5l1.613-.574-.734-1.547 1.547.734z" class="ColorScheme-Text"/>
    <path fill="currentColor" d="M6 5C4.338 5 3 6.338 3 8v8c0 1.662 1.338 3 3 3h7v-1H6a1.99 1.99 0 0 1-1.988-1.887l4.597-3.498.721.55c.988.75 2.402.983 3.67.722v-.903c-.952.3-2.083.153-2.86-.437l-6.128-4.66A1.99 1.99 0 0 1 6 6h12a1.99 1.99 0 0 1 1.988 1.887L15.895 11h1.623L20 9.111V11h1V8c0-1.662-1.338-3-3-3H6zM4 9.11 7.8 12 4 14.889z" class="ColorScheme-Text"/>
</svg>
