<svg xmlns="http://www.w3.org/2000/svg" viewBox="0 0 24 24">
    <path d="M10.5 3v1.813h1V3h-1zM5.688 4.969l-.72.718L6.25 7l.719-.75-1.282-1.281zm10.625 0L15.03 6.25l.719.75 1.281-1.312-.718-.72zM11 6a5 5 0 1 0 0 10 5 5 0 0 0 0-10zm0 1a4 4 0 0 1 4 4 4 4 0 0 1-4 4 4 4 0 0 1-4-4 4 4 0 0 1 4-4zm-8 3.5v1h1.813v-1H3zm14.188 0v1H19v-1h-1.812zM6.25 15.031l-1.281 1.281.718.72L6.97 15.75l-.719-.719zm9.5 0-.719.719 1.281 1.281.72-.718-1.282-1.282zm-5.25 2.156V19h1v-1.812h-1z" style="fill:currentColor;fill-opacity:1;stroke:none;color:#050505;opacity:.7" transform="translate(1 1)"/>
</svg>
