<svg xmlns="http://www.w3.org/2000/svg" width="24" height="24">
    <path fill="#fdfdfd" fill-opacity=".7" d="M12 4a1 1 0 0 0-.994 1.1A4.988 4.988 0 0 0 7 10v4.5l-2 2v.5h14v-.5l-2-2v-3.63a4 4 0 0 1-1 .126v3.926L17 16H7l1-1.078V10a4 4 0 0 1 4-4c.044.001.087.003.13.006a4 4 0 0 1 .741-1.492A1 1 0 0 0 12 4zm-1.73 14A2 2 0 0 0 12 19a2 2 0 0 0 1.728-1z"/>
    <path fill="#a0b6cb" d="M19 7a3 3 0 0 1-6 0 3 3 0 1 1 6 0z" color="#bebebe" overflow="visible" style="isolation:auto;mix-blend-mode:normal"/>
</svg>
