<svg xmlns="http://www.w3.org/2000/svg" width="16" height="16">
    <path fill="#fdfdfd" fill-opacity=".7" d="M8.002 5A.999.999 0 0 0 7 6v5c0 .554.447 1 1.002 1h6.996A.999.999 0 0 0 16 11V6c0-.554-.447-1-1.002-1zM8 6h7v5H8z"/>
    <rect width="5" height="1" x="9" y="13" fill="#fdfdfd" fill-opacity=".7" rx="0" ry="0"/>
    <path fill="#fdfdfd" fill-opacity=".7" d="M5 0C3.892 0 3 .892 3 2v3H1c-.554 0-1 .446-1 1v5c0 .554.446 1 1 1h2v2c0 1.108.892 2 2 2h6v-1H5c-.554 0-1-.446-1-1v-2h2V5H4V2c0-.554.446-1 1-1h6c.554 0 1 .446 1 1v2h1V2c0-1.108-.892-2-2-2H5zM1 6h4v5H1V6zm1 1v1h1V7H2z"/>
</svg>
