<svg xmlns="http://www.w3.org/2000/svg" width="64" height="64" viewBox="0 0 16.933 16.933">
    <defs>
        <filter id="a" width="1.078" height="1.067" x="-.039" y="-.033" color-interpolation-filters="sRGB">
            <feGaussianBlur stdDeviation=".206"/>
        </filter>
    </defs>
    <g fill-rule="evenodd">
        <path d="M3.44 1.354a1.32 1.32 0 0 0-1.323 1.323v12.171c0 .733.59 1.323 1.323 1.323h10.053a1.32 1.32 0 0 0 1.323-1.323V4.53l-3.175-3.175z" filter="url(#a)" opacity=".15" style="paint-order:stroke fill markers"/>
        <path fill="#eabc8a" d="M3.44 1.058a1.32 1.32 0 0 0-1.323 1.323v12.171c0 .733.59 1.323 1.323 1.323h10.053a1.32 1.32 0 0 0 1.323-1.323V4.233l-3.174-3.175z" style="paint-order:stroke fill markers"/>
        <path fill="#fff" d="m14.816 4.233-3.175-3.175V2.91c0 .733.59 1.323 1.323 1.323z" opacity=".35" style="paint-order:stroke fill markers"/>
    </g>
    <path fill="#fff" d="M3.738 13.706c0-.163.056-.3.17-.41a.56.56 0 0 1 .41-.168c.16 0 .293.056.403.168.112.11.168.247.168.41a.554.554 0 0 1-.168.406.548.548 0 0 1-.403.165.565.565 0 0 1-.41-.165.548.548 0 0 1-.17-.406m-.033-2.61v.962c1.228 0 2.225.999 2.225 2.229h.964c0-1.762-1.43-3.19-3.19-3.19zm.001-2.102v1.063a4.229 4.229 0 0 1 4.224 4.23h1.066a5.294 5.294 0 0 0-5.29-5.293z" font-size="13.59" font-weight="700"/>
    <path fill-rule="evenodd" d="M11.641 2.91v.155c0 .794.59 1.433 1.323 1.433h1.852v-.265h-1.852A1.32 1.32 0 0 1 11.64 2.91z" opacity=".1" style="paint-order:stroke fill markers"/>
</svg>
