<svg xmlns="http://www.w3.org/2000/svg" viewBox="0 0 64 64">
    <defs>
        <clipPath id="b">
            <circle cx="1184.5" cy="675.5" r="16.5" fill="#4b809b" opacity=".228" transform="translate(-40.845 -23.293) scale(1.0345)"/>
        </clipPath>
        <clipPath id="c">
            <circle cx="1184.5" cy="675.5" r="16.5" fill="#4b809b" opacity=".228" transform="translate(1987.2 -1698.7) scale(.90909)"/>
        </clipPath>
        <clipPath id="d">
            <circle cx="1184.5" cy="675.5" r="16.5" fill="#4b809b" opacity=".228" transform="translate(1987.2 -1698.7) scale(.90909)"/>
        </clipPath>
        <clipPath id="e">
            <circle cx="1184.5" cy="675.5" r="16.5" fill="#4b809b" opacity=".228" transform="translate(1987.2 -1698.7) scale(.90909)"/>
        </clipPath>
        <clipPath id="f">
            <circle cx="1184.5" cy="675.5" r="16.5" fill="#4b809b" opacity=".228" transform="translate(1987.2 -1698.7) scale(.90909)"/>
        </clipPath>
        <clipPath id="g">
            <circle cx="1184.5" cy="675.5" r="16.5" fill="#4b809b" opacity=".228" transform="translate(1987.2 -1698.7) scale(.90909)"/>
        </clipPath>
        <clipPath id="h">
            <circle cx="1184.5" cy="675.5" r="16.5" fill="#4b809b" opacity=".228" transform="translate(1987.2 -1698.7) scale(.90909)"/>
        </clipPath>
        <clipPath id="i">
            <circle cx="1184.5" cy="675.5" r="16.5" fill="#4b809b" opacity=".228" transform="translate(1987.2 -1698.7) scale(.90909)"/>
        </clipPath>
        <clipPath id="j">
            <circle cx="1184.5" cy="675.5" r="16.5" fill="#4b809b" opacity=".228" transform="translate(1987.2 -1698.7) scale(.90909)"/>
        </clipPath>
        <filter id="a" width="1.104" height="1.089" x="-.052" y="-.045" color-interpolation-filters="sRGB">
            <feGaussianBlur stdDeviation="1.04"/>
        </filter>
    </defs>
    <rect width="48" height="56" x="8" y="5" filter="url(#a)" opacity=".15" rx="5" ry="5"/>
    <rect width="48" height="56" x="8" y="4" fill="#fff" rx="5" ry="5"/>
    <g transform="translate(-.004 -1.002) scale(3.7796)">
        <path fill="#4b809b" d="M4.234 5.292v.529H12.7v-.53zm0 1.058v.53H12.7v-.53zm0 1.058v.53H9.17a2.628 2.628 0 0 1 2.299 0H12.7v-.53zm0 1.058v.53h3.795a2.66 2.66 0 0 1 .401-.53zm7.974 0c.155.158.29.337.402.53h.09v-.53zM4.235 9.525v.529h3.452c.018-.183.058-.36.112-.53zm0 1.058v.53h3.564a2.636 2.636 0 0 1-.112-.53zm0 1.058v.53H8.43a2.66 2.66 0 0 1-.4-.53z"/>
        <circle cx="1184.5" cy="675.5" r="16.5" fill="#4b809b" clip-path="url(#b)" transform="translate(-154.93 -83.916) scale(.13951)"/>
        <path fill="none" stroke="#add6eb" stroke-linecap="round" stroke-width=".877" d="M3066.2-1069.3c-2.05-12.755-13.592-15.132-19.22-13.189" clip-path="url(#c)" transform="matrix(.15089 0 0 .15078 -452.01 173.84)"/>
        <path fill="none" stroke="#add6eb" stroke-linecap="round" stroke-width=".867" d="M3068.2-1099.5c-15.829 5.575-16.196 20.815-12.408 27.526" clip-path="url(#d)" transform="translate(-457.4 175.89) scale(.15265)"/>
        <path fill="none" stroke="#add6eb" stroke-linecap="round" stroke-width=".867" d="M3078.5-1088.4c-15.558-9.69-30.26-1.165-34.174 5.811" clip-path="url(#e)" transform="translate(-457.36 175.77) scale(.15265)"/>
        <path fill="none" stroke="#add6eb" stroke-linecap="round" stroke-width=".867" d="M3062.8-1100.1c15.444 6.567 14.844 21.799 10.639 28.257" clip-path="url(#f)" transform="translate(-457.4 175.89) scale(.15265)"/>
        <path fill="none" stroke="#add6eb" stroke-linecap="round" stroke-width=".867" d="M3072.4-1068.2c1.647-20.24-13.394-26.745-21.817-25.116" clip-path="url(#g)" transform="translate(-457.4 175.89) scale(.15265)"/>
        <path fill="none" stroke="#add6eb" stroke-linecap="round" stroke-width=".867" d="M3085-1076.9c-15.878-5.435-25.61 6.297-26.798 13.911" clip-path="url(#h)" transform="translate(-457.4 175.89) scale(.15265)"/>
        <path fill="none" stroke="#add6eb" stroke-linecap="round" stroke-width=".867" d="M3086.2-1079.9c-14.139-9.04-26.373.053-29.33 7.17" clip-path="url(#i)" transform="translate(-457.4 175.89) scale(.15265)"/>
        <path fill="none" stroke="#add6eb" stroke-linecap="round" stroke-width=".867" d="M3078.5-1092.2c-16.771-.62-22.702 13.422-21.641 21.055" clip-path="url(#j)" transform="translate(-457.4 175.89) scale(.15265)"/>
        <path fill="#fff" d="M4.234 5.82v.133H12.7V5.82zm0 1.059v.132H12.7V6.88zm6.085.794c-.412 0-.8.096-1.149.264H4.234v.132H9.17a2.628 2.628 0 0 1 2.299 0H12.7v-.132h-1.232a2.628 2.628 0 0 0-1.15-.264zm1.968.926c.155.158.24.336.24.529h.174v-.133h-.091a2.68 2.68 0 0 0-.282-.396zm-4.072.124c-.066.087-.13.177-.186.272H4.234v.133h3.878c0-.145.056-.28.103-.405zm-.525 1.302-.004.029H4.234v.132h3.452a1.3 1.3 0 0 0 .004-.161zm-3.456 1.087v.132h3.563l-.037-.132zm0 1.058v.133H8.43a.419.419 0 0 1-.103-.133z" opacity=".75"/>
    </g>
</svg>
