<svg xmlns="http://www.w3.org/2000/svg" xmlns:xlink="http://www.w3.org/1999/xlink" width="64" height="64" viewBox="0 0 16.933 16.933">
    <defs>
        <filter id="a" width="1.078" height="1.067" x="-.039" y="-.033" color-interpolation-filters="sRGB">
            <feGaussianBlur stdDeviation=".206"/>
        </filter>
        <filter id="b" width="1.058" height="1.093" x="-.029" y="-.047" color-interpolation-filters="sRGB">
            <feGaussianBlur stdDeviation=".103"/>
        </filter>
    </defs>
    <path d="M3.44 1.35a1.32 1.32 0 0 0-1.323 1.323v12.17c0 .734.59 1.324 1.323 1.324h10.053a1.32 1.32 0 0 0 1.323-1.323V4.524L11.642 1.35zm0 .53h7.982l2.865 2.864v10.1a.78.78 0 0 1-.794.793H3.44a.78.78 0 0 1-.793-.794V2.673a.78.78 0 0 1 .793-.795z" filter="url(#a)" opacity=".15" style="font-feature-settings:normal;font-variant-alternates:normal;font-variant-caps:normal;font-variant-ligatures:normal;font-variant-numeric:normal;font-variant-position:normal;isolation:auto;mix-blend-mode:normal;paint-order:fill markers stroke;shape-padding:0;text-decoration-color:#000;text-decoration-line:none;text-decoration-style:solid;text-indent:0;text-orientation:mixed;text-transform:none;white-space:normal"/>
    <path fill="#fff" fill-rule="evenodd" d="M3.44 1.058a1.32 1.32 0 0 0-1.323 1.323v12.171c0 .733.59 1.323 1.323 1.323h10.053a1.32 1.32 0 0 0 1.323-1.323V4.233l-3.175-3.175z" style="paint-order:stroke fill markers"/>
    <path fill="gray" d="M8.119 10.319h.695v.529h-.695z"/>
    <rect width="8.466" height="5.292" x="4.233" y="5.211" fill="#611c05" filter="url(#b)" opacity=".15" rx=".278" ry=".246"/>
    <rect width="8.466" height="5.292" x="4.233" y="5.027" fill="#fcdacf" stroke="#623c32" stroke-width=".066" rx=".278" ry=".246"/>
    <path fill="#d67a5c" d="M5.457 5.893h6.019v.289H5.457z"/>
    <path fill="gray" d="M8.467 7.63h3.01v2.083h-3.01z"/>
    <path fill="#e6e6e6" d="M8.64 7.803h2.662v1.736H8.64z"/>
    <path fill="#d67a5c" d="M6.615 6.472h3.704v.289H6.615z"/>
    <g fill="#ea9078">
        <path d="M3.44 1.058a1.32 1.32 0 0 0-1.323 1.323v12.171c0 .733.59 1.323 1.323 1.323h10.053a1.32 1.32 0 0 0 1.323-1.323V4.233l-3.174-3.175zm0 .53h7.982l2.865 2.864v10.1a.78.78 0 0 1-.794.793H3.44a.78.78 0 0 1-.793-.794V2.381a.78.78 0 0 1 .793-.794z" style="font-feature-settings:normal;font-variant-alternates:normal;font-variant-caps:normal;font-variant-ligatures:normal;font-variant-numeric:normal;font-variant-position:normal;isolation:auto;mix-blend-mode:normal;paint-order:fill markers stroke;shape-padding:0;text-decoration-color:#000;text-decoration-line:none;text-decoration-style:solid;text-indent:0;text-orientation:mixed;text-transform:none;white-space:normal"/>
        <path fill-rule="evenodd" d="m12.171 1.058 2.646 2.646V2.381a1.32 1.32 0 0 0-1.323-1.323z" style="paint-order:stroke fill markers"/>
        <path d="M6.152 7.688h1.736v.232H6.152zm-.348.114a.116.116 0 1 1-.231 0 .116.116 0 1 1 .231 0zm.348.464h1.736v.232H6.152zm-.348.115a.116.116 0 1 1-.231 0 .116.116 0 1 1 .231 0zm.348.464h1.736v.232H6.152zm-.348.115a.116.116 0 1 1-.231 0 .116.116 0 1 1 .231 0zm.348.464h1.736v.232H6.152zm-.348.115a.116.116 0 1 1-.231 0 .116.116 0 1 1 .231 0z"/>
    </g>
    <g fill="gray" transform="translate(.029)">
        <path id="c" stroke-width=".058" d="m8.133 10.639-1.403.926h.68l1.172-.926z"/>
        <use xlink:href="#c" width="5033" height="1085" transform="matrix(-1 0 0 1 16.875 0)"/>
    </g>
</svg>
