<svg xmlns="http://www.w3.org/2000/svg" width="64" height="64" viewBox="0 0 16.933 16.933">
    <defs>
        <filter id="a" width="1.078" height="1.067" x="-.039" y="-.033" color-interpolation-filters="sRGB">
            <feGaussianBlur stdDeviation=".206"/>
        </filter>
    </defs>
    <path d="M3.44 1.354a1.32 1.32 0 0 0-1.323 1.323v12.171c0 .733.59 1.323 1.323 1.323h10.053a1.32 1.32 0 0 0 1.323-1.323V4.53l-3.175-3.175z" filter="url(#a)" opacity=".15" style="paint-order:stroke fill markers"/>
    <path fill="#e5ac9a" fill-rule="evenodd" d="M3.44 1.059a1.32 1.32 0 0 0-1.323 1.323v12.17c0 .733.59 1.323 1.323 1.323h10.053a1.32 1.32 0 0 0 1.323-1.322V4.233L11.642 1.06z" style="paint-order:stroke fill markers"/>
    <path d="M11.641 2.91v.155c0 .794.59 1.433 1.323 1.433h1.852v-.265h-1.852A1.32 1.32 0 0 1 11.64 2.91z" opacity=".1" style="paint-order:stroke fill markers"/>
    <g fill-opacity=".46">
        <g stroke-width="3.78">
            <path fill="#fff" fill-opacity=".35" fill-rule="evenodd" d="m55.999 16-12-12v7c0 2.77 2.23 5 5 5z" style="paint-order:stroke fill markers" transform="scale(.26458)"/>
            <path d="M7.945 1.058h1.058v14.817H7.945z" opacity=".25"/>
            <path d="M8.466 1.058h.537v14.817h-.537z" opacity=".25"/>
        </g>
        <path d="M39 40c-1.108 0-2 .892-2 2v12c0 1.108.892 2 2 2h12c1.108 0 2-.892 2-2V42c0-1.108-.892-2-2-2zm0 2h12v2H39zm0 4h9v3h-9zm10 0h2v3h-2zm-10 5h9v3h-9zm10 0h2v3h-2z" opacity=".5" style="paint-order:fill markers stroke" transform="scale(.26458)"/>
    </g>
</svg>
