<svg xmlns="http://www.w3.org/2000/svg" width="22" height="22">
    <defs>
        <style id="current-color-scheme" type="text/css">
            .ColorScheme-Highlight{color:#a0b6cb}
        </style>
    </defs>
    <path fill="currentColor" d="M10.5 4c-.277 0-.5.223-.5.5v4.875l-1.719-1.5c-.312-.273-.757-.22-1.03.094a.753.753 0 0 0 .062 1.062L9.563 11l-2.25 1.969a.753.753 0 0 0-.063 1.062c.274.313.719.367 1.031.094l1.72-1.5V17.5c0 .277.222.5.5.5.282 0 .437-.02.655-.188l3.532-3.156a.78.78 0 0 0 .218-.375.745.745 0 0 0 .032-.281.723.723 0 0 0-.032-.156.78.78 0 0 0-.218-.375l-2.813-2.47 2.813-2.468a.78.78 0 0 0 .218-.375.712.712 0 0 0 0-.437.78.78 0 0 0-.218-.375l-3.532-3.157C10.957 4.027 10.729 4 10.5 4zm.5 2.063 2.094 1.875L11 9.75zm0 6.187 2.094 1.813L11 15.938z" style="color:#fdfdfd;opacity:.7"/>
</svg>
