<svg xmlns="http://www.w3.org/2000/svg" width="22" height="22">
    <defs>
        <style id="current-color-scheme" type="text/css">
            .ColorScheme-Highlight{color:#a0b6cb}
        </style>
    </defs>
    <path fill="#ec9b97" d="M10.111 6.987v3.556l.222 1.777h1.334l.222-1.777V6.987zm0 6.222v1.778h1.778v-1.778z"/>
    <path fill="currentColor" d="M6.002 7a1 1 0 0 0-.854.475l-2.894 3.86a1 1 0 0 0-.02 1.308l2.938 3.918a1 1 0 1 0 1.63-1.155l.003-.002-2.551-3.402L6.804 8.6l-.003-.002A1 1 0 0 0 6.002 7zm11.996 0a1 1 0 0 0-.799 1.598l-.004.002 2.551 3.402-2.55 3.402.001.002a1 1 0 1 0 1.63 1.154l2.939-3.917a1 1 0 0 0-.02-1.307l-2.894-3.861A1 1 0 0 0 17.998 7z" style="color:#fdfdfd;opacity:.7" transform="translate(-1 -1.013)"/>
</svg>
