<svg xmlns="http://www.w3.org/2000/svg" width="22" height="22">
    <defs>
        <style id="current-color-scheme" type="text/css">
            .ColorScheme-Highlight{color:#a0b6cb}
        </style>
    </defs>
    <g fill="currentColor" style="color:#fdfdfd;opacity:.7">
        <path d="M8 9.987a1 1 0 1 0 0 2 1 1 0 0 0 0-2zm3 0a1 1 0 1 0 0 2 1 1 0 0 0 0-2zm3 0a1 1 0 1 0 0 2 1 1 0 0 0 0-2z"/>
        <path d="M5.002 5.987a1 1 0 0 0-.854.475l-2.894 3.86a1 1 0 0 0-.02 1.308l2.938 3.918a1 1 0 1 0 1.63-1.155l.003-.002-2.55-3.402 2.55-3.402-.004-.002a1 1 0 0 0-.799-1.598z" opacity=".35"/>
        <path d="M16.998 5.987a1 1 0 0 0-.799 1.598l-.004.002 2.551 3.402-2.55 3.402.001.002a1 1 0 1 0 1.63 1.154l2.94-3.917a1 1 0 0 0-.02-1.307l-2.895-3.861a1 1 0 0 0-.854-.475z"/>
    </g>
</svg>
