<svg xmlns="http://www.w3.org/2000/svg" width="22" height="22">
    <defs>
        <style id="current-color-scheme" type="text/css">
            .ColorScheme-Text{color:#fdfdfd;opacity:.7}
        </style>
    </defs>
    <path fill="currentColor" d="M8 6a2 2 0 0 1 2 2v1h2V8a2 2 0 1 1 2 2h-1v2h1a2 2 0 1 1-2 2v-1h-2v1a2 2 0 1 1-2-2h1v-2H8a2 2 0 0 1 0-4zm0 1a1 1 0 0 0 0 2h1V8a1 1 0 0 0-1-1zm6 0a1 1 0 0 0-1 1v1h1a1 1 0 0 0 0-2zm-4 3v2h2v-2zm-2 3a1 1 0 1 0 1 1v-1zm5 0v1a1 1 0 1 0 1-1z" class="ColorScheme-Text"/>
    <path fill="currentColor" d="M6 3C4.338 3 3 4.338 3 6v10c0 1.662 1.338 3 3 3h10c1.662 0 3-1.338 3-3V6c0-1.662-1.338-3-3-3zm0 1h10c1.108 0 2 .892 2 2v10c0 1.108-.892 2-2 2H6c-1.108 0-2-.892-2-2V6c0-1.108.892-2 2-2z" class="ColorScheme-Text"/>
</svg>
