<svg xmlns="http://www.w3.org/2000/svg" width="22" height="22">
    <defs>
        <style id="current-color-scheme" type="text/css">
            .ColorScheme-Highlight{color:#a0b6cb}
        </style>
    </defs>
    <g fill="currentColor" style="color:#fdfdfd;opacity:.7" transform="translate(-754 -26)">
        <rect width="1" height="5" x="764.5" y="29" overflow="visible" rx=".5" ry=".5"/>
        <rect width="1" height="5" x="-37.5" y="757" opacity=".578" overflow="visible" rx=".5" ry=".5" transform="rotate(-90)"/>
        <rect width="1" height="5" x="-765.5" y="-45" opacity=".335" overflow="visible" rx=".5" ry=".5" transform="scale(-1)"/>
        <rect width="1" height="5" x="36.5" y="-773" opacity=".19" overflow="visible" rx=".5" ry=".5" transform="rotate(90)"/>
        <rect width="1" height="5" x="643.51" y="406.54" opacity=".833" overflow="visible" rx=".5" ry=".5" transform="rotate(-30)"/>
        <rect width="1" height="5" x="349.96" y="673.01" opacity=".694" overflow="visible" rx=".5" ry=".5" transform="rotate(-60)"/>
        <rect width="1" height="5" x="-415.04" y="636.01" opacity=".482" overflow="visible" rx=".5" ry=".5" transform="rotate(240)"/>
        <rect width="1" height="5" x="-681.51" y="342.46" opacity=".402" overflow="visible" rx=".5" ry=".5" transform="rotate(210)"/>
        <rect width="1" height="5" x="-644.51" y="-422.54" opacity=".28" overflow="visible" rx=".5" ry=".5" transform="rotate(150)"/>
        <rect width="1" height="5" x="-350.96" y="-689.01" opacity=".23" overflow="visible" rx=".5" ry=".5" transform="rotate(120)"/>
        <rect width="1" height="5" x="414.04" y="-652.01" opacity=".16" overflow="visible" rx=".5" ry=".5" transform="rotate(60)"/>
        <rect width="1" height="5" x="680.51" y="-358.46" opacity=".13" overflow="visible" rx=".5" ry=".5" transform="rotate(30)"/>
    </g>
</svg>
