<svg xmlns="http://www.w3.org/2000/svg" width="22" height="22">
    <path fill="currentColor" d="M11 5a5.96 5.96 0 0 0-3.031.844l2.687 2.687.719-.719L9.75 6.188c.195-.05.39-.097.594-.125.052-.007.103-.025.156-.03.168-.018.327-.032.5-.032a5 5 0 0 1 5 5c0 .243-.028.486-.062.719-.02.136-.032.274-.063.406a4.737 4.737 0 0 1-.281.813c-.013.03-.018.063-.031.093-.041.092-.109.164-.157.25-.004.008.005.023 0 .031l.75.72A5.96 5.96 0 0 0 17 11a6 6 0 0 0-6-6zM5.844 7.969A5.96 5.96 0 0 0 5 11a6 6 0 0 0 6 6 5.96 5.96 0 0 0 3.031-.844l-.75-.75-1.937-1.906-.688.688 1.594 1.625c-.195.05-.39.097-.594.125-.052.007-.103.025-.156.03-.168.018-.327.032-.5.032s-.332-.014-.5-.031-.337-.03-.5-.063A5.017 5.017 0 0 1 6 11c0-.248.028-.48.063-.719.02-.136.031-.273.062-.406.067-.286.167-.548.281-.812.013-.031.018-.064.032-.094.04-.089.108-.165.156-.25v-.031z" style="color:#fdfdfd;opacity:.7"/>
</svg>
