<svg xmlns="http://www.w3.org/2000/svg" width="22" height="22">
    <path fill="#fdfdfd" fill-opacity=".7" d="M6.05 6.05a7 7 0 0 0 0 9.9 7 7 0 0 0 9.9 0 7 7 0 0 0 1.426-2.093 7 7 0 0 0 .013-.004 7 7 0 0 0 .052-.132 7 7 0 0 0 .094-.243 7 7 0 0 0 .159-.457 7 7 0 0 0 .053-.194 7 7 0 0 0 .096-.356 6 6 0 0 1-.007.004 6 6 0 0 1-.005.003 6 6 0 0 1-1.211.606 6 6 0 0 1-.002.001 6 6 0 0 1-6.325-1.378 6 6 0 0 1-1.308-6.49 6 6 0 0 1 .119-.273 6 6 0 0 1 .149-.298A6 6 0 0 1 9.39 4.4a6 6 0 0 1 .145-.239 6 6 0 0 1 .004-.007A7 7 0 0 0 6.05 6.05zm.707.707a6 6 0 0 1 .945-.765 7 7 0 0 0 1.884 6.422 7 7 0 0 0 6.41 1.89 6 6 0 0 1-.753.939 6 6 0 0 1-8.486 0 6 6 0 0 1 0-8.486z"/>
</svg>
