<svg xmlns="http://www.w3.org/2000/svg" width="16" height="16" version="1.0">
    <g fill="#050505" opacity=".7">
        <path d="M6 5c-1.108 0-2 .892-2 2v2c0 1.108.892 2 2 2h2c1.108 0 2-.892 2-2V7c0-1.108-.892-2-2-2zm0 1h2c.554 0 1 .446 1 1v2c0 .554-.446 1-1 1H6c-.554 0-1-.446-1-1V7c0-.554.446-1 1-1z" style="paint-order:stroke fill markers" transform="translate(0 1)"/>
        <path d="M8 3c-1.108 0-2 .892-2 2h1c0-.554.446-1 1-1h2c.554 0 1 .446 1 1v2c0 .554-.446 1-1 1v1c1.108 0 2-.892 2-2V5c0-1.108-.892-2-2-2z" opacity=".45" style="paint-order:stroke fill markers" transform="translate(0 1)"/>
    </g>
</svg>
