<svg xmlns="http://www.w3.org/2000/svg" width="16" height="16">
    <g fill="#fdfdfd" opacity=".7">
        <path d="M2 3C.892 3 0 3.892 0 5v6c0 1.108.892 2 2 2h9c1.108 0 2-.892 2-2V5c0-1.108-.892-2-2-2H2zm0 1h9c.554 0 1 .446 1 1v6c0 .554-.446 1-1 1H2c-.554 0-1-.446-1-1V5c0-.554.446-1 1-1z" style="paint-order:stroke fill markers"/>
        <rect width="2" height="6" x="2" y="5" fill="#f5cba3" class="warning" rx=".549" ry=".549"/>
        <path d="M14 6v4a2 2 0 0 0 2-2 2 2 0 0 0-2-2z"/>
    </g>
</svg>
