<svg xmlns="http://www.w3.org/2000/svg" width="16" height="16">
    <g fill="#fdfdfd" opacity=".7">
        <path d="M2 3C.892 3 0 3.892 0 5v6c0 1.108.892 2 2 2h9c1.108 0 2-.892 2-2V5c0-1.108-.892-2-2-2H2zm0 1h9c.554 0 1 .446 1 1v6c0 .554-.446 1-1 1H2c-.554 0-1-.446-1-1V5c0-.554.446-1 1-1z"/>
        <path fill="#f5cba3" d="M2.5 5c-.277 0-.5.223-.5.5v5c0 .277.223.5.5.5h1c.277 0 .5-.223.5-.5V10h-.5a1 1 0 0 1-.832-1.555L4 6.447V5.5c0-.277-.223-.5-.5-.5h-1z" class="warning"/>
        <path d="M14 6v4a2 2 0 0 0 2-2 2 2 0 0 0-2-2z"/>
    </g>
    <path fill="#fdfdfd" fill-opacity=".7" d="M6.834 4 3.5 9h3l-.75 3h.416L9.5 7h-3l.75-3z"/>
</svg>
