<svg xmlns="http://www.w3.org/2000/svg" width="16" height="16">
    <path fill="#fdfdfd" fill-opacity=".7" d="M2 1c-.554 0-1 .446-1 1v1c0 .554.446 1 1 1h1c.554 0 1-.446 1-1V2c0-.554-.446-1-1-1H2zm0 1h1v1H2V2zM7 1c-.554 0-1 .446-1 1v1c0 .554.446 1 1 1h1c.554 0 1-.446 1-1V2c0-.554-.446-1-1-1zm0 1h1v1H7zM12 1c-.554 0-1 .446-1 1v1c0 .554.446 1 1 1h1c.554 0 1-.446 1-1V2c0-.554-.446-1-1-1zm0 1h1v1h-1zM2 6c-.554 0-1 .446-1 1v1c0 .554.446 1 1 1h1c.554 0 1-.446 1-1V7c0-.554-.446-1-1-1zm0 1h1v1H2zM7 6c-.554 0-1 .446-1 1v1c0 .554.446 1 1 1h1c.554 0 1-.446 1-1V7c0-.554-.446-1-1-1zm0 1h1v1H7zM12 6c-.554 0-1 .446-1 1v1c0 .554.446 1 1 1h1c.554 0 1-.446 1-1V7c0-.554-.446-1-1-1zm0 1h1v1h-1zM2 11c-.554 0-1 .446-1 1v1c0 .554.446 1 1 1h1c.554 0 1-.446 1-1v-1c0-.554-.446-1-1-1zm0 1h1v1H2zM7 11c-.554 0-1 .446-1 1v1c0 .554.446 1 1 1h1c.554 0 1-.446 1-1v-1c0-.554-.446-1-1-1zm0 1h1v1H7zM12 11c-.554 0-1 .446-1 1v1c0 .554.446 1 1 1h1c.554 0 1-.446 1-1v-1c0-.554-.446-1-1-1zm0 1h1v1h-1z"/>
</svg>
