<svg xmlns="http://www.w3.org/2000/svg" width="16" height="16">
    <path fill="#fdfdfd" fill-opacity=".7" d="m6.232 6.53-.707.706 1.768 1.768-1.768 1.768.707.707L8 9.71l1.768 1.768.707-.707-1.768-1.768 1.768-1.768-.707-.707L8 8.297 6.232 6.529z"/>
    <path fill="#fdfdfd" fill-opacity=".7" d="M8 0a2 2 0 0 0-2 2H3v.006c-1.113.032-2 .933-2 2.055v9.878C1 15.081 1.919 16 3.06 16h9.88c1.141 0 2.06-.919 2.06-2.06V4.06C15 2.92 14.08 2 12.94 2H10a2.09 2.09 0 0 0-.031-.406A2.008 2.008 0 0 0 8 0zm-.012 1A1 1 0 0 1 8 1c.414 0 .754.266.906.625A.94.94 0 0 1 9 2c0 .888-1.072 1.335-1.703.71-.632-.623-.197-1.7.691-1.71zM3 3h3v1S5 4 5 5h6c0-.75-.563-.953-.844-1H10V3h3c.554 0 1 .446 1 1v10c0 .554-.446 1-1 1H3c-.554 0-1-.446-1-1V4c0-.554.446-1 1-1z"/>
</svg>
