<svg xmlns="http://www.w3.org/2000/svg" width="16" height="16">
    <path fill="#fdfdfd" d="M8 0C3.576 0 0 3.576 0 8s3.576 8 8 8 8-3.576 8-8-3.576-8-8-8zm0 1c3.87 0 7 3.13 7 7s-3.13 7-7 7-7-3.13-7-7 3.13-7 7-7z" color="#bebebe" opacity=".7" overflow="visible" style="text-indent:0;text-transform:none"/>
    <path fill="#fdfdfd" fill-opacity=".7" fill-rule="evenodd" d="M8 3a3 3 0 0 0-3 3h1a2 2 0 0 1 2-2 2 2 0 0 1 2 2 2 2 0 0 1-2 2h-.5v2h1V8.953A3 3 0 0 0 11 6a3 3 0 0 0-3-3zm0 8a1 1 0 0 0-1 1 1 1 0 0 0 1 1 1 1 0 0 0 1-1 1 1 0 0 0-1-1z" style="paint-order:stroke fill markers"/>
</svg>
