<svg xmlns="http://www.w3.org/2000/svg" width="16" height="16" version="1.0">
    <path fill="#fdfdfd" fill-opacity=".7" d="M8 1a1 1 0 0 0-.994 1.1A4.988 4.988 0 0 0 3 7v4.5l-2 2v.5h7.268a4.5 4.5 0 0 1-.233-1H3l1-1.078V7a4 4 0 0 1 4-4 4 4 0 0 1 4 4v1.035A4.5 4.5 0 0 1 12.5 8a4.5 4.5 0 0 1 .5.03V7a4.987 4.987 0 0 0-4.006-4.9A1 1 0 0 0 8 1zM6.27 15A2 2 0 0 0 8 16a2 2 0 0 0 1.217-.436A4.5 4.5 0 0 1 8.764 15H6.27z"/>
    <path fill="#ec9b97" d="M12.5 9a3.5 3.5 0 1 0 0 7 3.5 3.5 0 0 0 0-7zM10 11.969h5V13h-5z" class="error"/>
</svg>
