<svg xmlns="http://www.w3.org/2000/svg" width="16" height="16">
    <g fill="#fdfdfd" opacity=".7">
        <path d="M1.5 0c-.277 0-.5.223-.5.5v14c0 .277.223.5.5.5h1c.277 0 .5-.223.5-.5V.5c0-.277-.223-.5-.5-.5h-1zm3 3c-.277 0-.5.223-.5.5v4.25a3.973 3.973 0 0 1 1.74-3.045 4 4 0 0 1 .082-.055A3.973 3.973 0 0 1 6 4.531v-1.03c0-.278-.223-.5-.5-.5h-1zM4 7.813V8a4 4 0 0 1 .004-.031C4.003 7.917 4 7.865 4 7.812zM4 8v6.5c0 .277.223.5.5.5h1c.277 0 .5-.223.5-.5v-3.055a4 4 0 0 1-1.352-1.27 3.213 3.213 0 0 1-.18-.269c-.322-.55-.443-1.164-.464-1.857A4 4 0 0 1 4 8zm7.82 1.12A4 4 0 0 1 10 11.444V14.5c0 .277.223.5.5.5h1c.277 0 .5-.223.5-.5v-5c0-.154-.07-.29-.18-.38zM13.5 12c-.277 0-.5.223-.5.5v2c0 .277.223.5.5.5h1c.277 0 .5-.223.5-.5v-2c0-.277-.223-.5-.5-.5h-1z" opacity=".35"/>
        <path d="M7.818 5c1.642-.092 3.095 1.17 3.187 2.813 0 1.4-.378 1.921-1.594 2.843-.19.144-.325.25-.375.313-.05.062-.03.033-.03.031.006.528-.473 1-1 1-.53 0-1.008-.472-1-1 0-.502.223-.943.468-1.25a3.82 3.82 0 0 1 .719-.688c.204-.16.46-.384.687-.656.094-.112.13-.307.125-.437v-.032A.988.988 0 0 0 7.943 7c-.564.032-.97.437-.938 1h-2c-.092-1.642 1.17-2.908 2.813-3zm.187 8a1 1 0 1 1 0 2 1 1 0 0 1 0-2z"/>
    </g>
</svg>
