<svg xmlns="http://www.w3.org/2000/svg" width="16" height="16">
    <path fill="#fdfdfd" fill-opacity=".7" d="M2.281 6C1.571 6 1 6.571 1 7.281v7.438c0 .71.571 1.28 1.281 1.28H6.72c.71 0 1.28-.57 1.28-1.28V7.28C8 6.571 7.43 6 6.72 6H2.28zm.13 1H3c0 .554.446 1 1 1h1c.554 0 1-.446 1-1h.59c.227 0 .41.182.41.41v7.11c0 .266-.214.48-.48.48H2.48a.479.479 0 0 1-.48-.48V7.41c0-.228.182-.41.41-.41z"/>
    <path fill="#fdfdfd" fill-opacity=".7" d="M3 2c-1.108 0-2 .892-2 2v1h1V4c0-.554.446-1 1-1h10c.554 0 1 .446 1 1v7c0 .554-.446 1-1 1H9v1h4c1.108 0 2-.892 2-2V4c0-1.108-.892-2-2-2zM9 14h4v1H9z"/>
</svg>
