<svg xmlns="http://www.w3.org/2000/svg" width="16" height="16">
    <path fill="#fdfdfd" fill-opacity=".7" d="M8 1C6.164 1 4.633 2.202 4.063 3.844 2.339 4.062 1 5.518 1 7.3a3.493 3.493 0 0 0 2.636 3.382 4.375 4.375 0 0 1 4.081-4.095 4.375 4.375 0 0 1 4.649 4.084 4.375 4.375 0 0 1 .002.113 2.794 2.794 0 0 0-.168-5.582C12.2 2.882 10.32 1 8 1z"/>
    <g transform="translate(-266.06 211.76) scale(.58333)">
        <circle cx="313.1" cy="490.98" r="6" fill="#ec9b97" class="error" transform="rotate(-93.69)"/>
        <path fill="#000" d="M469.81-347.59a.541.541 0 0 0-.543.543v3.822c0 .302.242.543.543.543h.004a.541.541 0 0 0 .543-.543v-3.822a.541.541 0 0 0-.543-.543zm.002 6a.543.543 0 0 0-.545.545c0 .302.243.545.545.545a.543.543 0 0 0 .545-.545.543.543 0 0 0-.545-.545z" style="fill:#111;fill-opacity:1"/>
    </g>
</svg>
