<svg xmlns="http://www.w3.org/2000/svg" width="16" height="16.001">
    <path fill="#fdfdfd" fill-opacity=".7" d="M14.072 11.562a.635.635 0 0 0-.245-.863l-.87-.503.253-.067a.635.635 0 1 0-.329-1.225l-1.48.394-2.12-1.223 2.117-1.224 1.48.397a.635.635 0 1 0 .33-1.224l-.258-.068.876-.505a.63.63 0 0 0 .259-.272c.284-.568-.35-1.155-.894-.83l-.872.506.067-.254c.27-.845-1.036-1.196-1.225-.33l-.397 1.48-2.12 1.224v-2.51l1.084-1.083a.632.632 0 0 0 .115-.152c.358-.647-.497-1.28-1.012-.746l-.188.185V1.662c.039-.882-1.305-.882-1.268 0V2.67l-.185-.188c-.6-.599-1.498.3-.899.9l1.085 1.08v2.512l-2.342-1.35-.397-1.481c-.208-.835-1.463-.499-1.227.329l.07.254-.648-.375c-.734-.423-1.37.677-.635 1.1l.647.374-.254.069c-.835.208-.499 1.462.33 1.226l1.48-.397 2.342 1.352-2.344 1.352L2.92 9.03c-.838-.254-1.18 1.03-.327 1.226l.254.068-.65.376c-.784.408-.113 1.572.633 1.098l.653-.375-.07.255c-.207.722.79 1.141 1.161.487a.631.631 0 0 0 .065-.157l.397-1.483 2.343-1.353v2.64l-1.086 1.085c-.64.596.297 1.536.897.897l.189-.186v.749c-.01.676.904.895 1.202.29a.635.635 0 0 0 .065-.29v-.748l.185.185a.636.636 0 1 0 .899-.899l-1.084-1.082v-2.64l2.12 1.224.397 1.48c.21.837 1.464.5 1.227-.327l-.069-.255.872.502a.635.635 0 0 0 .879-.237z"/>
</svg>
