<svg xmlns="http://www.w3.org/2000/svg" width="22" height="22">
    <defs>
        <style id="current-color-scheme" type="text/css">
            .ColorScheme-Highlight{color:#a0b6cb}
        </style>
    </defs>
    <g fill="currentColor" style="color:#fdfdfd;opacity:.7">
        <path d="M6.938 3.007c-.36.047-.938.25-.938 1v1.998s-1 0-1 1v2.999H4s-1 0-1 1V16.5c0 .5.5.5.5.5H4c0 1 1 1 1 1S5 19 6 19h10c1 0 1-1 1-1s1 0 1-1h.5c.5 0 .5-.418.5-.499v-5.498c0-1-1-1-1-1h-1V7.006c0-1-1-1-1-1V4.006c0-1-1-1-1.187-1H7.188c-.047 0-.13-.014-.25 0zm.062 1h8v5.997H7zm-2.437 6.996a.25.25 0 0 1 .093 0h12.688s.656 0 .656.563v4.435H4v-4.435c0-.422.378-.536.563-.563zM6 17.001h10v1H6z"/>
        <path d="M6 11.003v3.999h10v-3.999z" opacity=".5"/>
        <path d="m10 5 2.03.01L12 6h1l-1.96 3L9 6 9.993 6z"/>
    </g>
</svg>
