<svg xmlns="http://www.w3.org/2000/svg" width="24" height="24">
    <style id="current-color-scheme" type="text/css">
        .ColorScheme-Text{color:#050505;opacity:.7}
    </style>
    <path fill="currentColor" d="M17 15v2h-2v1h2v2h1v-2h2v-1h-2v-2z" class="ColorScheme-Text"/>
    <path fill="currentColor" d="M7 4C5.338 4 4 5.338 4 7v10c0 1.662 1.338 3 3 3h8v-1H7c-1.108 0-2-.892-2-2V7c0-1.108.892-2 2-2h5v1h1V5h4c1.108 0 2 .892 2 2v8h1V7c0-1.662-1.338-3-3-3h-5zm5 2h-1v1h1zm0 1v1h1V7zm0 1h-1v1h1zm0 1v1h1V9zm0 1h-1v2a1 1 0 0 0 2 0v-1h-1z" class="ColorScheme-Text"/>
</svg>
