<svg xmlns="http://www.w3.org/2000/svg" viewBox="0 0 24 24">
    <g fill="currentColor" style="color:#050505;opacity:.7">
        <path d="m10 7-3 3H5c-.554 0-1 .446-1 1v2c0 .554.446 1 1 1h2l3 3V7z"/>
        <path d="M17.139 5.427c-.545-.427-1.139.225-.684.733A8 8 0 0 1 19 12a8 8 0 0 1-2.554 5.851c-.446.472.18 1.149.677.729A9 9 0 0 0 20 12a9 9 0 0 0-2.861-6.573z" opacity=".35"/>
        <path d="M14.775 6.888c-.587-.535-1.199.225-.684.733A6 6 0 0 1 16 12a6 6 0 0 1-1.916 4.388c-.469.447.173 1.147.68.729A7 7 0 0 0 17 12a7 7 0 0 0-2.225-5.112z" opacity=".35"/>
        <path d="M12.41 8.35c-.521-.494-1.155.22-.684.73A4 4 0 0 1 13 12a4 4 0 0 1-1.277 2.925c-.473.43.14 1.153.68.73A5 5 0 0 0 14 12a5 5 0 0 0-1.59-3.65z"/>
    </g>
</svg>
