<svg xmlns="http://www.w3.org/2000/svg" width="24" height="24">
    <defs>
        <style id="current-color-scheme" type="text/css">
            .ColorScheme-Text{color:#050505;opacity:.7}
        </style>
    </defs>
    <path fill="currentColor" d="M4 12v1h16v-1H4zm1 2v2h1v-2H5zm13 0v2h1v-2h-1zM5 17a2.99 2.99 0 0 0 2 2.826v-1.094c-.598-.345-1-.99-1-1.732H5zm13 0c0 .743-.402 1.387-1 1.732v1.094A2.99 2.99 0 0 0 19 17h-1zM8 19v1h2v-1H8zm3 0v1h2v-1h-2zm3 0v1h2v-1h-2z" class="ColorScheme-Text"/>
    <path fill="currentColor" d="M8 4C6.338 4 5 5.338 5 7v5h1V7c0-1.108.892-2 2-2h6v2c0 1.108.892 2 2 2h2v4h1V8l-4-4z" class="ColorScheme-Text"/>
</svg>
