<svg xmlns="http://www.w3.org/2000/svg" viewBox="0 0 24 24">
    <defs>
        <style id="current-color-scheme" type="text/css">
            .ColorScheme-Text{color:#050505;opacity:.7}
        </style>
    </defs>
    <path fill="currentColor" d="M5 4v2.002h2v-2h2v2h2v-2h2v2h2v-2h2v2h2V4H5m2 3.001v2h2V7H7m4 0v2h2V7h-2m4 0v2h2V7h-2m-10 3V12h14v-2h-2v2h1H6h1v-2H5m4 0v2h2v-2H9m4 0v2h2v-2h-2" class="ColorScheme-Text"/>
    <path fill="currentColor" d="M8 20c-1.662 0-3-1.338-3-3v-5h1v5c0 1.108.892 2 2 2h6v-2c0-1.108.892-2 2-2h2v-4h1v5l-4 4z" class="ColorScheme-Text"/>
</svg>
