<svg xmlns="http://www.w3.org/2000/svg" viewBox="0 0 24 24">
    <defs>
        <style id="current-color-scheme" type="text/css">
            .ColorScheme-Text{color:#050505;opacity:.7}
        </style>
    </defs>
    <path fill="currentColor" d="M5 12v2h2v-2H6zm4 0v2h2v-2zm7.5 2c-.831 0-1.5.669-1.5 1.5V17h-1v3h5v-3h-1v-1.5c0-.831-.669-1.5-1.5-1.5M7 15v2h2v-2zm9.5 0c.277 0 .5.223.5.5V17h-1v-1.5c0-.277.223-.5.5-.5M5 18v2h2v-2zm4 0v2h2v-2z" class="ColorScheme-Text"/>
    <path fill="currentColor" d="M8 4C6.338 4 5 5.338 5 7v5h1V7c0-1.108.892-2 2-2h6v2c0 1.108.892 2 2 2h2v4h1V8l-4-4z" class="ColorScheme-Text"/>
</svg>
