<svg xmlns="http://www.w3.org/2000/svg" viewBox="0 0 24 24">
    <defs>
        <style id="current-color-scheme" type="text/css">
            .ColorScheme-Text{color:#050505;opacity:.7}
        </style>
    </defs>
    <path fill="currentColor" d="M5 16v1h5.293L8 19.293l.707.707 3.5-3.5-3.5-3.5-.707.707L10.293 16H6z" class="ColorScheme-Text"/>
    <path fill="currentColor" d="M8 4C6.338 4 5 5.338 5 7v8h1V7c0-1.108.892-2 2-2h6v2c0 1.108.892 2 2 2h2v8c0 1.108-.892 2-2 2h-4v1h4c1.662 0 3-1.338 3-3V8l-4-4z" class="ColorScheme-Text"/>
</svg>
