<svg xmlns="http://www.w3.org/2000/svg" width="24" height="24">
    <defs>
        <style id="current-color-scheme" type="text/css">
            .ColorScheme-Highlight{color:#a0b6cb}
        </style>
    </defs>
    <path fill="#050505" fill-opacity=".7" d="M5.964 5c-1.108 0-2 .892-2 2v9c0 1.108.892 2 2 2h5.946l.888-2.662 2.752-2.752L13.964 11l-3.478 4-2.522-2-3 3V7c0-.554.446-1 1-1h12c.554 0 1 .446 1 1v2.86l1 1V7c0-1.108-.892-2-2-2zm2.5 3a1.5 1.5 0 1 0 0 3 1.5 1.5 0 0 0 0-3z" style="color:#050505;opacity:.7"/>
    <path fill="#050505" fill-opacity=".7" stroke-width="2" d="m12.964 18 2.121-.707 3.536-3.536-1.414-1.414-3.536 3.536zm6.364-4.95.707-.707-1.414-1.414-.707.707z" color="#000" style="-inkscape-stroke:none"/>
</svg>
