<svg xmlns="http://www.w3.org/2000/svg" viewBox="0 0 24 24">
    <defs>
        <style id="current-color-scheme" type="text/css">
            .ColorScheme-Text{color:#050505;opacity:.7}
        </style>
    </defs>
    <path fill="currentColor" d="M6 4c-1.108 0-2 .892-2 2v2h1V6c0-.554.446-1 1-1h2V4zm10 0v1h2c.554 0 1 .446 1 1v2h1V6c0-1.108-.892-2-2-2zM4 16v2c0 1.108.892 2 2 2h2v-1H6c-.554 0-1-.446-1-1v-2zm15 0v2c0 .554-.446 1-1 1h-2v1h2c1.108 0 2-.892 2-2v-2z" class="ColorScheme-Text"/>
    <path fill="currentColor" d="M7 6c-.554 0-1 .446-1 1v3c0 .554.446 1 1 1h3c.554 0 1-.446 1-1V7c0-.554-.446-1-1-1zm7 0c-.554 0-1 .446-1 1v3c0 .554.446 1 1 1h3c.554 0 1-.446 1-1V7c0-.554-.446-1-1-1zM7 7h3v3H7zm7 0h3v3h-3zm-7 6c-.554 0-1 .446-1 1v3c0 .554.446 1 1 1h3c.554 0 1-.446 1-1v-3c0-.554-.446-1-1-1zm7 0c-.554 0-1 .446-1 1v3c0 .554.446 1 1 1h3c.554 0 1-.446 1-1v-3c0-.554-.446-1-1-1zm-7 1h3v3H7zm7 0h3v3h-3z" class="ColorScheme-Text"/>
</svg>
