<svg xmlns="http://www.w3.org/2000/svg" width="24" height="24">
    <defs>
        <style id="current-color-scheme" type="text/css">
            .ColorScheme-Text{color:#050505;opacity:.7}
        </style>
    </defs>
    <path fill="currentColor" d="M15.988 13v6h1v-2l2-1v2l4-2-4-1v-1l-2-1z" class="ColorScheme-Text"/>
    <path fill="currentColor" d="M5.988 5c-1.662 0-3 1.338-3 3v8c0 1.662 1.338 3 3 3h9v-1h-9A1.99 1.99 0 0 1 4 16.113l4.598-3.498.72.55c1.466 1.114 3.877 1.114 5.342 0l.719-.548.812-.617 3.797-2.889V13h1V8c0-1.662-1.338-3-3-3zm0 1h12a1.99 1.99 0 0 1 1.989 1.887l-6.13 4.66c-1.03.783-2.688.783-3.718 0L4 7.887A1.99 1.99 0 0 1 5.988 6zm-2 3.11L7.79 12l-3.8 2.889z" class="ColorScheme-Text"/>
</svg>
