<svg xmlns="http://www.w3.org/2000/svg" width="24" height="24">
    <path fill="currentColor" d="M17.5 12a3.5 3.5 0 0 0-3.5 3.5 3.5 3.5 0 0 0 3.5 3.5 3.5 3.5 0 0 0 3.5-3.5 3.5 3.5 0 0 0-3.5-3.5zm1.99 1.379.707.707-3.535 3.535-2.121-2.121.707-.707 1.414 1.414 2.828-2.828z" style="color:#add49f"/>
    <path fill="currentColor" d="M6 5C4.338 5 3 6.338 3 8v8c0 1.662 1.338 3 3 3h7v-1H6a1.99 1.99 0 0 1-1.988-1.887l4.597-3.498.721.55c.988.75 2.402.983 3.67.722v-.903c-.952.3-2.083.153-2.86-.437l-6.128-4.66A1.99 1.99 0 0 1 6 6h12a1.99 1.99 0 0 1 1.988 1.887L15.895 11h1.623L20 9.111V11h1V8c0-1.662-1.338-3-3-3H6zM4 9.11 7.8 12 4 14.889z" style="color:#050505;opacity:.7"/>
</svg>
