<svg xmlns="http://www.w3.org/2000/svg" width="24" height="24">
    <path fill="currentColor" d="M6 4a2 2 0 0 0-2 2 2 2 0 0 0 2 2 2 2 0 0 0 2-2 2 2 0 0 0-2-2zm3.5 0a.499.499 0 1 0 0 1h11a.499.499 0 1 0 0-1zM6 5a1 1 0 0 1 1 1 1 1 0 0 1-1 1 1 1 0 0 1-1-1 1 1 0 0 1 1-1zm3.5 2a.499.499 0 1 0 0 1h6a.499.499 0 1 0 0-1zM6 10a2 2 0 0 0-2 2 2 2 0 0 0 2 2 2 2 0 0 0 2-2 2 2 0 0 0-2-2zm3.5 0a.499.499 0 1 0 0 1h11a.499.499 0 1 0 0-1zM6 11a1 1 0 0 1 1 1 1 1 0 0 1-1 1 1 1 0 0 1-1-1 1 1 0 0 1 1-1zm3.5 2a.499.499 0 1 0 0 1h3a.499.499 0 1 0 0-1zm10.793.613-4.592 4.592-1.146-1.146-.707.707 1.845 1.847.006-.007.008.007L21 14.32l-.707-.707zM6 16a2 2 0 0 0-2 2 2 2 0 0 0 2 2 2 2 0 0 0 2-2 2 2 0 0 0-2-2zm0 1a1 1 0 0 1 1 1 1 1 0 0 1-1 1 1 1 0 0 1-1-1 1 1 0 0 1 1-1z" style="color:#050505;opacity:.7"/>
</svg>
