<svg xmlns="http://www.w3.org/2000/svg" width="24" height="24">
    <path fill="currentColor" d="M17.5 12.009a3.5 3.5 0 0 0-3.5 3.5 3.5 3.5 0 0 0 3.5 3.5 3.5 3.5 0 0 0 3.5-3.5 3.5 3.5 0 0 0-3.5-3.5zm-.5.982h1v3.018h-1zm0 4.018h1v1h-1z" style="color:#d98c8c"/>
    <path fill="currentColor" d="M6 4.991c-1.662 0-3 1.338-3 3v8c0 1.662 1.338 3 3 3h7v-1H6a1.99 1.99 0 0 1-1.988-1.887l4.597-3.498.721.55c.988.75 2.402.983 3.67.722v-.903c-.952.3-2.083.153-2.86-.437l-6.128-4.66A1.99 1.99 0 0 1 6 5.99h12a1.99 1.99 0 0 1 1.988 1.887l-4.093 3.113h1.623L20 9.102v1.889h1v-3c0-1.662-1.338-3-3-3H6zm-2 4.11 3.8 2.89L4 14.88z" style="color:#050505;opacity:.7"/>
</svg>
