<svg xmlns="http://www.w3.org/2000/svg" width="24" height="24">
    <path d="M12.553 5.008 11 11h.98l1.538-5.734-.965-.258zm-5.018.457L4.707 8.293 4 9l3.535 3.535.707-.707L5.414 9l2.828-2.828-.707-.707zm8.93 0-.707.707L18.586 9 18 9.586V11l1.293-1.293L20 9l-.707-.707-2.828-2.828z" style="fill:#050505;fill-opacity:.7;fill-rule:evenodd;stroke-width:.912871;stroke-linecap:square;stop-color:#000"/>
    <path d="M15 11v1h-3v1h8v-1h-3v-1zm-2 3v5c0 .554.446 1 1 1h4c.554 0 1-.446 1-1v-5h-5zm1 1h4v4h-4z" style="color:#000;fill:#050505;fill-opacity:.7;fill-rule:evenodd;stroke-width:2;stroke-linecap:square;-inkscape-stroke:none"/>
</svg>
