<svg xmlns="http://www.w3.org/2000/svg" width="24" height="24">
    <path fill="#050505" fill-opacity=".7" fill-rule="evenodd" stroke="#050505" stroke-linecap="round" stroke-opacity=".7" stroke-width=".685" d="M12 4.343A7.657 7.657 0 0 0 4.343 12 7.657 7.657 0 0 0 12 19.658 7.657 7.657 0 0 0 19.658 12 7.657 7.657 0 0 0 12 4.343zm2.637 4.738c.129 0 .237.046.328.136l.658.658c.09.09.137.2.136.328 0 .13-.046.24-.136.33l-3.506 3.506-.658.66a.45.45 0 0 1-.33.135.445.445 0 0 1-.328-.135l-2.412-2.412a.451.451 0 0 1-.137-.33c0-.129.047-.24.137-.33l.658-.658a.45.45 0 0 1 .33-.135c.13 0 .238.045.328.135l1.424 1.43 3.177-3.182a.45.45 0 0 1 .33-.136z"/>
</svg>
