<svg xmlns="http://www.w3.org/2000/svg" width="24" height="24">
    <defs>
        <style id="current-color-scheme" type="text/css">
            .ColorScheme-Text{color:#050505;opacity:.7}
        </style>
    </defs>
    <g fill="#050505" fill-opacity=".7" fill-rule="evenodd">
        <path d="M8 9c-1.662 0-3 1.338-3 3v4c0 1.662 1.338 3 3 3s3-1.338 3-3v-4c0-1.662-1.338-3-3-3zm-1.5 3c.277 0 .5.223.5.5v3a.499.499 0 1 1-1 0v-3c0-.277.223-.5.5-.5zm3 0c.277 0 .5.223.5.5v3a.499.499 0 1 1-1 0v-3c0-.277.223-.5.5-.5z" style="paint-order:normal" transform="translate(4 -4)"/>
        <path d="M3.5 14c-.277 0-.5.223-.5.5V16c0 2.6 1.967 4.725 4.5 4.975V22h-2a.499.499 0 1 0 0 1h5a.499.499 0 1 0 0-1h-2v-1.025A4.988 4.988 0 0 0 13 16v-1.5a.499.499 0 1 0-1 0V16c0 2.216-1.784 4-4 4s-4-1.784-4-4v-1.5c0-.277-.223-.5-.5-.5z" style="paint-order:normal" transform="translate(4 -4)"/>
    </g>
</svg>
