<svg xmlns="http://www.w3.org/2000/svg" width="24" height="24">
    <path d="m6.352 4.736-.94.942L18.955 19.22l.94-.942-6.627-6.627 2.42-2.12a.78.78 0 0 0 .218-.376.71.71 0 0 0 0-.437.78.78 0 0 0-.219-.375l-3.53-3.156c-.2-.16-.428-.188-.657-.188-.277 0-.5.223-.5.5v3.885ZM12 7.063l2.094 1.875-1.899 1.642-.195-.195Zm-1.516 5.005-2.171 1.9a.753.753 0 0 0-.063 1.063c.273.313.718.367 1.031.094l1.721-1.5V18.5c0 .277.222.5.5.5.282 0 .436-.02.654-.187l2.678-2.395-1.064-1.064L12 16.938v-3.354z" style="color:#bebebe;overflow:visible;fill:#050505;opacity:.7;marker:none"/>
</svg>
