<svg xmlns="http://www.w3.org/2000/svg" width="24" height="24">
    <g fill="#050505" color="#050505" opacity=".7">
        <path d="M17.5 5c-.277 0-.5.223-.5.5v14c0 .277.223.5.5.5h1c.277 0 .5-.223.5-.5v-14c0-.277-.223-.5-.5-.5zm-3 3c-.277 0-.5.223-.5.5v11c0 .277.223.5.5.5h1c.277 0 .5-.223.5-.5v-11c0-.277-.223-.5-.5-.5zm-3 3c-.277 0-.5.223-.5.5v8c0 .277.223.5.5.5h1c.277 0 .5-.223.5-.5v-8c0-.277-.223-.5-.5-.5zm-3 3c-.277 0-.5.223-.5.5v5c0 .277.223.5.5.5h1c.277 0 .5-.223.5-.5v-5c0-.277-.223-.5-.5-.5z" opacity=".35" overflow="visible"/>
        <path d="M5.5 17h1a.5.5 0 0 1 .5.5v2c0 .278-.223.5-.5.5h-1a.499.499 0 0 1-.5-.5v-2a.5.5 0 0 1 .5-.5z" overflow="visible"/>
    </g>
</svg>
