<svg xmlns="http://www.w3.org/2000/svg" width="24" height="24">
    <defs>
        <style id="current-color-scheme" type="text/css">
            .ColorScheme-Text{color:#050505;opacity:.7}.ColorScheme-Highlight{color:#a0b6cb}
        </style>
    </defs>
    <g fill="#050505" fill-opacity=".7" stroke-linecap="round" stroke-linejoin="round">
        <path stroke-width="1.414" d="M5 7h12v1H5z" style="paint-order:stroke markers fill" transform="translate(1 1)"/>
        <path stroke-width="1.155" d="M7 12h8v1H7z" style="paint-order:stroke markers fill" transform="translate(1 1)"/>
        <path stroke-width=".913" d="M7 14h5v1H7z" style="paint-order:stroke markers fill" transform="translate(1 1)"/>
        <path stroke-width="1.155" d="M7 10h8v1H7z" style="paint-order:stroke markers fill" transform="translate(1 1)"/>
        <path d="M6 3c-1.108 0-2 .892-2 2v12c0 1.108.892 2 2 2h10c1.108 0 2-.892 2-2V5c0-1.108-.892-2-2-2zm0 1h10c.554 0 1 .446 1 1v12c0 .554-.446 1-1 1H6c-.554 0-1-.446-1-1V5c0-.554.446-1 1-1z" style="paint-order:stroke markers fill" transform="translate(1 1)"/>
    </g>
</svg>
