<svg xmlns="http://www.w3.org/2000/svg" width="24" height="24">
    <defs>
        <style id="current-color-scheme" type="text/css">
            .ColorScheme-Highlight{color:#a0b6cb}
        </style>
    </defs>
    <path d="M5.5 0A1.5 1.5 0 0 0 4 1.5 1.5 1.5 0 0 0 5.5 3H7V1.5A1.5 1.5 0 0 0 5.5 0Zm4 0A1.5 1.5 0 0 0 8 1.5v4A1.5 1.5 0 0 0 9.5 7 1.5 1.5 0 0 0 11 5.5v-4A1.5 1.5 0 0 0 9.5 0Zm-8 4A1.5 1.5 0 0 0 0 5.5 1.5 1.5 0 0 0 1.5 7h4A1.5 1.5 0 0 0 7 5.5 1.5 1.5 0 0 0 5.5 4Zm12 0A1.5 1.5 0 0 0 12 5.5V7h1.5A1.5 1.5 0 0 0 15 5.5 1.5 1.5 0 0 0 13.5 4Zm-12 4A1.5 1.5 0 0 0 0 9.5 1.5 1.5 0 0 0 1.5 11 1.5 1.5 0 0 0 3 9.5V8Zm4 0A1.5 1.5 0 0 0 4 9.5v4A1.5 1.5 0 0 0 5.5 15 1.5 1.5 0 0 0 7 13.5v-4A1.5 1.5 0 0 0 5.5 8Zm4 0A1.5 1.5 0 0 0 8 9.5 1.5 1.5 0 0 0 9.5 11h4A1.5 1.5 0 0 0 15 9.5 1.5 1.5 0 0 0 13.5 8ZM8 12v1.5A1.5 1.5 0 0 0 9.5 15a1.5 1.5 0 0 0 1.5-1.5A1.5 1.5 0 0 0 9.5 12Z" style="fill:currentColor;color:#050505;opacity:.7" transform="translate(4 5)"/>
</svg>
