<svg xmlns="http://www.w3.org/2000/svg" xmlns:xlink="http://www.w3.org/1999/xlink" viewBox="0 0 24 24">
    <defs>
        <linearGradient xlink:href="#a" id="b" x1="399.994" x2="399.994" y1="545.139" y2="518.139" gradientTransform="translate(-159.674 -213.414) scale(.42857)" gradientUnits="userSpaceOnUse"/>
        <linearGradient id="a">
            <stop offset="0" style="stop-color:#a8decc;stop-opacity:1"/>
            <stop offset="1" style="stop-color:#a8decc;stop-opacity:1"/>
        </linearGradient>
    </defs>
    <path d="M10.836 2.047A3.23 3.23 0 0 0 8.279 7.24a4.878 4.878 0 0 1 3.694-1.71c.723 0 1.408.156 2.027.438a3.225 3.225 0 0 0-3.164-3.922zM6.623 3.548v.01c-.93 0-1.677.76-1.674 1.69.001.3.08.585.219.828a3.863 3.863 0 0 1 1.898-.506h.196a3.575 3.575 0 0 1 .293-1.742 1.65 1.65 0 0 0-.932-.275zm7.969 1.14c-.069 0-.136 0-.203.022.03.184.052.372.052.565.001.3-.037.589-.105.867a4.92 4.92 0 0 1 1.943 1.937 3.857 3.857 0 0 1 1.526-.435 3.22 3.22 0 0 0-3.213-2.947v-.01zm-2.617 1.21a4.52 4.52 0 0 0-4.508 4.535c0 .197.034.383.058.573a5.97 5.97 0 0 0-.384.474 1.576 1.576 0 0 0-.286-.029 1.76 1.76 0 0 0-1.761 1.772c.002.363.375 1.238.918 1.539-.003.08-.012.157-.012.238 0 3.324 2.676 6 6 6s6-2.676 6-6v-.01c.03 0 .056.01.086.01a3.507 3.507 0 0 0 3.496-3.518 3.5 3.5 0 0 0-5.144-3.08 4.867 4.867 0 0 1 .343 2.975 5.97 5.97 0 0 0-.328-.397c.024-.19.055-.378.055-.576a4.516 4.516 0 0 0-4.533-4.506zm-4.909.03v.01a3.507 3.507 0 0 0-2.101 6.304 2.132 2.132 0 0 1 1.89-1.158c.1 0 .195.022.291.025a4.899 4.899 0 0 1-.046-.672 4.865 4.865 0 0 1 .947-2.909c-.362-.45-.62-.99-.733-1.58-.08.001-.165-.022-.248-.022zM3.225 8.498A3.22 3.22 0 0 0 0 11.73a3.237 3.237 0 0 0 5.074 2.651 2.14 2.14 0 0 1-.254-1.79 3.867 3.867 0 0 1-1.5-4.085h-.093l-.002-.01zm18.996 2.715c-.095.001-.186.022-.278.025a3.858 3.858 0 0 1-1.049 2.902c.325.375.8.613 1.338.612.98 0 1.771-.793 1.768-1.772a1.774 1.774 0 0 0-1.78-1.767z" style="color:#000;text-indent:0;text-transform:none;block-progression:tb;fill:#000;fill-opacity:.07843137;enable-background:accumulate"/>
    <path d="M10.835 1.547A3.228 3.228 0 0 0 8.28 6.739 4.875 4.875 0 0 1 14 5.47a3.225 3.225 0 0 0-3.165-3.921zM6.623 3.054c-.93 0-1.676.759-1.673 1.689.001.3.08.585.218.828a3.861 3.861 0 0 1 1.898-.506h.196a3.573 3.573 0 0 1 .292-1.741 1.65 1.65 0 0 0-.931-.276zm7.968 1.134c-.068.001-.135.001-.202.023.03.184.052.37.052.563.001.3-.037.59-.105.868a4.92 4.92 0 0 1 1.943 1.937 3.853 3.853 0 0 1 1.525-.435 3.219 3.219 0 0 0-3.213-2.946zm-2.617 1.21a4.519 4.519 0 0 0-4.507 4.534A4.517 4.517 0 0 0 12 14.438a4.518 4.518 0 0 0 4.507-4.533 4.517 4.517 0 0 0-4.534-4.506zm-4.907.039a3.508 3.508 0 0 0-2.102 6.305 2.13 2.13 0 0 1 1.89-1.158c.1 0 .195.022.291.025a4.884 4.884 0 0 1-.046-.671 4.865 4.865 0 0 1 .947-2.909 3.594 3.594 0 0 1-.733-1.58c-.081 0-.164-.022-.247-.022zm10.997 2.055c-.588 0-1.14.153-1.626.41.279.612.435 1.29.437 2.006a4.874 4.874 0 0 1-1.401 3.441 3.5 3.5 0 0 0 2.612 1.15 3.508 3.508 0 0 0 3.497-3.517 3.5 3.5 0 0 0-3.519-3.49zM3.224 8A3.22 3.22 0 0 0 0 11.231a3.236 3.236 0 0 0 3.245 3.224c.68 0 1.31-.215 1.828-.575a2.138 2.138 0 0 1-.252-1.79 3.868 3.868 0 0 1-1.5-4.085h-.095zm18.998 2.715c-.096.001-.188.023-.279.026a3.858 3.858 0 0 1-1.049 2.903c.325.375.8.611 1.338.61.98 0 1.77-.793 1.768-1.772a1.773 1.773 0 0 0-1.779-1.767zm-15.366.237a1.76 1.76 0 0 0-1.761 1.771 1.767 1.767 0 0 0 3.414.636 4.89 4.89 0 0 1-1.292-2.37 1.72 1.72 0 0 0-.361-.038z" style="fill:currentColor;fill-opacity:1;stroke:none;color:#050505;opacity:.7"/>
    <circle cx="12" cy="14.5" r="6" style="opacity:1;fill:url(#b);fill-opacity:1;stroke:none;stroke-width:1.29999995;stroke-miterlimit:4;stroke-dasharray:none;stroke-dashoffset:0;stroke-opacity:1"/>
    <g style="fill:#000;fill-opacity:.8509804">
        <g style="fill:#000;fill-opacity:.8509804">
            <g style="fill:#000;opacity:.7;stroke:#000;stroke-opacity:.8;fill-opacity:.8509804">
                <g style="fill:#000;fill-opacity:.8509804">
                    <path stroke="none" d="M412.39 537.333a1.023 1.023 0 0 0-1.454 0l-4.057 4.496-4.057-4.496a1.023 1.023 0 0 0-1.453 0 1.037 1.037 0 0 0 0 1.461l4.72 5.231c.216.219.506.315.79.297.284.018.574-.078.791-.297l4.72-5.231a1.038 1.038 0 0 0 0-1.461zm-5.517-4.352c.935 0 1.693-.761 1.693-1.7 0-.94-.758-1.7-1.693-1.7s-1.693.76-1.693 1.7c0 .939.758 1.7 1.693 1.7zm0 4.859c.935 0 1.693-.762 1.693-1.7 0-.94-.758-1.701-1.693-1.701s-1.693.761-1.693 1.7c0 .94.758 1.7 1.693 1.7z" style="fill:#000;fill-opacity:.8509804;stroke:none;stroke-opacity:.8" transform="matrix(.51707 0 0 .51548 -198.454 -262.028)"/>
                </g>
            </g>
        </g>
    </g>
</svg>
