<svg xmlns="http://www.w3.org/2000/svg" width="16" height="16">
    <circle cx="14" cy="14" r="2" fill="#a0b6cb" class="question"/>
    <path fill="#050505" fill-opacity=".7" d="M8 0a8 8 0 0 0-8 8 8 8 0 0 0 8 8 8 8 0 0 0 3.293-.71 3 3 0 0 1-.275-.974A7 7 0 0 1 8 15a7 7 0 0 1-7-7 7 7 0 0 1 6.906-7A7 7 0 0 1 8 1a7 7 0 0 1 7 7 7 7 0 0 1-.684 3.018 3 3 0 0 1 .975.273A8 8 0 0 0 16 8a8 8 0 0 0-8-8z"/>
    <path fill="#050505" fill-opacity=".7" d="M7.5 4h1v1h-1zM7.5 6h1v6h-1z" style="paint-order:fill markers stroke"/>
</svg>
