<svg xmlns="http://www.w3.org/2000/svg" width="16" height="16">
    <path fill="#050505" fill-opacity=".7" fill-rule="evenodd" d="M3.261 1.291c.376.027.625.488.284.87A8 8 0 0 0 1 8a8 8 0 0 0 2.554 5.852c.446.471-.18 1.148-.677.728A9 9 0 0 1 0 8 9 9 0 0 1 2.86 1.428a.579.579 0 0 1 .4-.137zm2.391 1.416c.396.012.642.534.256.914A6 6 0 0 0 4 8a6 6 0 0 0 1.916 4.389c.468.446-.174 1.146-.68.728A7 7 0 0 1 3 8a7 7 0 0 1 2.224-5.111c.147-.134.296-.186.428-.182zM10 3l3 3h2c.554 0 1 .446 1 1v2c0 .554-.446 1-1 1h-2l-3 3zM7.982 4.184c.376.016.645.513.291.896A4 4 0 0 0 7 8a4 4 0 0 0 1.277 2.926c.473.43-.14 1.152-.68.73A5 5 0 0 1 6 8a5 5 0 0 1 1.59-3.65.536.536 0 0 1 .392-.166z" opacity=".5" style="paint-order:normal"/>
</svg>
