<svg xmlns="http://www.w3.org/2000/svg" width="16" height="16">
    <path fill="#050505" fill-opacity=".7" d="M2 3C.892 3 0 3.892 0 5v6c0 1.108.892 2 2 2h9c1.108 0 2-.892 2-2V5c0-1.108-.892-2-2-2H2zm0 1h9c.554 0 1 .446 1 1v6c0 .554-.446 1-1 1H2c-.554 0-1-.446-1-1V5c0-.554.446-1 1-1z"/>
    <rect width="1" height="6" x="2" y="5" fill="#ec9b97" class="error" rx=".5" ry=".5"/>
    <path fill="#050505" fill-opacity=".7" d="M14 6v4a2 2 0 0 0 2-2 2 2 0 0 0-2-2zM6.834 4 3.5 9h3l-.75 3h.416L9.5 7h-3l.75-3z"/>
</svg>
