<svg xmlns="http://www.w3.org/2000/svg" width="16" height="16">
    <path fill="#050505" fill-opacity=".7" d="M2 3C.892 3 0 3.892 0 5v6c0 1.108.892 2 2 2h5.264a4.5 4.5 0 0 1-.23-1H2c-.554 0-1-.446-1-1V5c0-.554.446-1 1-1h9c.554 0 1 .446 1 1v2.031a4.5 4.5 0 0 1 1 .233V5c0-1.108-.892-2-2-2H2z"/>
    <rect width="1" height="6" x="2" y="5" fill="#ec9b97" class="error" rx=".5" ry=".5"/>
    <path fill="#050505" fill-opacity=".7" d="M14 6v1.76a4.5 4.5 0 0 1 1.457 1.607A2 2 0 0 0 16 8a2 2 0 0 0-2-2z"/>
    <path fill="#fab59e" d="M11.5 8a3.5 3.5 0 1 0 0 7 3.5 3.5 0 0 0 0-7zm0 1c.277 0 .5.223.5.5v2a.499.499 0 1 1-1 0v-2c0-.277.223-.5.5-.5zm-.012 4a.5.5 0 0 1 .012 0 .5.5 0 0 1 .5.5.5.5 0 0 1-.5.5.5.5 0 0 1-.5-.5.5.5 0 0 1 .488-.5z" class="warning"/>
</svg>
