<svg xmlns="http://www.w3.org/2000/svg" viewBox="0 0 16 16">
    <defs id="defs3051">
        <style id="current-color-scheme" type="text/css">
            .ColorScheme-Highlight{color:#a0b6cb}
        </style>
    </defs>
    <path d="M2 2v12h7v-1H7v-3h2V9H7V6h2v3h1V6h3v3h1V2H2zm1 1h3v2H3V3zm4 0h2v2H7V3zm3 0h3v2h-3V3zM3 6h3v3H3V6zm8 3v2H9v1h2v2h1v-2h2v-1h-2V9h-1zm-8 1h3v3H3v-3z" style="fill:currentColor;fill-opacity:1;stroke:none;color:#050505;opacity:.7"/>
    <path d="M3 3h3v2H3Z" style="color:#000;fill:#a0b6cb"/>
    a
</svg>
