<svg xmlns="http://www.w3.org/2000/svg" width="24" height="24">
    <g fill="#050505" opacity=".7">
        <g fill-rule="evenodd">
            <path d="M2.531 5A.537.537 0 0 0 2 5.545v4.91c0 .303.237.545.531.545H6.47a.537.537 0 0 0 .53-.545V10H5.5a1 1 0 0 1-.832-1.555L6.852 5.17A.523.523 0 0 0 6.469 5H2.53z" style="paint-order:stroke fill markers" transform="translate(2 4)"/>
            <path d="M2 3C.892 3 0 3.892 0 5v6c0 1.108.892 2 2 2h13c1.108 0 2-.892 2-2V5c0-1.108-.892-2-2-2zm0 1h13c.554 0 1 .446 1 1v6c0 .554-.446 1-1 1H2c-.554 0-1-.446-1-1V5c0-.554.446-1 1-1zM18 6v4a2 2 0 0 0 2-2 2 2 0 0 0-2-2z" style="paint-order:stroke fill markers" transform="translate(2 4)"/>
        </g>
        <path d="M10.834 8 7.5 13h3l-.75 3h.416l3.334-5h-3l.75-3z"/>
    </g>
</svg>
