<svg xmlns="http://www.w3.org/2000/svg" width="24" height="24">
    <path d="m6.352 4.736-.94.942L18.955 19.22l.94-.942-4.084-4.084A3.981 3.981 0 0 0 16 13v-2h1v-1h-2v3c0 .118-.029.228-.043.342L14 12.385V7c0-1.108-.892-2-2-2s-2 .892-2 2v1.385L6.352 4.736zM7 10v1h1v2a3.981 3.981 0 0 0 3 3.861V19h-1v1h4v-1h-1v-2.139a3.981 3.981 0 0 0 1.518-.763l-.713-.713A2.977 2.977 0 0 1 12 16c-1.662 0-3-1.338-3-3v-2.42L8.42 10H7zm3 1.58V13c0 1.108.892 2 2 2 .405 0 .78-.12 1.094-.326L10 11.58z" style="color:#bebebe;overflow:visible;isolation:auto;mix-blend-mode:normal;fill:#050505;marker:none;font-variant-east_asian:normal;opacity:.5;vector-effect:none;fill-opacity:1;stroke-width:1;stroke-linecap:butt;stroke-linejoin:miter;stroke-miterlimit:4;stroke-dasharray:none;stroke-dashoffset:0;stroke-opacity:1"/>
</svg>
