<svg xmlns="http://www.w3.org/2000/svg" width="24" height="24">
    <defs>
        <style id="current-color-scheme" type="text/css">
            .ColorScheme-Text{color:#050505;opacity:.7}
        </style>
    </defs>
    <g transform="translate(1 1)">
        <path fill="currentColor" d="M10.5 7h1v1h-1zm0 2h1v6h-1z" class="ColorScheme-Text"/>
        <circle cx="17" cy="17" r="2" fill="currentColor" style="color:#a0b6cb"/>
        <path fill="currentColor" d="M11 3a8 8 0 0 0-8 8 8 8 0 0 0 8 8 8 8 0 0 0 3.293-.71 3 3 0 0 1-.275-.974A7 7 0 0 1 11 18a7 7 0 0 1-7-7 7 7 0 0 1 6.906-7A7 7 0 0 1 11 4a7 7 0 0 1 7 7 7 7 0 0 1-.684 3.018 3 3 0 0 1 .975.273A8 8 0 0 0 19 11a8 8 0 0 0-8-8z" class="ColorScheme-Text"/>
    </g>
</svg>
