<svg xmlns="http://www.w3.org/2000/svg" width="24" height="24">
    <path d="M13.879 5.012a.996.996 0 0 0-.662.383l-.006.007c-1.677-.712-3.7-.104-4.81 1.34 0 0-3.044 3.967-4.739 3.45-.02-.002-.036.01-.057.01-.08 0-.16.013-.236.04-.03.01-.06.014-.088.028a.74.74 0 0 0-.271.212.75.75 0 0 0 .138 1.053l8.33 6.39a.747.747 0 0 0 1.051-.138c.07-.094.118-.201-.165-.316.308-.031.304-.061.306-.092a.725.725 0 0 0-.022-.238c-.005-.02.002-.04-.005-.059-.94-1.502 2.105-5.47 2.105-5.47 1.108-1.448 1.172-3.557.049-4.993l.006-.008a.998.998 0 0 0-.186-1.4l.002-.002a.999.999 0 0 0-.74-.197zm-10.71 7.8a1.999 1.999 0 0 0 2.871 2.201l-2.87-2.2z" style="color:#bebebe;overflow:visible;isolation:auto;mix-blend-mode:normal;fill:#050505;opacity:.7;marker:none"/>
</svg>
