<svg xmlns="http://www.w3.org/2000/svg" width="16" height="16" version="1">
    <g transform="matrix(.4 0 0 .4 -1.6 -1.6)">
        <circle cx="24" cy="24" r="20" fill="#ffb380"/>
        <path fill-opacity=".46" d="M26 38h-4v-4h4zm4.14-15.5-1.8 1.84C26.9 25.8 26 27 26 30h-4v-1c0-2.2.9-4.2 2.34-5.66l2.48-2.52A3.91 3.91 0 0 0 28 18c0-2.2-1.8-4-4-4s-4 1.8-4 4h-4c0-4.42 3.58-8 8-8s8 3.58 8 8c0 1.76-.72 3.36-1.86 4.5z"/>
    </g>
    <path d="M8 0A7.982 7.982 0 0 0 .016 8.5C.272 4.303 3.736 1 8 1s7.728 3.303 7.984 7.5A7.982 7.982 0 0 0 8 0z" opacity=".2"/>
</svg>
