<svg xmlns="http://www.w3.org/2000/svg" width="16" height="16">
    <rect width="16" height="16" x="-16" y="-16" opacity=".2" rx="3" ry="3" style="display:inline;fill:#cdd7dd;fill-opacity:1;opacity:1" transform="matrix(0 -1 -1 0 0 0)"/>
    <rect width="16" height="16" x="-16" y="-16" opacity=".2" rx="3" ry="3" style="display:inline;fill:#000;fill-opacity:.454902" transform="matrix(0 -1 -1 0 0 0)"/>
    <rect width="14" height="14" x="-15" y="-15" fill="#cdd7dd" rx="2" ry="2" transform="matrix(0 -1 -1 0 0 0)"/>
    <path d="M8 1038.362c-1.662 0-3 1.338-3 3v6c0 1.662 1.338 3 3 3-1.108 0-2-.892-2-2v-7c0-1.108.892-2 2-2s2 .892 2 2v7c0 1.108-.892 2-2 2 1.662 0 3-1.338 3-3v-6c0-1.662-1.338-3-3-3z" style="fill:#000;fill-opacity:.45678;paint-order:stroke fill markers" transform="translate(0 -1036.4)"/>
    <path d="M4 1043.362c-.554 0-1 .446-1 1v5c0 .554.446 1 1 1h8c.554 0 1-.446 1-1v-5c0-.554-.446-1-1-1zm4 1.5a1 1 0 0 1 1 1 1 1 0 0 1-.5.864v1.636a.5.5 0 1 1-1 0v-1.635a1 1 0 0 1-.5-.865 1 1 0 0 1 1-1z" style="fill:#cdd7dd;fill-opacity:1;paint-order:stroke fill markers" transform="translate(0 -1036.4)"/>
    <path d="M4 1043.362c-.554 0-1 .446-1 1v5c0 .554.446 1 1 1h8c.554 0 1-.446 1-1v-5c0-.554-.446-1-1-1zm4 1.5a1 1 0 0 1 1 1 1 1 0 0 1-.5.864v1.636a.5.5 0 1 1-1 0v-1.635a1 1 0 0 1-.5-.865 1 1 0 0 1 1-1z" style="fill:#000;fill-opacity:.45678;paint-order:stroke fill markers" transform="translate(0 -1036.4)"/>
</svg>
