<svg xmlns="http://www.w3.org/2000/svg" width="16" height="16">
    <g transform="translate(0 -1036.4)">
        <rect width="16" height="16" x="-1052.4" y="-16" fill="#eeac7c" rx="3.002" ry="3" transform="matrix(0 -1 -1 0 0 0)"/>
        <rect width="16" height="16" x="-1052.4" y="-16" opacity=".2" rx="3.002" ry="3" transform="matrix(0 -1 -1 0 0 0)"/>
        <rect width="14" height="14" x="-1051.4" y="-15" fill="#eeac7c" rx="2.002" ry="2" transform="matrix(0 -1 -1 0 0 0)"/>
        <path fill-opacity=".46" d="m3.05 1040.8 3.536 3.535-3.536 3.536 1.414 1.414L8 1045.749l3.536 3.536 1.414-1.414-3.536-3.536 3.536-3.535-1.414-1.415L8 1042.921l-3.536-3.535-1.414 1.414z"/>
    </g>
</svg>
