<svg xmlns="http://www.w3.org/2000/svg" width="16" height="16">
    <g transform="translate(-3 -3)">
        <circle cx="11" cy="-11" r="8" fill="#a3c9dc" transform="scale(1 -1)"/>
        <path d="M11 3a7.982 7.982 0 0 0-7.984 8.5C3.272 7.303 6.736 4 11 4s7.728 3.303 7.984 7.5A7.982 7.982 0 0 0 11 3z" opacity=".2"/>
        <g fill-opacity=".46">
            <path d="M11 5.556 12.7 9l3.8.552-2.75 2.68.649 3.786L11 14.23l-3.399 1.787.649-3.785-2.75-2.68L9.3 9z" class="ColorScheme-Highlight" color="#a3c9dc" opacity=".5"/>
            <path d="M11 5.557v8.673l3.398 1.787-.648-3.785 2.75-2.68L12.7 9z"/>
        </g>
    </g>
</svg>
