<svg xmlns="http://www.w3.org/2000/svg" width="16" height="16">
    <style id="current-color-scheme" type="text/css">
        .ColorScheme-NeutralText{color:#ffce99}.ColorScheme-Text{color:#232629}
    </style>
    <g transform="translate(-3 -2.996)">
        <rect width="15.998" height="15.998" x="-18.995" y="-18.999" fill="#ffb380" stroke-width="3.779" rx="8.001" ry="8.001" transform="matrix(0 -1 -1 0 0 0)"/>
        <path stroke-width="3.78" d="M11 3a7.982 7.982 0 0 0-7.984 8.5C3.272 7.303 6.736 4 11 4s7.728 3.303 7.985 7.5A7.982 7.982 0 0 0 11 3z" opacity=".2"/>
        <path fill-opacity=".46" stroke-width="3.779" d="M10.938 6.004a5 5 0 0 0-3.473 1.463A5 5 0 0 0 6.008 11H5.001l2 3 2-3h-.99a3 3 0 0 1 .868-2.12 3 3 0 0 1 2.288-.872l1.658-1.66a5 5 0 0 0-1.887-.344zM15.001 8l-2 3h1a3 3 0 0 1-.88 2.123 3 3 0 0 1-2.28.867l-1.66 1.662a5 5 0 0 0 5.355-1.115A5 5 0 0 0 15.996 11H17l-2-3z"/>
    </g>
</svg>
