<svg xmlns="http://www.w3.org/2000/svg" width="16" height="16">
    <style id="current-color-scheme" type="text/css">
        .ColorScheme-NeutralText{color:#ffce99}.ColorScheme-Text{color:#232629}
    </style>
    <g transform="matrix(0 -1 -1 0 19 19)">
        <rect width="16" height="16" x="-19" y="-19" fill="#ffb380" stroke-width="3.78" rx="8.002" ry="8.002" transform="matrix(0 -1 -1 0 0 0)"/>
        <path fill-opacity=".46" d="M13 8v2h-3c-1.662 0-3 1.338-3 3v4.934c.619.356 1.29.634 2 .816V13c0-.554.446-1 1-1h3v2l4-3z"/>
    </g>
    <path stroke-width="3.78" d="M8 0A7.982 7.982 0 0 0 .016 8.5C.272 4.303 3.736 1 8 1s7.728 3.303 7.984 7.5A7.982 7.982 0 0 0 8 0z" opacity=".2"/>
</svg>
