<svg xmlns="http://www.w3.org/2000/svg" width="16" height="16">
    <style id="current-color-scheme" type="text/css">
        .ColorScheme-Highlight{color:#a3c9dc}.ColorScheme-Text{color:#232629}
    </style>
    <g transform="translate(-3 -3)">
        <rect width="16" height="16" x="-19" y="-19" fill="#a3c9dc" stroke-width="3.78" rx="8.002" ry="8.002" transform="matrix(0 -1 -1 0 0 0)"/>
        <path stroke-width="3.78" d="M11 3a7.982 7.982 0 0 0-7.984 8.5C3.272 7.303 6.736 4 11 4s7.728 3.303 7.984 7.5A7.982 7.982 0 0 0 11 3z" opacity=".2"/>
        <path fill-opacity=".46" d="M13 8v2h-3c-1.662 0-3 1.338-3 3v4.934c.619.356 1.29.634 2 .816V13c0-.554.446-1 1-1h3v2l4-3-4-3z"/>
    </g>
</svg>
