<svg xmlns="http://www.w3.org/2000/svg" width="16" height="16">
    <defs>
        <style id="current-color-scheme" type="text/css">
            .ColorScheme-Text{color:#fdfdfd;opacity:.7}
        </style>
    </defs>
    <g class="ColorScheme-Text" style="fill:currentColor">
        <path d="M796.94-270.99c-.36.047-.938.25-.938 1v2s-1 0-1 1v3h-1s-1 0-1 1v5.5c0 .5.5.5.5.5h.5c0 1 1 1 1 1s0 1 1 1h10c1 0 1-1 1-1s1 0 1-1h.5c.5 0 .5-.42.5-.5v-5.5c0-1-1-1-1-1h-1v-3c0-1-1-1-1-1v-2c0-1-1-1-1.187-1h-7.625c-.047 0-.13-.016-.25 0zm.062 1h8v6h-8zm-2.437 7a.25.25 0 0 1 .093 0h12.688s.656 0 .656.562v4.438h-14v-4.438c0-.421.378-.536.563-.562zm1.437 6h10v1h-10z" class="ColorScheme-Text" style="fill:currentColor" transform="translate(-793 270.99)"/>
        <path d="M3 8v4h10V8z" opacity=".35"/>
        <path d="m7 1.99 2.03.011L9 2.99h1L8.04 5.992 6 2.99l.993.002z" class="success"/>
    </g>
</svg>
