<svg xmlns="http://www.w3.org/2000/svg" width="16" height="16">
    <path d="M7.877 2.008c-.02.002-.04.015-.06.02a.972.972 0 0 0-.208.07c-.036.015-.074.017-.109.037-.017.01-.026.028-.043.039a.976.976 0 0 0-.16.14c-.043.044-.086.085-.12.135-.012.02-.032.03-.044.051L3.957 8H1c-.554 0-1 .446-1 1s.446 1 1 1h8.734L8.58 8H6.268L8 4.998l1.154-2-.287-.498c-.012-.02-.032-.032-.045-.05-.033-.05-.076-.092-.119-.136a.975.975 0 0 0-.16-.14c-.017-.011-.026-.03-.043-.04-.035-.02-.073-.02-.11-.036a.972.972 0 0 0-.206-.07A.961.961 0 0 0 8 2.015c-.041 0-.082-.013-.123-.008zm1.856 1.99-1.155 2L9.732 8l1.155 2 2.248 3.893a1 1 0 1 0 1.732-1L13.197 10H15c.554 0 1-.446 1-1s-.446-1-1-1h-2.957l-2.31-4.002zM2.225 11l-1.092 1.893a1 1 0 1 0 1.732 1L4.535 11h-2.31z" style="fill:currentColor;color:#fdfdfd;opacity:.7"/>
</svg>
