<svg xmlns="http://www.w3.org/2000/svg" width="64" height="64">
    <path fill="#fdfdfd" fill-opacity=".7" d="M8 25c-1.662 0-3 1.338-3 3v9c0 1.662 1.338 3 3 3h4c1.662 0 3-1.338 3-3v-9c0-1.662-1.338-3-3-3H8zm36 0c-1.662 0-3 1.338-3 3v7c0 1.662 1.338 3 3 3h12c1.662 0 3-1.338 3-3v-7c0-1.662-1.338-3-3-3H44zM8 26h4c1.108 0 2 .892 2 2v9c0 1.108-.892 2-2 2H8c-1.108 0-2-.892-2-2v-9c0-1.108.892-2 2-2zm15 0c-1.662 0-3 1.338-3 3v9h1v-9c0-1.108.892-2 2-2h10c1.108 0 2 .892 2 2v9h1v-9c0-1.662-1.338-3-3-3H23zm21 0h12c1.108 0 2 .892 2 2v7c0 1.108-.892 2-2 2H44c-1.108 0-2-.892-2-2v-7c0-1.108.892-2 2-2zM8.5 27a.499.499 0 1 0 0 1h3a.499.499 0 1 0 0-1h-3zm10 12a.499.499 0 1 0 0 1h19a.499.499 0 1 0 0-1h-19zm27 0a.499.499 0 1 0 0 1h9a.499.499 0 1 0 0-1h-9z"/>
</svg>
