<svg xmlns="http://www.w3.org/2000/svg" width="16" height="16">
    <path fill="#fdfdfd" fill-opacity=".7" d="M10.824 0c-.413 0-.823.04-1.23.12A5.17 5.17 0 0 0 8.346.54c-.417.2-.792.448-1.118.746a.5.5 0 0 0 0 .002c-.347.318-.619.721-.818 1.191a4.056 4.056 0 0 0-.303 1.594c0 .48.122 1.072.317 1.752a3 3 0 0 0-.432.508 12.55 12.55 0 0 1-.484-.293.5.5 0 0 0-.002-.002 82.418 82.418 0 0 0-.737-.463 15.247 15.247 0 0 0-.705-.416 5.127 5.127 0 0 0-.697-.318v.002c-.264-.098-.506-.158-.764-.14-.212.013-.42.07-.62.157a.5.5 0 0 0-.07.036 3.052 3.052 0 0 0-1.177 1.35 3.414 3.414 0 0 0-.26 1.724c.061.591.248 1.175.547 1.742a.5.5 0 0 0 .004.006c.243.445.533.85.87 1.213.342.37.74.683 1.189.937a.5.5 0 0 0 .002 0 3.02 3.02 0 0 0 1.646.373c.61-.03 1.207-.238 1.774-.597a.5.5 0 0 0 .004-.002c.287-.185.605-.479.945-.83A3 3 0 0 0 8.482 11a3 3 0 0 0 .389-.03c.026.245.045.502.049.786 0 .17-.003.414-.008.732-.005.324-.008.57-.008.74 0 .181.009.393.024.64.016.263.046.485.109.687.057.185.139.362.244.53.124.195.297.363.502.474a.5.5 0 0 0 .004.002c.624.328 1.27.482 1.906.43a3.532 3.532 0 0 0 1.73-.63c.521-.359.96-.837 1.313-1.416l.002-.002c.279-.45.488-.935.627-1.449.14-.52.197-1.062.17-1.619-.03-.607-.243-1.194-.613-1.736-.377-.552-.91-1.01-1.569-1.371-.491-.274-1.177-.496-2.02-.696a3 3 0 0 0-.39-.787c.102-.064.21-.13.334-.2a82.61 82.61 0 0 1 1.477-.823 6.091 6.091 0 0 0 1.205-.848c.382-.347.646-.761.646-1.234 0-.964-.396-1.808-1.134-2.367C12.75.267 11.846 0 10.824 0zm0 1c.853 0 1.514.209 2.043.61.512.387.738.854.738 1.57 0 .093-.055.255-.318.494a.5.5 0 0 0-.002.002c-.29.263-.623.498-1.006.705-.42.227-.918.503-1.496.832-.205.116-.39.229-.568.34A3 3 0 0 0 8.482 5a3 3 0 0 0-1.193.252c-.118-.487-.182-.892-.182-1.178 0-.46.076-.857.223-1.203a.5.5 0 0 0 0-.002c.152-.36.345-.634.574-.844.25-.228.54-.422.875-.584A4.16 4.16 0 0 1 9.785 1.1c.345-.067.69-.1 1.039-.1zM2.67 5.701c.036-.002.164.012.35.08a.5.5 0 0 0 .001 0c.203.075.389.16.56.254.185.102.406.231.659.389a.5.5 0 0 0 0 .002c.257.16.499.312.727.457.19.122.398.244.615.367a3 3 0 0 0-.1.75 3 3 0 0 0 1.09 2.309c-.236.222-.44.387-.602.492-.447.283-.87.421-1.285.441-.432.02-.785-.06-1.105-.242a3.909 3.909 0 0 1-.95-.748 5.032 5.032 0 0 1-.722-1.008 3.75 3.75 0 0 1-.436-1.377c-.045-.444.014-.84.18-1.22.155-.357.41-.638.78-.881A.891.891 0 0 1 2.67 5.7zM8.482 6a2 2 0 0 1 2 2 2 2 0 0 1-2 2 2 2 0 0 1-2-2 2 2 0 0 1 2-2zm2.96 1.514a3 3 0 0 1 .005.029 3 3 0 0 0-.006-.03zm.03.61c.616.168 1.086.344 1.395.517a.5.5 0 0 0 .002.002c.55.301.95.656 1.227 1.06.284.416.421.813.44 1.22.023.46-.023.894-.136 1.311a4.43 4.43 0 0 1-.513 1.186.5.5 0 0 0-.002.002 3.61 3.61 0 0 1-1.03 1.117 2.488 2.488 0 0 1-1.244.453c-.426.035-.868-.059-1.355-.314l-.004-.002a.326.326 0 0 1-.125-.125 1.21 1.21 0 0 1-.135-.291 2.19 2.19 0 0 1-.066-.453v-.002a10.086 10.086 0 0 1-.022-.577c0-.16.003-.403.008-.724.005-.324.008-.574.008-.754a.5.5 0 0 0 0-.002.5.5 0 0 0 0-.002.5.5 0 0 0 0-.002.5.5 0 0 0 0-.002 13.804 13.804 0 0 0-.055-1.088 3 3 0 0 0 1.607-2.531zm-4.5 2.46a3 3 0 0 0 .051.027 3 3 0 0 1-.05-.027z" color="#000" style="-inkscape-stroke:none"/>
</svg>
