<svg xmlns="http://www.w3.org/2000/svg" width="16" height="16">
    <path fill="#fdfdfd" fill-opacity=".7" d="M8.205.254C7.07.263 5.743.562 4.4 1.115l-.125.053-.082.107a.67.67 0 0 0-.12.598l.005.02.008.02c.096.238.38.434.652.427h.008c.96-.043 2.273.19 2.967.877l.002.002c.16.16.335.317.437.578.068.173.043.57-.226.844l-.012.011c-.165.156-.452.437-.717.698l-.361.353 2.445 2.445 1.17-1.103.002-.002a.647.647 0 0 1 .504-.168c.196.012.368.08.508.215.26.256.259.686 0 .945-.248.244-.246.7 0 .945l.002.002.474.53.012.011c.19.187.456.295.715.284.259-.012.496-.131.672-.307l2.365-2.361.002-.002c.38-.383.377-1.03.004-1.41l-.002-.002-.488-.489-.006-.004a.69.69 0 0 0-.334-.183.705.705 0 0 0-.54.117l-.023.016-.02.02a.69.69 0 0 1-.943-.003.676.676 0 0 1-.148-.715v-.002l.002-.002v-.003c.201-.478.072-.993-.178-1.243-.95-.954-1.611-1.645-2.168-2.156l-.015-.015C10.29.503 9.365.245 8.205.253zm.008 1c.987-.008 1.692.279 1.928.516l.007.007.016.016.008.008c.516.473 1.188 1.173 2.152 2.14.014.014.008.029-.03.12l-.003.007-.014.045a1.673 1.673 0 0 0 .364 1.785l.002.002.035.036.035.027-.041-.037c.548.516 1.334.502 1.965.14l.361.362c.009 0 .016-.013-.002.006l-2.36 2.355-.331-.371c.406-.644.43-1.48-.135-2.037l-.002-.002-.004-.004-.006-.006-.002-.002a1.8 1.8 0 0 0-1.137-.488 1.652 1.652 0 0 0-1.261.445l-.457.43L8.26 5.713c.124-.121.28-.277.35-.342l.03-.031c.549-.559.676-1.314.442-1.91-.2-.508-.563-.82-.66-.918l-.004-.004c-.477-.474-1.077-.738-1.686-.914.494-.099 1.066-.337 1.48-.34zm4.992 3.234-.008.026-.007.01zm-7.314 2.14-.352.35-4.943 4.926c-.191.19-.307.312-.393.489-.075.154-.106.351-.107.597v.016a2.055 2.055 0 0 0 1.992 1.992H2.1c.245 0 .368-.089.515-.19.147-.1.305-.236.498-.43l5.29-5.28zm.004 1.407L6.98 9.102l-4.574 4.57c-.16.16-.279.255-.347.303-.54-.047-.947-.444-.963-.994v-.002c.001-.136.008-.154.006-.149-.013.027.034-.053.199-.217z"/>
</svg>
