<svg xmlns="http://www.w3.org/2000/svg" width="16" height="16">
    <path fill="#fdfdfd" d="M4.8 4v1l2.1 2.309L7.2 10h1.6l.3-2.691 2.035-2.239a3.5 3.5 0 0 1-.79-1.07H4.802zm1.352 1h3.696L8.359 6.637a1 1 0 0 0-.254.56L8 8.152l-.105-.955a1 1 0 0 0-.254-.56L6.152 5zM13.5 0A2.5 2.5 0 0 0 11 2.5 2.5 2.5 0 0 0 13.5 5 2.5 2.5 0 0 0 16 2.5 2.5 2.5 0 0 0 13.5 0zm0 1A1.5 1.5 0 0 1 15 2.5 1.5 1.5 0 0 1 13.5 4 1.5 1.5 0 0 1 12 2.5 1.5 1.5 0 0 1 13.5 1z" opacity=".5"/>
    <path fill="#fdfdfd" fill-opacity=".7" d="M3 1C1.338 1 0 2.338 0 4v6c0 1.662 1.338 3 3 3h10c1.662 0 3-1.338 3-3V4.938a3.5 3.5 0 0 1-1 .72V10c0 1.108-.892 2-2 2H3c-1.108 0-2-.892-2-2V4c0-1.108.892-2 2-2h7.035a3.5 3.5 0 0 1 .307-1z"/>
    <rect width="8" height="1" x="4" y="14" fill="#fdfdfd" fill-opacity=".7" rx=".5" ry=".5"/>
</svg>
