<svg xmlns="http://www.w3.org/2000/svg" width="16" height="16">
    <path fill="#fdfdfd" fill-opacity=".7" d="M1.5 4A1.5 1.5 0 0 0 0 5.5 1.5 1.5 0 0 0 1.5 7 1.5 1.5 0 0 0 3 5.5 1.5 1.5 0 0 0 1.5 4zm0 1a.5.5 0 0 1 .5.5.5.5 0 0 1-.5.5.5.5 0 0 1-.5-.5.5.5 0 0 1 .5-.5zM1.5 9A1.5 1.5 0 0 0 0 10.5 1.5 1.5 0 0 0 1.5 12 1.5 1.5 0 0 0 3 10.5 1.5 1.5 0 0 0 1.5 9zm0 1a.5.5 0 0 1 .5.5.5.5 0 0 1-.5.5.5.5 0 0 1-.5-.5.5.5 0 0 1 .5-.5zM5.5 4A1.5 1.5 0 0 0 4 5.5 1.5 1.5 0 0 0 5.5 7 1.5 1.5 0 0 0 7 5.5 1.5 1.5 0 0 0 5.5 4Zm0 1a.5.5 0 0 1 .5.5.5.5 0 0 1-.5.5.5.5 0 0 1-.5-.5.5.5 0 0 1 .5-.5ZM5.5 9A1.5 1.5 0 0 0 4 10.5 1.5 1.5 0 0 0 5.5 12 1.5 1.5 0 0 0 7 10.5 1.5 1.5 0 0 0 5.5 9zm0 1a.5.5 0 0 1 .5.5.5.5 0 0 1-.5.5.5.5 0 0 1-.5-.5.5.5 0 0 1 .5-.5zM9.5 4A1.5 1.5 0 0 0 8 5.5 1.5 1.5 0 0 0 9.5 7 1.5 1.5 0 0 0 11 5.5 1.5 1.5 0 0 0 9.5 4Zm0 1a.5.5 0 0 1 .5.5.5.5 0 0 1-.5.5.5.5 0 0 1-.5-.5.5.5 0 0 1 .5-.5ZM9.5 9A1.5 1.5 0 0 0 8 10.5 1.5 1.5 0 0 0 9.5 12a1.5 1.5 0 0 0 1.5-1.5A1.5 1.5 0 0 0 9.5 9zm0 1a.5.5 0 0 1 .5.5.5.5 0 0 1-.5.5.5.5 0 0 1-.5-.5.5.5 0 0 1 .5-.5zM13.5 4A1.5 1.5 0 0 0 12 5.5 1.5 1.5 0 0 0 13.5 7 1.5 1.5 0 0 0 15 5.5 1.5 1.5 0 0 0 13.5 4zm0 1a.5.5 0 0 1 .5.5.5.5 0 0 1-.5.5.5.5 0 0 1-.5-.5.5.5 0 0 1 .5-.5zM13.5 9a1.5 1.5 0 0 0-1.5 1.5 1.5 1.5 0 0 0 1.5 1.5 1.5 1.5 0 0 0 1.5-1.5A1.5 1.5 0 0 0 13.5 9zm0 1a.5.5 0 0 1 .5.5.5.5 0 0 1-.5.5.5.5 0 0 1-.5-.5.5.5 0 0 1 .5-.5z"/>
</svg>
