<svg xmlns="http://www.w3.org/2000/svg" width="16" height="16">
    <defs>
        <style id="current-color-scheme" type="text/css">
            .ColorScheme-Text{color:#fdfdfd;opacity:.7}
        </style>
    </defs>
    <path fill="currentColor" d="M7 4v6.086L5.201 8.287l-.707.707L7.5 12l3.006-3.006-.707-.707L8 10.086V4H7z" class="ColorScheme-Text"/>
    <path fill="currentColor" fill-opacity=".7" d="M4 0C2.338 0 1 1.338 1 3v10c0 1.662 1.338 3 3 3h8c1.662 0 3-1.338 3-3V4l-4-4zm0 1h6v2c0 1.108.892 2 2 2h2v8c0 1.108-.892 2-2 2H4c-1.108 0-2-.892-2-2V3c0-1.108.892-2 2-2z" class="ColorScheme-Text" color="#fdfdfd"/>
</svg>
