<svg xmlns="http://www.w3.org/2000/svg" width="16" height="16">
    <path fill="#fdfdfd" fill-opacity=".7" fill-rule="evenodd" d="M10.608-5.743v7H6.61v.999h8.999v-1H11.61v-7h-1.001zm-3.999 9-.3.392a4.263 4.263 0 0 0-.792 3.445l.002.013a4.258 4.258 0 0 0 2.118 2.827l.007.005c.691.37 1.45.53 2.183.542a6.606 6.606 0 0 0 2.076-.321l-.001-.002c1.29-.402 2.39-1.066 3.417-1.664l3.461-2.016.004-.002-1.004-1.73c-.001 0-.002 0-.003.002-.731.422-1.356.754-1.936.82-.286.03-.529.018-.701-.033a.634.634 0 0 1-.329-.21v-.001a.288.288 0 0 1-.045-.178h.002a.292.292 0 0 1 .08-.174l1.684-1.698-9.922-.017zm.493 1 7.037.013a1.286 1.286 0 0 0-.367.767c-.03.29.04.583.196.83.2.31.532.52.888.626.354.105.732.109 1.1.068.847-.095 1.591-.525 2.324-.95l-3.464 2.02c-1.032.6-2.071 1.216-3.213 1.572a5.617 5.617 0 0 1-1.76.279 3.796 3.796 0 0 1-1.727-.424 3.255 3.255 0 0 1-1.62-2.164 3.26 3.26 0 0 1 .606-2.636z" style="paint-order:stroke fill markers" transform="rotate(30)"/>
</svg>
