<svg xmlns="http://www.w3.org/2000/svg" width="16.001" height="16">
    <path fill="#fdfdfd" fill-opacity=".7" d="M12.5 1c-.277 0-.5.223-.5.5V3h-1v2c0 1.108.892 2 2 2v5.5a.499.499 0 1 1-1 0V9a.997.997 0 0 0-.748-.967l-1.295-4.32A1 1 0 0 0 9 3H3a1 1 0 0 0-.957.713L.748 8.033A.997.997 0 0 0 0 9v3c0 .554.446 1 1 1v1c0 .554.446 1 1 1h1c.554 0 1-.446 1-1v-1h4v1c0 .554.446 1 1 1h1c.554 0 1-.446 1-1v-1c.029 0 .056-.002.084-.004.204.585.76 1.004 1.416 1.004.831 0 1.5-.67 1.5-1.5V7c1.108 0 2-.892 2-2V3h-1V1.5a.499.499 0 1 0-1 0V3h-1V1.5c0-.277-.223-.5-.5-.5zM3 4h6l1.2 4H1.8zm9 0h3v1c0 .554-.446 1-1 1h-1c-.554 0-1-.446-1-1v-.05zM1 9h10v3H1zm1.473 1a.498.498 0 0 0-.473.5c0 .277.223.5.5.5h1a.499.499 0 1 0 0-1H2.473zm6 0a.498.498 0 0 0-.473.5c0 .277.223.5.5.5h1a.499.499 0 1 0 0-1H8.473zM2 13h1v1H2zm7 0h1v1H9z"/>
</svg>
