<svg xmlns="http://www.w3.org/2000/svg" width="16" height="16">
    <g fill="#fdfdfd" fill-opacity=".7">
        <path d="M11.812 2.305a3.268 3.268 0 0 0-.42.039l.693 1.877c.128.012.278.049.46.111l.318-1.906a4.27 4.27 0 0 0-1.051-.121zm-.834.129a2.29 2.29 0 0 0-1.06.68l1.742 1.163-.682-1.843zm2.29.103c-.11.651-.217 1.301-.325 1.951.113.048.23.1.363.16.26-.616.55-1.26.783-1.785a6.19 6.19 0 0 0-.822-.326zm-4.47.533-.601.88c-2.327-.658-4.84.144-6.236 2.185a5.7 5.7 0 0 0 1.5 7.926 5.697 5.697 0 0 0 7.923-1.5c1.386-2.036 1.191-4.695-.254-6.622l.694-.941c-.706-.627-1.39-1.184-2.205-1.625l-.014-.008c-.257-.126-.518-.193-.807-.295zm.313 1.375c.246.091.49.18.695.31.212.135.382.325.541.53l-.455.697.154.163a4.656 4.656 0 0 1 .473 5.826 4.657 4.657 0 0 1-6.469 1.224 4.658 4.658 0 0 1-1.224-6.47A4.657 4.657 0 0 1 8.44 5.047l.217.09.453-.692z"/>
        <path d="m13.178 1.803-.561 3.368M11.17 2.349l1.183 3.203m-2.907-2.5 2.84 1.895" color="#000" style="-inkscape-stroke:none"/>
    </g>
</svg>
