<svg xmlns="http://www.w3.org/2000/svg" width="16" height="16">
    <path fill="#fdfdfd" d="M10.857 4.004a2.202 2.202 0 0 0-1.55.576l-.005.004-1.314 1.18L6.67 4.588l-.002-.002a2.189 2.189 0 0 0-2.154-.45h-.004a2.204 2.204 0 0 0-.77 3.742l.003.003 4.242 3.777 4.244-3.783.006-.004a2.199 2.199 0 0 0-1.379-3.867z" color="#000" opacity=".35"/>
    <path fill="#fdfdfd" fill-opacity=".7" d="M9.504 2.236a4.158 4.158 0 0 0-1.514.85l.014.012c-.006-.005-.014-.005-.02-.01-.009.008-.022.01-.03.02l.009-.008.015-.014A4.195 4.195 0 0 0 1.085 5.38a4.214 4.214 0 0 0 1.331 3.994l5.57 4.963 5.557-4.953a4.208 4.208 0 0 0 1.213-4.592 4.211 4.211 0 0 0-3.842-2.79h-.002c-.52.005-.95.104-1.408.233zm1.38.768a3.201 3.201 0 0 1 2.006 5.623l-4.904 4.371L3.08 8.627a3.21 3.21 0 0 1-1.015-3.045A3.194 3.194 0 0 1 4.2 3.187a3.19 3.19 0 0 1 3.139.657l.646.578.645-.578a3.199 3.199 0 0 1 2.254-.84z" color="#000"/>
</svg>
