<svg xmlns="http://www.w3.org/2000/svg" width="16" height="16">
    <g fill="#fdfdfd" opacity=".7">
        <path d="M1 15h14v1H1z" opacity=".35"/>
        <path fill-opacity=".7" stroke="none" stroke-width="1.094" d="M388.01 121.01c-3.062 0-5.555 2.49-5.555 5.547 0 .202.017.382.035.555.015.181.038.36.066.533.605 3.707 3.054 6.29 5.067 8.3l.387.387.387-.386c2.013-2.01 4.464-4.594 5.069-8.301.028-.172.05-.352.066-.533.018-.173.033-.353.033-.555 0-3.057-2.493-5.547-5.555-5.547zm0 1.094c2.47 0 4.46 1.987 4.46 4.453 0 .143-.01.28-.027.443v.006l-.002.006c-.012.15-.032.305-.057.457-.506 3.103-2.492 5.35-4.374 7.26-1.882-1.91-3.866-4.157-4.372-7.26a5.816 5.816 0 0 1-.057-.457l-.002-.006V127a4.31 4.31 0 0 1-.027-.443 4.447 4.447 0 0 1 4.458-4.453z" color="#000" opacity=".7" style="-inkscape-stroke:none" transform="matrix(.90001 0 0 .92835 -341.21 -111.34)"/>
        <path d="M8 4a2 2 0 0 0-2 2 2 2 0 0 0 2 2 2 2 0 0 0 2-2 2 2 0 0 0-2-2zm0 1a1 1 0 0 1 1 1 1 1 0 0 1-1 1 1 1 0 0 1-1-1 1 1 0 0 1 1-1z" style="paint-order:stroke fill markers"/>
    </g>
</svg>
