<svg xmlns="http://www.w3.org/2000/svg" viewBox="0 0 16 16">
    <path fill="currentColor" fill-opacity=".7" d="M1 8v1h1V8zm2 0v1h1V8zm2 0v1h1V8zm2 0v1h1V8zm2 0v1h1V8zm2 0v1h1V8zm2 0v1h1V8zm2 0v1h1V8z" color="#fdfdfd" style="color:#fdfdfd;opacity:.7"/>
    <path fill="#fdfdfd" fill-opacity=".7" d="M10.711 1.104c-.133.008-.267.03-.4.066L2.584 3.24A1.995 1.995 0 0 0 1.17 5.69L1.52 7h1.034l-.42-1.57a.998.998 0 0 1 .707-1.225l7.728-2.07a.998.998 0 0 1 1.225.707L12.908 7h1.035L12.76 2.584a1.996 1.996 0 0 0-2.049-1.48zM2.324 10l.916 3.416a1.995 1.995 0 0 0 2.45 1.414l7.726-2.07a1.995 1.995 0 0 0 1.414-2.45l-.084-.31h-1.033l.152.57a.998.998 0 0 1-.707 1.225l-7.728 2.07a.998.998 0 0 1-1.225-.707L3.36 10H2.324z"/>
</svg>
