<svg xmlns="http://www.w3.org/2000/svg" width="16" height="16">
    <path fill="#fdfdfd" d="M8 2c-.11 0-.214.019-.312.05l6.261 6.263C13.981 8.214 14 8.109 14 8V6.123L9.877 2Zm3.15 0L14 4.85V3c0-.554-.446-1-1-1Zm-4.1.688C7.02 2.786 7 2.89 7 3v1.89L11.11 9H13c.11 0 .214-.019.313-.05z" opacity=".5" style="paint-order:stroke fill markers"/>
    <path fill="#fdfdfd" d="M7 6.164V8c0 .554.446 1 1 1h1.836z" opacity=".801" style="paint-order:stroke fill markers"/>
    <path fill="#fdfdfd" d="M6 6c-.776 0-1.5.221-2.113.604l2.367 2.369A1.982 1.982 0 0 1 6 8zM3.178 7.166c-.336.335-.612.73-.813 1.166l5.303 5.303c.436-.201.831-.477 1.166-.813zM2.063 9.303a4 4 0 0 0 4.635 4.635zm4.964.443 2.37 2.367A3.98 3.98 0 0 0 10 10H8c-.352 0-.684-.092-.973-.254z" opacity=".7" style="paint-order:stroke fill markers"/>
    <path fill="#fdfdfd" fill-opacity=".7" d="M7.5 0A2.506 2.506 0 0 0 5 2.5v1.584C2.167 4.562 0 7.034 0 10c0 3.308 2.692 6 6 6 2.967 0 5.438-2.167 5.916-5H13.5c1.376 0 2.5-1.124 2.5-2.5v-6C16 1.124 14.876 0 13.5 0zm0 1h6c.84 0 1.5.66 1.5 1.5v6c0 .84-.66 1.5-1.5 1.5H11a5 5 0 0 1-.113 1h.013A4.992 4.992 0 0 1 6 15c-2.767 0-5-2.233-5-5a4.992 4.992 0 0 1 4-4.9v.013A5 5 0 0 1 6 5V2.5C6 1.66 6.66 1 7.5 1z" color="#000" style="paint-order:stroke fill markers"/>
</svg>
