<svg xmlns="http://www.w3.org/2000/svg" width="16" height="16">
    <style>
        .warning{fill:#f4b9be}
    </style>
    <path fill="#fdfdfd" fill-opacity=".7" fill-rule="evenodd" stroke-linecap="round" stroke-linejoin="round" stroke-width="2" d="M5 5v4.96a4.5 4.5 0 0 0 .5.04 4.5 4.5 0 0 0 .5-.04V6h3.96a4.5 4.5 0 0 0 .04-.5 4.5 4.5 0 0 0-.03-.5H5zm5.977 0a5.5 5.5 0 0 1 .023.5 5.5 5.5 0 0 1-.037.5H14v8H6v-3.037a5.5 5.5 0 0 1-.5.037 5.5 5.5 0 0 1-.5-.037V15h10V5h-4.023z" style="paint-order:stroke fill markers"/>
    <path fill="#fdfdfd" fill-opacity=".7" fill-rule="evenodd" stroke-linecap="round" stroke-linejoin="round" stroke-width="2" d="M5.5 0A5.5 5.5 0 0 0 0 5.5a5.5 5.5 0 0 0 4 5.287V9.732A4.5 4.5 0 0 1 1 5.5 4.5 4.5 0 0 1 5.5 1a4.5 4.5 0 0 1 4.242 3h1.049A5.5 5.5 0 0 0 5.5 0z" class="warning" style="paint-order:stroke fill markers"/>
    <path fill="#fdfdfd" fill-opacity=".7" fill-rule="evenodd" stroke-linecap="round" stroke-linejoin="round" stroke-width="2" d="M6 6v3.96A4.5 4.5 0 0 0 9.96 6H6zm4.963 0A5.5 5.5 0 0 1 6 10.963V14h8V6h-3.037z" opacity=".5" style="paint-order:stroke fill markers"/>
    <path fill="#fdfdfd" fill-opacity=".7" fill-rule="evenodd" stroke-linecap="round" stroke-linejoin="round" stroke-width="2" d="M5.5 1A4.5 4.5 0 0 0 1 5.5a4.5 4.5 0 0 0 3 4.232V4h5.742A4.5 4.5 0 0 0 5.5 1z" class="warning" opacity=".5" style="paint-order:stroke fill markers"/>
</svg>
