<svg xmlns="http://www.w3.org/2000/svg" width="16" height="16">
    <g fill="#fdfdfd" opacity=".7">
        <path fill-opacity=".7" d="M4.063.962C2.92.962 2 1.882 2 3.025V10.9c0 1.142.92 2.062 2.063 2.062h7.875c1.142 0 2.062-.92 2.062-2.062V3.025c0-1.142-.92-2.063-2.062-2.063H4.061zm-.063 1h8c.554 0 1 .446 1 1v8c0 .554-.446 1-1 1H4c-.554 0-1-.446-1-1v-8c0-.554.446-1 1-1zm1 7a1 1 0 0 0-1 1 1 1 0 0 0 1 1 1 1 0 0 0 1-1 1 1 0 0 0-1-1zm6 0a1 1 0 0 0-1 1 1 1 0 0 0 1 1 1 1 0 0 0 1-1 1 1 0 0 0-1-1zm-6.635 4.996-1.152 1.139c-.475.469.228 1.182.703.713l1.871-1.852H4.365zm5.903 0 1.87 1.852c.476.469 1.179-.244.704-.713l-1.153-1.139h-1.421z"/>
        <path d="m8 1040.8-5.998 3.115.445.895 5.534-2.883 5.54 2.877.477-.88z" color="#000" style="-inkscape-stroke:none" transform="translate(0 -1036.4)"/>
        <path d="M7.5 1038.4h1v3h-1z" style="paint-order:stroke fill markers" transform="translate(0 -1036.4)"/>
    </g>
</svg>
