<svg xmlns="http://www.w3.org/2000/svg" width="16" height="16">
    <g fill="#fdfdfd" fill-opacity=".7" fill-rule="evenodd">
        <path d="M7.994 2A5.994 5.994 0 0 0 2 7.994a5.994 5.994 0 0 0 5.994 5.994 5.994 5.994 0 0 0 5.994-5.994A5.994 5.994 0 0 0 7.994 2zm0 1a4.994 4.994 0 0 1 4.994 4.994 4.994 4.994 0 0 1-4.994 4.994A4.994 4.994 0 0 1 3 7.994 4.994 4.994 0 0 1 7.994 3z" opacity=".35" style="paint-order:stroke fill markers"/>
        <path d="M7.5 0v4.5h1V0h-1zm0 5.5v2h1v-2h-1zm0 3v2h1v-2h-1zm0 3V16h1v-4.5h-1z" style="paint-order:stroke fill markers"/>
        <path d="M9.107-1.006v2.029c.331-.033.663-.032.993.001l.001-2.028zm3.141-.562-1.18 2.792c.32.099.629.23.923.39l1.18-2.792zM14.48.925l-1.517 1.387c.245.225.467.474.663.743l1.526-1.397zM16.17 3.41l-1.984.643c.112.264.201.537.266.816l.022.136 2-.649zM14.57 6.126c-.008.335-.05.667-.125.994l3.023.384.126-.991zm-.508 2.062a4.994 4.994 0 0 1-.525.845l1.845 1.121.518-.849zM12.723 9.87c-.26.208-.539.39-.834.543l1.2 1.81.829-.548z" style="paint-order:stroke fill markers" transform="rotate(12.997)"/>
        <path d="M8 2v1a4.994 4.994 0 0 1 4.988 4.994A4.994 4.994 0 0 1 8 12.988v1a5.994 5.994 0 0 0 5.988-5.994A5.994 5.994 0 0 0 8 2z" style="paint-order:stroke fill markers"/>
    </g>
</svg>
