<svg xmlns="http://www.w3.org/2000/svg" width="16.003" height="16">
    <rect width="7" height="1" x="4.502" y="6" fill="#fdfdfd" fill-opacity=".7" ry=".5" style="paint-order:stroke fill markers"/>
    <rect width="4" height="1" x="8.875" y="-3.683" fill="#fdfdfd" fill-opacity=".7" ry=".5" style="paint-order:stroke fill markers" transform="rotate(45)"/>
    <rect width="7" height="1" x="-11.502" y="-10" fill="#fdfdfd" fill-opacity=".7" ry=".5" style="paint-order:stroke fill markers" transform="scale(-1)"/>
    <rect width="4" height="1" x="-13.755" y="-3.681" fill="#fdfdfd" fill-opacity=".7" ry=".5" style="paint-order:stroke fill markers" transform="rotate(225)"/>
    <path fill="#fdfdfd" fill-opacity=".7" d="M8 1a7 7 0 0 0-7 7 7 7 0 0 0 7 7 7 7 0 0 0 7-7 7 7 0 0 0-7-7zm0 1a6 6 0 0 1 6 6 6 6 0 0 1-6 6 6 6 0 0 1-6-6 6 6 0 0 1 6-6z"/>
</svg>
