<svg xmlns="http://www.w3.org/2000/svg" width="16" height="16">
    <path fill="#fdfdfd" fill-opacity=".7" d="M13 1a2 2 0 0 0-1.957 1.676l-7.162.65A2 2 0 0 0 2 2a2 2 0 0 0-2 2 2 2 0 0 0 1.5 1.934v6.132A2 2 0 0 0 0 14a2 2 0 0 0 2 2 2 2 0 0 0 2-2 2 2 0 0 0-.193-.854l3.039-2.533A2 2 0 0 0 8 11a2 2 0 0 0 1.496-.693l2.559 1.279A2 2 0 0 0 12 12a2 2 0 0 0 2 2 2 2 0 0 0 2-2 2 2 0 0 0-1.717-1.977l-.574-5.17A2 2 0 0 0 15 3a2 2 0 0 0-2-2zm0 1a1 1 0 0 1 1 1 1 1 0 0 1-1 1 1 1 0 0 1-1-1 1 1 0 0 1 1-1zM2 3a1 1 0 0 1 1 1 1 1 0 0 1-1 1 1 1 0 0 1-1-1 1 1 0 0 1 1-1zm9.133.672a2 2 0 0 0 1.582 1.29l.576 5.184a2 2 0 0 0-.787.547L9.945 9.414A2 2 0 0 0 10 9a2 2 0 0 0-2-2 2 2 0 0 0-2 2 2 2 0 0 0 .203.846l-3.037 2.53a2 2 0 0 0-.666-.31V5.934a2 2 0 0 0 1.457-1.61l7.176-.652zM8 8a1 1 0 0 1 1 1 1 1 0 0 1-1 1 1 1 0 0 1-1-1 1 1 0 0 1 1-1zm6 3a1 1 0 0 1 1 1 1 1 0 0 1-1 1 1 1 0 0 1-1-1 1 1 0 0 1 1-1zM2 13a1 1 0 0 1 1 1 1 1 0 0 1-1 1 1 1 0 0 1-1-1 1 1 0 0 1 1-1z"/>
</svg>
