<svg xmlns="http://www.w3.org/2000/svg" width="16" height="16">
    <path fill="#fdfdfd" fill-opacity=".7" fill-rule="evenodd" d="M6 6c-1.108 0-2 .892-2 2v1h9V8c0-1.108-.892-2-2-2H6zm0 1h5c.554 0 1 .446 1 1H5c0-.554.446-1 1-1zM8 1c-.554 0-1 .446-1 1v4h1V2h1v4h1V2c0-.554-.446-1-1-1H8z"/>
    <path fill="#fdfdfd" fill-opacity=".7" d="M4 10v1c0 .833-.204 1.422-.395 1.803-.19.38-.312.49-.312.49L1.586 15H11c.719 0 1.293-.538 1.537-1 .245-.462.335-.925.395-1.363.12-.878.066-1.696.066-1.696L12.943 10H4zm1 1h7s.178 3-1 3H4s1-1 1-3z" color="#000"/>
</svg>
