<svg xmlns="http://www.w3.org/2000/svg" width="16" height="16">
    <path fill="#fdfdfd" d="M6.5 1A3.5 3.5 0 0 0 3 4.5a3.5 3.5 0 0 0 1.2 2.63c-.127.264-.2.558-.2.87v.898L1.152 7H0v6h1.152L4 11.102V13c0 1.108.892 2 2 2h7c1.108 0 2-.892 2-2v-2l1-1V8h-1c0-.311-.071-.605-.197-.867A3.5 3.5 0 0 0 16 4.5 3.5 3.5 0 0 0 12.5 1a3.5 3.5 0 0 0-2.998 1.701 3.5 3.5 0 0 0-3.002-1.7zm0 1A2.5 2.5 0 0 1 9 4.5 2.5 2.5 0 0 1 8.49 6H6c-.432 0-.83.136-1.156.367A2.5 2.5 0 0 1 4 4.5 2.5 2.5 0 0 1 6.5 2zm0 4A1.5 1.5 0 0 0 8 4.5 1.5 1.5 0 0 0 6.5 3 1.5 1.5 0 0 0 5 4.5 1.5 1.5 0 0 0 6.5 6zm6-4A2.5 2.5 0 0 1 15 4.5a2.5 2.5 0 0 1-.844 1.867A1.99 1.99 0 0 0 13 6h-2.49A2.5 2.5 0 0 1 10 4.5 2.5 2.5 0 0 1 12.5 2zm0 4A1.5 1.5 0 0 0 14 4.5 1.5 1.5 0 0 0 12.5 3 1.5 1.5 0 0 0 11 4.5 1.5 1.5 0 0 0 12.5 6zm-6-2a.5.5 0 0 1 .5.5.5.5 0 0 1-.5.5.5.5 0 0 1-.5-.5.5.5 0 0 1 .5-.5zm6 0a.5.5 0 0 1 .5.5.5.5 0 0 1-.5.5.5.5 0 0 1-.5-.5.5.5 0 0 1 .5-.5zM6 7h7c.028 0 .055.002.082.004l.02.002a1 1 0 0 1 .06.008l.008.002.059.011.013.002.031.01c.015.004.03.007.043.012a.99.99 0 0 1 .075.027c.03.013.057.028.086.043l.05.03.002.001c.02.012.039.024.057.037l.006.004a1.001 1.001 0 0 1 .168.157l.006.007c.014.018.03.035.043.053l.007.01.028.043.008.012.025.046.012.02.017.035A.988.988 0 0 1 14 8v5c0 .554-.446 1-1 1H6c-.554 0-1-.446-1-1V8c0-.554.446-1 1-1zm6.5 1a.5.5 0 0 0-.5.5.5.5 0 0 0 .5.5.5.5 0 0 0 .5-.5.5.5 0 0 0-.5-.5zM1 8.102l2.5 1.666v.464L1 11.898V8.102z" opacity=".7" style="paint-order:stroke fill markers"/>
</svg>
