<svg xmlns="http://www.w3.org/2000/svg" width="16" height="16">
    <path fill="#fdfdfd" fill-opacity=".7" d="M6 6c-1.108 0-2 .892-2 2v2c0 1.108.892 2 2 2h2c1.108 0 2-.892 2-2V8c0-1.108-.892-2-2-2zm0 1h2c.554 0 1 .446 1 1v2c0 .554-.446 1-1 1H6c-.554 0-1-.446-1-1V8c0-.554.446-1 1-1z" style="paint-order:stroke fill markers"/>
    <path fill="#fdfdfd" d="M8 4c-1.108 0-2 .892-2 2h1c0-.554.446-1 1-1h2c.554 0 1 .446 1 1v2c0 .554-.446 1-1 1v1c1.108 0 2-.892 2-2V6c0-1.108-.892-2-2-2H8z" opacity=".35" style="paint-order:stroke fill markers"/>
</svg>
