<svg xmlns="http://www.w3.org/2000/svg" width="16" height="16">
    <path fill="#fdfdfd" fill-opacity=".7" d="M1 10v1h1v-1H1zm13 0v1h1v-1h-1zM1 12v1c0 .236.029.465.08.686l.928-.536C2.004 13.1 2 13.05 2 13v-1H1zm13 0v.805l.998.267L15 13v-1h-1zm-.164 1.795a2 2 0 0 1-.422.619l.707.707c.298-.299.534-.66.686-1.064l-.971-.262zm-11.498.32-.865.5c.234.367.546.678.912.912l.502-.867a1.998 1.998 0 0 1-.55-.545zm10.18.817A2.008 2.008 0 0 1 12 15v1c.465 0 .902-.106 1.293-.293l-.775-.775zm-8.668.062-.535.926c.22.051.45.08.685.08h1v-1H4c-.05 0-.1-.002-.15-.006zM6 15v1h1v-1H6zm2 0v1h1v-1H8zm2 0v1h1v-1h-1z"/>
    <path fill="#fdfdfd" fill-opacity=".7" d="M4 0C2.338 0 1 1.338 1 3v6h1V3c0-1.108.892-2 2-2h6v2c0 1.108.892 2 2 2h2v4h1V4l-4-4H4z" color="#fdfdfd" style="color:#fdfdfd;opacity:.7"/>
</svg>
