<svg xmlns="http://www.w3.org/2000/svg" width="22" height="22">
    <defs>
        <style id="current-color-scheme" type="text/css">
            .ColorScheme-Highlight{color:#a0b6cb}
        </style>
    </defs>
    <path fill="currentColor" d="M11 3a8 8 0 0 0-8 8 8 8 0 0 0 8 8 8 8 0 0 0 8-8 8 8 0 0 0-8-8zm2.754 4.95a.47.47 0 0 1 .344.142l.687.688a.465.465 0 0 1 .142.342.47.47 0 0 1-.142.345l-3.663 3.663-.687.69a.47.47 0 0 1-.345.141.465.465 0 0 1-.343-.141l-2.52-2.52a.471.471 0 0 1-.143-.345c0-.135.05-.25.143-.345l.688-.687a.47.47 0 0 1 .345-.141c.135 0 .248.047.342.14l1.488 1.495 3.32-3.325a.47.47 0 0 1 .344-.142z" style="color:#050505;opacity:.7"/>
</svg>
