<svg xmlns="http://www.w3.org/2000/svg" width="22" height="22">
    <defs>
        <style id="current-color-scheme" type="text/css">
            .ColorScheme-Highlight{color:#a0b6cb}
        </style>
    </defs>
    <path fill="currentColor" d="M5 4c-1.108 0-2 .892-2 2v8c0 1.108.892 2 2 2h1.522L9 19l2-3h6c1.108 0 2-.892 2-2V6c0-1.108-.892-2-2-2zm0 1h12c.554 0 1 .446 1 1v8c0 .554-.446 1-1 1h-6.434L9 17.4 7.034 15H5c-.554 0-1-.446-1-1V6c0-.554.446-1 1-1zm-.7 11c.153.017.322.021.524 0z" style="color:#050505;opacity:.7"/>
</svg>
