<svg xmlns="http://www.w3.org/2000/svg" width="22" height="22">
    <defs>
        <style id="current-color-scheme" type="text/css">
            .ColorScheme-Highlight{color:#a0b6cb}
        </style>
    </defs>
    <g fill="currentColor" style="color:#050505;opacity:.7">
        <path d="M11 4C9.338 4 8 5.338 8 7v4c0 1.662 1.338 3 3 3s3-1.338 3-3V7c0-1.662-1.338-3-3-3zM9.5 7c.277 0 .5.223.5.5v3a.5.5 0 1 1-1 0v-3c0-.277.223-.5.5-.5zm3 0c.277 0 .5.223.5.5v3a.5.5 0 1 1-1 0v-3c0-.277.223-.5.5-.5z"/>
        <path d="M6.5 9c-.277 0-.5.223-.5.5V11a4.99 4.99 0 0 0 4.5 4.975V17h-2a.5.5 0 1 0 0 1h5a.5.5 0 1 0 0-1h-2v-1.025A4.988 4.988 0 0 0 16 11V9.5a.5.5 0 1 0-1 0V11c0 2.216-1.784 4-4 4s-4-1.784-4-4V9.5c0-.277-.223-.5-.5-.5z"/>
    </g>
</svg>
