<svg xmlns="http://www.w3.org/2000/svg" viewBox="0 0 22 22">
    <defs>
        <style id="current-color-scheme" type="text/css">
            .ColorScheme-Highlight{color:#a0b6cb}
        </style>
    </defs>
    <path fill="currentColor" d="M11 3.09A7.91 7.91 0 0 0 3.09 11 7.91 7.91 0 0 0 11 18.91 7.91 7.91 0 0 0 18.91 11 7.91 7.91 0 0 0 11 3.09zm0 .873a.75.75 0 1 1 0 1.5.75.75 0 0 1 0-1.5zM10.998 6A5.008 5.008 0 0 1 16 11c0 2.757-2.245 5-5.002 5A5.004 5.004 0 0 1 6 11c0-2.756 2.24-5 4.998-5zM11 7.5c-1.93 0-3.5 1.57-3.5 3.5s1.57 3.5 3.5 3.5 3.5-1.57 3.5-3.5-1.57-3.5-3.5-3.5zM9.78 9c.09 0 .167.03.23.1l.99.99.99-.99c.06-.07.14-.1.229-.1.09 0 .165.03.228.1l.46.455a.309.309 0 0 1 .093.228c0 .09-.03.166-.094.227l-.99.99.99.992a.317.317 0 0 1 .094.229c0 .09-.03.167-.094.23l-.459.457a.307.307 0 0 1-.228.092.306.306 0 0 1-.229-.092l-.99-.99-.99.99a.31.31 0 0 1-.23.092.307.307 0 0 1-.227-.092l-.463-.457a.322.322 0 0 1-.09-.23c0-.091.03-.161.09-.229l.99-.992-.99-.99A.311.311 0 0 1 9 9.783c0-.09.03-.165.09-.228l.463-.455A.29.29 0 0 1 9.78 9z" style="color:#050505;opacity:.7"/>
</svg>
