<svg xmlns="http://www.w3.org/2000/svg" width="22" height="22">
    <defs>
        <style id="current-color-scheme" type="text/css">
            .ColorScheme-Text{color:#050505;opacity:.7}
        </style>
    </defs>
    <g fill="currentColor" class="ColorScheme-Text">
        <path d="M19.522 4.5s-.202 2.152-4.021 3.857c-.035.917-.164 1.84-.483 2.719-.525 1.447-1.598 2.766-3.303 3.442-2.753 1.091-4.087 2.461-4.777 3.601 1.152-.832 3.028-1.635 6.113-1.945C18.892 15.588 19.522 4.5 19.522 4.5z" class="ColorScheme-Text" opacity=".5"/>
        <path d="M13.264 1.5s.423 3.219-3.242 6.002c.302.851.51 1.774.5 2.734a5.474 5.474 0 0 1-1.576 3.823 13.228 13.228 0 0 0-1.701 2.091c.908-.905 2.208-1.812 4.101-2.562C17.112 11.303 13.264 1.5 13.264 1.5z" class="ColorScheme-Text" opacity=".75"/>
        <path d="M3.203 12.001C7.449 7.004 6.494 3.5 6.494 3.5s5.439 6.087 1.738 9.858C4.097 17.57 5.247 20.5 5.247 20.5s-4.479-5.633-2.044-8.499z" class="ColorScheme-Text"/>
    </g>
</svg>
