<svg xmlns="http://www.w3.org/2000/svg" width="22" height="22">
    <path fill="currentColor" fill-opacity=".7" d="M10.943 3.5A7.5 7.5 0 0 0 3.5 11a7.5 7.5 0 0 0 7.5 7.5 7.5 7.5 0 0 0 7.5-7.5A7.5 7.5 0 0 0 11 3.5a7.5 7.5 0 0 0-.057 0zm.004 1a6.5 6.5 0 0 1 .053 0 6.5 6.5 0 0 1 6.5 6.5 6.5 6.5 0 0 1-6.5 6.5A6.5 6.5 0 0 1 4.5 11a6.5 6.5 0 0 1 6.447-6.5zm.932 2.377a.5.5 0 0 0-.354.148.499.499 0 0 0 0 .707L12.793 9H8a.499.499 0 1 0 0 1h6a.498.498 0 0 0 .418-.225l.021-.037.004-.006c.003-.004.003-.01.006-.015a.491.491 0 0 0 .04-.121l.009-.045v-.004a.514.514 0 0 0-.055-.28l-.004-.005a.492.492 0 0 0-.021-.037l-.004-.004-.01-.016-.018-.023c-.01-.013-.022-.024-.033-.036l-2.121-2.12a.5.5 0 0 0-.353-.15zM7.999 12a.498.498 0 0 0-.216.05l-.016.007c-.002 0-.004.002-.006.004-.012.006-.025.015-.037.023a.493.493 0 0 0-.11.098l-.001.004a.515.515 0 0 0-.03.039l-.001.002a.498.498 0 0 0-.022.035l-.01.021a.496.496 0 0 0-.027.069l-.002.007a.492.492 0 0 0-.002.278l.002.006.002.006c.004.013.008.027.014.04l.01.022c.003.007.005.014.01.022 0 .002.002.003.003.005l.022.038.004.003a.526.526 0 0 0 .027.038l.002.002a.48.48 0 0 0 .031.035l.035.033 2.086 2.088a.499.499 0 1 0 .707-.707L9.207 13H14a.499.499 0 1 0 0-1H8z" color="#050505" style="color:#050505;opacity:.7"/>
</svg>
