<svg xmlns="http://www.w3.org/2000/svg" width="16" height="16">
    <path fill="#050505" fill-opacity=".7" d="M8.012 0c-.745 0-1.38.397-1.717.994h-.011L.253 12.123c-.005.033-.044.099-.044.099a1.822 1.822 0 0 0 .11 1.888c.353.497 1.04.894 1.654.894H14.08c.664 0 1.32-.397 1.668-.993.265-.398.278-.895.182-1.391a.989.989 0 0 0-.088-.398.988.988 0 0 0-.033-.1L9.733.995h-.006C9.377.398 8.69 0 8.012 0zm0 .994c.352 0 .668.198.842.496l6.076 11.13a.903.903 0 0 1-.039.894.896.896 0 0 1-.81.497H1.974c-.353 0-.634-.2-.809-.398a1.1 1.1 0 0 1-.031-.994L7.165 1.49a.995.995 0 0 1 .848-.496z"/>
    <rect width="1" height="6" x="7.5" y="4" fill="#050505" fill-opacity=".7" rx=".5" ry=".5"/>
    <circle cx="8" cy="11.5" r=".5" fill="#050505" fill-opacity=".7"/>
</svg>
