<svg xmlns="http://www.w3.org/2000/svg" width="16" height="16">
    <path fill="#050505" fill-opacity=".7" d="M8.105 0C6.615.041 5.374.74 4.71 2.078l-.002.002c-.177.362-.3.739-.383 1.12-.13.579-.241 1.167-.373 1.73v.002H3.95a1.99 1.99 0 0 1-.582 1.037h.002a15.156 15.156 0 0 0-3.008 4.148l-.002.002v.002c-.105.218-.223.458-.306.734l-.002.002v.002c-.11.385-.026.82.254 1.09s.692.345 1.08.256c.302-.062.62-.13.937-.224.543 1.69 1.714 2.946 3.426 3.609h.004c3.282 1.243 7.054-.457 8.031-3.582.31.086.618.158.908.226l.012.004.012.002c.286.053.595.01.84-.16.244-.17.393-.451.435-.74l.002-.006v-.008c.04-.341-.076-.61-.154-.797l-.512.213.506-.224a14.82 14.82 0 0 0-2.979-4.391l.004.002a2.731 2.731 0 0 1-.671-1.192l-.002-.007-.004-.008a8.252 8.252 0 0 1-.168-.713v-.006L12.01 4.2c-.14-.617-.208-1.338-.563-2.06C10.834.817 9.654.058 8.137 0H8.12zm.01 1.004c1.228.051 1.948.52 2.428 1.559l.004.005.002.006c.257.52.327 1.146.486 1.846.051.247.104.508.184.775.163.612.479 1.173.918 1.63h.002l.002.001a13.806 13.806 0 0 1 2.775 4.096l.002.002c.066.159.083.236.078.283-.008.04-.017.053-.013.05.004-.002-.005.014-.086-.001-.346-.08-.676-.152-.983-.244-.175-.059-.439-.099-.672.052-.232.151-.285.356-.322.498-.694 2.614-3.99 4.16-6.81 3.094-1.508-.583-2.434-1.571-2.881-3.052l.007.023c-.05-.201-.138-.455-.412-.604-.273-.148-.54-.083-.748-.007l.024-.008a9.914 9.914 0 0 1-.926.22l-.006.003h-.006c-.137.03-.166-.006-.162-.002.004.003-.017.013.012-.09v-.002c.052-.172.144-.365.248-.58a14.132 14.132 0 0 1 2.806-3.871v-.002h.002a3.08 3.08 0 0 0 .856-1.526v-.002c.138-.59.252-1.184.377-1.742V3.41c.067-.309.167-.606.305-.888V2.52c.516-1.04 1.298-1.478 2.51-1.516zm-.023 2.693a5.07 5.07 0 0 0-2.04.407c-.291.12-.589.359-.62.738s.216.661.48.832h.002v.002c.18.115.5.304.807.486.153.091.3.177.416.248.115.071.22.145.197.127l.004.004.004.002c.2.155.444.274.72.28.277.005.542-.112.75-.278l-.011.01c-.013.01.09-.06.207-.131l.418-.25c.306-.182.624-.37.81-.494l.004-.002-.002-.002c.257-.169.493-.44.473-.805-.02-.366-.304-.622-.588-.744l-.004-.002h-.004a5.48 5.48 0 0 0-2.023-.428zm-.008.992c.452.006.908.139 1.37.3-.163.1-.325.198-.54.325l-.426.256c-.122.075-.199.118-.287.184l-.006.004-.006.006c-.083.066-.1.058-.105.058-.005 0-.041-.002-.133-.072-.094-.074-.17-.117-.29-.191a35.236 35.236 0 0 0-.429-.258 71.116 71.116 0 0 1-.543-.326c.468-.166.933-.291 1.395-.286zm1.606.155.273.418-.27-.405c-.006.006.011-.023-.003-.013z"/>
</svg>
