<svg xmlns="http://www.w3.org/2000/svg" width="16" height="16">
    <path fill="#050505" fill-opacity=".7" d="M8 1c1.662 0 3 1.338 3 3v2h-1V4c0-1.108-.892-2-2-2H4c-1.108 0-2 .892-2 2v8c0 1.108.892 2 2 2h4c1.108 0 2-.892 2-2v-2h1v2c0 1.662-1.338 3-3 3H4c-1.662 0-3-1.338-3-3V4c0-1.662 1.338-3 3-3zm4.672 3.67a.5.5 0 0 1 .353.148l2.829 2.828a.48.48 0 0 1 .033.038v.001l.008.01a.493.493 0 0 1 .033.051l.006.01c.01.018.02.036.029.056l.006.016a.486.486 0 0 1 .03.121v.004a.498.498 0 0 1 0 .094v.002a.514.514 0 0 1-.036.14c-.004.011-.01.021-.016.032-.007.014-.014.029-.023.043a.49.49 0 0 1-.027.039l-.01.011v.002a.509.509 0 0 1-.033.037l-2.829 2.829a.499.499 0 1 1-.707-.707L14.293 8.5H6.5a.499.499 0 1 1 0-1h7.793l-1.975-1.975a.499.499 0 0 1 0-.707.5.5 0 0 1 .354-.148z"/>
</svg>
