<svg xmlns="http://www.w3.org/2000/svg" width="16" height="16">
    <path fill="#050505" fill-opacity=".7" d="m7.5 0 1.918 1.918c.173-.2.387-.373.623-.516.017-.375.117-.732.281-1.05A8.027 8.027 0 0 0 7.967 0zM6.066.834c-.25 0-.499.099-.699.299L1.1 5.4c-.4.4-.4 1 0 1.4l8 8c.4.4 1 .4 1.4 0l4.268-4.267c.4-.4.4-1 0-1.4L12.635 7h-1.403L14.1 9.867l-4.266 4.266-8-8L6.1 1.867l2.9 2.9V3.366L6.768 1.133a.988.988 0 0 0-.701-.299zm9.659 5.164c-.198.336-.49.61-.838.787.033.18.06.364.08.549h1a8.296 8.296 0 0 0-.242-1.336zM.034 8.666C.367 12.8 3.767 16 7.967 16h.467l-2.533-2.533-.934.867c-2.2-1-3.733-3.135-4-5.668z"/>
    <path fill="#050505" fill-opacity=".7" d="M12.5 0c-.831 0-1.5.669-1.5 1.5V2c-.554 0-1 .446-1 1v2c0 .554.446 1 1 1h3c.554 0 1-.446 1-1V3c0-.554-.446-1-1-1v-.5c0-.831-.669-1.5-1.5-1.5zm0 1c.277 0 .5.223.5.5V2h-1v-.5c0-.277.223-.5.5-.5zM11 3h3v2h-3z" color="#000" style="-inkscape-stroke:none"/>
</svg>
