<svg xmlns="http://www.w3.org/2000/svg" width="16" height="16">
    <path fill="#050505" fill-opacity=".7" d="M8.707.222a.998.998 0 0 0-1.414 0L.222 7.292a.998.998 0 0 0 0 1.415l7.07 7.071a.998.998 0 0 0 1.415 0l7.071-7.07a.998.998 0 0 0 0-1.415zM8 .929 15.071 8 8 15.071.929 8z"/>
    <path fill="#050505" fill-opacity=".7" d="M10.828 5.172a4 3 45 0 0-4.95-.708.998.998 0 0 0 0 1.415l1.768 1.767-2.828 2.829.707.707 2.828-2.828 1.768 1.767a.998.998 0 0 0 1.414 0l1.414-1.414a.998.998 0 0 0 0-1.414zm-.707.707L12.242 8l-1.414 1.414-4.243-4.242a3 2 45 0 1 3.536.707z"/>
</svg>
