<svg xmlns="http://www.w3.org/2000/svg" width="16" height="16">
    <path fill="#050505" fill-opacity=".7" fill-rule="evenodd" d="M5 0v1h1V0zm1 1v1H5V1H3c-1.108 0-2 .892-2 2v10c0 1.108.892 2 2 2h10c1.108 0 2-.892 2-2V3c0-1.108-.892-2-2-2h-2v1h-1V1zm4 0h1V0h-1zM3 5h10c.554 0 1 .446 1 1v7c0 .554-.446 1-1 1H3c-.554 0-1-.446-1-1V6c0-.554.446-1 1-1z" style="paint-order:stroke fill markers"/>
    <path fill="#050505" fill-opacity=".7" fill-rule="evenodd" d="M4 7h2v1H4zM7 7h2v1H7zM10 7h2v1h-2zM4 9h2v1H4zM7 9h2v1H7zM10 9h2v1h-2zM4 11h2v1H4zM7 11h2v1H7z" style="paint-order:stroke fill markers"/>
</svg>
