<svg xmlns="http://www.w3.org/2000/svg" width="16" height="16">
    <style>
        .base{fill:#000}.success{fill:#add49f}.warning{fill:#f4b9be}.error{fill:#a0b6cb}
    </style>
    <g fill="#050505" opacity=".7">
        <g transform="translate(8.988 8.987) scale(.4375)">
            <g id="edit-cut" fill="#050505" opacity=".7">
                <path fill-opacity=".7" d="M3.36-.011C2.322.46 1.983 1.487 2.582 2.304l4.33 6.2L5.2 10.522l1.385 1.776 1.576-2.116 1.547 2.116 1.372-1.701-1.667-2.091 4.329-6.201c.6-.817.26-1.843-.778-2.315L8.162 6.802z"/>
                <path fill-opacity=".7" d="M12.5 8.989a3.5 3.5 0 1 0 0 7 3.5 3.5 0 0 0 0-7zm0 2a1.5 1.5 0 1 1 0 3 1.5 1.5 0 0 1 0-3zM3.5 8.989a3.5 3.5 0 1 0 0 7 3.5 3.5 0 0 0 0-7zm0 2a1.5 1.5 0 1 1 0 3 1.5 1.5 0 0 1 0-3z"/>
            </g>
        </g>
        <path stroke-width=".778" d="M.78 10.55h2.342v1.55l-1.561-.775zm3.122 0h2.342l-.78.775-1.561.775zm-2.341 2.325h3.903c-1.932 3.48-3.903 0-3.903 0z"/>
        <path d="M0 9v3.754C0 14.087 1.562 15.2 3.488 16 5.464 15.2 7 14.298 7 12.803V9H0zm1 1h5v2.803c0 .405-.158.687-.646 1.084-.404.327-1.112.656-1.85.978-.715-.329-1.407-.681-1.828-1.045C1.17 13.384 1 13.03 1 12.754V10z" color="#000" style="-inkscape-stroke:none"/>
    </g>
</svg>
