<svg xmlns="http://www.w3.org/2000/svg" width="16" height="16" viewBox="0 0 4.233 4.233">
    <path fill="#050505" fill-opacity=".7" d="M0 293.03v.265h.265v2.645H0v.265h.53a.794.794 0 0 1 .002-.067.794.794 0 0 1 .015-.1.79.79 0 0 1 .025-.09.794.794 0 0 1 .75-.537.794.794 0 0 1 .795.794h.264a.794.794 0 0 1 .794-.794.794.794 0 0 1 .794.794h.264v-1.588a.264.264 0 0 0-.264-.264h-.265v-1.058h.265v-.265H2.646v.265h.264v1.058h-.793v-1.058a.264.264 0 0 0-.265-.265H0zm.53.265h1.322v1.058H.53v-1.058zm2.645 0h.265v1.058h-.265v-1.058zm-2.646 1.322H3.97v.888a1.058 1.058 0 0 0-.794-.358 1.058 1.058 0 0 0-.926.547 1.058 1.058 0 0 0-.926-.547 1.058 1.058 0 0 0-.794.359v-.889zm.794 1.059a.53.53 0 0 0-.53.529.53.53 0 0 0 .53.53.53.53 0 0 0 .53-.53.53.53 0 0 0-.53-.53zm1.852 0a.53.53 0 0 0-.53.529.53.53 0 0 0 .53.53.53.53 0 0 0 .53-.53.53.53 0 0 0-.53-.53zm-1.852.264a.265.265 0 0 1 .264.265.265.265 0 0 1-.264.265.265.265 0 0 1-.265-.265.265.265 0 0 1 .265-.265zm1.852 0a.265.265 0 0 1 .265.265.265.265 0 0 1-.265.265.265.265 0 0 1-.265-.265.265.265 0 0 1 .265-.265z" style="paint-order:stroke fill markers" transform="translate(0 -292.77)"/>
</svg>
