<svg xmlns="http://www.w3.org/2000/svg" width="16" height="16">
    <path fill="#050505" fill-opacity=".7" d="M1 2v1h2.586l.187 1h-.002l1.125 6h-.36a.5.5 0 0 0-.036 0A1.502 1.502 0 0 0 3.2 12.25c.268.463.764.75 1.299.75h.588a1.5 1.5 0 0 0-.088.5A1.5 1.5 0 0 0 6.5 15 1.5 1.5 0 0 0 8 13.5a1.5 1.5 0 0 0-.088-.5h3.176a1.5 1.5 0 0 0-.088.5 1.5 1.5 0 0 0 1.5 1.5 1.5 1.5 0 0 0 1.5-1.5 1.5 1.5 0 0 0-1.438-1.496A.5.5 0 0 0 12.5 12h-8a.499.499 0 1 1 0-1h7c.647 0 1.207-.309 1.611-.754.404-.445.689-1.018.92-1.648.463-1.262.712-2.779.96-3.998A.5.5 0 0 0 14.5 4H4.789l-.375-2H1zm3.979 3H6v1h1V5h1v1h1V5h1v1h1V5h1v1h1V5h.867c-.064.328-.134.664-.201 1H13v1h.451a12.2 12.2 0 0 1-.277 1H13v.463c-.077.188-.153.379-.238.537H12v.871c-.15.082-.31.129-.5.129H11V9h-1v1H9V9H8v1H7V9H6v1h-.084l-.187-1H6V8h-.459l-.187-1H6V6h-.834l-.187-1zM6 7v1h1V7zm1 0h1V6H7zm1 0v1h1V7zm1 0h1V6H9zm1 0v1h1V7zm1 0h1V6h-1zm1 0v1h1V7zm0 1h-1v1h1zm-2 0H9v1h1zM8 8H7v1h1zm-1.5 5a.5.5 0 0 1 .5.5.5.5 0 0 1-.5.5.5.5 0 0 1-.5-.5.5.5 0 0 1 .5-.5zm6 0a.5.5 0 0 1 .5.5.5.5 0 0 1-.5.5.5.5 0 0 1-.5-.5.5.5 0 0 1 .5-.5z"/>
</svg>
