<svg xmlns="http://www.w3.org/2000/svg" width="22" height="22">
    <path fill="currentColor" d="M19 5c0-1.108-.892-2-2-2h-3c-1.108 0-2 .892-2 2v2c0 1.108.892 2 2 2h3c1.108 0 2-.892 2-2zm-1 0v2c0 .554-.446 1-1 1h-3c-.554 0-1-.446-1-1V5c0-.554.446-1 1-1h3c.554 0 1 .446 1 1zm0 10c0-1.108-.892-2-2-2h-2c-1.108 0-2 .892-2 2v2c0 1.108.892 2 2 2h2c1.108 0 2-.892 2-2zm-1 0v2c0 .554-.446 1-1 1h-2c-.554 0-1-.446-1-1v-2c0-.554.446-1 1-1h2c.554 0 1 .446 1 1zM10 3.5a.499.499 0 1 0-1 0v15a.499.499 0 1 0 1 0zM7 14c0-.554-.446-1-1-1H4c-.554 0-1 .446-1 1v4c0 .554.446 1 1 1h2c.554 0 1-.446 1-1z" style="color:#050505;opacity:.7"/>
</svg>
