<svg xmlns="http://www.w3.org/2000/svg" width="22" height="22">
    <defs>
        <style id="current-color-scheme" type="text/css">
            .ColorScheme-Text{color:#050505;opacity:.7}
        </style>
    </defs>
    <path fill="currentColor" d="M14 3c1.108 0 2 .892 2 2v2c0 1.108-.892 2-2 2H5c-1.108 0-2-.892-2-2V5c0-1.108.892-2 2-2zm0 1H5c-.554 0-1 .446-1 1v2c0 .554.446 1 1 1h9c.554 0 1-.446 1-1V5c0-.554-.446-1-1-1zM14 13c1.108 0 2 .892 2 2v2c0 1.108-.892 2-2 2h-2c-1.108 0-2-.892-2-2v-2c0-1.108.892-2 2-2zm0 1h-2c-.554 0-1 .446-1 1v2c0 .554.446 1 1 1h2c.554 0 1-.446 1-1v-2c0-.554-.446-1-1-1z" class="ColorScheme-Text"/>
    <rect width="1" height="16" x="-19" y="3" fill="currentColor" class="ColorScheme-Text" rx=".5" ry=".5" transform="scale(-1 1)"/>
</svg>
