<svg xmlns="http://www.w3.org/2000/svg" width="22" height="22">
    <defs>
        <style id="current-color-scheme" type="text/css">
            .ColorScheme-Text{color:#050505;opacity:.7}
        </style>
    </defs>
    <path fill="currentColor" d="M9 7c0-1.108-.892-2-2-2H6c-1.108 0-2 .892-2 2v8c0 1.108.892 2 2 2h1c1.108 0 2-.892 2-2zM8 7v8c0 .554-.446 1-1 1H6c-.554 0-1-.446-1-1V7c0-.554.446-1 1-1h1c.554 0 1 .446 1 1zM18 10c0-1.108-.892-2-2-2h-1c-1.108 0-2 .892-2 2v2c0 1.108.892 2 2 2h1c1.108 0 2-.892 2-2zm-1 0v2c0 .554-.446 1-1 1h-1c-.554 0-1-.446-1-1v-2c0-.554.446-1 1-1h1c.554 0 1 .446 1 1z" class="ColorScheme-Text"/>
    <path fill="currentColor" d="M19 11c0-.277-.223-.5-.5-.5H17v1h1.5c.277 0 .5-.223.5-.5zm-5-.5H8v1h6zm-9 0H3.5a.499.499 0 1 0 0 1H5z" class="ColorScheme-Text"/>
</svg>
