<svg xmlns="http://www.w3.org/2000/svg" viewBox="0 0 22 22">
    <defs>
        <style id="current-color-scheme" type="text/css">
            .ColorScheme-Text{color:#050505;opacity:.7}
        </style>
    </defs>
    <path fill="currentColor" d="M4 2.998V5h2V3h2v2h2V3h2v2h2V3h2v2h2V2.998H4M6 6v2h2V6H6m4 0v2h2V6h-2m4 0v2h2V6h-2M4 9v2h14V9h-2v2h1H5h1V9H4m4 0v2h2V9H8m4 0v2h2V9h-2M4 11v5c0 1.662 1.338 3 3 3h6l5-5v-3h-1v2h-5v5H7c-1.108 0-2-.892-2-2v-5H4zm9 3h3.586L13 17.586V14z" class="ColorScheme-Text"/>
</svg>
