<svg xmlns="http://www.w3.org/2000/svg" viewBox="0 0 22 22">
    <defs>
        <style id="current-color-scheme" type="text/css">
            .ColorScheme-Text{color:#050505;opacity:.7}
        </style>
    </defs>
    <path fill="currentColor" d="M5 4c-1.108 0-2 .892-2 2v9c0 1.108.892 2 2 2h7.686A4.5 4.5 0 0 1 11 13.5a4.5 4.5 0 0 1 .273-1.516L9.521 14 7 12l-3 3V6c0-.554.446-1 1-1h12c.554 0 1 .446 1 1v3.758a4.5 4.5 0 0 1 1 .914V6c0-1.108-.892-2-2-2H5zm2.5 3a1.5 1.5 0 1 0 0 3 1.5 1.5 0 0 0 0-3z" class="ColorScheme-Text"/>
    <path fill="currentColor" d="M15.5 10a3.5 3.5 0 0 0-3.5 3.5 3.5 3.5 0 0 0 3.5 3.5 3.5 3.5 0 0 0 3.5-3.5 3.5 3.5 0 0 0-3.5-3.5zm0 1c.277 0 .5.223.5.5V13h1.5a.499.499 0 1 1 0 1H16v1.5a.499.499 0 1 1-1 0V14h-1.5a.499.499 0 1 1 0-1H15v-1.5c0-.277.223-.5.5-.5z" class="ColorScheme-Text"/>
</svg>
