<svg xmlns="http://www.w3.org/2000/svg" viewBox="0 0 22 22">
    <path fill="currentColor" d="M5 3a2 2 0 0 0-2 2 2 2 0 0 0 2 2 2 2 0 0 0 2-2 2 2 0 0 0-2-2zm3.5 0a.499.499 0 1 0 0 1h11a.499.499 0 1 0 0-1h-11zM5 4a1 1 0 0 1 1 1 1 1 0 0 1-1 1 1 1 0 0 1-1-1 1 1 0 0 1 1-1zm3.5 2a.499.499 0 1 0 0 1h6a.499.499 0 1 0 0-1h-6zM5 9a2 2 0 0 0-2 2 2 2 0 0 0 2 2 2 2 0 0 0 2-2 2 2 0 0 0-2-2zm3.5 0a.499.499 0 1 0 0 1h11a.499.499 0 1 0 0-1h-11zM5 10a1 1 0 0 1 1 1 1 1 0 0 1-1 1 1 1 0 0 1-1-1 1 1 0 0 1 1-1zm3.5 2a.499.499 0 1 0 0 1h3a.499.499 0 1 0 0-1h-3zm10.793.613-4.592 4.592-1.146-1.146-.707.707 1.845 1.847.006-.008.008.008L20 13.32l-.707-.707zM5 15a2 2 0 0 0-2 2 2 2 0 0 0 2 2 2 2 0 0 0 2-2 2 2 0 0 0-2-2zm0 1a1 1 0 0 1 1 1 1 1 0 0 1-1 1 1 1 0 0 1-1-1 1 1 0 0 1 1-1z" style="color:#050505;opacity:.7"/>
</svg>
