<svg xmlns="http://www.w3.org/2000/svg" viewBox="0 0 22 22">
    <defs>
        <style id="current-color-scheme" type="text/css">
            .ColorScheme-Text{color:#050505;opacity:.7}
        </style>
    </defs>
    <path fill="currentColor" d="m4 13-3 3 3 3v-4zm1 2v2h1v-2zm2 0v2h1v-2z" class="ColorScheme-Text"/>
    <path fill="currentColor" d="M5 2c-1.108 0-2 .892-2 2v2c-1.108 0-2 .892-2 2v5h1v-3h18v7c0 .554-.446 1-1 1H8v1h11c1.108 0 2-.892 2-2V8c0-1.108-.892-2-2-2V4c0-1.108-.892-2-2-2zm0 1h12c.554 0 1 .446 1 1v5H4V4c0-.554.446-1 1-1zM3 7v2H2V8c0-.554.446-1 1-1zm16 0c.554 0 1 .446 1 1v1h-1z" class="ColorScheme-Text"/>
</svg>
