<svg xmlns="http://www.w3.org/2000/svg" viewBox="0 0 22 22">
    <g style="fill:currentColor;fill-opacity:1;stroke:none;color:#d98c8c" transform="translate(-421.714 -525.79)">
        <circle cx="432.714" cy="536.791" r="6" fill="#000"/>
        <path fill="#d98c8c" d="M432.714 528.79a8 8 0 0 0-8 8 8 8 0 0 0 8 8 8 8 0 0 0 8-8 8 8 0 0 0-8-8m-3.293 4 3.293 3.294 3.293-3.293.707.707-3.293 3.293 3.293 3.293-.707.707-3.293-3.293-3.293 3.293-.707-.707 3.293-3.293-3.293-3.293.707-.707"/>
    </g>
</svg>
