<svg xmlns="http://www.w3.org/2000/svg" width="16" height="16">
    <defs>
        <style id="current-color-scheme" type="text/css">
            .ColorScheme-Highlight{color:#a0b6cb}.ColorScheme-NeutralText{color:#f5cba3}.ColorScheme-PositiveText{color:#add49f}.ColorScheme-NegativeText{color:#ec9b97}
        </style>
    </defs>
    <path d="M11 0C9.819.449 9 1.43 9 2.65s.819 2.174 2 2.623v2.428a6.946 6.946 0 0 1 3 2.916V5.273c1.181-.449 2-1.402 2-2.623C16 1.43 15.181.45 14 0v2c0 1-1 1-1 1h-1s-1 0-1-1V0zM8 8c-3.324 0-6 2.676-6 6H0v2h16v-2h-2c0-3.324-2.676-6-6-6zm0 3c1.662 0 3 1.338 3 3H5c0-1.662 1.338-3 3-3z" style="fill:currentColor;color:#050505;opacity:.7"/>
</svg>
