<svg xmlns="http://www.w3.org/2000/svg" width="16" height="16">
    <defs>
        <style id="current-color-scheme" type="text/css">
            .ColorScheme-Text{color:#050505;opacity:.7}
        </style>
    </defs>
    <path fill="currentColor" d="m7 1.975 1 .05L7.902 4H13v1H7.854l-.108 2.162a11.149 11.149 0 0 1 1.776-.103c.152-.326.656-1.24.656-1.24l.916.4s-.384.703-.457.865c.034.005.071-.004.105.002.767.127 1.489.371 2.076.787.588.416 1.037 1.027 1.174 1.793.211 1.18-.376 2.32-1.318 3.1-.943.78-2.267 1.343-3.674 1.203l.1-.994c1.127.112 2.202-.37 2.937-.979.735-.609 1.105-1.404.97-2.154-.088-.498-.346-.856-.765-1.153-.419-.296-1.004-.507-1.664-.617-.145-.024-.31.007-.46-.008-.409.84-.554 1.268-1.294 2.44-.65 1.029-1.375 2.017-2.156 2.691-.39.337-.8.601-1.248.727s-.954.086-1.383-.174a2.23 2.23 0 0 1-1.025-1.435c-.127-.575-.05-1.192.176-1.79.45-1.195 1.503-2.342 3.002-2.957.173-.07.356-.13.543-.185L6.85 5H4V4h2.9zm1.611 6.052c-.043 0-.085.001-.129.006a8.37 8.37 0 0 0-.785.125l-.12 2.424c.136-.2.272-.405.403-.613.578-.915.634-1.16 1.02-1.926-.132.006-.26-.014-.389-.016zM6.68 8.45c-.037.014-.076.028-.112.043-1.242.51-2.104 1.478-2.445 2.383-.17.453-.21.882-.135 1.223.075.34.245.599.569.795.195.118.354.133.593.066.24-.067.543-.245.864-.522.16-.138.325-.3.492-.482z" class="ColorScheme-Text"/>
    <path fill="currentColor" d="M3 0C1.338 0 0 1.338 0 3v10c0 1.662 1.338 3 3 3h9.999c1.662 0 3-1.338 3-3V3c0-1.662-1.338-3-3-3zm0 1h9.999c1.108 0 2 .892 2 2v10c0 1.108-.892 2-2 2H3c-1.108 0-2-.892-2-2V3c0-1.108.892-2 2-2z" class="ColorScheme-Text"/>
</svg>
