<svg xmlns="http://www.w3.org/2000/svg" width="16" height="16">
    <path fill="currentColor" fill-opacity=".7" d="M7.584 1.723h.832c1.844 2.765 5.647 3.28 5.647 3.28l-.125.993s-.834-.124-1.938-.535V10H4.945c-.041.34-.115.675-.22 1H12v3H4v-1.377l-.066.125c-.52.911-1.043 1.565-1.043 1.565l-.782-.625s.478-.597.957-1.436C3.546 11.413 4 10.333 4 9.5V5.46c-.628.24-1.276.419-1.938.536l-.124-.992s3.802-.516 5.646-3.281zm.416.98C7.141 3.773 6.066 4.502 5.066 5h2.532l-.875-.584.554-.832 1.5 1L8.5 5h2.434c-1-.498-2.075-1.227-2.934-2.297zM5 6v1h5v1H5v1h6V6zm0 6v1h6v-1z" color="#050505"/>
    <path fill="currentColor" fill-opacity=".7" d="M3 0C1.338 0 0 1.338 0 3v10c0 1.662 1.338 3 3 3h9.999c1.662 0 3-1.338 3-3V3c0-1.662-1.338-3-3-3zm0 1h9.999c1.108 0 2 .892 2 2v10c0 1.108-.892 2-2 2H3c-1.108 0-2-.892-2-2V3c0-1.108.892-2 2-2z" class="ColorScheme-Text" color="#050505"/>
</svg>
