<svg xmlns="http://www.w3.org/2000/svg" width="16" height="16">
    <path fill="currentColor" fill-opacity=".7" d="M7 2h1v6.982c1.811-.081 2.721-.606 3.262-1.492.59-.965.738-2.51.738-4.49h1c0 2.02-.102 3.725-.887 5.01C11.387 9.199 10.05 9.884 8 9.98V13h5v1H2v-1h5V9.98c-2.05-.096-3.387-.78-4.113-1.97C2.102 6.725 2 5.02 2 3h1c0 1.98.148 3.525.738 4.49C4.28 8.376 5.19 8.9 7 8.982z" color="#050505"/>
    <path fill="currentColor" fill-opacity=".7" d="M3 0C1.338 0 0 1.338 0 3v10c0 1.662 1.338 3 3 3h9.999c1.662 0 3-1.338 3-3V3c0-1.662-1.338-3-3-3zm0 1h9.999c1.108 0 2 .892 2 2v10c0 1.108-.892 2-2 2H3c-1.108 0-2-.892-2-2V3c0-1.108.892-2 2-2z" class="ColorScheme-Text" color="#050505"/>
</svg>
