<?xml version="1.0" encoding="UTF-8" standalone="no"?>
<svg
   width="32"
   height="32"
   version="1.1"
   id="svg280"
   sodipodi:docname="dialog-warning.svg"
   inkscape:version="1.2.2 (b0a8486541, 2022-12-01)"
   xmlns:inkscape="http://www.inkscape.org/namespaces/inkscape"
   xmlns:sodipodi="http://sodipodi.sourceforge.net/DTD/sodipodi-0.dtd"
   xmlns="http://www.w3.org/2000/svg"
   xmlns:svg="http://www.w3.org/2000/svg">
  <defs
     id="defs284" />
  <sodipodi:namedview
     id="namedview282"
     pagecolor="#ffffff"
     bordercolor="#000000"
     borderopacity="0.25"
     inkscape:showpageshadow="2"
     inkscape:pageopacity="0.0"
     inkscape:pagecheckerboard="0"
     inkscape:deskcolor="#d1d1d1"
     showgrid="false"
     inkscape:zoom="23.21875"
     inkscape:cx="15.117093"
     inkscape:cy="15.978466"
     inkscape:window-width="1920"
     inkscape:window-height="1021"
     inkscape:window-x="0"
     inkscape:window-y="0"
     inkscape:window-maximized="1"
     inkscape:current-layer="svg280" />
  <path
     d="m30.786 28.037-13.021-24C17.392 3.37 16.714 3 15.96 3c-.755 0-1.435.445-1.815 1.11l-12.924 24c-.304.594-.308 1.408.067 2.001.374.592.976.889 1.731.889h25.945c.753 0 1.434-.37 1.738-.964.38-.592.383-1.332.084-1.999z"
     opacity=".15"
     id="path270" />
  <path
     fill="#ffe7a9"
     d="m30.786 27.037-13.021-24C17.392 2.37 16.714 2 15.96 2c-.755 0-1.435.445-1.815 1.11l-12.924 24c-.304.594-.308 1.408.067 2.001.374.592.976.889 1.731.889h25.945c.753 0 1.434-.37 1.738-.964.38-.592.383-1.332.084-1.999z"
     id="path272" />
  <path
     fill="none"
     d="M0 0h32v32H0z"
     id="path274" />
  <path
     fill="#000"
     d="M14.42 9.516c.375 3.666.805 7.307 1.125 10.987h1.02c.265-3.534.692-7.047 1-10.578.158-.835-.272-1.828-1.154-2.03-.873-.256-1.847.376-1.963 1.278-.02.113-.028.228-.028.343zm-.111 14.905c-.04 1.092 1.161 1.947 2.186 1.601.993-.253 1.516-1.501 1.007-2.389-.455-.917-1.791-1.219-2.56-.517-.388.32-.646.796-.633 1.305z"
     font-family="Georgia"
     font-size="62.458"
     font-weight="400"
     overflow="visible"
     style="fill:#000;fill-opacity:1;opacity:0.7"
     id="path276" />
  <path
     fill="#000"
     d="M15.959 2c-.755 0-1.435.446-1.815 1.111l-12.924 24a2.139 2.139 0 0 0-.16 1.446c.038-.157.09-.307.16-.446l12.924-24C14.524 3.445 15.204 3 15.96 3c.754 0 1.433.37 1.807 1.037l13.02 24c.066.147.116.297.152.45.118-.468.06-.977-.152-1.45l-13.02-24C17.392 2.37 16.713 2 15.959 2z"
     opacity=".25"
     id="path278" />
</svg>
