<svg xmlns="http://www.w3.org/2000/svg" width="32" height="32" version="1.0">
    <rect width="28" height="24" x="2" y="4" fill="#ccc" rx="3" ry="3"/>
    <rect width="28" height="23" x="2" y="4" fill="#ececec" rx="3" ry="3"/>
    <path fill="#fff" d="M5 4C3.338 4 2 5.338 2 7v1c0-1.662 1.338-3 3-3h22c1.662 0 3 1.338 3 3V7c0-1.662-1.338-3-3-3z" opacity=".15"/>
    <g fill="#de8a8a">
        <path d="M16 10.011c3.305 0 6 2.71 6 6.003 0 3.291-2.695 5.975-6 5.975s-6-2.684-6-5.975c0-3.292 2.695-6.003 6-6.003zm0 1.73a4.27 4.27 0 0 0-4.29 4.273c0 2.368 1.912 4.245 4.29 4.245s4.29-1.877 4.29-4.245A4.27 4.27 0 0 0 16 11.74z" overflow="visible" style="text-indent:0;text-transform:none"/>
        <path d="m13.177 11.973 6.85 6.85-1.204 1.204-6.85-6.85z" overflow="visible" style="text-indent:0;text-transform:none"/>
    </g>
</svg>
