<svg xmlns="http://www.w3.org/2000/svg" width="32" height="32">
    <g fill="#dedede" transform="translate(-40 40)">
        <path d="M56-35a11 11 0 0 0-11 11 11 11 0 0 0 11 11 11 11 0 0 0 11-11 11 11 0 0 0-11-11zm0 2a9 9 0 0 1 9 9 9 9 0 0 1-9 9 9 9 0 0 1-9-9 9 9 0 0 1 9-9z" opacity=".5"/>
        <circle cx="56" cy="-24" r="2" opacity=".5"/>
        <path d="M56-31a7 7 0 0 0-7 7 7 7 0 0 0 7 7 7 7 0 0 0 6.93-6h-3.073A4 4 0 0 1 56-20a4 4 0 0 1-4-4 4 4 0 0 1 4-4 4 4 0 0 1 3.871 3h3.057A7 7 0 0 0 56-31z"/>
    </g>
</svg>
