<svg xmlns="http://www.w3.org/2000/svg" width="32" height="32">
    <defs>
        <style id="current-color-scheme" type="text/css">
            .ColorScheme-Text{color:#4d4d4d}.ColorScheme-Background{color:#f2f2f2}.ColorScheme-Highlight{color:#a8decc}.ColorScheme-ViewText{color:#333}.ColorScheme-ViewBackground{color:#f9f9f9}.ColorScheme-ViewHover{color:#87cdde}.ColorScheme-ViewFocus{color:#a8decc}.ColorScheme-ButtonText{color:#333}.ColorScheme-ButtonBackground{color:#f2f2f2}.ColorScheme-ButtonHover{color:#87cdde}.ColorScheme-ButtonFocus{color:#a8decc}
        </style>
    </defs>
    <path fill="#dbdbe3" d="M29.333 1.334a.5.5 0 1 0 0 1 .5.5 0 0 0 0-1zm-25.5 1a1 1 0 1 0 0 2 1 1 0 0 0 0-2zm19 0a3 3 0 0 1-3 3 3 3 0 0 1 3 3 3 3 0 0 1 3-3 3 3 0 0 1-3-3zm4 5a2 2 0 0 1-2 2 2 2 0 0 1 2 2 2 2 0 0 1 2-2 2 2 0 0 1-2-2z"/>
    <path fill="#dbdbe3" d="M13 4A10 10 0 0 0 3 14a10 10 0 0 0 10 10h9a7 7 0 0 0 7-7 7 7 0 0 0-6.836-6.996A10 10 0 0 0 13 4z"/>
    <g fill="#a0b6cb" transform="translate(0 -1020.4)">
        <rect width="2" height="3" x="12" y="1046.4" ry="1"/>
        <rect width="2" height="4" x="16" y="1046.4" ry="1"/>
        <rect width="2" height="3" x="20" y="1046.4" ry="1"/>
    </g>
    <path fill="#ffe7a9" d="M7.97 13a1 1 0 0 0-.818.469l-4.999 8A1 1 0 0 0 3 22.997h2v5c0 1.004 1.314 1.382 1.847.53l4.999-7.999a1 1 0 0 0-.848-1.531h-2v-5A1 1 0 0 0 7.97 13z"/>
</svg>
