<svg xmlns="http://www.w3.org/2000/svg" width="32" height="32">
    <path fill="#dbdbe3" d="M16 6c-3.673 0-6.733 2.453-7.875 5.804C4.679 12.249 2 15.218 2 18.857 2 22.802 5.134 26 9 26h15.4c3.093 0 5.6-2.558 5.6-5.714s-2.507-5.714-5.6-5.714C24.4 9.838 20.639 6 16 6z"/>
    <path fill="#dbdbe3" d="M29.031 1.235a.5.5 0 0 0-.5.5.5.5 0 0 0 .5.5.5.5 0 0 0 .5-.5.5.5 0 0 0-.5-.5zm-25.5 1a1 1 0 0 0-1 1 1 1 0 0 0 1 1 1 1 0 0 0 1-1 1 1 0 0 0-1-1zm19 0a3 3 0 0 1-3 3 3 3 0 0 1 3 3 3 3 0 0 1 3-3 3 3 0 0 1-3-3zm4 5a2 2 0 0 1-2 2 2 2 0 0 1 2 2 2 2 0 0 1 2-2 2 2 0 0 1-2-2zm3.5 17a1.5 1.5 0 0 0-1.5 1.5 1.5 1.5 0 0 0 1.5 1.5 1.5 1.5 0 0 0 1.5-1.5 1.5 1.5 0 0 0-1.5-1.5zm-5 4a.5.5 0 0 0-.5.5.5.5 0 0 0 .5.5.5.5 0 0 0 .5-.5.5.5 0 0 0-.5-.5z"/>
</svg>
