<svg xmlns="http://www.w3.org/2000/svg" width="32" height="32">
    <path fill="#bbbfec" d="M3.166 22C2.522 22 2 22.448 2 23s.522 1 1.166 1h11.666c.645 0 1.168-.447 1.168-1s-.523-1-1.168-1zm17.977 0c-.631 0-1.143.448-1.143 1s.512 1 1.143 1h5.713c.631 0 1.143-.448 1.143-1s-.512-1-1.143-1zM4.981 26c-.556 0-1.008.447-1.008 1 0 .553.452 1 1.008 1h2.014C7.55 28 8 27.552 8 27s-.45-1-1.006-1zm6.219 0c-.663 0-1.2.448-1.2 1s.537 1 1.2 1h15.602c.662 0 1.199-.448 1.199-1s-.537-1-1.2-1z" opacity=".5"/>
    <path fill="#e6e6e6" d="M16 4c-3.673 0-6.733 2.404-7.875 5.688C4.679 10.124 2 13.037 2 16.602c0 1.24.352 2.387.918 3.398h26.695A5.56 5.56 0 0 0 30 18a5.603 5.603 0 0 0-5.602-5.602A8.398 8.398 0 0 0 16 4z"/>
</svg>
