<svg xmlns="http://www.w3.org/2000/svg" width="32" height="32">
    <path d="M13 4A10 10 0 0 0 3 14a10 10 0 0 0 10 10h9a7 7 0 0 0 7-7 7 7 0 0 0-6.836-6.996A10 10 0 0 0 13 4z" style="fill:#e6e6e6"/>
    <g fill="#a0b6cb" transform="translate(0 -1020.4)">
        <rect width="2" height="3" x="12" y="1046.4" ry="1"/>
        <rect width="2" height="4" x="16" y="1046.4" ry="1"/>
        <rect width="2" height="3" x="20" y="1046.4" ry="1"/>
    </g>
    <path fill="#ffe7a9" d="M7.97 13a1 1 0 0 0-.818.469l-4.999 8A1 1 0 0 0 3 22.997h2v5c0 1.004 1.314 1.382 1.847.53l4.999-7.999a1 1 0 0 0-.848-1.531h-2v-5A1 1 0 0 0 7.97 13z"/>
</svg>
