<svg xmlns="http://www.w3.org/2000/svg" width="32" height="32">
    <path fill="#ccc" d="M26.805 5.004a4.984 4.983 0 0 0-3.632 1.78 1 1 0 1 0 1.53 1.286 2.99 2.99 0 0 1 3.644-.75 2.987 2.987 0 0 1 1.57 3.371A2.99 2.99 0 0 1 26.999 13h-14a1 1 0 1 0 0 2h14a1 1 0 0 0 .2-.016 5.004 5.003 0 0 0 4.668-3.832 5.008 5.007 0 0 0-2.62-5.619 4.992 4.991 0 0 0-2.442-.528zm-9.412.02a2.996 2.996 0 0 0-2.676 1.046 1 1 0 1 0 1.532 1.286c.3-.36.796-.46 1.216-.25.42.21.63.668.522 1.124a.99.99 0 0 1-.972.77A1 1 0 0 0 17 9H3a1 1 0 1 0 0 2h14a1 1 0 0 0 .015 0h.004a1 1 0 0 0 .324-.055 2.984 2.984 0 0 0 2.59-2.253 3.006 3.006 0 0 0-2.54-3.668zM1 13a1 1 0 1 0 0 2h8a1 1 0 1 0 0-2zm1.902 4.003a1.001 1.001 0 0 0 .1 2h22a1 1 0 0 0 .013 0c.47 0 .864.31.974.766a.992.992 0 0 1-.524 1.124.99.99 0 0 1-1.216-.25 1 1 0 1 0-1.53 1.286 2.998 2.998 0 0 0 3.644.754 3.01 3.01 0 0 0 1.57-3.376 2.978 2.978 0 0 0-2.586-2.246A1 1 0 0 0 25 17H3a1 1 0 0 0-.098 0zm4.1 3.996a1 1 0 1 0 0 2l10 .004a1 1 0 0 0 .014 0c.47 0 .864.31.974.765a.992.992 0 0 1-.524 1.124.99.99 0 0 1-1.216-.25 1 1 0 1 0-1.53 1.286 2.998 2.998 0 0 0 3.644.754 3.009 3.009 0 0 0 1.57-3.375 2.978 2.978 0 0 0-2.586-2.246 1 1 0 0 0-.348-.058z" color="#000" font-weight="400" overflow="visible" style="font-feature-settings:normal;font-variant-alternates:normal;font-variant-caps:normal;font-variant-ligatures:normal;font-variant-numeric:normal;font-variant-position:normal;isolation:auto;mix-blend-mode:normal;shape-padding:0;text-decoration-color:#000;text-decoration-line:none;text-decoration-style:solid;text-indent:0;text-orientation:mixed;text-transform:none;white-space:normal"/>
</svg>
