<svg xmlns="http://www.w3.org/2000/svg" width="32" height="32">
    <path fill="#ffe7a9" d="M16 2c-.554 0-1 .446-1 1v1c0 .554.446 1 1 1s1-.446 1-1V3c0-.554-.446-1-1-1zM6.809 5.807a1 1 0 0 0-.71 1.709l.71.707a1 1 0 1 0 1.414-1.416L7.516 6.1a.996.996 0 0 0-.707-.293zm18.385 0a1 1 0 0 0-.71.293l-.706.707a1 1 0 0 0 0 1.416 1 1 0 0 0 1.416 0l.707-.707a1 1 0 0 0-.707-1.71zM16 6A10 10 0 0 0 6 16a10 10 0 0 0 10 10 10 10 0 0 0 10-10A10 10 0 0 0 16 6zM3 15c-.554 0-1 .446-1 1s.446 1 1 1h1c.554 0 1-.446 1-1s-.446-1-1-1H3zm25 0c-.554 0-1 .446-1 1s.446 1 1 1h1c.554 0 1-.446 1-1s-.446-1-1-1h-1zM7.516 23.484a.996.996 0 0 0-.707.293l-.707.707A1 1 0 1 0 7.516 25.9l.707-.709a.998.998 0 0 0-.707-1.707zm16.971 0a.998.998 0 0 0-.707 1.707l.707.71a1 1 0 0 0 1.416 0 1 1 0 0 0 0-1.417l-.707-.707a1 1 0 0 0-.709-.293zM16.003 27c-.554 0-1 .446-1 1v1c0 .554.446 1 1 1s1-.446 1-1v-1c0-.554-.446-1-1-1z"/>
    <path d="M15 3.613V4c0 .554.446 1 1 1s1-.446 1-1v-.387c0 .554-.446 1-1 1s-1-.446-1-1zm-9.176 3a.999.999 0 0 0 .276.903l.709.707a.998.998 0 0 0 1.414 0 .999.999 0 0 0 .275-.903 1 1 0 0 1-1.69.516L6.1 7.129a1 1 0 0 1-.276-.516zm20.352 0a1 1 0 0 1-.275.516l-.707.707a1 1 0 0 1-1.692-.516.999.999 0 0 0 .276.903 1 1 0 0 0 1.416 0l.707-.707a.999.999 0 0 0 .275-.903zm-.183 9.1a10 10 0 0 1-9.993 9.9 10 10 0 0 1-9.982-9.806A10 10 0 0 0 6 16a10 10 0 0 0 10 10 10 10 0 0 0 10-10 10 10 0 0 0-.007-.287zm-23.973.094A.998.998 0 0 0 3 17h1a.998.998 0 0 0 .98-1.193.998.998 0 0 1-.98.806H3a.998.998 0 0 1-.98-.806zm25 0A.998.998 0 0 0 28 17h1a.998.998 0 0 0 .98-1.193.998.998 0 0 1-.98.806h-1a.998.998 0 0 1-.98-.806zM8.499 24.293a.996.996 0 0 1-.276.512l-.707.709a.998.998 0 0 1-1.414 0A1 1 0 0 1 5.827 25a.998.998 0 0 0 .275.9.998.998 0 0 0 1.414 0l.707-.709a.998.998 0 0 0 .276-.898zm15.006 0a.999.999 0 0 0 .275.898l.707.71A1 1 0 0 0 26.178 25a1 1 0 0 1-1.691.514l-.707-.71a.996.996 0 0 1-.275-.511zm-8.502 4.32V29c0 .554.446 1 1 1s1-.446 1-1v-.387c0 .554-.446 1-1 1s-1-.446-1-1z" opacity=".1"/>
    <path fill="#fff" d="M16 2c-.554 0-1 .446-1 1v.455c0-.554.446-1 1-1s1 .446 1 1V3c0-.554-.446-1-1-1zM6.809 5.807a1 1 0 0 0-.975 1.228 1 1 0 0 1 1.682-.48l.707.707a.991.991 0 0 1 .265.48.997.997 0 0 0-.265-.935L7.516 6.1a.996.996 0 0 0-.707-.293zm18.385 0a1 1 0 0 0-.71.293l-.706.707a.997.997 0 0 0-.266.935.991.991 0 0 1 .266-.48l.707-.707a1 1 0 0 1 1.681.48.997.997 0 0 0-.972-1.228zM16 6A10 10 0 0 0 6 16a10 10 0 0 0 .02.227A10 10 0 0 1 16 6.455a10 10 0 0 1 9.99 9.662A10 10 0 0 0 26 16 10 10 0 0 0 16 6zM3 15a.998.998 0 0 0-.972 1.227.996.996 0 0 1 .972-.772h1c.476 0 .87.328.973.772A.997.997 0 0 0 4 15H3zm25 0a.998.998 0 0 0-.972 1.227.996.996 0 0 1 .972-.772h1c.476 0 .87.328.973.772A.997.997 0 0 0 29 15h-1zM7.516 23.484a.996.996 0 0 0-.707.293l-.707.707a.996.996 0 0 0-.265.934.992.992 0 0 1 .265-.479l.707-.707a.996.996 0 0 1 1.414 0 .993.993 0 0 1 .266.479.996.996 0 0 0-.973-1.227zm16.971 0a.996.996 0 0 0-.972 1.227.993.993 0 0 1 .972-.772 1 1 0 0 1 .71.293l.706.707a.992.992 0 0 1 .266.479.996.996 0 0 0-.266-.934l-.707-.707a1 1 0 0 0-.709-.293zM16.003 27c-.554 0-1 .446-1 1v.455c0-.554.446-1 1-1s1 .446 1 1V28c0-.554-.446-1-1-1z" opacity=".35"/>
</svg>
