<svg xmlns="http://www.w3.org/2000/svg" width="16" height="16">
    <path fill="#fdfdfd" fill-opacity=".7" d="M7.709.004C6.619.02 5.357.206 4.25.793c-1.107.586-2.074 1.756-2.045 3.291.015.773.253 1.452.686 1.91.432.458.956.643 1.363.752.407.11.736.167.883.22.008.004.004 0 .008 0 .215-.26.431-.514.65-.765-.788-.564-2.553-.08-2.592-2.137-.044-2.312 2.573-3.032 4.52-3.06.13-.002.28-.005.402 0 .727.024 1.553.217 2.326.56.284-.243.56-.462.838-.69C10.278.34 9.18.037 8.16.003c-.167-.006-.325-.002-.45 0zm6.328 0c-1.8 1.299-4.205 3.302-6.113 5.334a23.02 23.02 0 0 0-.506.547c-.103.107-.212.194-.315.306-.065.077-.127.164-.19.24A42.532 42.532 0 0 0 4.2 9.792c-.33.451-.632.892-.931 1.33-.313-.16-.704-.182-1.122.094-.754.498-.596 2.284-2.148 2.283.147.602 1.736.594 2.809.326 1.013-.253 1.324-1.142 1.13-1.885-.026-.102-.094-.205-.156-.308 1.985-1.644 3.398-3.017 4.36-4.037.24-.246.53-.567.851-.924 1.204-1.335 2.925-3.437 5.043-6.666zM5.988 2c-1.335 0-2.004 1.614-1.06 2.559.943.945 2.557.277 2.558-1.059 0-.829-.67-1.5-1.498-1.5zm7.51.564c-.194.276-.374.522-.56.778 1.103 1.243 2.086 3.007 2.238 4.951.384 4.886-3.425 7.293-7.022 6.588-2.244-.44-2.57-1.648-2.992-3.004-.009-.03-.012-.059-.02-.088-.267.229-.538.457-.83.697.184.594.393 1.24.877 1.856.569.722 1.49 1.268 2.774 1.52 2.074.406 4.231-.078 5.834-1.409 1.603-1.331 2.59-3.525 2.377-6.238-.174-2.222-1.07-3.852-2.498-5.467-.057-.064-.12-.12-.178-.184zm.104 3.438c-1.334 0-1.334 2 0 2 1.333 0 1.333-2 0-2zm-.625 3c-1.334 0-1.334 2 0 2 1.333 0 1.333-2 0-2zm-4.99 2c-1.334 0-1.334 2 0 2 1.29-.04 1.29-1.96 0-2zm2.994 0c-1.334 0-1.334 2 0 2 1.29-.04 1.29-1.96 0-2z"/>
</svg>
