<svg xmlns="http://www.w3.org/2000/svg" width="16" height="16">
    <path fill="#fdfdfd" fill-opacity=".7" d="M4.033 5.019h.992v1h.992v1h-.992v1h-.992v-1h-.992v-1h.992zm7.439 0c.274 0 .496.224.496.5s-.222.5-.496.5a.498.498 0 0 1-.496-.5c0-.276.222-.5.496-.5zm-.992 1c.274 0 .496.224.496.5s-.222.5-.496.5a.498.498 0 0 1-.496-.5c0-.276.222-.5.496-.5zm1.984 0c.274 0 .496.224.496.5s-.222.5-.496.5a.498.498 0 0 1-.496-.5c0-.276.222-.5.496-.5zm-.992 1c.274 0 .496.224.496.5s-.222.5-.496.5a.498.498 0 0 1-.496-.5c0-.276.222-.5.496-.5z"/>
    <path fill="#fdfdfd" d="M4.037 1.893c-.343.007-.68.1-.98.265C1.799 2.822.953 4.606.45 6.854c-.215.958-.36 2.07-.42 3.085-.06 1.016-.05 1.908.102 2.532v.002c.12.485.29.888.588 1.19.297.3.72.45 1.148.45h.008c.672-.011 1.307-.36 1.89-.867.584-.507 1.118-1.19 1.536-1.977l-.03.051c.4-.575 1.555-.965 2.71-.927h.035c1.152-.04 2.31.352 2.71.927l-.03-.05c.417.785.951 1.47 1.534 1.976s1.22.856 1.891.867h.008c.428 0 .851-.15 1.148-.45.297-.302.467-.705.586-1.19h.002c.152-.624.162-1.518.102-2.534s-.205-2.127-.42-3.086C15.045 4.605 14.2 2.82 12.94 2.156c-.638-.34-1.357-.344-1.888.033v.002h-.002c-.365.26-1.303.638-3.051.639-1.747.002-2.686-.378-3.05-.639l.013.01a1.5 1.5 0 0 0-.918-.308h-.008zm.018 1.002c.108 0 .212.033.299.1L4.36 3l.006.006c.623.444 1.746.826 3.633.824 1.886 0 3.007-.38 3.63-.824.251-.178.413-.197.843.033l.002.002c.685.361 1.628 1.93 2.1 4.031.199.89.338 1.964.396 2.928.057.964.02 1.842-.076 2.234-.096.389-.22.617-.329.727-.107.109-.202.15-.431.15-.308-.006-.775-.21-1.246-.619-.473-.41-.945-1.007-1.309-1.691l-.014-.026-.017-.025C10.82 9.702 9.368 9.35 8 9.395c-1.367-.042-2.82.307-3.549 1.355l-.017.025-.014.026c-.363.684-.836 1.28-1.309 1.691-.471.41-.94.613-1.248.62-.227-.002-.324-.042-.431-.151-.108-.11-.23-.338-.326-.725-.096-.393-.134-1.272-.077-2.236.058-.964.199-2.039.399-2.928.469-2.1 1.412-3.67 2.098-4.03l.005-.005.004-.002c.159-.088.338-.135.52-.14z" color="#000" opacity=".7" style="font-feature-settings:normal;font-variant-alternates:normal;font-variant-caps:normal;font-variant-east-asian:normal;font-variant-ligatures:normal;font-variant-numeric:normal;font-variant-position:normal;font-variation-settings:normal;inline-size:0;isolation:auto;mix-blend-mode:normal;shape-margin:0;shape-padding:0;text-decoration-color:#000;text-decoration-line:none;text-decoration-style:solid;text-indent:0;text-orientation:mixed;text-transform:none;white-space:normal"/>
</svg>
