<svg xmlns="http://www.w3.org/2000/svg" width="16" height="16">
    <path fill="#fdfdfd" d="M3.599.719c-.23.047-.443.131-.655.219-.017.624.087 1.442-.156 1.656-.239.21-1.037.034-1.654-.031a3.63 3.63 0 0 0-.312.75c.477.396 1.139.839 1.155 1.156.015.321-.626.805-1.061 1.25.103.258.25.494.405.719.608-.127 1.365-.374 1.623-.188.263.19.265 1.006.343 1.625.25.075.512.105.78.125.281-.554.567-1.32.874-1.406.315-.089.962.458 1.498.781.218-.151.412-.337.593-.53-.254-.573-.72-1.293-.593-1.595.127-.302.974-.47 1.56-.687.004-.074.031-.144.031-.219 0-.191-.034-.379-.062-.562-.605-.161-1.465-.242-1.623-.532-.156-.288.242-1.061.437-1.656a3.682 3.682 0 0 0-.655-.469c-.5.375-1.083.995-1.404.938-.317-.056-.662-.82-.999-1.344-.04.007-.085-.008-.125 0zm.624 1.875c.93 0 1.685.756 1.685 1.688a1.686 1.686 0 1 1-1.685-1.688z" opacity=".7" overflow="visible"/>
    <path fill="#fdfdfd" fill-opacity=".7" fill-rule="evenodd" d="M1 9v5c0 1.108.892 2 2 2h10c1.108 0 2-.892 2-2V9H1zm1 1h12v4c0 .554-.446 1-1 1H3c-.554 0-1-.446-1-1v-4z" style="paint-order:stroke fill markers"/>
    <path fill="#fdfdfd" fill-opacity=".7" d="M12.176-.006a3.5 3.5 0 0 0-2.728 1.734c-.664 1.15-.427 2.473.26 3.551L8.16 8h1.153l1.507-2.65A2.5 2.5 0 0 1 12.205.994c-.021.03-.051.05-.07.082l-1 1.73a.999.999 0 0 0 .365 1.368l.865.5a1 1 0 0 0 1.368-.367l1-1.73c.018-.033.018-.07.033-.104a2.499 2.499 0 0 1-3.078 3.377L10.468 8h1.155l.682-1.22c1.277.055 2.54-.404 3.205-1.551.557-.965.62-2.14.172-3.159a1.001 1.001 0 0 0-1.832 0c-.047.108-.062.136-.07.155l-.915 1.582-.865-.5.914-1.582c.012-.017.029-.045.098-.139.5-.68-.016-1.62-.836-1.592z"/>
</svg>
