<svg xmlns="http://www.w3.org/2000/svg" width="24" height="24">
    <path fill="#fae3a8" d="M12 9c-1.68 0-3 1.32-3 3s1.32 3 3 3 3-1.32 3-3-1.32-3-3-3zm.006 1.006a2.002 2.002 0 0 1 1.996 1.996 2.002 2.002 0 0 1-1.996 1.996c-1.098 0-2.014-.897-2.014-1.996 0-1.098.916-1.996 2.014-1.996z"/>
    <path fill="currentColor" fill-opacity=".7" d="M11.99 3A9 9 0 0 0 3 12a9 9 0 0 0 9 9 9 9 0 0 0 9-9 9 9 0 0 0-9-9 9 9 0 0 0-.01 0zM12 4a8 8 0 0 1 8 8 8 8 0 0 1-8 8 8 8 0 0 1-8-8 8 8 0 0 1 8-8z" color="#fdfdfd" style="color:#fdfdfd;opacity:.7"/>
</svg>
