<svg xmlns="http://www.w3.org/2000/svg" width="22" height="22">
    <defs>
        <style id="current-color-scheme" type="text/css">
            .ColorScheme-Text{color:#fdfdfd;opacity:.7}
        </style>
    </defs>
    <path fill="currentColor" d="M10.5 4c-.277 0-.5.223-.5.5v3.654l1 .864V6.062l2.094 1.875-1.67 1.446 1.154.998 2.11-1.85a.78.78 0 0 0 .218-.375.712.712 0 0 0 0-.437.78.78 0 0 0-.218-.375l-3.532-3.156C10.957 4.028 10.73 4 10.5 4zM7.752 7.701a.767.767 0 0 0-.5.268.753.753 0 0 0 .06 1.062l2.25 1.97-2.25 1.968a.753.753 0 0 0-.062 1.062c.274.313.72.367 1.031.094l1.72-1.5V17.5c0 .277.223.5.5.5.283 0 .437-.02.655-.187l3.531-3.157a.78.78 0 0 0 .22-.375.745.745 0 0 0 .03-.28.723.723 0 0 0-.03-.157.78.78 0 0 0-.085-.205.78.78 0 0 0-.002-.002L7.97 7.725a.688.688 0 0 0-.218-.024zM11 12.25l2.094 1.813L11 15.937V12.25z" class="ColorScheme-Text" opacity=".35"/>
    <rect width="22" height="1" x="4.515" y=".639" fill="currentColor" class="ColorScheme-Text" rx="0" ry="0" transform="rotate(40.802)"/>
</svg>
