<svg xmlns="http://www.w3.org/2000/svg" width="22" height="22">
    <defs>
        <style id="current-color-scheme" type="text/css">
            .ColorScheme-Text{color:#fdfdfd;opacity:.7}
        </style>
    </defs>
    <path fill="currentColor" d="M14.999 12c-1.108 0-2 .911-2 2.031v.97h-1v4h6v-4h-1v-.97c0-1.12-.892-2.03-2-2.03zm0 1c.554 0 1 .443 1 1v1h-2v-1c0-.557.446-1 1-1zM9.499 4c-.277 0-.5.223-.5.5v4.875l-1.719-1.5c-.312-.273-.756-.22-1.03.094a.753.753 0 0 0 .061 1.062L8.561 11l-2.25 1.969a.753.753 0 0 0-.062 1.062c.274.313.72.367 1.031.094l1.72-1.5V17.5c0 .277.223.5.5.5.283 0 .437-.02.655-.188l.844-.752v-2.02l-1 .896V12.25l2.014 1.744a3.043 3.043 0 0 1 .474-1.578L10.874 11l2.812-2.469a.78.78 0 0 0 .22-.375.712.712 0 0 0 0-.437.78.78 0 0 0-.22-.375l-3.53-3.157c-.2-.16-.428-.187-.657-.187zm.5 2.062 2.094 1.875L9.999 9.75z" class="ColorScheme-Text"/>
</svg>
