<svg xmlns="http://www.w3.org/2000/svg" width="22" height="22">
    <defs>
        <style id="current-color-scheme" type="text/css">
            .ColorScheme-Highlight{color:#a0b6cb}
        </style>
    </defs>
    <g fill="currentColor" style="color:#fdfdfd;opacity:.7">
        <path d="M11 3a8 8 0 0 0-8 8 8 8 0 0 0 8 8 8 8 0 0 0 8-8 8 8 0 0 0-8-8zm-.094 1A7 7 0 0 1 11 4a7 7 0 0 1 7 7 7 7 0 0 1-7 7 7 7 0 0 1-7-7 7 7 0 0 1 6.906-7z"/>
        <path d="M8.129 8.214a4 4 0 0 0-.575 4.818L9.586 11l-.707-.707-.873.873a3 3 0 0 1 .837-2.251 3 3 0 0 1 .036-.036 3 3 0 0 1 3.412-.584l.74-.74a4 4 0 0 0-4.86.617 4 4 0 0 0-.042.042zm.84 6.232a4 4 0 0 0 4.86-.618 4 4 0 0 0 .615-4.858L12.414 11l.707.707.873-.873a3 3 0 0 1-.873 2.287 3 3 0 0 1-3.412.585z"/>
    </g>
</svg>
