<svg xmlns="http://www.w3.org/2000/svg" width="16" height="16">
    <defs>
        <style id="current-color-scheme" type="text/css">
            .ColorScheme-NeutralText{color:#f5cba3}.ColorScheme-PositiveText{color:#add49f}.ColorScheme-NegativeText{color:#ec9b97}
        </style>
    </defs>
    <path d="M8 1a7 7 0 0 0-1.057 13.92 5 5 0 0 1-.865-2.041 5.254 5.254 0 0 1-.285-.123c.09 0 .176-.008.264-.012a5 5 0 0 1-.051-1.006c-.336.14-.693.207-1.033.168a2.098 2.098 0 0 0-.272-.017c-.038 0-.065-.008-.146.017-.01.002-.025.01-.037.016A5.25 5.25 0 0 1 2.75 8c0-1.6.729-3.113 1.98-4.11a3.915 3.915 0 0 0-.343 1.52c0 .449.11.981.281 1.406.045.113.1.263.262.364s.278.096.441.115c.142.016.435.08.565.125.63.217 1.094.68 1.341 1.24a5 5 0 0 1 .36-.361 3.748 3.748 0 0 0-.7-.809c.536.2 1.097.246 1.641.135a5 5 0 0 1 6.362 1.297A7 7 0 0 0 8 1zm0 1.75a5.25 5.25 0 0 1 5.215 4.693 3.575 3.575 0 0 0-2.621-1.676c-.124-.016-.229-.046-.397.016a.586.586 0 0 0-.3.282c-.072.121-.482.539-.712.685-.65.416-1.763.416-2.416 0-.772-.492-1.213-1.456-1.074-2.307.079-.48.284-.898.623-1.257a8.25 8.25 0 0 0 .166-.182l.028-.035A5.25 5.25 0 0 1 8 2.75zM5.13 5.227l.003.002a2.87 2.87 0 0 0 .685 1.45c-.127-.028-.253-.068-.367-.081-.128-.015-.134-.02-.123-.01l-.014-.031a3.641 3.641 0 0 1-.226-1.149c0-.048.037-.123.043-.181zm5.339 1.222c.009 0-.023.007.03.014.284.038.458.239.694.334-.296-.045-.563-.215-.865-.164-.06.01-.078.08-.137.094.09-.1.215-.176.278-.278z" style="fill:currentColor;color:#fdfdfd;opacity:.7"/>
    <path d="M10.939 8a4 4 0 0 0-3.94 4 4 4 0 0 0 4 4 4 4 0 0 0 4-4 4 4 0 0 0-4-4 4 4 0 0 0-.06 0zm-.94 2 3 2-3 2v-4z" style="fill:currentColor;color:#a0b6cb"/>
</svg>
