<svg xmlns="http://www.w3.org/2000/svg" width="22" height="22">
    <g transform="translate(3 3)">
        <path d="M1.107 7.078C5.432 5.27 8.315 4.079 9.758 3.504c4.12-1.644 4.692-1.882 5.25-1.891a1.1 1.1 0 0 1 .655.244c.233.196.303.323.323.434.02.11.018.455-.002.652-.223 2.25-1.071 7.442-1.563 9.962-.207 1.066-.617 1.424-1.013 1.458-.862.077-1.516-.546-2.35-1.07-1.306-.82-1.74-1.124-3.008-1.925-1.465-.926-.861-1.247-.027-2.078.219-.218 3.837-3.519 3.891-3.822.047-.264.064-.298-.056-.417-.12-.12-.265-.105-.357-.084-.13.028-2.124 1.29-5.98 3.785-.591.39-1.128.58-1.608.57-.53-.012-1.548-.288-2.306-.524-.929-.29-1.667-.443-1.603-.935.034-.256.401-.518 1.104-.786z" style="fill:#fdfdfd;opacity:.7"/>
        <circle cx="4" cy="14" r="2" style="fill:#a0b6cb"/>
    </g>
</svg>
