<svg xmlns="http://www.w3.org/2000/svg" width="24" height="24">
    <path d="m6.352 4.736-.94.942 6.772 6.771h-1.301l-.389-.388-2.181 1.908a.753.753 0 0 0-.063 1.062c.273.313.718.367 1.031.094l1.721-1.5V18.5c0 .277.222.5.5.5.282 0 .436-.02.654-.187l3.531-3.157a.78.78 0 0 0 .22-.375.745.745 0 0 0 0-.437.78.78 0 0 0-.22-.375l-2.812-2.471 2.813-2.467a.78.78 0 0 0 .218-.375.71.71 0 0 0 0-.437.78.78 0 0 0-.219-.375l-3.53-3.156c-.2-.16-.428-.188-.657-.188-.277 0-.5.223-.5.5v3.885L6.352 4.736zM12 7.063l2.094 1.875-1.899 1.642-.195-.195V7.063zm0 6.187 2.094 1.813L12 16.937V13.25z" style="color:#bebebe;overflow:visible;fill:#fdfdfd;opacity:.7;marker:none"/>
</svg>
