<svg xmlns="http://www.w3.org/2000/svg" width="24" height="24">
    <defs>
        <style id="current-color-scheme" type="text/css">
            .ColorScheme-Highlight{color:#a0b6cb}
        </style>
    </defs>
    <path fill="currentColor" d="M7.5 5a2.5 2.5 0 0 0 0 5H9v4H7.5a2.5 2.5 0 1 0 2.5 2.5V15h4v1.5a2.5 2.5 0 1 0 2.5-2.5H15v-4h1.5A2.5 2.5 0 1 0 14 7.5V9h-4V7.5A2.5 2.5 0 0 0 7.5 5zm0 1A1.5 1.5 0 0 1 9 7.5V9H7.5a1.5 1.5 0 1 1 0-3zm9 0a1.5 1.5 0 1 1 0 3H15V7.5A1.5 1.5 0 0 1 16.5 6zM10 10h4v4h-4zm-2.5 5H9v1.5A1.5 1.5 0 1 1 7.5 15zm7.5 0h1.5a1.5 1.5 0 1 1-1.5 1.5z" style="color:#fdfdfd;opacity:.7"/>
</svg>
