<svg xmlns="http://www.w3.org/2000/svg" width="24" height="24">
    <path fill="currentColor" fill-opacity=".7" d="M9.046 4.049A7.995 8 0 0 0 5 11a7.995 8 0 0 0 7.995 8 7.995 8 0 0 0 6.937-4.043 7.995 8 0 0 0 .01-.006l-.738-.738a6.996 7 0 0 1-.004.006 6.996 7 0 0 1-3.207.781 6.996 7 0 0 1-6.995-7 6.996 7 0 0 1 .786-3.213zM8.303 5.82A7.995 8 0 0 0 7.998 8a7.995 8 0 0 0 7.995 8 7.995 8 0 0 0 2.186-.312A6.996 7 0 0 1 12.995 18a6.996 7 0 0 1-6.996-7 6.996 7 0 0 1 2.304-5.18zM13.71 9.1h1.715l-.032.9h-3.397l1.714-2.7h-1.714v-.9h3.429zm4.574-2.4H20l-.032.9h-3.401l1.717-2.7h-1.717V4H20z" color="#fdfdfd" style="color:#fdfdfd;opacity:.7"/>
</svg>
