<svg xmlns="http://www.w3.org/2000/svg" width="24" height="24">
    <path fill="currentColor" d="M12 6a5.96 5.96 0 0 0-3.031.844l2.687 2.687.719-.719-1.625-1.624c.195-.052.39-.098.594-.125.052-.008.103-.026.156-.032.168-.017.327-.031.5-.031a5 5 0 0 1 5 5c0 .243-.028.486-.062.719-.02.136-.032.274-.063.406a4.737 4.737 0 0 1-.281.813c-.013.03-.018.063-.031.093-.041.092-.109.164-.157.25-.004.008.005.023 0 .031l.75.72A5.96 5.96 0 0 0 18 12a6 6 0 0 0-6-6zM6.844 8.969A5.96 5.96 0 0 0 6 12a6 6 0 0 0 6 6 5.96 5.96 0 0 0 3.031-.844l-.75-.75-1.937-1.906-.688.688 1.594 1.625c-.195.05-.39.097-.594.125-.052.007-.103.025-.156.03-.168.018-.327.032-.5.032s-.332-.014-.5-.031-.337-.03-.5-.063A5.017 5.017 0 0 1 7 12c0-.248.028-.48.063-.719.02-.136.031-.273.062-.406.067-.286.167-.548.281-.812.013-.031.018-.064.032-.094.04-.089.108-.165.156-.25v-.031z" style="color:#fdfdfd;opacity:.7"/>
</svg>
