<svg xmlns="http://www.w3.org/2000/svg" width="22" height="22" viewBox="0 0 5.821 5.821">
    <defs>
        <filter id="a" width="1.294" height="1.294" x="-.147" y="-.147" color-interpolation-filters="sRGB">
            <feGaussianBlur stdDeviation=".259"/>
        </filter>
    </defs>
    <rect width="4.234" height="4.234" x="-5.292" y="-5.027" filter="url(#a)" opacity=".25" rx="2.117" ry="2.117" transform="matrix(0 -1 -1 0 0 0)"/>
    <rect width="4.234" height="4.234" x="-5.027" y="-5.027" fill="#a3c8bb" rx="2.117" ry="2.117" transform="matrix(0 -1 -1 0 0 0)"/>
    <path fill-opacity=".46" d="M3.285 2.536a.657.657 0 0 0-.103-.084l-.195.195a.393.393 0 0 1 .11.638l-.56.561c-.158.157-.405.157-.562 0s-.157-.404 0-.561l.16-.16a.934.934 0 0 1-.054-.32l-.293.293a.663.663 0 0 0 0 .935.663.663 0 0 0 .935 0l.562-.561a.663.663 0 0 0 0-.936z" class="ColorScheme-Text" color="#5d656b"/>
    <path fill-opacity=".46" d="M2.536 3.285c.032.032.067.06.103.084l.195-.195a.393.393 0 0 1-.11-.638l.56-.561c.158-.157.405-.157.562 0s.157.404 0 .561l-.16.16a.934.934 0 0 1 .054.32l.293-.293a.663.663 0 0 0 0-.935.663.663 0 0 0-.935 0l-.562.561a.663.663 0 0 0 0 .936z" class="ColorScheme-Text" color="#5d656b"/>
    <path d="M2.91.794A2.112 2.112 0 0 0 .798 3.043 2.112 2.112 0 0 1 2.91 1.058c1.129 0 2.045.874 2.113 1.985A2.112 2.112 0 0 0 2.91.794z" opacity=".2"/>
</svg>
