<svg xmlns="http://www.w3.org/2000/svg" width="22" height="22">
    <defs>
        <filter id="filter976" width="1.294" height="1.294" x="-.147" y="-.147" color-interpolation-filters="sRGB">
            <feGaussianBlur stdDeviation=".259"/>
        </filter>
    </defs>
    <style id="current-color-scheme" type="text/css">
        .ColorScheme-Highlight{color:#a3c9dc}.ColorScheme-Text{color:#232629}
    </style>
    <rect width="4.234" height="4.234" x="-5.292" y="-5.027" filter="url(#filter976)" opacity=".25" rx="2.117" ry="2.117" transform="matrix(0 -3.7794 -3.7794 0 0 0)"/>
    <rect width="4.233" height="4.233" x="-296.21" y="-5.027" fill="#a3c9dc" rx="2.117" ry="2.117" transform="matrix(0 -3.7794 -3.7794 0 0 -1100.5)"/>
    <path fill-opacity=".46" d="M10 6v4H6v2h4v4h2v-4h4v-2h-4V6z"/>
    <path stroke-width="3.78" d="M11 3a7.982 7.982 0 0 0-7.984 8.5A7.982 7.982 0 0 1 11 4a7.982 7.982 0 0 1 7.984 7.5A7.982 7.982 0 0 0 11 3z" opacity=".2"/>
</svg>
