<svg xmlns="http://www.w3.org/2000/svg" width="22" height="22">
    <path fill="currentColor" d="M11 4a7.5 7.5 0 0 0-7.5 7.5A7.5 7.5 0 0 0 11 19a7.5 7.5 0 0 0 7.5-7.5A7.5 7.5 0 0 0 11 4zm0 1a6.5 6.5 0 0 1 6.5 6.5A6.5 6.5 0 0 1 11 18a6.5 6.5 0 0 1-6.5-6.5A6.5 6.5 0 0 1 11 5zm0 3c-.277 0-.5.223-.5.5v4.793l-1.268-1.268a.499.499 0 1 0-.707.707l2.121 2.122a.497.497 0 0 0 .541.109.496.496 0 0 0 .167-.11l2.12-2.12a.499.499 0 1 0-.706-.708L11.5 13.293V8.5c0-.277-.223-.5-.5-.5z" style="color:#050505;opacity:.7"/>
</svg>
