<svg xmlns="http://www.w3.org/2000/svg" width="24" height="24">
    <path fill="currentColor" d="M11.877 6.008c-.02.002-.04.015-.06.02a.972.972 0 0 0-.208.07c-.036.015-.074.017-.109.037-.017.01-.026.028-.043.039a.976.976 0 0 0-.16.14c-.043.044-.086.085-.12.135-.012.02-.032.03-.044.051L7.957 12H5c-.554 0-1 .446-1 1s.446 1 1 1h8.734l-1.154-2h-2.312L12 8.998l1.154-2-.287-.498c-.012-.02-.032-.032-.045-.05-.033-.05-.076-.092-.119-.136a.975.975 0 0 0-.16-.14c-.017-.011-.026-.03-.043-.04-.035-.02-.073-.02-.11-.036a.972.972 0 0 0-.206-.07.961.961 0 0 0-.184-.012c-.041 0-.082-.013-.123-.008zm1.856 1.99-1.155 2L13.732 12l1.155 2 2.248 3.893a1 1 0 1 0 1.732-1L17.197 14H19c.554 0 1-.446 1-1s-.446-1-1-1h-2.957l-2.31-4.002zM6.225 15l-1.092 1.893a1 1 0 1 0 1.732 1L8.535 15h-2.31z" style="color:#fdfdfd;opacity:.7"/>
</svg>
