<svg xmlns="http://www.w3.org/2000/svg" width="16" height="16">
    <path fill="#050505" fill-opacity=".7" d="M6.5 2A4.49 4.49 0 0 0 2 6.5v.033c.01-.006.021-.01.031-.015A3.99 3.99 0 0 0 0 10c0 2.216 1.784 4 4 4h8c2.216 0 4-1.784 4-4s-1.784-4-4-4h-1.027A4.49 4.49 0 0 0 6.5 2zm0 1a3.49 3.49 0 0 1 3.463 3c.023.163.037.33.037.5V7h2c1.662 0 3 1.338 3 3s-1.338 3-3 3H4c-1.662 0-3-1.338-3-3a2.99 2.99 0 0 1 2-2.826V6.5A3.492 3.492 0 0 1 6.5 3zM2.297 6.38a3.966 3.966 0 0 0-.113.056c.037-.02.075-.037.113-.055z"/>
</svg>
