<svg xmlns="http://www.w3.org/2000/svg" width="16" height="16" viewBox="0 0 4.233 4.233">
    <path fill="#050505" fill-opacity=".7" d="M1.455.794a.397.397 0 0 0-.132.77v2.67h.264V4.1c0-.22.177-.397.397-.397h.265a.663.663 0 0 0 .661-.661V2.49a.397.397 0 1 0-.264 0v.553c0 .22-.176.397-.397.397h-.265a.654.654 0 0 0-.397.136V1.564a.397.397 0 0 0-.132-.77zm0 .264a.132.132 0 0 1 .132.133.132.132 0 0 1-.132.132.132.132 0 0 1-.132-.132.132.132 0 0 1 .132-.133zm1.323.926a.132.132 0 0 1 .132.133.132.132 0 0 1-.132.132.132.132 0 0 1-.132-.132.132.132 0 0 1 .132-.133z"/>
    <path fill="#050505" fill-opacity=".7" d="M.794 0a.528.528 0 0 0-.53.53v3.174c0 .293.237.53.53.53H3.44c.293 0 .529-.237.529-.53V.53A.528.528 0 0 0 3.439 0zm0 .265H3.44c.146 0 .264.118.264.264v3.175a.264.264 0 0 1-.264.265H.794a.264.264 0 0 1-.265-.265V.53C.53.383.647.265.794.265z"/>
</svg>
