<svg xmlns="http://www.w3.org/2000/svg" width="16" height="16">
    <path fill="#050505" fill-opacity=".7" d="M2.918 1A1.915 1.915 0 0 0 1 2.922v10.156C1 14.144 1.855 15 2.918 15h10.164A1.915 1.915 0 0 0 15 13.078V2.922A1.915 1.915 0 0 0 13.082 1zm-.004 1h10.172a.91.91 0 0 1 .914.91v9.18a.91.91 0 0 1-.914.91H2.914A.91.91 0 0 1 2 12.09V2.91A.91.91 0 0 1 2.914 2z"/>
    <path fill="#050505" fill-opacity=".7" d="M5 4c0 .55-.45 1-1 1s-1-.45-1-1 .45-1 1-1 1 .45 1 1zM13 4c0 .55-.45 1-1 1s-1-.45-1-1 .45-1 1-1 1 .45 1 1zM13 11c0 .55-.45 1-1 1s-1-.45-1-1 .45-1 1-1 1 .45 1 1zM5 11c0 .55-.45 1-1 1s-1-.45-1-1 .45-1 1-1 1 .45 1 1zM9 7.707a1 1 0 1 1-1.999.001A1 1 0 0 1 9 7.707z"/>
</svg>
