<svg xmlns="http://www.w3.org/2000/svg" width="16" height="16">
    <g fill="#050505" opacity=".7">
        <path d="M2.75 1.99h2.481c.421 0 .76.357.76.8v2.398c0 .443-.339.8-.76.8H2.75c-.42 0-.76-.357-.76-.8V2.79c0-.443.34-.8.76-.8zM10.75 9.99h2.484c.422 0 .76.357.76.8v2.4c0 .443-.338.8-.76.8H10.75c-.421 0-.76-.357-.76-.8v-2.4c0-.443.339-.8.76-.8z"/>
        <path fill-rule="evenodd" d="M431-164v7h7v-7h-7zm1 1h5v5h-5v-5zM424-157v7h7v-7zm1 1h5v5h-5z" style="paint-order:stroke fill markers" transform="translate(-423 165)"/>
    </g>
</svg>
