<svg xmlns="http://www.w3.org/2000/svg" width="16" height="16">
    <path fill="#050505" fill-opacity=".7" d="M8 0a8 8 0 0 0-8 8 8 8 0 0 0 6.662 7.885 8 8 0 0 0 .793.096A8 8 0 0 0 8 16a8 8 0 0 0 1.504-.143A4.5 4.5 0 0 1 8 12.5a4.5 4.5 0 0 1 .729-2.455A6 6 0 0 0 8 10a6 6 0 0 0-5.076 2.815A7 7 0 0 1 1 8a7 7 0 0 1 7-7 7 7 0 0 1 7 7 7 7 0 0 1-.041.732 4.5 4.5 0 0 1 .896.77A8 8 0 0 0 16 8a8 8 0 0 0-8-8zm0 4a2 2 0 0 0-2 2 2 2 0 0 0 2 2 2 2 0 0 0 2-2 2 2 0 0 0-2-2z"/>
    <path fill="#050505" fill-opacity=".7" d="M12.5 9a3.5 3.5 0 1 0 0 7 3.5 3.5 0 0 0 0-7zm-.5 1h1v1h-1v-1zm0 2h1v3h-1v-3z"/>
</svg>
