<svg xmlns="http://www.w3.org/2000/svg" width="16" height="16">
    <defs>
        <style id="current-color-scheme" type="text/css">
            .ColorScheme-Highlight{color:#a0b6cb}
        </style>
    </defs>
    <g fill="currentColor" style="color:#fdfdfd;opacity:.7">
        <path fill="#fdfdfd" fill-opacity=".7" d="M8 1C6.164 1 4.633 2.202 4.063 3.844 2.339 4.062 1 5.518 1 7.3a3.493 3.493 0 0 0 2.636 3.382 4.375 4.375 0 0 1 4.081-4.095 4.375 4.375 0 0 1 4.649 4.084 4.375 4.375 0 0 1 .002.113 2.794 2.794 0 0 0-.169-5.582C12.2 2.882 10.32 1 8 1z"/>
        <path stroke-width=".583" d="M7.77 7.57a3.5 3.5 0 0 0-3.268 3.719 3.5 3.5 0 0 0 3.72 3.267 3.5 3.5 0 0 0 3.267-3.718A3.5 3.5 0 0 0 7.77 7.57zm.225 1.428h.002c.175 0 .316.14.316.316v2.23c0 .176-.14.317-.316.317h-.002a.315.315 0 0 1-.317-.316v-2.23c0-.177.14-.317.317-.317zm.002 3.5c.176 0 .316.142.316.318a.318.318 0 1 1-.316-.318z"/>
    </g>
</svg>
