<svg xmlns="http://www.w3.org/2000/svg" width="16" height="16">
    <path fill="#050505" fill-opacity=".7" d="M4.506 1c-.441 0-.883.166-1.213.496L1.507 3.281a1.73 1.73 0 0 0 0 2.424L3.293 7.49c.66.661 1.764.661 2.425 0l1.786-1.785a1.73 1.73 0 0 0 0-2.426L5.718 1.496A1.712 1.712 0 0 0 4.505 1zm0 .994a.714.714 0 0 1 .505.21l1.786 1.784a.714.714 0 0 1 0 1.01L5.01 6.783a.714.714 0 0 1-1.011 0L2.214 4.998a.714.714 0 0 1 0-1.01L4 2.203a.714.714 0 0 1 .506-.209z" color="#000" style="-inkscape-stroke:none"/>
    <path fill="#050505" fill-opacity=".7" d="M7 9a3 3 0 0 0-3 3 3 3 0 0 0 3 3 3 3 0 0 0 3-3 3 3 0 0 0-3-3zm0 1a2 2 0 0 1 2 2 2 2 0 0 1-2 2 2 2 0 0 1-2-2 2 2 0 0 1 2-2z"/>
    <path fill="#050505" d="M12 2c-.039 0-.078 0-.117.002-.56.03-1.068.342-1.35.826h-.002L8.984 5.494c-.62 1.068.205 2.502 1.44 2.504h3.1c1.235-.001 2.057-1.433 1.44-2.502l-1.548-2.668A1.67 1.67 0 0 0 12 2zm-.062 1a.667.667 0 0 1 .613.33l1.547 2.668a.667.667 0 0 1-.576 1h-3.096a.667.667 0 0 1-.576-1l1.547-2.668a.667.667 0 0 1 .54-.33z" color="#000" opacity=".7" style="-inkscape-stroke:none"/>
</svg>
