<svg xmlns="http://www.w3.org/2000/svg" width="16" height="16">
    <path fill="#fdfdfd" d="M8 5a3 3 0 0 0-3 3 3 3 0 0 0 3 3 3 3 0 0 0 3-3 3 3 0 0 0-3-3zm0 1a2 2 0 0 1 2 2 2 2 0 0 1-2 2 2 2 0 0 1-2-2 2 2 0 0 1 2-2z" opacity=".7" style="paint-order:fill markers stroke"/>
    <path fill="#fdfdfd" fill-opacity=".7" d="M7.42 0a1.25 1.25 0 0 0-.795.28c-.26.217-.383.537-.414.767l.02-.102-.342 1.422c-.14.051-.271.107-.403.166l-1.238-.758a1 1 0 0 0-.008-.003 1.29 1.29 0 0 0-.793-.18c-.318.039-.555.205-.691.33a1 1 0 0 0-.026.023l-.82.807a1 1 0 0 0-.037.037c-.155.17-.31.456-.328.758-.018.302.082.548.174.709a1 1 0 0 0 .02.031l.769 1.24c-.056.121-.1.25-.15.385l-1.409.332a1 1 0 0 0-.013.002c-.162.04-.44.135-.663.402S0 7.242 0 7.441V8.59c0 .222.062.533.28.793.217.26.535.383.765.414l-.1-.018 1.424.34c.047.125.094.246.147.363l-.772 1.258a1.238 1.238 0 0 0-.187.752c.027.324.212.622.392.787l.783.783c.155.155.41.325.725.364.315.038.61-.067.793-.18l1.252-.771c.124.057.248.11.379.16l.35 1.431-.02-.105c.03.232.169.573.44.785.27.212.566.254.769.254h1.168c.203 0 .513-.05.777-.264.265-.213.38-.514.42-.71l-.008.04.35-1.43c.13-.049.256-.102.379-.16l1.242.77a1 1 0 0 0 .002 0c.183.113.478.218.793.18a1.27 1.27 0 0 0 .725-.364 1 1 0 0 0 .004-.002l.779-.789c.169-.155.364-.453.392-.783a1.229 1.229 0 0 0-.17-.728 1 1 0 0 0-.017-.03l-.77-1.246c.054-.117.101-.237.149-.363l1.428-.342-.1.018c.233-.031.571-.169.783-.44.212-.27.254-.564.254-.767V7.44c0-.18-.03-.485-.248-.765a1.24 1.24 0 0 0-.68-.43 1 1 0 0 0-.013-.002l-1.409-.332c-.052-.137-.095-.267-.15-.387l.754-1.224a1.24 1.24 0 0 0 .207-.754 1.282 1.282 0 0 0-.395-.81l-.79-.778a1.284 1.284 0 0 0-.723-.363 1.274 1.274 0 0 0-.75.15 1 1 0 0 0-.051.03l-1.234.757c-.126-.058-.257-.108-.393-.16L9.789.994a1.243 1.243 0 0 0-.41-.719A1.253 1.253 0 0 0 8.588 0H7.42zm0 1h1.168c.132 0 .193.054.217.178l.465 1.916c.503.124.96.332 1.347.549l1.658-1.016c.117-.062.2-.054.293.039l.82.807c.094.085.094.178.024.287l-1.021 1.658c.185.349.419.83.535 1.35l1.904.449c.124.03.17.085.17.224V8.59c0 .132-.054.201-.17.217l-1.912.457a4.904 4.904 0 0 1-.543 1.326l1.03 1.666c.061.108.061.194-.032.28l-.812.821c-.093.093-.187.1-.288.038l-1.664-1.03c-.387.24-.828.433-1.34.557l-.464 1.908c-.024.116-.085.17-.217.17H7.42c-.132 0-.201-.054-.217-.17l-.465-1.908a4.52 4.52 0 0 1-1.34-.557l-1.671 1.03c-.101.062-.195.055-.288-.038l-.812-.814c-.093-.085-.093-.179-.031-.28l1.029-1.673a4.999 4.999 0 0 1-.535-1.326l-1.912-.457C1.062 8.79 1 8.722 1 8.59V7.44c0-.14.054-.193.178-.224l1.906-.45c.116-.519.34-1 .533-1.349L2.587 3.76c-.061-.109-.06-.202.024-.295l.82-.807c.094-.085.18-.1.296-.031l1.656 1.016a5.113 5.113 0 0 1 1.363-.557l.457-1.908C7.22 1.06 7.288 1 7.42 1z" color="#000" style="-inkscape-stroke:none"/>
</svg>
