<svg xmlns="http://www.w3.org/2000/svg" width="16" height="16">
    <path fill="#fdfdfd" fill-opacity=".7" d="M13.021.95a.5.5 0 0 0-.371.099.5.5 0 0 0-.092.701A6.996 6.996 0 0 1 14 6a7 7 0 0 1-1.454 4.24.5.5 0 0 0 .092.701.5.5 0 0 0 .701-.091A8 8 0 0 0 15 6.002.5.5 0 0 0 15 6a8.004 8.004 0 0 0-1.648-4.86.5.5 0 0 0-.33-.19zM7 1C4.244 1 2 3.245 2 6a.5.5 0 0 0 .5.5A.5.5 0 0 0 3 6c0-2.215 1.784-4 4-4s4 1.785 4 4c-.002 1.058-.272 1.814-.717 2.371-.446.557-1.087.932-1.908 1.145a.5.5 0 0 0-.012.005.5.5 0 0 0-.022.004.5.5 0 0 0-.13.069.5.5 0 0 0-.03.025.5.5 0 0 0-.094.106.5.5 0 0 0-.025.037.5.5 0 0 0-.01.015l-.5 1C7.095 11.693 6.522 14 5 14c-.834 0-1.276-.377-1.584-.84A2.908 2.908 0 0 1 3 12v-1.5a.5.5 0 0 0-.5-.5.5.5 0 0 0-.5.5V12c0 .417.142 1.053.583 1.715A2.853 2.853 0 0 0 5 15c2.478 0 3.273-3.428 3.448-3.777l.402-.803c.885-.266 1.659-.728 2.215-1.424.603-.754.933-1.765.935-2.996 0-2.755-2.244-5-5-5zm0 3a2 2 0 0 0-2 2 2 2 0 0 0 2 2 2 2 0 0 0 2-2 2 2 0 0 0-2-2zm0 1a1 1 0 0 1 1 1 1 1 0 0 1-1 1 1 1 0 0 1-1-1 1 1 0 0 1 1-1z"/>
</svg>
