<svg xmlns="http://www.w3.org/2000/svg" width="36" height="36">
    <path fill="#fdfdfd" d="M2 0C.892 0 0 .892 0 2v6c0 1.108.892 2 2 2h6c1.108 0 2-.892 2-2V2c0-1.108-.892-2-2-2H2zm13 0c-1.108 0-2 .892-2 2v6c0 1.108.892 2 2 2h6c1.108 0 2-.892 2-2V2c0-1.108-.892-2-2-2h-6zm13 0c-1.108 0-2 .892-2 2v6c0 1.108.892 2 2 2h6c1.108 0 2-.892 2-2V2c0-1.108-.892-2-2-2h-6zM17.682 1.219c.947 0 1.654.156 2.123.469.472.309.709.775.709 1.4 0 .426-.113.777-.338 1.05-.225.27-.557.46-.996.571.492.127.865.348 1.12.664.256.313.384.712.384 1.197 0 .723-.277 1.273-.83 1.65-.554.375-1.36.561-2.422.561-.374 0-.75-.03-1.127-.091a7.107 7.107 0 0 1-1.113-.27V6.97c.351.177.7.31 1.044.401.349.088.69.131 1.026.131.498 0 .879-.085 1.142-.258.267-.172.4-.42.4-.742a.829.829 0 0 0-.41-.752c-.27-.172-.67-.26-1.2-.26h-.752V4.28h.79c.473 0 .824-.073 1.055-.22.231-.149.346-.376.346-.679a.738.738 0 0 0-.336-.648c-.225-.153-.543-.23-.953-.23-.303 0-.609.034-.918.103-.31.068-.616.169-.922.302V1.531c.371-.104.739-.182 1.104-.234s.722-.078 1.074-.078zm-12.873.008c.872 0 1.55.192 2.031.576.485.384.729.92.729 1.607 0 .397-.104.768-.309 1.113-.205.342-.635.801-1.293 1.377L4.41 7.268h3.209v1.38h-5.3v-1.38l2.663-2.35c.237-.215.413-.424.527-.629s.17-.42.17-.64c0-.342-.114-.616-.346-.825-.227-.208-.533-.312-.914-.312a2.82 2.82 0 0 0-.96.19c-.349.123-.723.309-1.12.556V1.656a8.76 8.76 0 0 1 1.256-.316 6.807 6.807 0 0 1 1.215-.113zm23.771.134h4.674v1.381H30.08v1.13c.143-.04.286-.07.43-.089.146-.022.297-.035.453-.035.888 0 1.581.224 2.076.67.495.443.742 1.061.742 1.856 0 .787-.27 1.403-.81 1.85-.537.445-1.286.67-2.243.67a6.26 6.26 0 0 1-1.23-.124 6.449 6.449 0 0 1-1.205-.361V6.83a5.92 5.92 0 0 0 1.127.512c.358.114.696.172 1.012.172.455 0 .813-.11 1.074-.332.263-.225.394-.528.394-.908 0-.385-.13-.687-.394-.909-.26-.221-.619-.332-1.074-.332-.27 0-.56.036-.866.108a5.968 5.968 0 0 0-.986.322V1.361zM2 13.001c-1.108 0-2 .891-2 2v6c0 1.107.892 2 2 2h6c1.108 0 2-.893 2-2v-6c0-1.109-.892-2-2-2H2zm13 0c-1.108 0-2 .891-2 2v6c0 1.107.892 2 2 2h6c1.108 0 2-.893 2-2v-6c0-1.109-.892-2-2-2h-6zm-9.445 1.23a5.991 5.991 0 0 1 1.914.312v1.348a4.756 4.756 0 0 0-.875-.322 3.154 3.154 0 0 0-.801-.108c-.56 0-.996.157-1.309.47-.312.308-.494.768-.546 1.38.214-.16.448-.277.699-.355.25-.082.524-.123.82-.123.745 0 1.345.218 1.8.654.46.436.69 1.008.69 1.715 0 .78-.256 1.407-.767 1.879-.511.468-1.196.703-2.055.703-.947 0-1.682-.32-2.203-.957-.518-.642-.775-1.55-.775-2.725 0-1.204.302-2.15.908-2.836.608-.69 1.442-1.035 2.5-1.035zm12.338.121h2.09v4.6h1.04v1.36h-1.04v1.329h-1.778v-1.328h-3.232v-1.611l2.92-4.35zm.312 1.547-2.06 3.053h2.06v-3.053zM28 17c-1.108 0-2 .892-2 2v6c0 1.108.892 2 2 2h6c1.108 0 2-.892 2-2v-6c0-1.108-.892-2-2-2h-6zM5.145 18.043c-.329 0-.576.108-.742.323-.163.211-.244.53-.244.957 0 .426.081.748.244.963.166.211.413.316.742.316.332 0 .58-.105.742-.316.166-.215.248-.537.248-.963 0-.427-.082-.746-.248-.957-.162-.215-.41-.323-.742-.323zm25.715.25c.95 0 1.686.32 2.207.961.52.642.781 1.55.781 2.721 0 1.205-.305 2.152-.914 2.842-.608.687-1.442 1.03-2.504 1.03a5.976 5.976 0 0 1-1.9-.304v-1.347c.3.14.586.247.86.318.273.068.543.102.81.102.56 0 .996-.154 1.309-.463.312-.313.497-.775.552-1.387a2.488 2.488 0 0 1-1.523.488c-.746 0-1.348-.217-1.807-.65-.455-.436-.683-1.01-.683-1.719 0-.784.254-1.413.761-1.885.511-.472 1.195-.707 2.051-.707zm-.01 1.182c-.328 0-.576.107-.742.322s-.25.534-.25.957c0 .427.084.746.25.961.166.212.414.319.742.319.33 0 .577-.107.743-.319.166-.215.248-.534.248-.96 0-.424-.082-.743-.248-.958-.166-.214-.414-.322-.743-.322zM2 26c-1.108 0-2 .892-2 2v6c0 1.108.892 2 2 2h6c1.108 0 2-.892 2-2v-6c0-1.108-.892-2-2-2H2zm13 0c-1.108 0-2 .892-2 2v6c0 1.108.892 2 2 2h6c1.108 0 2-.892 2-2v-6c0-1.108-.892-2-2-2h-6zm3.002 1.233c.882 0 1.553.16 2.012.482.459.32.69.788.69 1.406 0 .414-.114.759-.342 1.036-.225.276-.56.481-1.002.615.494.137.868.36 1.119.67.254.306.38.693.38 1.162 0 .723-.24 1.27-.722 1.64-.479.368-1.19.551-2.135.551-.947 0-1.663-.183-2.148-.55-.482-.372-.723-.918-.723-1.641 0-.469.126-.856.377-1.162.254-.31.628-.533 1.123-.67-.443-.134-.777-.339-1.002-.615-.225-.277-.336-.622-.336-1.036 0-.615.229-1.084.688-1.406.459-.322 1.132-.482 2.021-.482zm-15.809.119h5.494v1.06l-2.841 6.231H3.014l2.691-5.908H2.193v-1.383zm15.81 1.063c-.3 0-.531.078-.694.234-.16.156-.238.377-.238.664 0 .29.078.512.238.668.163.156.394.234.693.234.293 0 .52-.078.68-.234.16-.156.238-.378.238-.668s-.078-.511-.238-.664c-.16-.156-.387-.234-.68-.234zm0 2.978c-.352 0-.622.095-.811.287-.189.192-.283.468-.283.826 0 .358.094.632.283.825.189.188.459.283.81.283.349 0 .616-.095.801-.283.186-.193.28-.467.28-.825 0-.361-.094-.637-.28-.826-.185-.192-.452-.287-.8-.287z" color="#000" opacity=".7" style="isolation:auto;mix-blend-mode:normal"/>
</svg>
