<svg xmlns="http://www.w3.org/2000/svg" width="16" height="16">
    <g fill="#fdfdfd" opacity=".7">
        <path d="M2.5 3C1.669 3 1 3.669 1 4.5S1.669 6 2.5 6 4 5.331 4 4.5 3.331 3 2.5 3zm-.025 1H2.5a.499.499 0 1 1 0 1 .5.5 0 0 1-.025-1zM5 4h10v1H5zM2.5 7C1.669 7 1 7.669 1 8.5S1.669 10 2.5 10 4 9.331 4 8.5 3.331 7 2.5 7zm-.025 1H2.5a.499.499 0 1 1 0 1 .5.5 0 0 1-.025-1zM5 8h10v1H5zM2.5 11c-.831 0-1.5.669-1.5 1.5S1.669 14 2.5 14 4 13.331 4 12.5 3.331 11 2.5 11zm-.025 1H2.5a.499.499 0 1 1 0 1 .5.5 0 0 1-.025-1zM5 12h10v1H5z"/>
    </g>
</svg>
