<svg xmlns="http://www.w3.org/2000/svg" width="24" height="24">
    <path d="m6.354 4.736-.942.942 2.71 2.709.421-.422A4.205 4.205 0 0 0 8 10s0 5-1.66 5.621c-.016.011-.022.031-.04.043a.726.726 0 0 0-.161.176c-.018.027-.04.048-.053.076A.738.738 0 0 0 6 16.25c0 .114.335.75.75.75h10.5c.114 0 .75-.636.75-.75a.738.738 0 0 0-.086-.334c-.014-.028-.036-.05-.053-.076a.725.725 0 0 0-.162-.176c-.016-.012-.022-.032-.039-.043C16 15.001 16 10 16 10c-.002-1.823-1.235-3.535-3-3.99V6a1 1 0 0 0-1-1 1 1 0 0 0-1 1v.01c-.819.211-1.515.701-2.035 1.34L6.354 4.736zM10.066 18A2 2 0 0 0 12 19.5a2 2 0 0 0 1.936-1.5h-3.87z" style="color:#bebebe;overflow:visible;opacity:1;isolation:auto;mix-blend-mode:normal;fill:#fdfdfd;stroke-width:1;marker:none;font-variant-east_asian:normal;vector-effect:none;fill-opacity:1;stroke-linecap:butt;stroke-linejoin:miter;stroke-miterlimit:4;stroke-dasharray:none;stroke-dashoffset:0;stroke-opacity:1"/>
</svg>
