<svg xmlns="http://www.w3.org/2000/svg" width="24" height="24">
    <g fill="#fdfdfd" color="#000" transform="translate(-753 -25)">
        <rect width="1" height="5" x="764.5" y="29" overflow="visible" rx=".5" ry=".5" style="marker:none"/>
        <rect width="1" height="5" x="-37.5" y="757" opacity=".578" overflow="visible" rx=".5" ry=".5" style="marker:none" transform="rotate(-90)"/>
        <rect width="1" height="5" x="-765.5" y="-45" opacity=".335" overflow="visible" rx=".5" ry=".5" style="marker:none" transform="scale(-1)"/>
        <rect width="1" height="5" x="36.5" y="-773" opacity=".19" overflow="visible" rx=".5" ry=".5" style="marker:none" transform="rotate(90)"/>
        <rect width="1" height="5" x="643.51" y="406.543" opacity=".833" overflow="visible" rx=".5" ry=".5" style="marker:none" transform="rotate(-30)"/>
        <rect width="1" height="5" x="349.957" y="673.01" opacity=".694" overflow="visible" rx=".5" ry=".5" style="marker:none" transform="rotate(-60)"/>
        <rect width="1" height="5" x="-415.043" y="636.01" opacity=".482" overflow="visible" rx=".5" ry=".5" style="marker:none" transform="rotate(-120)"/>
        <rect width="1" height="5" x="-681.51" y="342.457" opacity=".402" overflow="visible" rx=".5" ry=".5" style="marker:none" transform="rotate(-150)"/>
        <rect width="1" height="5" x="-644.51" y="-422.543" opacity=".28" overflow="visible" rx=".5" ry=".5" style="marker:none" transform="rotate(150)"/>
        <rect width="1" height="5" x="-350.957" y="-689.01" opacity=".23" overflow="visible" rx=".5" ry=".5" style="marker:none" transform="rotate(120)"/>
        <rect width="1" height="5" x="414.043" y="-652.01" opacity=".16" overflow="visible" rx=".5" ry=".5" style="marker:none" transform="rotate(60)"/>
        <rect width="1" height="5" x="680.51" y="-358.457" opacity=".13" overflow="visible" rx=".5" ry=".5" style="marker:none" transform="rotate(30)"/>
    </g>
</svg>
