<svg xmlns="http://www.w3.org/2000/svg" width="24" height="24">
    <path fill="currentColor" d="M11.943 4.5A7.5 7.5 0 0 0 4.5 12a7.5 7.5 0 0 0 7.5 7.5 7.5 7.5 0 0 0 7.5-7.5A7.5 7.5 0 0 0 12 4.5a7.5 7.5 0 0 0-.057 0zm.004 1a6.5 6.5 0 0 1 .053 0 6.5 6.5 0 0 1 6.5 6.5 6.5 6.5 0 0 1-6.5 6.5A6.5 6.5 0 0 1 5.5 12a6.5 6.5 0 0 1 6.447-6.5zm.932 2.377a.5.5 0 0 0-.354.148.499.499 0 0 0 0 .707L13.793 10H9a.499.499 0 1 0 0 1h6a.504.504 0 0 0 .418-.225l.021-.037.004-.006c.003-.004.003-.01.006-.015a.491.491 0 0 0 .04-.121l.009-.045v-.004a.5.5 0 0 0-.055-.28l-.004-.005-.021-.037-.004-.004-.01-.016-.018-.023c-.01-.013-.022-.024-.033-.035l-2.121-2.122a.5.5 0 0 0-.353-.148zM8.999 13a.498.498 0 0 0-.216.05l-.016.007c-.002 0-.004.002-.006.004-.012.006-.025.015-.037.023a.493.493 0 0 0-.11.098l-.001.004a.514.514 0 0 0-.03.039l-.001.002a.498.498 0 0 0-.022.035l-.01.021a.496.496 0 0 0-.027.069l-.002.007a.492.492 0 0 0-.002.278l.002.006.002.005c.004.014.008.028.014.041l.01.022c.003.007.005.014.01.021l.003.006.022.037c0 .002.003.003.004.004a.526.526 0 0 0 .027.037l.002.002.031.036.035.033 2.086 2.088a.499.499 0 1 0 .707-.707L10.207 14H15a.499.499 0 1 0 0-1H9z" style="color:#fdfdfd;opacity:.7"/>
</svg>
