<svg xmlns="http://www.w3.org/2000/svg" id="svg9" width="64" height="64" version="1.1">
    <defs id="defs3">
        <style id="current-color-scheme" type="text/css">
            .ColorScheme-Text{color:#333}
        </style>
    </defs>
    <rect id="rect5" width="60" height="60" x="2" y="2" fill="#a1978c" color="#60c0f0" rx="30" ry="30"/>
    <path id="path7" fill="#fff" d="M48.364 46.897c0-5.36-9.094-8.092-12.722-9.063 0 0 .151-3.01.503-4.109.347-1.104.4-2.355.548-2.706.15-.348 1.924-1.954 2.022-3.455-.023-.895-.2-1.107-.643-1.107v-4.66c0-2.514-3.666-4.71-6.074-4.71-2.403 0-6.07 2.196-6.07 4.71v4.66c-.442 0-.62.212-.642 1.107.098 1.5 1.87 3.107 2.022 3.455.151.351.197 1.603.548 2.706.352 1.1.503 4.105.503 4.105-3.629.975-12.722 3.707-12.722 9.067z"/>
</svg>
