<svg xmlns="http://www.w3.org/2000/svg" width="32" height="32">
    <rect width="30" height="30" x="1" y="1" fill="#c5b3cd" rx="8" ry="8"/>
    <path  d="M13.585 8.847c-.678.174-1.225.866-1.225 1.54v10.667a3.337 3.053 0 0 0-2.488-.257c-1.653.412-2.688 1.741-2.334 2.968.355 1.23 1.983 1.916 3.636 1.504 1.32-.328 2.228-1.256 2.373-2.236l.04-10.08 8.571-2.2v7.955a3.339 3.054 0 0 0-2.487-.257c-1.653.412-2.69 1.741-2.335 2.968.355 1.23 1.984 1.916 3.636 1.504 1.319-.328 2.228-1.256 2.373-2.236l.039-13.124c0-.504-.326-.881-.766-.952l-9.032 2.236Z" style="fill:#fff;fill-opacity:1;stroke-width:1.25663"/>
</svg>
