<svg xmlns="http://www.w3.org/2000/svg" width="32" height="32">
    <rect width="30" height="30" x="1" y="1" fill="#f09da5" rx="8" ry="8"/>
    <path d="M9 1C4.568 1 1 4.568 1 9v1h30V9c0-4.432-3.568-8-8-8z" opacity=".15"/>
    <path fill-opacity=".9" d="M11 4C9.338 4 8 5.338 8 7v3h2V7c0-.554.446-1 1-1h10c.554 0 1 .446 1 1v3h2V7c0-1.662-1.338-3-3-3z" style="fill:#fff;fill-opacity:1"/>
    <path fill-opacity=".9" fill-rule="evenodd" d="M7.5 12A2.5 2.5 0 0 0 5 14.5 2.5 2.5 0 0 0 7.5 17a2.5 2.5 0 0 0 2.5-2.5A2.5 2.5 0 0 0 7.5 12zm0 1A1.5 1.5 0 0 1 9 14.5 1.5 1.5 0 0 1 7.5 16 1.5 1.5 0 0 1 6 14.5 1.5 1.5 0 0 1 7.5 13zm17-1a2.5 2.5 0 0 0-2.5 2.5 2.5 2.5 0 0 0 2.5 2.5 2.5 2.5 0 0 0 2.5-2.5 2.5 2.5 0 0 0-2.5-2.5zm0 1a1.5 1.5 0 0 1 1.5 1.5 1.5 1.5 0 0 1-1.5 1.5 1.5 1.5 0 0 1-1.5-1.5 1.5 1.5 0 0 1 1.5-1.5z" style="paint-order:normal;fill:#fff;fill-opacity:1"/>
</svg>
