<svg xmlns="http://www.w3.org/2000/svg" width="24" height="24">
    <path fill="currentColor" d="M10.002 4c-.554 0-1 .446-1 1v1h-4.5a.499.499 0 1 0 0 1H5l.547 11.06c.061 1.016.906 1.94 1.998 1.94h7.914c1.092 0 1.937-.924 1.998-1.94L18.004 7h.498a.499.499 0 1 0 0-1h-4.5V5c0-.554-.446-1-1-1h-3zm0 1h3v1h-3zm-1.5 4c.277 0 .5.223.5.5v7a.499.499 0 1 1-1 0v-7c0-.277.223-.5.5-.5zm3 0c.277 0 .5.223.5.5v7a.499.499 0 1 1-1 0v-7c0-.277.223-.5.5-.5zm3 0c.277 0 .5.223.5.5v7a.499.499 0 1 1-1 0v-7c0-.277.223-.5.5-.5z" style="color:#050505;opacity:.7"/>
</svg>
