<svg xmlns="http://www.w3.org/2000/svg" width="16" height="16">
    <g stroke-width=".5">
        <path fill="#fae3a8" d="M4 8a5 5 0 0 1 5-5 5 5 0 0 1 5 5 5 5 0 0 1-5 5 5 5 0 0 1-5-5z"/>
        <path fill="#fae3a8" d="M9 1c-.277 0-.5.223-.5.5V2a.499.499 0 1 0 1 0v-.5c0-.277-.223-.5-.5-.5zM4.404 2.903a.5.5 0 0 0-.354.855l.354.353a.5.5 0 1 0 .707-.708l-.353-.353a.498.498 0 0 0-.354-.147zm9.192 0a.5.5 0 0 0-.354.147l-.353.353a.5.5 0 1 0 .707.708l.354-.353a.5.5 0 0 0-.354-.855zM2.5 7.5a.499.499 0 1 0 0 1H3a.499.499 0 1 0 0-1zm12.5 0a.499.499 0 1 0 0 1h.5a.499.499 0 1 0 0-1zM4.758 11.742a.498.498 0 0 0-.353.146l-.354.354a.5.5 0 1 0 .707.708l.354-.355a.499.499 0 0 0-.354-.853zm8.485 0a.499.499 0 0 0-.354.853l.354.355a.5.5 0 1 0 .708-.708l-.354-.354a.5.5 0 0 0-.354-.146zM9 13.5c-.277 0-.5.223-.5.5v.5a.499.499 0 1 0 1 0V14c0-.277-.223-.5-.5-.5z"/>
        <path fill="#ececec" d="M4 9.5v5h3a2.5 2.5 0 0 0 0-5z"/>
        <circle cx="4" cy="11" r="3.5" fill="#ececec"/>
    </g>
</svg>
