<svg xmlns="http://www.w3.org/2000/svg" width="22" height="22">
    <path fill="currentColor" d="M5 19c-1.108 0-2-.892-2-2v-3c0-1.108.892-2 2-2h2c1.108 0 2 .892 2 2v3c0 1.108-.892 2-2 2zm0-1h2c.554 0 1-.446 1-1v-3c0-.554-.446-1-1-1H5c-.554 0-1 .446-1 1v3c0 .554.446 1 1 1zm10 0c-1.108 0-2-.892-2-2v-2c0-1.108.892-2 2-2h2c1.108 0 2 .892 2 2v2c0 1.108-.892 2-2 2zm0-1h2c.554 0 1-.446 1-1v-2c0-.554-.446-1-1-1h-2c-.554 0-1 .446-1 1v2c0 .554.446 1 1 1zM3.5 10a.499.499 0 1 1 0-1h15a.499.499 0 1 1 0 1zM14 7c-.554 0-1-.446-1-1V4c0-.554.446-1 1-1h4c.554 0 1 .446 1 1v2c0 .554-.446 1-1 1z" style="color:#fdfdfd;opacity:.7"/>
</svg>
