<svg xmlns="http://www.w3.org/2000/svg" width="22" height="22">
    <path fill="currentColor" d="M11 3c-.277 0-.5.223-.5.5V4H10c-1.108 0-2 .892-2 2v1c0 1.108.892 2 2 2h.5v4H7c-1.108 0-2 .892-2 2v1c0 1.108.892 2 2 2h3.5v.5a.499.499 0 1 0 1 0V18H15c1.108 0 2-.892 2-2v-1c0-1.108-.892-2-2-2h-3.5V9h.5c1.108 0 2-.892 2-2V6c0-1.108-.892-2-2-2h-.5v-.5c0-.277-.223-.5-.5-.5zm-1 2h2c.554 0 1 .446 1 1v1c0 .554-.446 1-1 1h-2c-.554 0-1-.446-1-1V6c0-.554.446-1 1-1zm-3 9h8c.554 0 1 .446 1 1v1c0 .554-.446 1-1 1H7c-.554 0-1-.446-1-1v-1c0-.554.446-1 1-1z" style="color:#fdfdfd;opacity:.7"/>
</svg>
