<svg xmlns="http://www.w3.org/2000/svg" viewBox="0 0 22 22">
    <defs>
        <style id="current-color-scheme" type="text/css">
            .ColorScheme-Text{color:#fdfdfd;opacity:.7}
        </style>
    </defs>
    <path fill="currentColor" d="M16 14v2h-2v1h2v2h1v-2h2v-1h-2v-2z" class="ColorScheme-Text"/>
    <path fill="currentColor" d="M11 3a3 3 0 0 0-3 3H6c-1.108 0-2 .892-2 2v9c0 1.108.892 2 2 2h7v-1H6c-.554 0-1-.446-1-1V8c0-.554.446-1 1-1h2v1.088a1.5 1.5 0 1 0 1 0V7h4v1.088a1.5 1.5 0 1 0 1 0V7h2c.554 0 1 .446 1 1v5h1V8c0-1.108-.892-2-2-2h-2a3 3 0 0 0-3-3zm0 1a2 2 0 0 1 2 2H9a2 2 0 0 1 2-2zM8.5 9a.5.5 0 1 1 0 1 .5.5 0 0 1 0-1zm5 0a.5.5 0 1 1 0 1 .5.5 0 0 1 0-1z" class="ColorScheme-Text"/>
</svg>
