<svg xmlns="http://www.w3.org/2000/svg" viewBox="0 0 22 22">
    <path fill="currentColor" d="M5 5c-1.108 0-2 .892-2 2v9c0 1.108.892 2 2 2h12c.359 0 .694-.094.984-.258l.032-.02a1.99 1.99 0 0 0 .217-.146l.07-.058c.033-.029.065-.056.095-.086.022-.02.04-.043.061-.065l.03-.03.023-.026.05-.061.01-.012c.03-.038.06-.078.088-.119l.016-.027c.022-.035.044-.07.064-.106.012-.02.024-.04.035-.062l.008-.016c.022-.043.042-.084.06-.129.006-.011.008-.023.012-.035.017-.042.033-.084.047-.127l.008-.021.006-.024a2 2 0 0 0 .068-.326l.008-.066c.005-.06.008-.12.008-.18V7c0-1.108-.892-2-2-2H5zm0 1h6v7.297L13 11l5 5c0 .554-.446 1-1 1h-6v-3.7L9.522 15 7 13l-3 3V7a1 1 0 0 1 .02-.201 1.01 1.01 0 0 1 .15-.36.996.996 0 0 1 .123-.146.996.996 0 0 1 .316-.215A1.01 1.01 0 0 1 5 6zm2.5 2a1.5 1.5 0 1 0 0 3 1.5 1.5 0 0 0 0-3z" style="color:#fdfdfd;opacity:.7"/>
</svg>
