<svg xmlns="http://www.w3.org/2000/svg" viewBox="0 0 22 22">
    <defs>
        <style id="current-color-scheme" type="text/css">
            .ColorScheme-Text{color:#fdfdfd;opacity:.7}
        </style>
    </defs>
    <path fill="currentColor" d="M6.719 7 6 7.688 8.625 10.5l-2.594 2.813.688.687 2.968-3.156L10 10.5l-.312-.344ZM10 14v1h4v-1z" class="ColorScheme-Text"/>
    <path fill="currentColor" d="M5 4C3.338 4 2 5.338 2 7v8c0 1.662 1.338 3 3 3h12c1.662 0 3-1.338 3-3V7c0-1.662-1.338-3-3-3H5zm0 1h12c1.108 0 2 .892 2 2v8c0 1.108-.892 2-2 2H5c-1.108 0-2-.892-2-2V7c0-1.108.892-2 2-2z" class="ColorScheme-Text"/>
</svg>
