<svg xmlns="http://www.w3.org/2000/svg" viewBox="0 0 22 22">
    <defs>
        <style id="current-color-scheme" type="text/css">
            .ColorScheme-Text{color:#fdfdfd;opacity:.7}
        </style>
    </defs>
    <path fill="currentColor" d="M2 3v1h2v14H2v1h5v-1H5V4h2V3zm11 3L9 16h1l4-10zm3 0-4 10h1l4-10zm-9 9v1h1v-1z" class="ColorScheme-Text"/>
    <path fill="currentColor" d="M8 4v1h10c.554 0 1 .446 1 1v10c0 .554-.446 1-1 1H8v1h10c1.108 0 2-.892 2-2V6c0-1.108-.892-2-2-2H8z" class="ColorScheme-Text"/>
</svg>
