<svg xmlns="http://www.w3.org/2000/svg" viewBox="0 0 22 22">
    <defs>
        <style id="current-color-scheme" type="text/css">
            .ColorScheme-Text{color:#fdfdfd;opacity:.7}
        </style>
    </defs>
    <path fill="currentColor" d="M11 3C8.784 3 7 4.784 7 7v4h1V7.5C8 5.561 9.338 4 11 4s3 1.561 3 3.5V11h1V7c0-2.216-1.784-4-4-4zM7 11c-1.108 0-2 .892-2 2v4c0 1.108.892 2 2 2h8c1.108 0 2-.892 2-2v-4c0-1.108-.892-2-2-2zm0 1h8c.554 0 1 .446 1 1v4c0 .554-.446 1-1 1H7c-.554 0-1-.446-1-1v-4c0-.554.446-1 1-1z" class="ColorScheme-Text"/>
</svg>
