<?xml version="1.0" encoding="UTF-8" standalone="no"?>
<svg
   viewBox="0 0 22 22"
   version="1.1"
   id="svg10"
   sodipodi:docname="actions-22_im-user-online.svg"
   inkscape:version="1.2.2 (b0a8486541, 2022-12-01)"
   xmlns:inkscape="http://www.inkscape.org/namespaces/inkscape"
   xmlns:sodipodi="http://sodipodi.sourceforge.net/DTD/sodipodi-0.dtd"
   xmlns="http://www.w3.org/2000/svg"
   xmlns:svg="http://www.w3.org/2000/svg">
  <defs
     id="defs14" />
  <sodipodi:namedview
     id="namedview12"
     pagecolor="#ffffff"
     bordercolor="#000000"
     borderopacity="0.25"
     inkscape:showpageshadow="2"
     inkscape:pageopacity="0.0"
     inkscape:pagecheckerboard="0"
     inkscape:deskcolor="#d1d1d1"
     showgrid="false"
     inkscape:zoom="33.772727"
     inkscape:cx="9.9192463"
     inkscape:cy="10.985195"
     inkscape:window-width="1920"
     inkscape:window-height="1021"
     inkscape:window-x="0"
     inkscape:window-y="0"
     inkscape:window-maximized="1"
     inkscape:current-layer="svg10" />
  <g
     style="fill:#add49f"
     transform="translate(-421.714 -525.79)"
     id="g6">
    <path
       d="M432.714 528.79a4 4 0 0 0-4 4 4 4 0 0 0 4 4 4 4 0 0 0 4-4 4 4 0 0 0-4-4m0 1a3 3 0 0 1 3 3 3 3 0 0 1-3 3 3 3 0 0 1-3-3 3 3 0 0 1 3-3M432.714 537.79a8 8 0 0 0-7.927 7h1.007a7 7 0 0 1 6.92-6 7 7 0 0 1 1 .08v-1.009a8 8 0 0 0-1-.07"
       id="path2" />
    <circle
       cx="437.214"
       cy="541.291"
       r="3.5"
       id="circle4" />
  </g>
  <path
     d="m438.714 539.79 1 1-3 3-2-2 1-1 1 1z"
     style="fill:#000000;fill-rule:evenodd;fill-opacity:0.69999999"
     transform="translate(-421.714 -525.79)"
     id="path8" />
</svg>
