<svg xmlns="http://www.w3.org/2000/svg" viewBox="0 0 64 64">
    <defs>
        <filter id="b" width="1.113" height="1.225" x="-.056" y="-.113" color-interpolation-filters="sRGB">
            <feGaussianBlur stdDeviation=".281"/>
        </filter>
        <filter id="a" width="1.078" height="1.067" x="-.039" y="-.033" color-interpolation-filters="sRGB">
            <feGaussianBlur stdDeviation=".206"/>
        </filter>
    </defs>
    <path d="M3.44 1.354a1.32 1.32 0 0 0-1.323 1.323v12.171c0 .733.59 1.323 1.323 1.323h10.053a1.32 1.32 0 0 0 1.323-1.323V4.53l-3.175-3.175z" filter="url(#a)" opacity=".15" style="paint-order:stroke fill markers" transform="scale(3.7796)"/>
    <g fill-rule="evenodd">
        <path fill="#fff" d="M13 4c-2.77 0-5 2.23-5 5v46c0 2.77 2.23 5 5 5h38c2.77 0 5-2.23 5-5V16L44 4z" style="paint-order:stroke fill markers"/>
        <path fill="#ccc" d="m14.816 4.233-3.175-3.175V2.91c0 .733.59 1.323 1.323 1.323z" style="paint-order:stroke fill markers" transform="scale(3.7796)"/>
    </g>
    <path d="M43.998 10.999v.586c0 3 2.23 5.416 5 5.416h7v-1.002h-7a4.99 4.99 0 0 1-5.004-5z" filter="url(#b)" opacity=".1" style="paint-order:stroke fill markers"/>
    <path fill="#666" d="m23.131 55.325-.298-1.77h-1.686l-.283 1.77h-1.306c.298-1.509.598-2.883.906-4.12.307-1.248.602-2.425.89-3.54h1.365a98.1 98.1 0 0 1 .89 3.578c.299 1.256.59 2.615.865 4.082h-1.342m-1.126-6.177c-.068.288-.13.568-.193.828-.058.255-.11.516-.168.771l-.14.756c-.04.255-.083.521-.12.79h1.236l-.125-.79c-.042-.255-.09-.51-.143-.756a11.811 11.811 0 0 0-.165-.77c-.053-.26-.116-.541-.183-.829m4.933 5.063c.207 0 .385-.02.52-.072a.848.848 0 0 0 .334-.223c.082-.1.14-.205.167-.318.03-.125.05-.25.05-.375a.829.829 0 0 0-.112-.423 1.243 1.243 0 0 0-.288-.318 2.086 2.086 0 0 0-.386-.26 5.543 5.543 0 0 0-.433-.223 9.253 9.253 0 0 1-.588-.288 2.274 2.274 0 0 1-.56-.405 2.087 2.087 0 0 1-.414-.608 2.39 2.39 0 0 1-.16-.919c0-.718.193-1.276.574-1.682.385-.405.916-.608 1.59-.608.387 0 .727.058 1.012.16.293.11.536.23.733.361l-.367 1.177a2.943 2.943 0 0 0-.574-.298 1.872 1.872 0 0 0-.713-.125c-.668 0-1.001.298-1.001.88 0 .153.038.283.105.396.067.11.15.21.255.298.108.082.227.155.353.223.14.067.27.13.4.187.2.09.403.193.61.308.219.11.416.255.594.448.183.182.333.41.448.693.12.27.178.618.178 1.041 0 .718-.198 1.276-.584 1.672-.38.385-.963.578-1.744.578-.525 0-.944-.063-1.256-.198a4.3 4.3 0 0 1-.708-.381l.37-1.24c.183.131.4.256.65.369.261.115.574.173.945.173m5.752 1.275c-.89 0-1.57-.343-2.042-1.036-.467-.693-.703-1.681-.703-2.963 0-.635.075-1.199.215-1.692.146-.495.343-.919.593-1.256.26-.343.564-.603.906-.776a2.49 2.49 0 0 1 1.157-.276c.225 0 .423.025.598.078.188.042.345.088.486.145.135.058.245.12.333.188.1.067.168.115.213.146l-.323 1.214a2.203 2.203 0 0 0-.571-.308 2.022 2.022 0 0 0-.756-.135c-.198 0-.39.047-.583.135-.183.085-.35.23-.5.433-.14.198-.26.468-.361.809-.083.337-.13.758-.13 1.259 0 .875.125 1.546.37 2.022.25.463.655.69 1.224.69.328 0 .593-.045.808-.135a3.43 3.43 0 0 0 .521-.27l.313 1.198c-.178.136-.418.255-.726.368-.295.11-.647.163-1.041.163m2.633-.162v-1.26h1.381v-5.137h-1.381v-1.262h4.01v1.262h-1.365v5.138h1.364v1.259h-4.009m5.106 0v-1.26h1.381v-5.137h-1.38v-1.262h4.011v1.262h-1.364v5.138h1.364v1.259H40.43"/>
</svg>
