<svg xmlns="http://www.w3.org/2000/svg" viewBox="0 0 64 64">
    <defs>
        <filter id="a" width="1.104" height="1.089" x="-.052" y="-.045" color-interpolation-filters="sRGB">
            <feGaussianBlur stdDeviation="1.04"/>
        </filter>
    </defs>
    <rect width="48" height="56" x="8" y="5" filter="url(#a)" opacity=".15" rx="5" ry="5"/>
    <rect width="48" height="56" x="8" y="4" fill="#a0c6da" rx="5" ry="5"/>
    <g fill="#fff" fill-rule="evenodd">
        <path d="M20 20v10h12V20zm1 1h10v8H21zm13-1h10v1H34zm0 3h10v1H34zm0 3h10v1H34zm-14 6h24v1H20zm0 3h24v1H20zm0 3h24v1H20zm0 6h24v1H20zm14-15h10v1H34zM20 41h24v1H20z"/>
        <path d="M22 22h8v6h-8z" style="paint-order:stroke fill markers"/>
    </g>
</svg>
