<svg xmlns="http://www.w3.org/2000/svg" xmlns:xlink="http://www.w3.org/1999/xlink" width="64" height="64" viewBox="0 0 16.933 16.933">
    <defs>
        <filter id="d" width="1.065" height="1.08" x="-.032" y="-.04" color-interpolation-filters="sRGB">
            <feGaussianBlur stdDeviation=".06"/>
        </filter>
        <filter id="c" width="1.072" height="1.072" x="-.036" y="-.036" color-interpolation-filters="sRGB">
            <feGaussianBlur stdDeviation=".055"/>
        </filter>
        <filter id="b" width="1.072" height="1.072" x="-.036" y="-.036" color-interpolation-filters="sRGB">
            <feGaussianBlur stdDeviation=".067"/>
        </filter>
        <filter id="a" width="1.078" height="1.067" x="-.039" y="-.033" color-interpolation-filters="sRGB">
            <feGaussianBlur stdDeviation=".206"/>
        </filter>
    </defs>
    <path d="M3.44 1.35a1.32 1.32 0 0 0-1.323 1.323v12.17c0 .734.59 1.324 1.323 1.324h10.053a1.32 1.32 0 0 0 1.323-1.323V4.524L11.642 1.35zm0 .53h7.982l2.865 2.864v10.1a.78.78 0 0 1-.794.793H3.44a.78.78 0 0 1-.793-.794V2.673a.78.78 0 0 1 .793-.795z" filter="url(#a)" opacity=".15" style="font-feature-settings:normal;font-variant-alternates:normal;font-variant-caps:normal;font-variant-ligatures:normal;font-variant-numeric:normal;font-variant-position:normal;isolation:auto;mix-blend-mode:normal;paint-order:fill markers stroke;shape-padding:0;text-decoration-color:#000;text-decoration-line:none;text-decoration-style:solid;text-indent:0;text-orientation:mixed;text-transform:none;white-space:normal"/>
    <path fill="#fff" fill-rule="evenodd" d="M3.44 1.058a1.32 1.32 0 0 0-1.323 1.323v12.171c0 .733.59 1.323 1.323 1.323h10.053a1.32 1.32 0 0 0 1.323-1.323V4.233l-3.175-3.175z" style="paint-order:stroke fill markers"/>
    <path fill="#e7a45d" d="M3.44 1.058a1.32 1.32 0 0 0-1.323 1.323v12.171c0 .733.59 1.323 1.323 1.323h10.053a1.32 1.32 0 0 0 1.323-1.323V4.233l-3.174-3.175zm0 .53h7.982l2.865 2.864v10.1a.78.78 0 0 1-.794.793H3.44a.78.78 0 0 1-.793-.794V2.381a.78.78 0 0 1 .793-.794z" style="font-feature-settings:normal;font-variant-alternates:normal;font-variant-caps:normal;font-variant-ligatures:normal;font-variant-numeric:normal;font-variant-position:normal;isolation:auto;mix-blend-mode:normal;paint-order:fill markers stroke;shape-padding:0;text-decoration-color:#000;text-decoration-line:none;text-decoration-style:solid;text-indent:0;text-orientation:mixed;text-transform:none;white-space:normal"/>
    <path fill="#e7a45d" fill-rule="evenodd" d="m12.171 1.058 2.646 2.646V2.381a1.32 1.32 0 0 0-1.323-1.323z" style="paint-order:stroke fill markers"/>
    <path d="M9.282 7.548a2.234 2.234 0 1 1-4.468 0 2.234 2.234 0 1 1 4.468 0z" enable-background="new" filter="url(#b)" opacity=".15"/>
    <path fill="#ec9b97" d="M9.282 7.467a2.234 2.234 0 1 1-4.468 0 2.234 2.234 0 1 1 4.468 0z" enable-background="new"/>
    <path d="M8.415 6.76h3.645v3.645H8.415z" enable-background="new" filter="url(#c)" opacity=".15"/>
    <path fill="#ffdf7e" d="M8.415 6.703h3.645v3.645H8.415z" enable-background="new"/>
    <path d="M9.87 11.363H5.402l2.234-3.586L8.753 9.57z" enable-background="new" filter="url(#d)" opacity=".15"/>
    <path fill="#eabc8a" d="M9.87 11.23H5.402l2.234-3.586 1.117 1.793z" enable-background="new"/>
    <path id="e" fill="#beebad" stroke="#bddbc4" stroke-width=".059" d="M4.961 10.966h.647v.647h-.647z" enable-background="new" opacity=".75"/>
    <path fill="none" d="M9.415 10.407h2.705V6.644H8.357v2.07z" enable-background="new"/>
    <use xlink:href="#e" width="5033" height="1085" enable-background="new" transform="translate(2.352 -3.763)"/>
    <use xlink:href="#e" width="5033" height="1085" enable-background="new" transform="translate(4.704)"/>
</svg>
