<svg xmlns="http://www.w3.org/2000/svg" width="64" height="64" viewBox="0 0 16.933 16.933">
    <defs>
        <filter id="a" width="1.078" height="1.067" x="-.039" y="-.033" color-interpolation-filters="sRGB">
            <feGaussianBlur stdDeviation=".206"/>
        </filter>
    </defs>
    <path d="M3.44 1.35a1.32 1.32 0 0 0-1.323 1.323v12.17c0 .734.59 1.324 1.323 1.324h10.053a1.32 1.32 0 0 0 1.323-1.323V4.524L11.642 1.35zm0 .53h7.982l2.865 2.864v10.1a.78.78 0 0 1-.794.793H3.44a.78.78 0 0 1-.793-.794V2.673a.78.78 0 0 1 .793-.795z" filter="url(#a)" opacity=".15" style="font-feature-settings:normal;font-variant-alternates:normal;font-variant-caps:normal;font-variant-ligatures:normal;font-variant-numeric:normal;font-variant-position:normal;isolation:auto;mix-blend-mode:normal;paint-order:fill markers stroke;shape-padding:0;text-decoration-color:#000;text-decoration-line:none;text-decoration-style:solid;text-indent:0;text-orientation:mixed;text-transform:none;white-space:normal"/>
    <path fill="#fff" fill-rule="evenodd" d="M3.44 1.058a1.32 1.32 0 0 0-1.323 1.323v12.171c0 .733.59 1.323 1.323 1.323h10.053a1.32 1.32 0 0 0 1.323-1.323V4.233l-3.175-3.175z" style="paint-order:stroke fill markers"/>
    <path fill="#8eb9ce" d="M3.44 1.058a1.32 1.32 0 0 0-1.323 1.323v12.171c0 .733.59 1.323 1.323 1.323h10.053a1.32 1.32 0 0 0 1.323-1.323V4.233l-3.174-3.175zm0 .53h7.982l2.865 2.864v10.1a.78.78 0 0 1-.794.793H3.44a.78.78 0 0 1-.793-.794V2.381a.78.78 0 0 1 .793-.794z" style="font-feature-settings:normal;font-variant-alternates:normal;font-variant-caps:normal;font-variant-ligatures:normal;font-variant-numeric:normal;font-variant-position:normal;isolation:auto;mix-blend-mode:normal;paint-order:fill markers stroke;shape-padding:0;text-decoration-color:#000;text-decoration-line:none;text-decoration-style:solid;text-indent:0;text-orientation:mixed;text-transform:none;white-space:normal"/>
    <path fill="#8eb9ce" fill-rule="evenodd" d="m12.171 1.058 2.646 2.646V2.381a1.32 1.32 0 0 0-1.323-1.323z" style="paint-order:stroke fill markers"/>
    <path fill="#4f7b92" d="M7.242 5.292h5.032v3.355H7.242zm-2.097.004h1.857v.3H5.145zM4.606 8.89h7.668v.3H4.606zm0 2.396h5.032v.3H4.606zm0-5.391h2.396v.3H4.606zm0 .599h2.396v.3H4.606zm0 .599h2.396v.3H4.606zm0 .599h2.396v.3H4.606zm0 .599h2.396v.3H4.606zm0 1.198h7.668v.3H4.606zm0 .599h7.668v.3H4.606zm0 .599h7.668v.3H4.606z"/>
    <path fill="#b5d4e3" d="M7.482 5.531h4.553v2.875H7.482z"/>
    <path fill="#333" d="M10.82 6.434c.304.152.831.68 1.214 1.062v.455h-3.49c.607-.758 1.517-1.214 2.276-1.517z"/>
    <path fill="#333" d="M9.834 7.117c-.454-.377-.683-.683-.986-1.138-.089.026-.086.016-.152 0 0 0-.406.603-.607.91a8.194 8.194 0 0 1-.607.759v.304h3.49s-.834-.603-1.138-.835z"/>
    <path fill="#bddbc4" d="M12.034 7.648h-.195l-.867.152s-.857-.228-.985-.228c-.127 0-.533.076-.609.076-.053 0-.379-.152-.456-.152-.127 0-.274.161-.653.228 0 0-.11-.242-.18-.228-.456.176-.608.152-.608.152v.759h4.553v-.76z"/>
    <path fill="#4b809b" d="M7.482 7.8v.607h3.946l.152-.152-.152-.152-.304-.151-.758-.152-.76-.076-.682.076H7.482z"/>
    <path fill="#ffdf7e" d="M12.035 6.43a.899.899 0 0 1-.899-.9h.899z"/>
</svg>
