<svg xmlns="http://www.w3.org/2000/svg" viewBox="0 0 24 24">
    <defs>
        <style id="current-color-scheme" type="text/css">
            .ColorScheme-Text{color:#fdfdfd;opacity:.7}
        </style>
    </defs>
    <path fill="currentColor" d="M7.707 8 7 8.707 8.793 10.5 7 12.293l.707.707 2.5-2.5-.207-.207zM11 11.998v1h4v-1z" class="ColorScheme-Text"/>
    <path fill="currentColor" d="M7 4C5.338 4 4 5.338 4 7v10c0 1.662 1.338 3 3 3h10c1.662 0 3-1.338 3-3V7c0-1.662-1.338-3-3-3H7zm0 1h10c1.108 0 2 .892 2 2v10c0 1.108-.892 2-2 2H7c-1.108 0-2-.892-2-2V7c0-1.108.892-2 2-2z" class="ColorScheme-Text"/>
</svg>
