<svg xmlns="http://www.w3.org/2000/svg" viewBox="0 0 24 24">
    <defs>
        <style id="current-color-scheme" type="text/css">
            .ColorScheme-Text{color:#fdfdfd;opacity:.7}
        </style>
    </defs>
    <path fill="currentColor" d="M8 14c-1.108 0-2 .892-2 2v1c0 1.108.892 2 2 2h8c1.108 0 2-.892 2-2v-1c0-1.108-.892-2-2-2H8zm0 1h8c.554 0 1 .446 1 1v1c0 .554-.446 1-1 1H8c-.554 0-1-.446-1-1v-1c0-.554.446-1 1-1zM11 5c-1.108 0-2 .892-2 2v1c0 1.108.892 2 2 2h2c1.108 0 2-.892 2-2V7c0-1.108-.892-2-2-2zm0 1h2c.554 0 1 .446 1 1v1c0 .554-.446 1-1 1h-2c-.554 0-1-.446-1-1V7c0-.554.446-1 1-1z" class="ColorScheme-Text"/>
    <path fill="currentColor" d="M12 4c-.277 0-.5.223-.5.5V6h1V4.5c0-.277-.223-.5-.5-.5zm-.5 5v6h1V9zm0 9v1.5a.499.499 0 1 0 1 0V18z" class="ColorScheme-Text"/>
</svg>
