<svg xmlns="http://www.w3.org/2000/svg" width="24" height="24">
    <defs>
        <filter id="a" width="1.096" height="1.096" x="-.048" y="-.048" color-interpolation-filters="sRGB">
            <feGaussianBlur stdDeviation=".4"/>
        </filter>
    </defs>
    <path d="M2 2a1 1 0 0 0-1 1.004l.035 9.002C1.058 17.514 5.54 22 11.033 22c5.493 0 9.963-4.488 9.965-9.994v-.004A1 1 0 0 0 21 12c0-5.508-4.471-9.997-9.965-9.998z" color="#000" filter="url(#a)" opacity=".15" style="paint-order:stroke fill markers"/>
    <path fill="#fff" d="M2 1a1 1 0 0 0-1 1.004l.035 9.002C1.058 16.514 5.54 21 11.033 21c5.493 0 9.963-4.488 9.965-9.994v-.004A1 1 0 0 0 21 11c0-5.508-4.471-9.997-9.965-9.998L2 1z" color="#000" style="paint-order:stroke fill markers"/>
    <path d="M19.999 11.001c0 4.97-4.014 8.999-8.965 8.999C6.082 20 2.056 15.97 2.036 11L2 2l9.034.002C15.986 2.002 20 6.03 20 11z" style="paint-order:stroke fill markers"/>
    <circle cx="11" cy="11" r="7" fill="#a8decc" color="#000" style="paint-order:normal"/>
</svg>
