<svg xmlns="http://www.w3.org/2000/svg" viewBox="0 0 24 24">
    <path fill="currentColor" fill-opacity=".7" d="m13.846 3.177-.263.981a8 8 0 0 0-3.167.001l-.262-.982-.967.258.262.982A8 8 0 0 0 6.71 6l-.72-.718-.708.708.72.718a8 8 0 0 0-1.584 2.743l-.981-.263-.26.966.982.262a8 8 0 0 0 0 3.167l-.982.263.259.967.982-.263A8 8 0 0 0 6 17.291l-.719.72.709.707.718-.72a8 8 0 0 0 2.742 1.585l-.263.98.966.26.263-.981a8 8 0 0 0 3.167-.001l.262.982.967-.258-.262-.983A8 8 0 0 0 17.29 18l.72.718.707-.708-.72-.718a8 8 0 0 0 1.585-2.743l.98.263.26-.966-.982-.263a8 8 0 0 0 0-3.166l.982-.263-.259-.967-.982.263A8 8 0 0 0 18 6.708l.719-.719-.708-.707L17.29 6a8 8 0 0 0-2.742-1.584l.263-.981zm-.125 2.037.09.024a7 7 0 0 1 4.804 4.472l-4.875 1.304a2 2 0 0 0-1.223-.946 2 2 0 0 0-.047-.013 2 2 0 0 0-1.487.22L7.418 6.71a7 7 0 0 1 6.303-1.496zM6.708 7.418l3.57 3.567a2 2 0 0 0-.21.497 2 2 0 0 0 .948 2.258l-1.307 4.875a7 7 0 0 1-4.47-8.427 7 7 0 0 1 1.47-2.77zm12.165 3.26a7 7 0 0 1-.087 3.043l-.025.09a7 7 0 0 1-4.96 4.954l-.009.002a7 7 0 0 1-3.116.105l1.306-4.873a2 2 0 0 0 1.95-1.481 2 2 0 0 0 .066-.537zm-6.614.356a1 1 0 0 1 .696.67 1 1 0 0 1 .022.083 1 1 0 0 1-.011.472 1 1 0 0 1-1.225.707 1 1 0 0 1-.707-1.225 1 1 0 0 1 .24-.429 1 1 0 0 1 .025-.024 1 1 0 0 1 .96-.254z" color="#fdfdfd" style="color:#fdfdfd;opacity:.7"/>
</svg>
