<svg xmlns="http://www.w3.org/2000/svg" viewBox="0 0 24 24">
    <defs>
        <style id="current-color-scheme" type="text/css">
            .ColorScheme-Text{color:#fdfdfd;opacity:.7}
        </style>
    </defs>
    <path fill="currentColor" d="M14 12c-1.662 0-3 1.338-3 3a2.993 2.993 0 0 0 4.736 2.443L18.293 20l.707-.707-2.557-2.557A2.993 2.993 0 0 0 14 12zm0 1c1.108 0 2 .892 2 2s-.892 2-2 2-2-.892-2-2 .892-2 2-2z" class="ColorScheme-Text"/>
    <path fill="currentColor" d="M8 4C6.338 4 5 5.338 5 7v10c0 1.662 1.338 3 3 3h6v-1H8c-1.108 0-2-.892-2-2V7c0-1.108.892-2 2-2h6v2c0 1.108.892 2 2 2h2v6h1V8l-4-4z" class="ColorScheme-Text"/>
</svg>
