<svg xmlns="http://www.w3.org/2000/svg" viewBox="0 0 24 24">
    <defs>
        <style id="current-color-scheme" type="text/css">
            .ColorScheme-Text{color:#fdfdfd;opacity:.7}
        </style>
    </defs>
    <path fill="currentColor" d="M10 17c-.554 0-1 .446-1 1H4.5a.499.499 0 1 0 0 1H9c0 .554.446 1 1 1h4c.554 0 1-.446 1-1h4.5a.499.499 0 1 0 0-1H15c0-.554-.446-1-1-1h-4zm2 .5c.554 0 1 .446 1 1s-.446 1-1 1-1-.446-1-1 .446-1 1-1zM6 5c-1.108 0-2 .892-2 2v9h1v-4h14v4h1V8c0-1.108-.892-2-2-2h-7.629c-.58-.023-.605.077-1.039-.357C8.898 5.209 8.719 5 8 5H6zm0 1h2c.311 0 .52 0 .998.47.479.472.639.53 1 .53H18c.554 0 1 .446 1 1v3H5V7c0-.554.446-1 1-1z" class="ColorScheme-Text"/>
</svg>
