<svg xmlns="http://www.w3.org/2000/svg" viewBox="0 0 24 24">
    <path fill="currentColor" d="M7 4C5.338 4 4 5.338 4 7v10c0 1.662 1.338 3 3 3h10c1.662 0 3-1.338 3-3V7c0-1.662-1.338-3-3-3H7zm0 4h10c1.108 0 2 .892 2 2v7c0 1.108-.892 2-2 2H7c-1.108 0-2-.892-2-2v-7c0-1.108.892-2 2-2zm0 1c-.554 0-1 .446-1 1v7c0 .554.446 1 1 1h3c.554 0 1-.446 1-1v-7c0-.554-.446-1-1-1H7zm5.5 1a.499.499 0 1 0 0 1h5a.499.499 0 1 0 0-1h-5zm0 3a.499.499 0 1 0 0 1h3a.499.499 0 1 0 0-1h-3zm-.025 3a.5.5 0 0 0 .025 1h1a.499.499 0 1 0 0-1h-1.025z" style="color:#fdfdfd;opacity:.7"/>
</svg>
