<svg xmlns="http://www.w3.org/2000/svg" viewBox="0 0 24 24">
    <path fill="currentColor" d="M5 5c-1.108 0-2 .892-2 2v10c0 1.108.892 2 2 2h7v-2a1 1 0 0 1 .293-.707l5.5-5.5L17 10l-5 5-2-2-5 5c-.554 0-1-.446-1-1V7c0-.554.446-1 1-1h14c.554 0 1 .446 1 1v3.586l1 1V7c0-1.108-.892-2-2-2H5zm2 2a2 2 0 0 0-2 2 2 2 0 0 0 2 2 2 2 0 0 0 2-2 2 2 0 0 0-2-2zm12 4-6 6v2h2v-.031L16 18l5-5-2-2zm-.281 1.688.562.593-4.969 5-.593-.593 5-5zm2.28 1.726-4.292 4.293a1 1 0 0 1-.012.012l-.29.281H19c1.108 0 2-.892 2-2v-2.586z" style="color:#fdfdfd;opacity:.7"/>
</svg>
