<svg xmlns="http://www.w3.org/2000/svg" width="24" height="24">
    <defs>
        <style id="current-color-scheme" type="text/css">
            .ColorScheme-Text{color:#fdfdfd;opacity:.7}
        </style>
    </defs>
    <path fill="currentColor" d="m18.695 13-.707.707L20.281 16h-4.293v1h4.293l-2.293 2.293.707.707 3.5-3.5-.207-.207z" class="ColorScheme-Text"/>
    <path fill="currentColor" d="M7.988 3c-1.108 0-2 .892-2 2v1c-1.662 0-3 1.338-3 3v8c0 1.662 1.338 3 3 3h10v-1h-10A1.99 1.99 0 0 1 4 17.113l4.598-3.498.72.549c1.466 1.114 3.877 1.114 5.342 0l.719-.547.812-.617 3.797-2.889V13h1V9c0-1.662-1.338-3-3-3V5c0-1.108-.892-2-2-2zm0 1h8c.554 0 1 .446 1 1v6.158l-3.14 2.389c-1.03.783-2.689.783-3.72 0l-3.14-2.389V5c0-.554.446-1 1-1zm.5 2a.499.499 0 1 0 0 1h7a.499.499 0 1 0 0-1zm-2.5 1v3.398L4 8.887A1.99 1.99 0 0 1 5.988 7zm12 0a1.99 1.99 0 0 1 1.989 1.887l-1.989 1.511zm-9.5 2a.499.499 0 1 0 0 1h7a.499.499 0 1 0 0-1zm-4.5 1.11L7.79 13l-3.8 2.889z" class="ColorScheme-Text"/>
</svg>
