<svg xmlns="http://www.w3.org/2000/svg" width="24" height="24">
    <defs>
        <style id="current-color-scheme" type="text/css">
            .ColorScheme-Text{color:#fdfdfd;opacity:.7}
        </style>
    </defs>
    <path fill="currentColor" d="m5 14-3 3 3 3v-4zm1 2v2h1v-2zm2 0v2h1v-2z" class="ColorScheme-Text"/>
    <path fill="currentColor" d="M16 3c1.108 0 2 .892 2 2v1c1.662 0 3 1.338 3 3v8c0 1.662-1.338 3-3 3H8v-1h10a1.99 1.99 0 0 0 1.988-1.887l-4.597-3.498-.721.55c-1.465 1.114-3.877 1.114-5.342 0l-.719-.548L7.797 13 4 10.111v2.89H3V9c0-1.663 1.338-3 3-3V5c0-1.109.892-2 2-2zm0 1H8c-.554 0-1 .446-1 1v6.158l3.14 2.389c1.03.783 2.69.783 3.72 0L17 11.158V5c0-.554-.446-1-1-1zm-.5 2a.499.499 0 1 1 0 1h-7a.499.499 0 1 1 0-1zM18 7v3.398l1.988-1.511A1.99 1.99 0 0 0 18 7zM6 7a1.99 1.99 0 0 0-1.988 1.887L6 10.398zm9.5 2a.499.499 0 1 1 0 1h-7a.499.499 0 1 1 0-1zm4.5 1.11L16.2 13l3.8 2.889z" class="ColorScheme-Text"/>
</svg>
