<svg xmlns="http://www.w3.org/2000/svg" width="24" height="24">
    <defs>
        <style id="current-color-scheme" type="text/css">
            .ColorScheme-Text{color:#fdfdfd;opacity:.7}
        </style>
    </defs>
    <path fill="currentColor" d="m6 13-3 3 3 3v-2h2v-2H6zm10 1v1h5v-1zm0 2v1h5v-1zm0 2v1h5v-1z" class="ColorScheme-Text"/>
    <path fill="currentColor" d="M6 5C4.338 5 3 6.338 3 8v5h1V9.11L7.8 12l1.53 1.164c1.465 1.114 3.877 1.114 5.342 0l.719-.547.812-.617L20 9.111V13h1V8c0-1.662-1.338-3-3-3zm0 1h12a1.99 1.99 0 0 1 1.988 1.887l-6.129 4.66c-1.03.783-2.688.783-3.718 0l-6.13-4.66A1.99 1.99 0 0 1 6 6zm2 12v1h7v-1z" class="ColorScheme-Text"/>
</svg>
