<svg xmlns="http://www.w3.org/2000/svg" width="24" height="24">
    <path fill="#fdfdfd" d="M15 5v2h-1c-1.74 0-2.955.642-3.756 1.582-.8.94-1.216 2.127-1.594 3.26-.377 1.133-.72 2.218-1.246 2.965C6.88 15.554 6.24 16 5 16H4v1h1c1.511 0 2.559-.679 3.22-1.62.663-.94 1.007-2.105 1.38-3.222.372-1.117.77-2.18 1.406-2.928C11.643 8.483 12.49 8 14 8h1.002v2c.76-.348 1.534-.736 2.322-1.166A43.6 43.6 0 0 0 19.582 7.5c-.725-.45-1.477-.89-2.258-1.32A43.074 43.074 0 0 0 15 5zM4 7v1h1c1.239 0 1.879.446 2.404 1.193.256.364.466.81.66 1.3.151-.405.335-.814.545-1.22a5.886 5.886 0 0 0-.388-.654C7.559 7.68 6.51 7 5 7zm6.21 6.459c-.139.414-.287.823-.478 1.244.153.25.32.49.512.715.8.94 2.016 1.582 3.756 1.582h1.002v2c.76-.348 1.534-.736 2.322-1.166a43.6 43.6 0 0 0 2.258-1.334c-.725-.45-1.477-.89-2.258-1.32A43.074 43.074 0 0 0 15 14v2h-1c-1.51 0-2.357-.483-2.994-1.23-.315-.37-.571-.819-.795-1.311z" color="#000" opacity=".7" overflow="visible"/>
</svg>
