<svg xmlns="http://www.w3.org/2000/svg" width="24" height="24">
    <defs>
        <linearGradient id="linearGradient6212" x1="-15.458" x2="-.958" y1="94.607" y2="109.61" gradientTransform="translate(19.958 -90.107)" gradientUnits="userSpaceOnUse">
            <stop offset="0" stop-color="#ececec"/>
            <stop offset="1" stop-color="#666"/>
        </linearGradient>
        <style id="current-color-scheme" type="text/css">
            .ColorScheme-Text{color:#fdfdfd;opacity:.7}
        </style>
    </defs>
    <path fill="url(#linearGradient6212)" d="M19.5 19.5C16 12 24 12 19.5 4.5 12 9 12 1 4.5 4.5 9 12 1 12 4.5 19.5c7.5-3.5 7.5 4.5 15 0z"/>
    <path d="M9.031 3.162c-1.276-.204-2.8-.021-4.742.885a.5.5 0 0 0-.219.71c1.092 1.82 1.392 3.116 1.336 4.169-.056 1.053-.477 1.91-.973 2.84-.495.93-1.067 1.926-1.271 3.203s-.021 2.8.885 4.742a.5.5 0 0 0 .664.242c1.809-.844 3.096-.973 4.164-.803 1.067.171 1.945.662 2.89 1.166s1.964 1.021 3.254 1.09c1.29.069 2.808-.318 4.739-1.476a.5.5 0 0 0 .195-.641c-.844-1.809-.974-3.097-.803-4.164.171-1.068.662-1.946 1.166-2.89s1.021-1.964 1.09-3.255c.069-1.29-.318-2.807-1.477-4.738a.5.5 0 0 0-.687-.172c-1.819 1.092-3.115 1.392-4.168 1.336-1.053-.056-1.91-.477-2.84-.973-.93-.496-1.927-1.067-3.203-1.271zm-.156.988c1.067.171 1.945.662 2.89 1.166.946.504 1.964 1.021 3.254 1.09 1.167.062 2.562-.33 4.237-1.246.879 1.586 1.202 2.802 1.15 3.766-.056 1.053-.477 1.91-.973 2.84s-1.067 1.926-1.271 3.203c-.186 1.16.022 2.568.729 4.265-1.614.904-2.842 1.224-3.817 1.172-1.053-.056-1.91-.477-2.84-.973s-1.926-1.067-3.203-1.271c-1.148-.184-2.542.026-4.215.713-.658-1.569-.821-2.776-.666-3.75.171-1.068.662-1.946 1.166-2.89.504-.946 1.021-1.964 1.09-3.255.062-1.153-.33-2.534-1.223-4.183 1.537-.635 2.731-.8 3.692-.647z" class="ColorScheme-Text" style="fill:currentColor"/>
    <path fill="#fff" d="M2.5 2.5h4v4h-4z"/>
    <path d="M2.5 2a.5.5 0 0 0-.5.5v4a.5.5 0 0 0 .5.5h4a.5.5 0 0 0 .5-.5v-4a.5.5 0 0 0-.5-.5h-4zM3 3h3v3H3V3z" class="ColorScheme-Text" style="fill:currentColor"/>
    <path fill="#fff" d="M17.49 17.5h4.01v4.004h-4.01z"/>
    <path d="M17.49 17a.5.5 0 0 0-.5.5v4.004a.5.5 0 0 0 .5.498h4.01a.5.5 0 0 0 .5-.498V17.5a.5.5 0 0 0-.5-.5h-4.01zm.498 1H21v3.004h-3.012V18z" class="ColorScheme-Text" style="fill:currentColor"/>
    <path fill="#fff" d="M17.5 2.5h4.01v4.004H17.5z"/>
    <path d="M17.5 2a.5.5 0 0 0-.5.5v4.004a.5.5 0 0 0 .5.498h4.01a.5.5 0 0 0 .5-.498V2.5a.5.5 0 0 0-.5-.5H17.5zm.5 1h3.012v3.004H18V3z" class="ColorScheme-Text" style="fill:currentColor"/>
    <path fill="#fff" d="M2.5 17.5h4.01v4.004H2.5z"/>
    <path d="M2.5 17a.5.5 0 0 0-.5.5v4.004a.5.5 0 0 0 .5.498h4.01a.5.5 0 0 0 .5-.498V17.5a.5.5 0 0 0-.5-.5H2.5zm.5 1h3.012v3.004H3V18z" class="ColorScheme-Text" style="fill:currentColor"/>
</svg>
