<svg xmlns="http://www.w3.org/2000/svg" width="24" height="24">
    <path d="M10.863 9C9.831 9 9 9.83 9 10.863v7.274C9 19.169 9.83 20 10.863 20h7.274C19.169 20 20 19.17 20 18.137v-7.274C20 9.831 19.17 9 18.137 9h-7.274zM11 10h7c.554 0 1 .446 1 1v7c0 .554-.446 1-1 1h-7c-.554 0-1-.446-1-1v-7c0-.554.446-1 1-1z" style="fill:#fdfdfd;fill-opacity:.7;fill-rule:evenodd;stroke-width:2;stroke-linecap:square;stop-color:#000"/>
    <rect width="1" height="7" x="14" y="11" rx="0" ry="0" style="fill:#fdfdfd;fill-opacity:.7;fill-rule:evenodd;stroke-width:2;stroke-linecap:square;stop-color:#000"/>
    <path d="M11 14h7v1h-7zM5.863 4C4.831 4 4 4.83 4 5.863v7.274C4 14.169 4.83 15 5.863 15H8v-1H6c-.554 0-1-.446-1-1V6c0-.554.446-1 1-1h7c.554 0 1 .446 1 1v2h1V5.863C15 4.831 14.17 4 13.137 4H5.863z" style="fill:#fdfdfd;fill-opacity:.7;fill-rule:evenodd;stroke-width:2;stroke-linecap:square;stop-color:#000"/>
</svg>
