<svg xmlns="http://www.w3.org/2000/svg" width="16" height="16">
    <g fill="#fae3a8">
        <path d="M2.285 8A5.714 5.714 0 0 1 8 2.286 5.714 5.714 0 0 1 13.714 8 5.714 5.714 0 0 1 8 13.714 5.714 5.714 0 0 1 2.285 8z"/>
        <path d="M8 0a.57.57 0 0 0-.572.571v.572c0 .316.255.571.572.571s.571-.255.571-.571V.57A.57.57 0 0 0 8 0zM2.747 2.175a.572.572 0 0 0-.405.977l.405.404a.571.571 0 1 0 .808-.81l-.404-.403a.569.569 0 0 0-.404-.168zm10.506 0a.572.572 0 0 0-.405.168l-.404.404a.571.571 0 1 0 .81.809l.403-.404a.571.571 0 0 0-.404-.977zM.571 7.43C.255 7.429 0 7.683 0 8s.255.571.571.571h.572a.57.57 0 1 0 0-1.143zm14.286 0c-.316 0-.571.254-.571.571s.255.571.571.571h.572a.57.57 0 1 0 0-1.143zM3.152 12.277a.569.569 0 0 0-.404.167l-.405.404a.571.571 0 1 0 .809.81l.404-.406a.57.57 0 0 0-.404-.975zm9.697 0a.57.57 0 0 0-.404.975l.404.405a.571.571 0 1 0 .809-.809l-.404-.404a.572.572 0 0 0-.405-.167zM8 14.286a.57.57 0 0 0-.571.571v.572a.57.57 0 1 0 1.143 0v-.572A.57.57 0 0 0 8 14.286z"/>
    </g>
</svg>
