<svg xmlns="http://www.w3.org/2000/svg" width="16" height="16">
    <path fill="#050505" fill-opacity=".7" fill-rule="evenodd" stroke="#050505" stroke-linecap="round" stroke-opacity=".7" stroke-width=".685" d="M8 1.343A6.657 6.657 0 0 0 1.343 8 6.657 6.657 0 0 0 8 14.658 6.657 6.657 0 0 0 14.658 8 6.657 6.657 0 0 0 8 1.342zm2.292 4.119c.112 0 .207.04.285.119l.573.572a.388.388 0 0 1 .119.285c0 .112-.04.208-.12.287L8.103 9.773l-.572.574a.39.39 0 0 1-.287.117.387.387 0 0 1-.286-.117L4.861 8.25a.392.392 0 0 1-.12-.287c0-.112.04-.209.12-.287l.572-.572a.39.39 0 0 1 .287-.118c.112 0 .206.04.285.118l1.238 1.243 2.762-2.766a.392.392 0 0 1 .287-.12z"/>
</svg>
