<svg xmlns="http://www.w3.org/2000/svg" width="16" height="16">
    <defs>
        <style id="current-color-scheme" type="text/css">
            .ColorScheme-Text{color:#050505;opacity:.7}
        </style>
    </defs>
    <path fill="currentColor" d="M3 3h9.9a.5.5 0 0 1 .461.695c-1.037 2.456-2.507 4.216-4.127 5.676l-.668-.742C9.934 7.396 11.105 5.903 12.041 4H3zm4 2.998 1 .004c-.005 1.47.103 2.936-.293 4.34-.396 1.404-1.344 2.704-3.277 3.705l-.46-.887c1.749-.905 2.445-1.915 2.776-3.09.331-1.175.249-2.558.254-4.072z" class="ColorScheme-Text"/>
    <path fill="currentColor" d="M3 0C1.338 0 0 1.338 0 3v10c0 1.662 1.338 3 3 3h9.999c1.662 0 3-1.338 3-3V3c0-1.662-1.338-3-3-3zm0 1h9.999c1.108 0 2 .892 2 2v10c0 1.108-.892 2-2 2H3c-1.108 0-2-.892-2-2V3c0-1.108.892-2 2-2z" class="ColorScheme-Text"/>
</svg>
