<svg xmlns="http://www.w3.org/2000/svg" width="16" height="16">
    <path fill="currentColor" fill-opacity=".7" d="M3 3h1v1.5c0 .694.127 1.077.266 1.25.138.173.317.25.734.25s.596-.077.734-.25C5.873 5.577 6 5.194 6 4.5V3h1v1.5c0 .806-.123 1.423-.484 1.875C6.154 6.827 5.583 7 5 7s-1.154-.173-1.516-.625C3.123 5.923 3 5.305 3 4.5zm8 0h1v4h-1zm-5 7h1l2 2.5V10h1v4H9l-2-2.5V14H6z" color="#050505"/>
    <path fill="currentColor" fill-opacity=".7" d="M3 0C1.338 0 0 1.338 0 3v10c0 1.662 1.338 3 3 3h9.999c1.662 0 3-1.338 3-3V3c0-1.662-1.338-3-3-3zm0 1h9.999c1.108 0 2 .892 2 2v10c0 1.108-.892 2-2 2H3c-1.108 0-2-.892-2-2V3c0-1.108.892-2 2-2z" class="ColorScheme-Text" color="#050505"/>
</svg>
