<svg xmlns="http://www.w3.org/2000/svg" width="16" height="16">
    <path fill="#050505" fill-opacity=".7" d="M3 0C1.338 0 0 1.338 0 3v10c0 1.662 1.338 3 3 3H14c1.108 0 2-.892 2-2v-4l-.002-.041V3c0-1.662-1.338-3-3-3H3zm0 1h9.998c1.108 0 2 .892 2 2v5.266A1.995 1.995 0 0 0 14 8h-2V5h2V4h-2.375L12.9 2.3l-.8-.6-1.5 2 .398.3H9.002l.398-.3-1.5-2-.8.6L8.375 4H7v1h1v3H6.117l.106-.05-.446-.9L5 7.44V5h1V4H5V2H4v2H2v1h2v2.94L1.777 9.05l.446.9L4 9.06V13H2v1h3V8.56l1-.5V9h1.96c-.088.9-.391 1.61-.792 2.31-.497.86-1.51 1.827-1.51 1.827l.684.728s1.034-.951 1.658-2V14c0 .365.098.706.267 1H3c-1.108 0-2-.892-2-2V3c0-1.108.892-2 2-2zm6 4h2v3H9V5zm.863 5.86c.207 0 .423.044.6.122l-.111.305a1.506 1.506 0 0 0-.51-.09c-.261 0-.405.091-.405.25 0 .42 1.096.158 1.096.91 0 .39-.308.643-.814.643-.24 0-.497-.062-.719-.164l.111-.313c.207.087.438.13.627.13.255 0 .389-.094.389-.247 0-.422-1.092-.19-1.092-.9 0-.393.334-.647.828-.647zm1.067.029h.386v1.271c0 .315.18.504.489.504.282 0 .447-.167.447-.45V10.89h.38v1.28c0 .502-.345.831-.872.831-.513 0-.83-.313-.83-.81v-1.301zm2.25 0h.443l1.006 1.547.002-1.547H15v2.082h-.432l-1.023-1.555v1.555h-.365v-2.082z"/>
</svg>
