<svg xmlns="http://www.w3.org/2000/svg" width="16" height="16">
    <defs>
        <style id="current-color-scheme" type="text/css">
            .ColorScheme-Text{color:#050505;opacity:.7}.ColorScheme-Highlight{color:#a0b6cb}
        </style>
    </defs>
    <path fill="#050505" fill-opacity=".7" stroke-linecap="round" stroke-linejoin="round" stroke-width="2" d="M7.5 5v5.086L5.879 8.465l-.707.707L8 12l2.828-2.828-.707-.707-1.621 1.62V5z" style="paint-order:stroke fill markers"/>
    <path fill="#050505" fill-opacity=".7" stroke-linecap="round" stroke-linejoin="round" stroke-width="2" d="M8 0a8 8 0 0 0-8 8 8 8 0 0 0 8 8 8 8 0 0 0 8-8 8 8 0 0 0-8-8zm-.094 1A7 7 0 0 1 8 1a7 7 0 0 1 7 7 7 7 0 0 1-7 7 7 7 0 0 1-7-7 7 7 0 0 1 6.906-7z"/>
</svg>
