<svg xmlns="http://www.w3.org/2000/svg" width="16" height="16">
    <path fill="#bac3de" d="M5.441 1.002a2.51 2.51 0 0 0-.3.021 2.49 2.49 0 0 0-1.44.71 1 1 0 1 0 1.416 1.412.485.485 0 0 1 .598-.078.494.494 0 0 1 .23.564.487.487 0 0 1-.478.37H0v2h5.467a2.506 2.507 0 0 0 2.412-1.854 2.508 2.509 0 0 0-1.162-2.81 2.482 2.482 0 0 0-1.276-.335zM12.463 2a3.513 3.514 0 0 0-3.387 2.772 1 1 0 0 0 1.957.416 1.487 1.487 0 0 1 1.676-1.174 1.488 1.488 0 0 1 1.287 1.593A1.486 1.486 0 0 1 12.5 7H0v2h12.5a3.514 3.515 0 0 0 3.492-3.256 3.515 3.516 0 0 0-3.006-3.712A3.513 3.514 0 0 0 12.463 2zM0 10.002v2h10a1 1 0 0 0 .002 0 .99.99 0 0 1 .97.77.992.992 0 0 1-.523 1.125.986.986 0 0 1-1.21-.252 1 1 0 1 0-1.534 1.286c.445.53 1.046.874 1.691 1.008a2.99 2.99 0 0 0 1.952-.254 3.01 3.01 0 0 0 1.572-3.374 3.009 3.01 0 0 0-2.918-2.309 1 1 0 0 0-.002 0H0z"/>
</svg>
