<svg xmlns="http://www.w3.org/2000/svg" width="22" height="22">
    <defs>
        <style id="current-color-scheme" type="text/css">
            .ColorScheme-Highlight{color:#a0b6cb}
        </style>
    </defs>
    <g fill="currentColor" style="color:#fdfdfd;opacity:.7">
        <g fill-rule="evenodd" paint-order="stroke fill markers">
            <path d="M3.521 8A.532.532 0 0 0 3 8.545v4.91c0 .303.233.545.521.545H7.97l.25-1H6.5a1 1 0 0 1-.832-1.555L7.965 8H3.52zm7.51 0-.25 1h1.72a1 1 0 0 1 .831 1.555L11.035 14h4.444a.532.532 0 0 0 .521-.545v-4.91A.532.532 0 0 0 15.48 8h-4.45z"/>
            <path d="M3 6c-1.108 0-2 .892-2 2v6c0 1.108.892 2 2 2h13c1.108 0 2-.892 2-2V8c0-1.108-.892-2-2-2zm0 1h13c.554 0 1 .446 1 1v6c0 .554-.446 1-1 1H3c-.554 0-1-.446-1-1V8c0-.554.446-1 1-1zm16 2v4a2 2 0 0 0 2-2 2 2 0 0 0-2-2z"/>
        </g>
        <path d="M9.834 7 6.5 12h3l-.75 3h.416l3.334-5h-3l.75-3z"/>
    </g>
</svg>
