<svg xmlns="http://www.w3.org/2000/svg" width="22" height="22">
    <path fill="#fdfdfd" fill-opacity=".7" d="M11 3a1 1 0 0 0-.994 1.1A4.988 4.988 0 0 0 6 9v4.5l-2 2v.5h14v-.5l-2-2V9.87a4 4 0 0 1-1 .126v3.926L16 15H6l1-1.078V9a4 4 0 0 1 4-4c.044.001.087.003.13.006a4 4 0 0 1 .741-1.492A1 1 0 0 0 11 3zM9.27 17A2 2 0 0 0 11 18a2 2 0 0 0 1.728-1z"/>
    <path fill="#a0b6cb" d="M18 6a3 3 0 0 1-6 0 3 3 0 1 1 6 0z" color="#bebebe" overflow="visible" style="isolation:auto;mix-blend-mode:normal"/>
</svg>
