<svg xmlns="http://www.w3.org/2000/svg" viewBox="0 0 22 22">
    <defs id="defs3051">
        <style id="current-color-scheme" type="text/css">
            .ColorScheme-Text{color:#fdfdfd;opacity:.7}
        </style>
    </defs>
    <path d="M7 10a5 5 0 1 0 0 10 5 5 0 0 0 0-10zm2.006 1.562c.003.049-.04.046-.053.079.008.02.05.027.053.052-.004.027-.063.024-.053.051.045.035.088.008.131 0 .093-.012.177-.003.234-.05.339-.156 0 .044 0 .077-.019.014-.058.079-.078.079-.024 0-.06-.033-.078-.028-.025.009-.024.043-.053.053-.055.02-.162-.03-.181.053.023.047.114.024.156.05a.261.261 0 0 1 .078.106.492.492 0 0 1 0 .156c-.026.067-.107.052-.183.051h-.051c-.13-.008-.254-.065-.313.027.004.071.016.12 0 .182-.011.045-.08.092-.078.13.001.02.046.05.05.079.004.015-.006.037 0 .05.023.042.068-.008.106 0 .037.009.078.065.078.106 0 .03-.008.075-.027.104-.037.055-.104.048-.156.078-.043.025-.052.088-.078.13-.028.047-.062.063-.051.13a.304.304 0 0 1-.156.156c-.023.01-.058.012-.078.027-.017.012-.03.052-.053.078-.03.033-.062.053-.078.078-.012.02-.013.052-.026.079-.018.035-.054.043-.078.078-.01.016-.015.056-.027.078-.027.048-.056.086-.05.129.003.04.047.041.05.078.002.02-.026.03-.025.053 0 .031.022.053.025.078.006.061-.04.088-.05.13-.007.02.004.035 0 .051-.01.031-.053.069-.054.106 0 .026.05.041.053.078.002.024-.032.055-.027.078.009.045.096.094.13.129.048.048.11.08.131.13.018.043.019.125.051.157.024.023.075.028.106.053.029.022.047.026.078.05.05.04.126.137.207.132.042-.009.083-.045.13-.053.05-.009.107-.03.157-.026.038.009.09.028.13.026.043-.009.082-.005.13-.026.082-.035.22-.095.34-.078.091.014.092.116.156.157.073.008.123-.015.182 0 .044.01.099.068.103.103.004.036-.046.083-.05.105-.012.049.008.099 0 .13-.007.024-.029.053-.028.078 0 .021.03.077.053.105.027.035.07.066.103.104.061.07.089.141.131.234.01.023-.01.048 0 .078-.018.14-.065.236-.156.39-.044.05-.105.094-.104.157-.003.15.085.246.078.39-.015.195.015.209 0 .313.066.033.02.14 0 .209-.332 1.15-3.303 1.62-4.324.963.015-.02.1-.02.131-.026.044-.008.106-.015.13-.027.028-.017.057-.077.052-.129-.003-.024-.032-.03-.051-.052-.016-.019.01-.036 0-.053-.02-.03-.07-.036-.078-.078.06-.012.147.051.234.027.04-.012.11-.092.129-.13.006-.013-.007-.039 0-.054.008-.015.025-.042.027-.05.006-.023-.005-.013 0-.028.015-.042.053-.073.078-.103.02-.024.061-.054.079-.078.02-.026.012-.03.025-.053.013-.076-.044-.14-.025-.207.02-.075.134-.122.207-.156.025-.012.057-.02.078-.028.05-.017.11-.034.156-.05.078-.029.093-.085.13-.157.02-.033.05-.08.054-.105.003-.022-.005-.025 0-.051.004-.024-.007-.05 0-.078A.863.863 0 0 0 7 16.85c0-.034-.025-.049-.025-.079-.006-.108.038-.097.078-.156.02-.029.036-.084.05-.105.068-.1.192-.134.184-.285-.003-.05-.041-.168-.078-.184-.02-.01-.047-.015-.078-.025-.098-.037-.185-.148-.287-.157H6.79c-.04 0-.084-.02-.129-.025-.028-.008-.089.008-.105 0-.026-.013-.03-.064-.051-.078-.017-.012-.052-.018-.078-.027-.041-.015-.058-.048-.106-.051-.015 0-.034.008-.05 0-.026-.009-.054-.013-.079-.028-.03-.018-.065-.025-.078-.05.028-.09-.06-.104-.078-.157-.008-.024.008-.083 0-.105-.01-.03-.044-.052-.078-.078a.315.315 0 0 0-.184-.078c-.038-.009-.083.008-.129 0a.297.297 0 0 1-.156-.078c-.035-.041-.047-.085-.078-.104-.029-.018-.058-.034-.078-.053-.01-.008-.019-.006-.027-.025-.015-.031-.044-.04-.026-.078-.033-.017-.017.031-.052.025-.033-.046-.056-.091-.13-.078-.033.008-.066.077-.105.078-.032 0-.06-.071-.103-.078-.033-.008-.081.032-.104.027-.036-.008-.046-.03-.078-.052-.024-.016-.065-.054-.078-.053-.042 0-.074.083-.131.053-.028-.036.059-.045.025-.079-.025-.024-.03.014-.05.026-.024.015-.053.018-.079.027-.057.022-.11.027-.156.051a.154.154 0 0 0-.078.078c-.019.035-.049.104-.078.106-.035 0-.046-.039-.078-.053-.096-.042-.155.024-.235.025-.073 0-.186-.112-.183-.181.002-.043.022-.104.027-.157.004-.041.05-.092.051-.13 0-.052-.096-.073-.129-.079-.078-.014-.172.035-.262 0-.016-.028.018-.05.028-.078.006-.015-.006-.033 0-.05.01-.027.065-.05.078-.079.009-.021-.01-.05 0-.078.01-.03.048-.056.05-.078.004-.028-.028-.06-.05-.078-.07.008-.116.005-.156.025-.09.041-.066.154-.157.182-.176-.386.209-.635.391-.885.065.01.097-.008.156 0 .04.009.097.05.13.053.026 0 .027-.03.052-.027.025.008.074.048.078.078.004.037-.036.09-.025.13.039.04.125.055.181.079.037-.031.006-.088 0-.131 0-.02.003-.06 0-.078-.004-.03-.025-.053-.025-.078 0-.12.102-.16.182-.207.034-.02.073-.064.103-.079.043-.02.07-.007.105-.027.064-.036.108-.088.157-.129.022-.054-.003-.13 0-.183.022-.015.054 0 .078 0 .038-.009.056-.057.078-.079.012-.012.036-.012.05-.025.04-.03.046-.065.079-.078a.223.223 0 0 1 .053-.025c.025-.009.063-.013.103-.028.026-.009.096-.014.106-.025.012-.013-.004-.06 0-.078.02-.094.15-.1.234-.131.058-.022.117-.09.182-.078-.013.045-.064.05-.053.105.014.076.104-.016.13-.027.052-.022.143-.053.21-.078.058-.021.158-.037.103-.104-.046-.008-.063.036-.103.053-.028.008-.03-.025-.053-.027-.023 0-.03.031-.053.027-.022-.008-.047-.05-.05-.078-.01-.07.05-.08.078-.131-.02-.063-.103-.028-.157-.053a.094.094 0 0 1 .078-.078c.036-.008.135.008.157.027.012.011-.02.034 0 .051.021.02.05.008.078 0 .01-.047-.061-.02-.053-.05.057-.037.165-.019.235-.028a.567.567 0 0 0 .13-.05c.034-.02.043-.06.078-.028.01.034-.008.06-.027.078a1.354 1.354 0 0 0-.181.184c.03.03.079.02.13.025.02.008.058-.004.078 0 .026.008.059-.008.079 0 .035.008.043.078.078.078.056 0 .032-.066 0-.103.01-.04.04-.078.025-.106-.026-.051-.126.017-.13-.05-.004-.042.037-.047.052-.079-.007-.08.061-.083.053-.156-.004-.03-.032-.024-.053-.053-.01-.015-.013-.066-.025-.078-.044-.036-.126-.008-.131-.078-.003-.042.006-.086 0-.13 1.09-.463 2.206.058 2.787.364zm-.21-.181c-.014.008-.011.017-.025.025-.031.02-.053.044-.078.053-.034.012-.073.02-.078.05-.004.027.026.03.026.053-.013.031-.02.041-.026.079.043.069.13-.015.182-.026.023-.008.04-.007.053-.027.014-.023.014-.046.025-.078.145-.097-.056-.093-.078-.13zm-4.4.676c.02 0 .028.05.051.052.023 0 .04-.028.053-.025.035.01.059.078.025.103-.027.009-.03-.028-.05-.025-.057.01-.089.132-.131.129-.04-.008-.066-.1-.026-.129v-.053c.013-.015.045-.055.078-.052zm5.442.156c.228.078.33.348.469.496.298-.256.233.398.287.572-.044.009-.096-.038-.156-.052-.025-.009-.059.008-.079 0-.045-.015-.039-.076-.078-.104a.422.422 0 0 0-.13-.053c-.023 0-.028.009-.051 0-.029-.008-.083.012-.106 0a.268.268 0 0 1-.078-.078c-.01-.03.076-.052.078-.078.002-.02-.021-.047-.025-.078-.003-.018.004-.038 0-.05-.006-.023-.044-.027-.078-.028h-.078c-.037 0-.11-.004-.157 0-.027 0-.052-.003-.078 0-.072.008-.125-.009-.182 0-.04 0-.117.035-.156.052l-.052.026a.39.39 0 0 1-.053.027c-.024.011-.056.044-.078.051-.033.008-.07-.008-.13 0-.042 0-.104-.027-.105-.078 0-.078.136-.037.21-.05.027-.01.044-.034.077-.054.016-.009.01-.015.026-.025.025-.018.074-.058.078-.078.003-.018-.003-.039 0-.053.003-.017.03-.03.053-.053.035-.035.06-.08.103-.103.03-.015.065-.029.078-.053.003-.027 0-.026 0-.05a.115.115 0 0 1 .053-.028c.045-.01.078.003.13 0 .023 0 .055.01.079 0 .02-.013.03-.04.05-.05a.208.208 0 0 1 .079-.028zm.469.496h-.104c-.037 0-.082-.02-.103 0 .03.05.087.066.156.078a.159.159 0 0 0 .05-.078zm-5.703-.469h.078c.02 0 .044-.008.052 0-.013.055-.138.046-.181.026.002-.021.024-.022.05-.026zm-.182.104c-.037.026-.073.06-.131.078-.032.01-.072.01-.078-.026-.007-.043.05-.023.078-.027.037-.008.088-.024.13-.025zm5.416 0c-.028.009-.041.07 0 .078.019-.012.032-.042.027-.078-.01-.012-.019-.009-.027 0zm-.05.13c0 .047.008.089 0 .13.026.051.09.01.103-.026.015-.087-.013-.114-.053-.103-.013.008-.037-.011-.05 0zm-6.772 2.083c.02.01.051.02.078.027.021.008.032-.007.052 0 .045.015.094.035.13.05.053.024.11.105.156.132.002.026-.009.058 0 .078.021.029.043.058.078.078.042.023.065.06.105.078.014.008.03-.008.051 0 .055.017.083.092.13.078.032-.01.021-.048.026-.078.021-.022.046-.053.078-.053.052 0 .06.08.079.131.01.028.045.048.052.078a.786.786 0 0 1 0 .235c-.013.038-.072.036-.103.078-.015.02-.016.064-.028.078-.02.024-.035.03-.05.053a.353.353 0 0 0-.028.05c-.025.054-.071.092-.05.157.008.025.05.047.05.078 0 .036-.072.065-.078.105-.004.03.018.065.027.104.007.029.061.059.079.078.029.032.051.09.078.13.052.082.077.181.129.26.027.041.087.061.105.104.01.022-.008.058 0 .078.03.068.167.15.234.184.032.016.075.008.104.025a.569.569 0 0 1 .156.131c.02.035.016.126.026.182.012.073-.004.13 0 .209.002.043.027.06.027.103v.078c0 .052.004.104 0 .157a.494.494 0 0 0 0 .078c.002.026.024.03.025.052.002.025-.028.06-.025.079.006.052.04.08.05.128.01.039.033.138.028.184-.9.176-1.784-2.85-1.771-3.777Zm1.484.312c.04-.018.032.047 0 .053-.03.008-.03-.038 0-.053zM14 3l-2 2 3 3-3 3 2 2 3-3 2-2zM6.5 3C5.669 3 5 3.669 5 4.5S5.669 6 6.5 6 8 5.331 8 4.5 7.331 3 6.5 3ZM3 8c-.554 0-1 .446-1 1s.446 1 1 1 1-.446 1-1-.446-1-1-1Z" class="ColorScheme-Text" style="fill:currentColor;fill-opacity:1;stroke:none"/>
</svg>
