<svg xmlns="http://www.w3.org/2000/svg" width="16" height="16">
    <rect width="6" height="1" x="1238" y="48.003" fill="#fdfdfd" color="#000" opacity=".7" overflow="visible" rx="0" ry="0" transform="matrix(1.6677 0 0 1 -2061.6 -40.003)"/>
    <path fill="#fdfdfd" fill-opacity=".7" d="M3 0c-.554 0-1 .446-1 1v14c0 .554.446 1 1 1h10c.554 0 1-.446 1-1V1c0-.554-.446-1-1-1H3zm0 1h10v14H3V1z" style="paint-order:stroke fill markers"/>
    <circle cx="11.5" cy="13.5" r=".5" fill="#fdfdfd" fill-opacity=".7" style="paint-order:stroke fill markers"/>
    <g opacity=".15">
        <rect width="6" height="1" x="1238" y="48.003" fill="#fdfdfd" color="#000" opacity=".7" overflow="visible" rx="0" ry="0" transform="matrix(1.6677 0 0 7 -2061.6 -335.02)"/>
    </g>
</svg>
