<svg xmlns="http://www.w3.org/2000/svg" id="svg273" version="1.1" viewBox="0 0 32 32">
    <style id="current-color-scheme" type="text/css">
        .ColorScheme-Text{color:#050505;opacity:.7}
    </style>
    <path id="path267" fill="#add49f" stroke-width="1.034" d="M16 1C7.724 1 1 7.724 1 16s6.724 15 15 15 15-6.724 15-15S24.276 1 16 1z" color="#000" overflow="visible" style="fill:#a9b8d3;fill-opacity:1"/>
    <path id="path269" fill="#000" fill-rule="evenodd" stroke-linecap="round" stroke-linejoin="round" d="M16 6A10 10 0 0 0 6 16a10 10 0 0 0 10 10 10 10 0 0 0 10-10A10 10 0 0 0 16 6zm0 1a9 9 0 0 1 9 9 9 9 0 0 1-9 9 9 9 0 0 1-9-9 9 9 0 0 1 9-9z" style="fill:#000;fill-opacity:1"/>
    <rect id="rect271" width="20" height="1" x="6" y="15.5" fill="#000" fill-rule="evenodd" stroke-linecap="round" stroke-linejoin="round" rx=".5" ry=".5" style="fill:#060606;fill-opacity:1"/>
</svg>
