<svg xmlns="http://www.w3.org/2000/svg" viewBox="0 0 32 32">
    <path fill="#c6bb9f" d="M16 1C7.724 1 1 7.724 1 16s6.724 15 15 15 15-6.724 15-15S24.276 1 16 1z" overflow="visible"/>
    <path fill="#000" d="M15.961 6c-2.216 0-4 1.784-4 4v4H9.867C8.833 14 8 14.892 8 16v6c0 1.108.833 2 1.867 2h12.266C23.167 24 24 23.108 24 22v-6c0-1.108-.833-2-1.867-2h-2.171v-4c0-2.216-1.784-4-4-4zm0 1c1.662 0 3 1.561 3 3.5V14h-6v-3.5c0-1.939 1.338-3.5 3-3.5zm-5.96 8h12c.553 0 1 .446 1 1v6c0 .554-.447 1-1 1H10c-.555 0-1-.446-1-1v-6c0-.554.445-1 1-1z" style="fill:#000;fill-opacity:1;color:#050505;opacity:.7"/>
</svg>
