<svg xmlns="http://www.w3.org/2000/svg" id="svg399" version="1.1" viewBox="0 0 32 32">
    <defs id="defs393">
        <style id="current-color-scheme" type="text/css">
            .ColorScheme-Text{color:#050505;opacity:.7}
        </style>
    </defs>
    <path id="path395" fill="#eabc8a" fill-opacity=".992" stroke-width="1.034" d="M16 1C7.723 1 1 7.723 1 16s6.723 15 15 15c8.276 0 15-6.723 15-15 0-8.276-6.723-15-15-15z" color="#000" opacity=".99" overflow="visible"/>
    <path id="path397" fill="#000" fill-rule="evenodd" stroke-linecap="round" stroke-linejoin="round" stroke-width="1.111" d="M8.93 8.932A10 10 0 0 0 7.143 20.62l.749-.748A9 9 0 0 1 9.638 9.64a9 9 0 0 1 9.22-2.149l-3.564 3.563.707.707 4.623-4.622A10 10 0 0 0 8.93 8.933zm2.456 15.93a10 10 0 0 0 11.687-1.788 10 10 0 0 0 1.787-11.687l-.749.749a9 9 0 0 1-1.745 10.23 9 9 0 0 1-9.212 2.142l3.555-3.555-.707-.707-3.867 3.867z" style="fill:#050505;fill-opacity:1"/>
</svg>
