<?xml version="1.0" encoding="UTF-8" standalone="no"?>
<svg
   width="22"
   height="22"
   version="1.1"
   id="svg4"
   sodipodi:docname="folder-blue.svg"
   inkscape:version="1.2.2 (b0a8486541, 2022-12-01)"
   xmlns:inkscape="http://www.inkscape.org/namespaces/inkscape"
   xmlns:sodipodi="http://sodipodi.sourceforge.net/DTD/sodipodi-0.dtd"
   xmlns="http://www.w3.org/2000/svg"
   xmlns:svg="http://www.w3.org/2000/svg">
  <defs
     id="defs8" />
  <sodipodi:namedview
     id="namedview6"
     pagecolor="#ffffff"
     bordercolor="#000000"
     borderopacity="0.25"
     inkscape:showpageshadow="2"
     inkscape:pageopacity="0.0"
     inkscape:pagecheckerboard="0"
     inkscape:deskcolor="#d1d1d1"
     showgrid="false"
     inkscape:zoom="33.772727"
     inkscape:cx="10.51144"
     inkscape:cy="10.985195"
     inkscape:window-width="1920"
     inkscape:window-height="1021"
     inkscape:window-x="0"
     inkscape:window-y="0"
     inkscape:window-maximized="1"
     inkscape:current-layer="svg4" />
  <path
     fill="currentColor"
     d="M5 5c-1.108 0-2 .892-2 2v9c0 1.108.892 2 2 2h12c1.108 0 2-.892 2-2V8c0-1.108-.892-2-2-2H9.371c-.58-.023-.605.077-1.039-.357C7.898 5.209 7.719 5 7 5zm0 1h2c.311 0 .52 0 .998.47.479.472.639.53 1 .53H17c.554 0 1 .446 1 1v1H4V7c0-.554.446-1 1-1zm-1 4h14v6c0 .554-.446 1-1 1H5c-.554 0-1-.446-1-1z"
     style="color:#a0b6cb;fill:#badbec"
     id="path2" />
</svg>
