<svg xmlns="http://www.w3.org/2000/svg" width="22" height="22">
    <defs>
        <style id="current-color-scheme" type="text/css">
            .ColorScheme-Text{color:#fdfdfd;opacity:.7}
        </style>
    </defs>
    <path fill="currentColor" d="M5 5c-1.108 0-2 .892-2 2v9c0 1.108.892 2 2 2h7.678a4.5 4.5 0 0 1-.916-1H5c-.554 0-1-.446-1-1v-6h14v.76a4.5 4.5 0 0 1 1 .914V8c0-1.108-.892-2-2-2H9.371c-.58-.023-.605.077-1.039-.357C7.898 5.209 7.719 5 7 5H5zm0 1h2c.311 0 .52 0 .998.47.479.472.639.53 1 .53H17c.554 0 1 .446 1 1v1H4V7c0-.554.446-1 1-1z" class="ColorScheme-Text"/>
    <path fill="currentColor" d="M15.5 11a3.5 3.5 0 0 0-3.5 3.5 3.5 3.5 0 0 0 3.5 3.5 3.5 3.5 0 0 0 3.5-3.5 3.5 3.5 0 0 0-3.5-3.5zm0 1c.277 0 .5.223.5.5V14h1.5a.499.499 0 1 1 0 1H16v1.5a.499.499 0 1 1-1 0V15h-1.5a.499.499 0 1 1 0-1H15v-1.5c0-.277.223-.5.5-.5z" class="ColorScheme-Text"/>
</svg>
