<svg xmlns="http://www.w3.org/2000/svg" width="16" height="16">
    <path fill="#fdfdfd" fill-opacity=".7" fill-rule="evenodd" d="M10 .998c-.554 0-1 .446-1 1v13c0 .554.446 1 1 1h5c.554 0 1-.446 1-1v-13c0-.554-.446-1-1-1zm0 3h1v1h-1zm2 0h1v1h-1zm2 1h1v7h-1zm-4 1h1v1h-1zm2 0h1v1h-1zm-2 2h1v1h-1zm2 0h1v1h-1zm-2 2h1v1h-1zm2 0h1v1h-1zm-2 2h1v1h-1zm2 0h1v1h-1z" opacity=".7"/>
    <g fill="#ec9b97" fill-rule="evenodd">
        <path d="M1 4c-.554 0-1 .446-1 1v6c0 .554.446 1 1 1h12c.554 0 1-.446 1-1V5c0-.554-.446-1-1-1zm0 1h12v6H1zM15 6.588v2.824A1.5 1.5 0 0 0 16 8a1.5 1.5 0 0 0-1-1.412z" style="paint-order:normal" transform="rotate(-90 6 10)"/>
    </g>
</svg>
