<svg xmlns="http://www.w3.org/2000/svg" width="16" height="16" version="1">
    <defs>
        <style id="current-color-scheme" type="text/css">
            .ColorScheme-Highlight{color:#a0b6cb}
        </style>
    </defs>
    <path fill="currentColor" d="M9 2v6.947A3 3 0 0 0 9 9v3h1v-.764a3 3 0 1 0 0-4.47V2H9zM3.95 4A3 3 0 1 0 6 9.234V14h1V7.053A3 3 0 0 0 7 7V4H6v.764A3 3 0 0 0 3.95 4zm0 1h.001a2 2 0 1 1 .103 4 2 2 0 0 1-.105-4zm8 2h.001a2 2 0 1 1 .102 4 2 2 0 0 1-.104-4z" style="color:#fdfdfd;opacity:.7"/>
</svg>
