<svg xmlns="http://www.w3.org/2000/svg" width="16" height="16">
    <path fill="currentColor" fill-opacity=".7" d="M5.05.049A7.995 8 0 0 0 1.005 7 7.995 8 0 0 0 9 15a7.995 8 0 0 0 6.938-4.043 7.995 8 0 0 0 .01-.006l-.739-.738a6.996 7 0 0 1-.003.006 6.996 7 0 0 1-3.207.781 6.996 7 0 0 1-6.996-7A6.996 7 0 0 1 5.789.787zM4.308 1.82A7.995 8 0 0 0 4.003 4a7.995 8 0 0 0 7.995 8 7.995 8 0 0 0 2.186-.312A6.996 7 0 0 1 8.999 14a6.996 7 0 0 1-6.995-7 6.996 7 0 0 1 2.303-5.18zM9.715 5.1h1.714l-.032.9H8l1.715-2.7H8v-.9h3.43zm4.573-2.4h1.716l-.032.9h-3.4L14.287.9H12.57V0h3.433z" color="#fdfdfd" style="color:#fdfdfd;opacity:.7"/>
</svg>
