<svg xmlns="http://www.w3.org/2000/svg" width="16" height="16">
    <path fill="#cfd8dc" d="M5.428 12.432a.854.854 0 0 0-.856.857.856.856 0 1 0 1.713 0 .856.856 0 0 0-.857-.857zm5.715 0a.856.856 0 0 0-.858.857c0 .475.383.858.858.858s.857-.383.857-.858a.856.856 0 0 0-.858-.857zm-8.045 1.715a.856.856 0 0 0 .045 1.713c.474 0 .857-.38.857-.856s-.383-.857-.857-.857h-.045zm5.144 0a.858.858 0 1 0 .043 0h-.043zm5.143 0a.856.856 0 0 0-.813.857c0 .475.38.856.856.856.475 0 .857-.38.857-.856s-.382-.857-.857-.857h-.043z"/>
    <path fill="#ececec" d="M6 4v9h5.625A4.375 4.5 0 0 0 16 8.5 4.375 4.5 0 0 0 11.625 4z"/>
    <circle cx="6" cy="7" r="6" fill="#ececec"/>
</svg>
