<svg xmlns="http://www.w3.org/2000/svg" width="32" height="32">
    <rect width="30" height="30" x="1" y="1" fill="#add49f" rx="8" ry="8"/>
    <path fill-opacity=".059" d="M8 5v3H5v1h3v4H5v1h3v4H5v1h3v4H5v1h3v3h1v-3h4v3h1v-3h4v3h1v-3h4v3h1v-3h3v-1h-3v-4h3v-1h-3v-4h3v-1h-3V9h3V8h-3V5h-1v3h-4V5h-1v3h-4V5h-1v3H9V5zm1 4h4v4H9zm5 0h4v4h-4zm5 0h4v4h-4zM9 14h4v4H9zm5 0h4v4h-4zm5 0h4v4h-4zM9 19h4v4H9zm5 0h4v4h-4zm5 0h4v4h-4z"/>
    <path fill="#fff" fill-rule="evenodd" d="M18.143 8.014C17.096 8.09 16 8.496 15 8.996c2 0 3 1 4 2l2 2.002V14l1 1 3-3.002-1-1.002h-1l-2-2c-.81-.809-1.81-1.06-2.857-.982zM19 11l-4 4h-1l-6 6 2 2 6-6v-1l4-4z"/>
    <path fill="#fff" d="M9 4C6.23 4 4 6.23 4 9v14c0 2.77 2.23 5 5 5h14c2.77 0 5-2.23 5-5V9c0-2.77-2.23-5-5-5zm0 1h14c2.216 0 4 1.784 4 4v14c0 2.216-1.784 4-4 4H9c-2.216 0-4-1.784-4-4V9c0-2.216 1.784-4 4-4z" opacity=".25"/>
</svg>
