<svg xmlns="http://www.w3.org/2000/svg" viewBox="0 0 32 32">
    <rect width="30" height="30" x="1" y="1" fill="#eabc8a" rx="6" ry="6"/>
    <path fill="#fff" stroke="#fff" stroke-width=".5" d="M7 5c-1.108 0-2 .892-2 2v6c0 1.108.892 2 2 2h6c1.108 0 2-.892 2-2V7c0-1.108-.892-2-2-2zm0 1h6c.554 0 1 .446 1 1v6c0 .554-.446 1-1 1H7c-.554 0-1-.446-1-1V7c0-.554.446-1 1-1zm12-1c-1.108 0-2 .892-2 2v6c0 1.108.892 2 2 2h6c1.108 0 2-.892 2-2V7c0-1.108-.892-2-2-2zm0 1h6c.554 0 1 .446 1 1v6c0 .554-.446 1-1 1h-6c-.554 0-1-.446-1-1V7c0-.554.446-1 1-1zM7 17c-1.108 0-2 .892-2 2v6c0 1.108.892 2 2 2h6c1.108 0 2-.892 2-2v-6c0-1.108-.892-2-2-2zm0 1h6c.554 0 1 .446 1 1v6c0 .554-.446 1-1 1H7c-.554 0-1-.446-1-1v-6c0-.554.446-1 1-1zm12-1c-1.108 0-2 .892-2 2v6c0 1.108.892 2 2 2h6c1.108 0 2-.892 2-2v-6c0-1.108-.892-2-2-2zm0 1h6c.554 0 1 .446 1 1v6c0 .554-.446 1-1 1h-6c-.554 0-1-.446-1-1v-6c0-.554.446-1 1-1z"/>
</svg>
