<svg xmlns="http://www.w3.org/2000/svg" width="32" height="32">
    <rect width="30" height="30" x="1" y="1" fill="#fff" rx="8" ry="8"/>
    <path fill="#7eb3ce" d="M7.182 10H24.82A2.18 2.18 0 0 1 27 12.18v14.64A2.18 2.18 0 0 1 24.82 29H7.182A2.181 2.181 0 0 1 5 26.82V12.18C5 10.978 5.977 10 7.18 10z"/>
    <path fill="#7eb3ce" d="M7.182 3H24.82A2.18 2.18 0 0 1 27 5.18V21a2.18 2.18 0 0 1-2.18 2.18H7.182A2.181 2.181 0 0 1 5 21V5.18C5 3.978 5.977 3 7.18 3z"/>
    <path fill="#7eb3ce" d="M11.999 18.5h8a1 1 0 0 1 1 1V25a1 1 0 0 1-1 1h-8a1 1 0 0 1-1-1v-5.5a1 1 0 0 1 1-1z"/>
    <path fill="#7eb3ce" d="M7.499 4.5h17a1 1 0 0 1 1 1V21a1 1 0 0 1-1 1h-17a1 1 0 0 1-1-1V5.5a1 1 0 0 1 1-1z"/>
    <path fill="#e6e6e6" d="M11.999 20h8a1 1 0 0 1 1 1v3a1 1 0 0 1-1 1h-8a1 1 0 0 1-1-1v-3a1 1 0 0 1 1-1z"/>
    <path fill="#fff" d="M7.551 4.585c-.3 0-.544.258-.544.576L6.99 21.854s.26.146.51.146H11v1.585h10V22h3.5c.25 0 .503-.142.503-.142l-.017-16.697c0-.318-.244-.576-.545-.576z"/>
    <path fill="none" stroke="#333" d="m9.999 18 1.5 1.5 2.5-2.5"/>
    <path fill="#ccc" d="M15.999 11h6v1h-6zm0 7h6v1h-6z"/>
    <path fill="none" stroke="#333" d="m9.999 11 1.5 1.5 2.5-2.5"/>
</svg>
