<svg xmlns="http://www.w3.org/2000/svg" width="32" height="32">
    <rect width="30" height="30" x="1" y="1" fill="#fff" rx="8" ry="8"/>
    <path fill="#ffe7a9" d="M28 16c0 6.627-5.373 12-12 12S4 22.627 4 16 9.373 4 16 4s12 5.373 12 12z"/>
    <path fill="none" stroke="#333" stroke-linecap="round" stroke-linejoin="round" stroke-width=".8" d="M17.527 16.198c0 .501-.292.964-.764 1.214-.472.25-1.054.25-1.526 0s-.764-.713-.764-1.214"/>
    <path fill="#e0858e" d="M13.582 9.6a1.601 1.601 0 0 0-1.103.484l-.469.47-.469-.47a1.601 1.601 0 1 0-2.263 2.263l2.167 2.167v-.002a.8.8 0 0 0 1.131 0l2.165-2.164a1.6 1.6 0 0 0-1.16-2.749zm8.001 0a1.602 1.602 0 0 0-1.104.484l-.469.47-.469-.47a1.6 1.6 0 1 0-2.263 2.263l2.167 2.167v-.002a.8.8 0 0 0 1.132 0l2.164-2.164a1.6 1.6 0 0 0-1.158-2.749z"/>
</svg>
