<svg xmlns="http://www.w3.org/2000/svg" width="32" height="32">
    <filter id="a" width="1" height="1" x="0" y="0">
        <feColorMatrix in="SourceGraphic" values="0 0 0 0 1 0 0 0 0 1 0 0 0 0 1 0 0 0 1 0"/>
    </filter>
    <mask id="c">
        <g filter="url(#a)">
            <path fill-opacity=".3" d="M0 0h128v128H0z"/>
        </g>
    </mask>
    <clipPath id="b">
        <path d="M0 0h192v152H0z"/>
    </clipPath>
    <rect width="30" height="30" x="1" y="1" fill="#999" rx="8" ry="8"/>
    <path fill="#999" d="M8 27.8v.2h3.2v-.2zm12.8 0v.2H24v-.2z"/>
    <path fill="#ccc" d="M16 4c-.581 0-1.084.405-1.208.973L8 27.8h3.2L16 7.6l4.8 20.2H24L17.202 4.943l-.002.002A1.236 1.236 0 0 0 16 4zm0 1a.6.6 0 1 1 0 1.2.6.6 0 0 1 0-1.2z"/>
    <path fill="#fff" d="M7.2 7.2h17.6a1.6 1.6 0 0 1 1.6 1.6v14.4a1.6 1.6 0 0 1-1.6 1.6H7.2a1.6 1.6 0 0 1-1.6-1.6V8.8a1.6 1.6 0 0 1 1.6-1.6z"/>
    <path fill="#d69b5c" d="m28.8 10.4-9.781 9.782a1.133 1.133 0 1 1-1.601-1.6l8.227-8.227c.98-.841 2.355-.755 3.155.045z"/>
    <path fill="#ccc" d="M21.337 15.117c1.03.001 1.537 1.252.799 1.97l-3.813 4.212a1.429 1.429 0 1 1-2.02-2.02l4.211-3.814c.216-.223.513-.348.823-.348z"/>
    <path fill="#333" d="M17.6 16.8a3.2 3.2 0 0 1 0 6.4h-3.2V20a3.2 3.2 0 0 1 3.2-3.2z"/>
    <g clip-path="url(#b)" mask="url(#c)" transform="matrix(.2 0 0 .2 1.6 0)">
        <path fill="#fff" d="M72.004 95c0-1.656 1.34-2.996 2.996-2.996s2.996 1.34 2.996 2.996-1.34 2.996-2.996 2.996-2.996-1.34-2.996-2.996z"/>
    </g>
    <path fill="#a57ab8" d="M5.6 11.173v4.8c.4-.225.885-.297 1.334-.2s.861.362 1.134.732c.352.479.462 1.093.491 1.686.03.593-.013 1.192.08 1.78.125.798.507 1.558 1.081 2.129s1.338.95 2.14 1.054c.523.067 1.052.04 1.578.042l.962.004v-.4a14.301 14.301 0 0 0-1.231-.232c-.268-.038-.54-.069-.8-.147-.26-.077-.512-.205-.692-.408a1.26 1.26 0 0 1-.286-.613 1.915 1.915 0 0 1 .01-.68c.081-.45.278-.869.426-1.3.48-1.398.434-2.96-.075-4.347-.56-1.529-1.709-2.862-3.202-3.512a5.409 5.409 0 0 0-2.95-.388z" style="fill:#a29bbd"/>
    <path fill="#a57ab8" d="m12.581 22.475.857.721 3.762.004-.4-.6c-.629-.943-1.827-1.8-2.4-1.8 0 1.2-1.112 1.82-1.819 1.675z" style="fill:#a29bbd"/>
</svg>
