<svg xmlns="http://www.w3.org/2000/svg" width="32" height="32">
    <g stroke-linejoin="bevel" stroke-width="2">
        <path fill="#eaedee" d="M9 30h20V2H9z"/>
        <path fill="#fae3a8" d="M4 30V2h5v28z"/>
        <g stroke-linecap="round">
            <path fill="#ccaf66" d="M8 2v28h1V2zM5 4v7h1V4zm0 17v7h1v-7z"/>
            <path fill="#434c57" d="M2 5v5h4V5zm0 17v5h4v-5z"/>
        </g>
    </g>
    <path fill="#626363" d="M11 6v1h3V6zm4 0v1h1V6zm-4 2v1h8V8zm0 2v1h7v-1zm0 4v1h3v-1zm4 0v1h2v-1zm-4 2v1h8v-1zm0 2v1h7v-1zm0 3v1h3v-1zm4 0v1h1v-1zm-4 2v1h8v-1zm0 2v1h7v-1z"/>
    <path fill="#d98c8c" d="M24 14v1h3v-1z"/>
    <g fill="#add49f">
        <path d="M22 6v1h-1v1h1v1h1V8h1V7h-1V6zM22 21v1h-1v1h1v1h1v-1h1v-1h-1v-1z"/>
    </g>
</svg>
