<svg xmlns="http://www.w3.org/2000/svg" width="16" height="16">
    <path fill="#d98c8c" d="M2 3C.892 3 0 3.892 0 5v6c0 1.108.892 2 2 2h9c1.108 0 2-.892 2-2V5c0-1.108-.892-2-2-2zm0 1h9c.554 0 1 .446 1 1v6c0 .554-.446 1-1 1H2c-.554 0-1-.446-1-1V5c0-.554.446-1 1-1zM14 6v4a2 2 0 0 0 2-2 2 2 0 0 0-2-2z" class="error"/>
    <path fill="#d98c8c" d="M7.046 1.06a.499.499 0 0 0 .354.854h2v2a.499.499 0 1 0 1 0v-2h2a.499.499 0 1 0 0-1h-2v-2a.499.499 0 1 0-1 0v2h-2a.498.498 0 0 0-.354.147z" style="paint-order:fill markers stroke" transform="rotate(45)"/>
</svg>
