<svg xmlns="http://www.w3.org/2000/svg" width="16" height="16">
    <g fill="#050505" opacity=".7">
        <path d="M6.834 4 3.5 9h3l-.75 3h.416L9.5 7h-3l.75-3z"/>
        <path d="M2 3C.892 3 0 3.892 0 5v6c0 1.108.892 2 2 2h9c1.108 0 2-.892 2-2V5c0-1.108-.892-2-2-2zm0 1h9c.554 0 1 .446 1 1v6c0 .554-.446 1-1 1H2c-.554 0-1-.446-1-1V5c0-.554.446-1 1-1z"/>
        <path fill="#add49f" d="M2.547 5A.544.544 0 0 0 2 5.545v4.91c0 .303.244.545.547.545h2.422l.25-1H3.5a1 1 0 0 1-.832-1.555L4.965 5H2.547zM8.03 5l-.25 1h1.72a1 1 0 0 1 .831 1.555L8.035 11h2.418a.544.544 0 0 0 .547-.545v-4.91A.544.544 0 0 0 10.453 5H8.031z" class="success"/>
        <path d="M14 6v4a2 2 0 0 0 2-2 2 2 0 0 0-2-2z"/>
    </g>
</svg>
