<svg xmlns="http://www.w3.org/2000/svg" width="16" height="16">
    <g fill="#050505" fill-opacity=".7" fill-rule="evenodd">
        <path d="M2 3C.892 3 0 3.892 0 5v6c0 1.108.892 2 2 2h9c1.108 0 2-.892 2-2V5c0-1.108-.892-2-2-2H2zm0 1h9c.554 0 1 .446 1 1v6c0 .554-.446 1-1 1H2c-.554 0-1-.446-1-1V5c0-.554.446-1 1-1z" style="paint-order:stroke fill markers"/>
        <path d="M2.5 5h5c.277 0 .5.223.5.5v5c0 .277-.223.5-.5.5h-5a.499.499 0 0 1-.5-.5v-5c0-.277.223-.5.5-.5zM14 6v4a2 2 0 0 0 2-2 2 2 0 0 0-2-2z" style="paint-order:stroke fill markers"/>
    </g>
</svg>
