<svg xmlns="http://www.w3.org/2000/svg" width="16" height="16">
    <g fill="#050505" color="#050505" opacity=".7">
        <path d="M2.5 0c.277 0 .5.223.5.5v14c0 .277-.223.5-.5.5h-1a.499.499 0 0 1-.5-.5V.5c0-.277.223-.5.5-.5zm3 3c.277 0 .5.223.5.5V7H5c-.139 0-.276.005-.406.031-.041.01-.085.02-.125.031a2.016 2.016 0 0 0-.47.22V3.5a.5.5 0 0 1 .5-.5h1zm3 3c.277 0 .5.223.5.5V7H7v-.5c0-.277.223-.5.5-.5zm3.5 4.719V14.5c0 .277-.223.5-.5.5h-1a.499.499 0 0 1-.5-.5V11h1c.183 0 .363-.017.531-.063.032-.008.063-.02.094-.03.133-.044.256-.12.375-.188zm-8 0c.072.041.142.092.219.125a2.038 2.038 0 0 0 .25.093 2.024 2.024 0 0 0 .53.063h1v3.5c0 .277-.222.5-.5.5h-1a.5.5 0 0 1-.5-.5v-3.781zM9 11v3.5c0 .277-.223.5-.5.5h-1a.499.499 0 0 1-.5-.5V11zm5.5 1c.277 0 .5.223.5.5v2c0 .277-.223.5-.5.5h-1a.499.499 0 0 1-.5-.5v-2c0-.277.223-.5.5-.5z" opacity=".35" overflow="visible"/>
        <path d="M11 8a1 1 0 1 1 0 2 1 1 0 0 1 0-2zM8 8a1 1 0 1 1 0 2 1 1 0 0 1 0-2zM5 8a1 1 0 1 1 0 2 1 1 0 0 1 0-2z" overflow="visible"/>
    </g>
</svg>
