<svg xmlns="http://www.w3.org/2000/svg" width="16" height="16">
    <path fill="#050505" fill-opacity=".7" d="M13 1c1.662 0 3 1.338 3 3v6c0 1.662-1.338 3-3 3 0 1.108-.892 2-2 2H5c-1.108 0-2-.892-2-2-1.662 0-3-1.338-3-3V4c0-1.662 1.338-3 3-3zm0 1H3c-1.108 0-2 .892-2 2v6c0 1.108.892 2 2 2h1v1c0 .554.446 1 1 1h6c.554 0 1-.446 1-1v-1h1c1.108 0 2-.892 2-2V4c0-1.108-.892-2-2-2z"/>
    <circle cx="-11" cy="7" r="1" fill="#050505" fill-opacity=".7" style="paint-order:fill markers stroke" transform="scale(-1 1)"/>
    <circle cx="-8" cy="7" r="1" fill="#050505" opacity=".65" style="paint-order:fill markers stroke" transform="scale(-1 1)"/>
    <circle cx="-5" cy="7" r="1" fill="#050505" opacity=".35" style="paint-order:fill markers stroke" transform="scale(-1 1)"/>
</svg>
