<svg xmlns="http://www.w3.org/2000/svg" width="16" height="16">
    <path fill="#050505" fill-opacity=".7" d="M12.5 8a3.5 3.5 0 1 0 0 7 3.5 3.5 0 0 0 0-7zm-1.414 1.586c.128 0 .255.048.353.146l1.06 1.06 1.061-1.06a.499.499 0 1 1 .707.707l-1.06 1.06 1.06 1.061a.499.499 0 1 1-.707.707l-1.06-1.06-1.06 1.06a.499.499 0 1 1-.708-.707l1.06-1.06-1.06-1.06a.499.499 0 0 1 .354-.854z"/>
    <path fill="#050505" fill-opacity=".7" d="M3 1C1.338 1 0 2.338 0 4v6c0 1.662 1.338 3 3 3 0 1.108.892 2 2 2h4.686a4.5 4.5 0 0 1-.922-1H5c-.554 0-1-.446-1-1v-1H3c-1.108 0-2-.892-2-2V4c0-1.108.892-2 2-2h10c1.108 0 2 .892 2 2v3.758a4.5 4.5 0 0 1 1 .914V4c0-1.662-1.338-3-3-3H3zm2.5 4c-.277 0-.5.223-.5.5v3a.499.499 0 1 0 1 0v-3c0-.277-.223-.5-.5-.5zm5 0c-.277 0-.5.223-.5.5v2.264a4.5 4.5 0 0 1 1-.496V5.5c0-.277-.223-.5-.5-.5z"/>
</svg>
