<svg xmlns="http://www.w3.org/2000/svg" width="16" height="16">
    <defs>
        <style id="current-color-scheme" type="text/css">
            .ColorScheme-Text{color:#7c7c7c}.ColorScheme-Highlight{color:#a0b6cb}
        </style>
    </defs>
    <path fill="#050505" fill-opacity=".7" stroke-linecap="round" stroke-linejoin="round" d="M3 1C1.338 1 0 2.338 0 4v8c0 1.662 1.338 3 3 3h10c1.662 0 3-1.338 3-3V4c0-1.662-1.338-3-3-3H3zm0 1h10c1.108 0 2 .892 2 2v8c0 1.108-.892 2-2 2H3c-1.108 0-2-.892-2-2V4c0-1.108.892-2 2-2z"/>
    <path fill="#050505" fill-opacity=".7" stroke-linecap="round" stroke-linejoin="round" d="M3 3c-.554 0-1 .446-1 1v5c0 .554.446 1 1 1h3c.554 0 1-.446 1-1V4c0-.554-.446-1-1-1H3zm0 1h3v5H3V4z"/>
    <rect width="6" height="1" x="8" y="3" fill="#050505" fill-opacity=".7" stroke-linecap="round" stroke-linejoin="round" rx=".5" ry=".5"/>
    <rect width="6" height="1" x="8" y="6" fill="#050505" fill-opacity=".7" stroke-linecap="round" stroke-linejoin="round" rx=".5" ry=".5"/>
    <rect width="6" height="1" x="8" y="9" fill="#050505" fill-opacity=".7" stroke-linecap="round" stroke-linejoin="round" rx=".5" ry=".5"/>
    <rect width="12" height="1" x="2" y="12" fill="#050505" fill-opacity=".7" stroke-linecap="round" stroke-linejoin="round" stroke-width="1.414" rx=".5" ry=".5"/>
</svg>
