<svg xmlns="http://www.w3.org/2000/svg" viewBox="0 0 22 22">
    <defs>
        <style id="current-color-scheme" type="text/css">
            .ColorScheme-Text{color:#fdfdfd;opacity:.7}
        </style>
    </defs>
    <path fill="currentColor" d="M5 11v1.004h12V11zm0 2v1h6.006v-1zm7.988.002V14H17v-.998z" class="ColorScheme-Text"/>
    <path fill="currentColor" d="M5 5c-1.108 0-2 .892-2 2v8c0 1.108.892 2 2 2h12c1.108 0 2-.892 2-2V7c0-1.108-.892-2-2-2H5zm0 1h12c.554 0 1 .446 1 1v8c0 .554-.446 1-1 1H5c-.554 0-1-.446-1-1V7c0-.554.446-1 1-1z" class="ColorScheme-Text"/>
</svg>
