<svg xmlns="http://www.w3.org/2000/svg" viewBox="0 0 22 22">
    <path fill="#d98c8c" d="m14.834 14-.834.834 1.666 1.666L14 18.166l.834.834 1.666-1.666L18.166 19l.834-.834-1.666-1.666L19 14.834 18.166 14 16.5 15.666 14.834 14z"/>
    <path fill="currentColor" d="M11 3a3 3 0 0 0-3 3H6c-1.108 0-2 .892-2 2v9c0 1.108.892 2 2 2h7v-1H6c-.554 0-1-.446-1-1V8c0-.554.446-1 1-1h2v1.088a1.5 1.5 0 1 0 1 0V7h4v1.088a1.5 1.5 0 1 0 1 0V7h2c.554 0 1 .446 1 1v5h1V8c0-1.108-.892-2-2-2h-2a3 3 0 0 0-3-3zm0 1a2 2 0 0 1 2 2H9a2 2 0 0 1 2-2zM8.5 9a.5.5 0 1 1 0 1 .5.5 0 0 1 0-1zm5 0a.5.5 0 1 1 0 1 .5.5 0 0 1 0-1z" style="color:#fdfdfd;opacity:.7"/>
</svg>
