<svg xmlns="http://www.w3.org/2000/svg" viewBox="0 0 22 22">
    <defs>
        <style id="current-color-scheme" type="text/css">
            .ColorScheme-Text{color:#fdfdfd;opacity:.7}
        </style>
    </defs>
    <path fill="currentColor" d="m16.707 15-.707.707 1.793 1.793L16 19.293l.707.707 1.793-1.793L20.293 20l.707-.707-1.793-1.793L21 15.707 20.293 15 18.5 16.793Z" style="color:#d98c8c"/>
    <path fill="currentColor" d="M4 2C2.338 2 1 3.338 1 5v10c0 1.662 1.338 3 3 3h8c1.662 0 3-1.338 3-3V7l-5-5H9zm0 1h5v5h5v7c0 1.108-.892 2-2 2H4c-1.108 0-2-.892-2-2V5c0-1.108.892-2 2-2zm6 .414L13.586 7H10z" class="ColorScheme-Text"/>
    <path fill="#d98c8c" d="m12 4 1 1h2v5h5v4h1V9l-5-5h-4zm4 1.414L19.586 9H16V5.414zM7.174 18A2.99 2.99 0 0 0 10 20h5v-1h-5a1.995 1.995 0 0 1-1.732-1H7.174z" class="ColorScheme-Text" color="#fdfdfd"/>
</svg>
