<svg xmlns="http://www.w3.org/2000/svg" viewBox="0 0 22 22">
    <style id="current-color-scheme" type="text/css">
        .ColorScheme-Text{color:#fdfdfd;opacity:.7}
    </style>
    <path d="m15.238 4-.352.36-8.97 9.095-.03.046c-.06.099-.27.448-.583 1.086-.314.638-.7 1.511-1.013 2.493L4 18l.92-.29a18.176 18.176 0 0 0 2.493-1.012c.638-.314.986-.52 1.087-.584l.045-.03L18 6.763zm-7.811 9.16 7.778-7.779 1.414 1.414-7.778 7.779zm-.538.73 1.221 1.22-.178.176c.007-.005-.379.227-.961.514-.214.105-.536.221-.834.337l-.274-.273c.116-.298.232-.62.337-.835.287-.582.52-.965.515-.96z" class="ColorScheme-Text" style="fill:currentColor"/>
    <path d="M5 16h12c.554 0 1 .446 1 1s-.446 1-1 1H4z" class="ColorScheme-Text" opacity=".25" style="fill:currentColor"/>
</svg>
