<svg xmlns="http://www.w3.org/2000/svg" viewBox="0 0 22 22">
    <defs>
        <style id="current-color-scheme" type="text/css">
            .ColorScheme-Text{color:#fdfdfd;opacity:.7}
        </style>
    </defs>
    <path fill="currentColor" d="m17.707 11-.707.707L19.293 14H15v1h4.293L17 17.293l.707.707 3.5-3.5-.207-.207z" class="ColorScheme-Text"/>
    <path fill="currentColor" d="M7 1c-1.108 0-2 .892-2 2v1C3.338 4 2 5.338 2 7v8c0 1.662 1.338 3 3 3h10v-1H5a1.99 1.99 0 0 1-1.988-1.887l4.597-3.498.721.55c1.465 1.114 3.876 1.114 5.342 0l.719-.548.812-.617L19 8.111v2.89h1V7c0-1.663-1.338-3-3-3V3c0-1.109-.892-2-2-2zm0 1h8c.554 0 1 .446 1 1v6.158l-3.14 2.389c-1.03.783-2.69.783-3.72 0L6 9.158V3c0-.554.446-1 1-1zm.5 2a.499.499 0 1 0 0 1h7a.499.499 0 1 0 0-1zM5 5v3.398L3.012 6.887A1.99 1.99 0 0 1 5 5zm12 0a1.99 1.99 0 0 1 1.988 1.887L17 8.398zM7.5 7a.499.499 0 1 0 0 1h7a.499.499 0 1 0 0-1zM3 8.11 6.8 11 3 13.889z" class="ColorScheme-Text"/>
</svg>
