<svg xmlns="http://www.w3.org/2000/svg" width="64" height="64">
    <defs>
        <linearGradient id="b" x1="467.17" x2="467.17" y1="546.85" y2="544.72" gradientTransform="translate(-1121.6 -1318.3) scale(2.5125)" gradientUnits="userSpaceOnUse">
            <stop offset="0"/>
            <stop offset="1" stop-opacity=".908"/>
        </linearGradient>
        <linearGradient id="c" x1="26" x2="26" y1="35" y2="7" gradientTransform="translate(-.01 -2.667) scale(1.3333)" gradientUnits="userSpaceOnUse">
            <stop offset="0" stop-color="#678b9e"/>
            <stop offset="1" stop-color="#d0dee6"/>
        </linearGradient>
        <filter id="a" width="1.117" height="1.123" x="-.059" y="-.061" color-interpolation-filters="sRGB">
            <feGaussianBlur stdDeviation="1.075"/>
        </filter>
    </defs>
    <path d="M12.507 20c-2.894 0-4.79 2.156-5.224 4.768L2.061 56.233a3.26 3.26 0 0 0 .017 1.129C2.27 59.96 4.517 62 7.283 62h33.432c2.66 0 4.84-1.887 5.175-4.344.122-.45.147-.929.049-1.423L39.67 24.768C39.153 22.169 37.34 20 34.447 20z" filter="url(#a)" opacity=".15" transform="translate(0 -21.333) scale(1.3333)"/>
    <path fill="#ccc" d="M17.322 4c-3.693 0-6.113 2.874-6.666 6.356L3.992 52.309c-.553 3.481 2.973 6.355 6.666 6.355h42.684c3.693 0 7.219-2.874 6.666-6.356l-6.664-41.953C52.79 6.874 50.37 4 46.678 4H17.322z"/>
    <rect width="55.999" height="13.333" x="4" y="46.665" fill="#333" ry="6.667"/>
    <rect width="26.666" height="2.667" x="16" y="51.999" fill="#99cac4" ry="1.333"/>
    <circle cx="51.999" cy="53.332" r="2.667" fill="url(#b)" opacity=".452"/>
    <g stroke-width="1.333">
        <path fill="#fff" d="M52.003 52.098a.191.191 0 0 0-.14.06.184.184 0 0 0-.058.138v.992a.201.201 0 0 0 .198.198c.054 0 .099-.02.138-.06a.189.189 0 0 0 .06-.138v-.992a.189.189 0 0 0-.06-.138.192.192 0 0 0-.138-.06zm-.57.292c-.054 0-.102 0-.146.039a1.161 1.161 0 0 0-.477.948c0 .16.034.314.097.46.063.148.146.274.252.38a1.21 1.21 0 0 0 .841.347c.161 0 .315-.031.461-.094a1.178 1.178 0 0 0 .633-.632 1.173 1.173 0 0 0-.38-1.409.19.19 0 0 0-.149-.04c-.054 0-.098.033-.13.076a.188.188 0 0 0-.036.146c.007.054.032.1.075.133a.79.79 0 0 1-.78 1.362.792.792 0 0 1-.404-1.083.786.786 0 0 1 .234-.28.2.2 0 0 0 .078-.132.188.188 0 0 0-.04-.146.179.179 0 0 0-.13-.075z"/>
        <path d="M10.666 46.665a6.652 6.652 0 0 0-6.667 6.667c0 .078.008.154.01.231a6.299 6.299 0 0 1 6.31-6.203h43.36a6.299 6.299 0 0 1 6.31 6.203c.002-.077.01-.153.01-.232a6.652 6.652 0 0 0-6.667-6.666H10.666z" opacity=".15"/>
        <path fill="url(#c)" d="M17.322 4c-3.693 0-6.113 2.874-6.666 6.356L5.236 44.48C6.757 41.84 9.438 40 13 40h38c3.562 0 6.242 1.84 7.764 4.48l-5.42-34.124C52.79 6.873 50.37 4 46.678 4H17.322z"/>
    </g>
</svg>
