<svg xmlns="http://www.w3.org/2000/svg" width="32" height="32">
    <linearGradient id="b" x1="9" x2="9" y1="37" y2="40" gradientTransform="matrix(.88842 0 0 1 -3.996 -1)" gradientUnits="userSpaceOnUse">
        <stop offset="0" stop-color="#fcfcfc" stop-opacity=".8"/>
        <stop offset="1" stop-color="#fcfcfc" stop-opacity=".45"/>
    </linearGradient>
    <linearGradient id="a" x1="20" x2="20" y1="26" y2="30" gradientTransform="matrix(.6875 0 0 .75 -.75 12.5)" gradientUnits="userSpaceOnUse">
        <stop offset="0" stop-color="#a0b6cb"/>
        <stop offset="1" stop-color="#0c3d61"/>
    </linearGradient>
    <g stroke-linejoin="round">
        <path fill="#f2f2f2" d="M10 2h20v28H10z"/>
        <g stroke-width="1.429">
            <path d="M10 29h20v1H10z" opacity=".15"/>
            <path fill="#4d4d4d" d="M12 6v1h10V6zm0 2v1h9V8zm0 2v1h10v-1z"/>
            <path fill="#d98c8c" d="M24 6v1h4V6zm0 4v1h4v-1z"/>
            <path fill="#add49f" d="M24 8h4v1h-4z"/>
        </g>
    </g>
    <path fill="#a0b6cb" d="M3 16c-.554 0-1 .446-1 1v8a1 1.5 0 0 1 1 1.5A1 1.5 0 0 1 2 28v1c0 .554.446 1 1 1h20c.554 0 1-.446 1-1V17c0-.554-.446-1-1-1z"/>
    <path fill="url(#a)" d="M2 32h22v3H2z" transform="translate(0 -15)"/>
    <g stroke-linejoin="round" transform="translate(0 -15)">
        <path d="M2 43v1c0 .554.446 1 1 1h20c.554 0 1-.446 1-1v-1c0 .554-.446 1-1 1H3c-.554 0-1-.446-1-1z" opacity=".15"/>
        <rect width="4" height="3" x="4" y="36" fill="url(#b)" rx=".5"/>
        <path fill="#a0b6cb" d="M6 41v1h3v-1zm4 0v1h3v-1zm4 0v1h3v-1zm4 0v1h3v-1z"/>
    </g>
</svg>
