<svg xmlns="http://www.w3.org/2000/svg" viewBox="0 0 32 32">
    <circle cx="16" cy="16" r="15" fill="#ec9b97" fill-rule="evenodd"/>
    <path fill="#000" d="M16 6c-.554 0-1 .446-1 1v7c0 .554.446 1 1 1s1-.446 1-1V7c0-.554-.446-1-1-1z" style="fill:#000;fill-opacity:1;color:#fdfdfd;opacity:.7"/>
    <path fill="#000" fill-rule="evenodd" d="m22.332 8.26-.633.775A9 9 0 0 1 25 16a9 9 0 0 1-9 9 9 9 0 0 1-9-9 9 9 0 0 1 3.316-6.945l-.638-.782A10 10 0 0 0 6 16a10 10 0 0 0 10 10 10 10 0 0 0 10-10 10 10 0 0 0-3.668-7.74z" style="fill:#000;fill-opacity:1"/>
</svg>
