<svg xmlns="http://www.w3.org/2000/svg" id="svg143" version="1.1" viewBox="0 0 32 32">
    <style id="current-color-scheme" type="text/css">
        .ColorScheme-Text{color:#fdfdfd;opacity:.7}
    </style>
    <path id="path139" fill="#ffe7a9" d="M16 1C7.724 1 1 7.724 1 16s6.724 15 15 15 15-6.724 15-15S24.276 1 16 1z" style="fill:#a9b8d3;fill-opacity:1"/>
    <path id="path141" fill="#000" d="M21 6v1h2.293L21 9.293V10h4V9h-2.293L25 6.707V6h-.707zm-10.783-.017-.867.5 2.146 3.717-3.615-.969-.258.967 4.58 1.227L14.844 16H9.707l-3.353-3.354-.707.707L8.293 16H4v1h4.293l-2.646 2.646.707.707L9.707 17h5.137l-2.442 4.232-4.58 1.226.258.967 3.615-.968-2.147 3.716.867.5 2.147-3.716.969 3.615.964-.26-1.226-4.58L16 17l2.93 5.075-1.227 4.58.965.26.969-3.615 2.146 3.717.867-.5-2.146-3.717 3.615.969.258-.967-4.58-1.227L17.157 17h5.136l3.354 3.353.707-.707L23.707 17H28v-1h-4.293l2.647-2.647-.707-.707L22.293 16H16v-.002l-2.93-5.074 1.227-4.58-.965-.26-.969 3.616zM16 9v1h2.293L16 12.293V13h4v-1h-2.293L20 9.707V9h-.707z" color="#fdfdfd" style="fill:#000;fill-opacity:1"/>
</svg>
