<?xml version="1.0" encoding="UTF-8" standalone="no"?>
<svg
   width="32"
   height="32"
   version="1.1"
   id="svg10"
   sodipodi:docname="dialog-information.svg"
   inkscape:version="1.2.2 (b0a8486541, 2022-12-01)"
   xmlns:inkscape="http://www.inkscape.org/namespaces/inkscape"
   xmlns:sodipodi="http://sodipodi.sourceforge.net/DTD/sodipodi-0.dtd"
   xmlns="http://www.w3.org/2000/svg"
   xmlns:svg="http://www.w3.org/2000/svg">
  <defs
     id="defs14" />
  <sodipodi:namedview
     id="namedview12"
     pagecolor="#ffffff"
     bordercolor="#000000"
     borderopacity="0.25"
     inkscape:showpageshadow="2"
     inkscape:pageopacity="0.0"
     inkscape:pagecheckerboard="0"
     inkscape:deskcolor="#d1d1d1"
     showgrid="false"
     inkscape:zoom="23.21875"
     inkscape:cx="14.298789"
     inkscape:cy="16.021534"
     inkscape:window-width="1920"
     inkscape:window-height="1021"
     inkscape:window-x="0"
     inkscape:window-y="0"
     inkscape:window-maximized="1"
     inkscape:current-layer="svg10" />
  <path
     d="M16 2C7.723 2 1 8.723 1 17s6.723 15 15 15 15-6.723 15-15S24.277 2 16 2z"
     color="#000"
     opacity=".15"
     overflow="visible"
     id="path2" />
  <path
     fill="#badbed"
     d="M16 1C7.723 1 1 7.723 1 16s6.723 15 15 15 15-6.723 15-15S24.277 1 16 1z"
     style="fill:#a0b6cb;fill-opacity:1"
     id="path4" />
  <path
     fill="#000"
     d="M11.981 15.788c.192.52.407.94.865.365.569-.339 2.473-1.82 2.283-.369-.61 2.687-1.352 5.346-1.92 8.04-.593 1.476.754 2.811 2.161 1.852 1.496-.617 2.783-1.621 4.098-2.542-.18-.44-.3-1.072-.795-.497-.65.295-2.072 1.688-2.337.54.547-2.91 1.56-5.712 2.208-8.598.595-1.327-.378-3.004-1.834-1.906-1.746.76-3.205 2.002-4.729 3.115zm6.477-9.786c-1.78-.094-2.711 2.776-1.02 3.562 1.374.563 2.868-.845 2.533-2.252-.104-.733-.762-1.334-1.513-1.31z"
     style="fill:#000000;fill-opacity:0.69999999"
     id="path6" />
  <path
     fill="#000"
     d="M16 1C7.723 1 1 7.723 1 16c0 .168.006.334.012.5C1.276 8.455 7.89 2 16 2s14.724 6.455 14.988 14.5c.005-.166.011-.332.011-.5 0-8.277-6.723-15-15-15z"
     opacity=".15"
     id="path8" />
</svg>
