<?xml version="1.0" encoding="UTF-8" standalone="no"?>
<svg
   width="32"
   height="32"
   version="1.1"
   id="svg10"
   sodipodi:docname="dialog-error.svg"
   inkscape:version="1.2.2 (b0a8486541, 2022-12-01)"
   xmlns:inkscape="http://www.inkscape.org/namespaces/inkscape"
   xmlns:sodipodi="http://sodipodi.sourceforge.net/DTD/sodipodi-0.dtd"
   xmlns="http://www.w3.org/2000/svg"
   xmlns:svg="http://www.w3.org/2000/svg">
  <defs
     id="defs14" />
  <sodipodi:namedview
     id="namedview12"
     pagecolor="#ffffff"
     bordercolor="#000000"
     borderopacity="0.25"
     inkscape:showpageshadow="2"
     inkscape:pageopacity="0.0"
     inkscape:pagecheckerboard="0"
     inkscape:deskcolor="#d1d1d1"
     showgrid="false"
     inkscape:zoom="23.21875"
     inkscape:cx="15.117093"
     inkscape:cy="15.978466"
     inkscape:window-width="1920"
     inkscape:window-height="1021"
     inkscape:window-x="0"
     inkscape:window-y="0"
     inkscape:window-maximized="1"
     inkscape:current-layer="svg10" />
  <path
     d="M16 2C7.723 2 1 8.723 1 17s6.723 15 15 15 15-6.723 15-15S24.277 2 16 2z"
     color="#000"
     opacity=".15"
     overflow="visible"
     id="path2" />
  <path
     fill="#f09da5"
     d="M16 1C7.723 1 1 7.723 1 16s6.723 15 15 15 15-6.723 15-15S24.277 1 16 1z"
     color="#000"
     overflow="visible"
     style="fill:#ec9b97"
     id="path4" />
  <path
     fill="#000"
     d="M16 6a2 2 0 0 0-2 2c0 2 .667 6.667 1.333 12h1.334C17.333 14.667 18 10 18 8a2 2 0 0 0-2-2zm0 16a2 2 0 1 0 0 4 2 2 0 0 0 0-4z"
     style="fill:#000000;fill-opacity:0.69999999"
     id="path6" />
  <path
     fill="#000"
     d="M16 1C7.723 1 1 7.723 1 16c0 .168.006.334.012.5C1.276 8.455 7.89 2 16 2s14.724 6.455 14.988 14.5c.005-.166.011-.332.011-.5 0-8.277-6.723-15-15-15z"
     opacity=".15"
     id="path8" />
</svg>
