<svg xmlns="http://www.w3.org/2000/svg" width="32" height="32">
    <path fill="#ffe7a9" d="M8 16A10 10 0 0 1 18 6a10 10 0 0 1 10 10 10 10 0 0 1-10 10A10 10 0 0 1 8 16z"/>
    <path fill="#ffe7a9" d="M18 2c-.554 0-1 .446-1 1v1c0 .554.446 1 1 1s1-.446 1-1V3c0-.554-.446-1-1-1zM8.809 5.807a1 1 0 0 0-.71 1.709l.71.707a1 1 0 1 0 1.414-1.416L9.516 6.1a.996.996 0 0 0-.707-.293zm18.385 0a1 1 0 0 0-.71.293l-.706.707a1 1 0 1 0 1.416 1.416l.707-.707a1 1 0 0 0-.707-1.71zM5 15c-.554 0-1 .446-1 1s.446 1 1 1h1c.554 0 1-.446 1-1s-.446-1-1-1zm25 0c-.554 0-1 .446-1 1s.446 1 1 1h1c.554 0 1-.446 1-1s-.446-1-1-1zM9.517 23.484a.996.996 0 0 0-.707.293l-.71.707A1 1 0 1 0 9.517 25.9l.708-.709a.998.998 0 0 0-.707-1.707zm16.969 0a.998.998 0 0 0-.707 1.707l.707.71a1 1 0 1 0 1.416-1.417l-.707-.707a1 1 0 0 0-.71-.293zM18 27c-.554 0-1 .446-1 1v1c0 .554.446 1 1 1s1-.446 1-1v-1c0-.554-.446-1-1-1z"/>
    <path d="M7.906 15A7 7 0 0 0 1 22a7 7 0 0 0 7 7h6a4.997 4.997 0 0 0 .332-9.984A7 7 0 0 0 8 15a7 7 0 0 0-.094 0z" opacity=".9" style="fill:#f2f2f2"/>
</svg>
