<svg xmlns="http://www.w3.org/2000/svg" width="32" height="32">
    <g transform="translate(0 -1020.4)">
        <path fill="#ffe7a9" d="M9 1036.4a9 9 0 0 1 9-9 9 9 0 0 1 9 9 9 9 0 0 1-9 9 9 9 0 0 1-9-9zm9-14c-.554 0-1 .446-1 1v1c0 .554.446 1 1 1s1-.446 1-1v-1c0-.554-.446-1-1-1zm-9.191 3.807a1 1 0 0 0-.71 1.709l.71.707a1 1 0 1 0 1.414-1.416l-.707-.707a.996.996 0 0 0-.707-.293zm18.385 0a1 1 0 0 0-.71.293l-.706.707a1 1 0 1 0 1.416 1.416l.707-.707a1 1 0 0 0-.707-1.71zM5 1035.4c-.554 0-1 .446-1 1s.446 1 1 1h1c.554 0 1-.446 1-1s-.446-1-1-1zm25 0c-.554 0-1 .446-1 1s.446 1 1 1h1c.554 0 1-.446 1-1s-.446-1-1-1zm-20.484 8.484a.996.996 0 0 0-.707.293l-.71.707a1 1 0 1 0 1.416 1.416l.708-.709a.998.998 0 0 0-.707-1.707zm16.969 0a.998.998 0 0 0-.707 1.707l.707.71a1 1 0 1 0 1.416-1.417l-.707-.707a1 1 0 0 0-.71-.293zM18 1047.4c-.554 0-1 .446-1 1v1c0 .554.446 1 1 1s1-.446 1-1v-1c0-.554-.446-1-1-1z"/>
        <rect width="2" height="3" x="9" y="1047.4" fill="#a0b6cb" ry="1"/>
        <path d="M7.906 11A7 7 0 0 0 1 18a7 7 0 0 0 7 7 7 7 0 0 0 .094 0H14a4.997 4.997 0 0 0 .332-9.984A7 7 0 0 0 8 11a7 7 0 0 0-.094 0z" opacity=".9" style="fill:#f2f2f2" transform="translate(0 1020.4)"/>
    </g>
</svg>
