<svg xmlns="http://www.w3.org/2000/svg" width="32" height="32">
    <path fill="#ececec" d="M7 15A12 12 0 0 1 19 3a12 12 0 0 1 12 12 12 12 0 0 1-12 12A12 12 0 0 1 7 15z"/>
    <g fill="#dbdbe3" transform="translate(0 -1020.4)">
        <circle cx="14.5" cy="1029.9" r="1.5"/>
        <circle cx="23.5" cy="1037.9" r="2.5"/>
        <circle cx="14.5" cy="1036.9" r="2.5"/>
        <circle cx="17.5" cy="1041.9" r="1.5"/>
        <circle cx="21.5" cy="1028.9" r=".5"/>
    </g>
    <path d="M10.98 9A10 10 0 0 0 1 19a10 10 0 0 0 10 10h9a7 7 0 0 0 7-7 7 7 0 0 0-6.834-6.998A10 10 0 0 0 11 9a10 10 0 0 0-.02 0z" opacity=".9" style="fill:#e6e6e6"/>
</svg>
