<svg xmlns="http://www.w3.org/2000/svg" width="32" height="32">
    <path d="M13 4A10 10 0 0 0 3 14a10 10 0 0 0 10 10h9a7 7 0 0 0 7-7 7 7 0 0 0-6.836-6.996A10 10 0 0 0 13 4z" style="fill:#e6e6e6"/>
    <rect width="2" height="3" x="12" y="26" fill="#a0b6cb" ry="1"/>
    <rect width="2" height="3" x="20" y="26" fill="#a0b6cb" ry="1"/>
    <rect width="3" height="3" x="16" y="22" fill="#dbdbe3" ry="1.5"/>
    <rect width="3" height="3" x="24" y="25" fill="#dbdbe3" ry="1.5"/>
    <rect width="3" height="3" x="20" y="18" fill="#dbdbe3" ry="1.5"/>
    <rect width="3" height="3" x="6" y="22" fill="#dbdbe3" ry="1.5"/>
    <rect width="3" height="3" x="10" y="18" fill="#dbdbe3" ry="1.5"/>
    <rect width="2" height="4" x="16" y="26" fill="#a0b6cb" ry="1"/>
</svg>
