<svg xmlns="http://www.w3.org/2000/svg" width="32" height="32">
    <g transform="translate(0 -1020.4)">
        <path fill="#ececec" d="M7 1035.4a12 12 0 0 1 12-12 12 12 0 0 1 12 12 12 12 0 0 1-12 12 12 12 0 0 1-12-12z"/>
        <g fill="#dbdbe3">
            <circle cx="14.5" cy="1029.9" r="1.5"/>
            <circle cx="23.5" cy="1037.9" r="2.5"/>
            <circle cx="14.5" cy="1036.9" r="2.5"/>
            <circle cx="17.5" cy="1041.9" r="1.5"/>
            <circle cx="21.5" cy="1028.9" r=".5"/>
        </g>
        <path d="M7.906 11A7 7 0 0 0 1 18a7 7 0 0 0 7 7h6a4.997 4.997 0 0 0 .332-9.984A7 7 0 0 0 8 11a7 7 0 0 0-.094 0z" opacity=".9" style="fill:#e6e6e6" transform="translate(0 1020.4)"/>
        <rect width="3" height="3" x="3" y="1045.4" fill="#dbdbe3" ry="1.5"/>
        <rect width="3" height="3" x="11" y="1045.4" fill="#dbdbe3" ry="1.5"/>
        <rect width="3" height="3" x="7" y="1047.4" fill="#dbdbe3" ry="1.5"/>
    </g>
</svg>
