<svg xmlns="http://www.w3.org/2000/svg" width="24" height="24">
    <path fill="#d98c8c" d="m15.834 15-.834.834 1.666 1.666L15 19.166l.834.834 1.666-1.666L19.166 20l.834-.834-1.666-1.666L20 15.834 19.166 15 17.5 16.666z"/>
    <path fill="currentColor" d="M12 4a3 3 0 0 0-3 3H7c-1.108 0-2 .892-2 2v9c0 1.108.892 2 2 2h7v-1H7c-.554 0-1-.446-1-1V9c0-.554.446-1 1-1h2v1.088a1.5 1.5 0 1 0 1 0V8h4v1.088a1.5 1.5 0 1 0 1 0V8h2c.554 0 1 .446 1 1v5h1V9c0-1.108-.892-2-2-2h-2a3 3 0 0 0-3-3zm0 1a2 2 0 0 1 2 2h-4a2 2 0 0 1 2-2zm-2.5 5a.5.5 0 1 1 0 1 .5.5 0 0 1 0-1zm5 0a.5.5 0 1 1 0 1 .5.5 0 0 1 0-1z" style="color:#fdfdfd;opacity:.7"/>
</svg>
