<svg xmlns="http://www.w3.org/2000/svg" width="24" height="24">
    <style id="current-color-scheme" type="text/css">
        .ColorScheme-Text{color:#fdfdfd;opacity:.7}
    </style>
    <path fill="currentColor" d="M16.5 13 13 16.5l.707.707L16 14.914V20h1v-5.086l2.293 2.293L20 16.5l-3.293-3.293z" class="ColorScheme-Text"/>
    <path fill="currentColor" d="M7 4C5.338 4 4 5.338 4 7v10c0 1.662 1.338 3 3 3h6v-1H7c-1.108 0-2-.892-2-2V7c0-1.108.892-2 2-2h5v1h1V5h4c1.108 0 2 .892 2 2v6h1V7c0-1.662-1.338-3-3-3H7zm5 2h-1v1h1V6zm0 1v1h1V7h-1zm0 1h-1v1h1V8zm0 1v1h1V9h-1zm0 1h-1v2a1 1 0 0 0 1 1 1 1 0 0 0 1-1v-1h-1v-1z" class="ColorScheme-Text"/>
</svg>
