<svg xmlns="http://www.w3.org/2000/svg" viewBox="0 0 24 24">
    <defs>
        <style id="current-color-scheme" type="text/css">
            .ColorScheme-Text{color:#fdfdfd;opacity:.7}
        </style>
    </defs>
    <path fill="currentColor" d="m17.295 14.293-4.99 4.982-.594-.591 4.992-4.985.592.594M19 13.996 17 12l-6 5.988.008.002L11 19.982h2.02l-.006-.002z" class="ColorScheme-Text"/>
    <path fill="currentColor" d="M8 4C6.338 4 5 5.338 5 7v10c0 1.662 1.338 3 3 3h2v-1H8c-1.108 0-2-.892-2-2V7c0-1.108.892-2 2-2h6v2c0 1.108.892 2 2 2h2v3h1V8l-4-4z" class="ColorScheme-Text"/>
</svg>
