<svg xmlns="http://www.w3.org/2000/svg" viewBox="0 0 24 24">
    <defs>
        <style id="current-color-scheme" type="text/css">
            .ColorScheme-Text{color:#fdfdfd;opacity:.7}
        </style>
    </defs>
    <path fill="currentColor" d="M5 12v2h2v-2H6h12-1v2h2v-2M9 12v2h2v-2H9m4 0v2h2v-2h-2m-6 3v2h2v-2H7m4 0v2h2v-2h-2m4 0v2h2v-2h-2M5 18v2h2v-2H5m4 0v2h2v-2H9m4 0v2h2v-2h-2m4 0v2h2v-2h-2" class="ColorScheme-Text"/>
    <path fill="currentColor" d="M8 4C6.338 4 5 5.338 5 7v5h1V7c0-1.108.892-2 2-2h6v2c0 1.108.892 2 2 2h2v4h1V8l-4-4z" class="ColorScheme-Text"/>
</svg>
