<svg xmlns="http://www.w3.org/2000/svg" viewBox="0 0 24 24">
    <defs>
        <style id="current-color-scheme" type="text/css">
            .ColorScheme-Text{color:#fdfdfd;opacity:.7}
        </style>
    </defs>
    <path fill="currentColor" d="m17 14-.574 1.613-1.547-.734.734 1.547L14 17l1.613.574-.734 1.547 1.547-.734L17 20l.574-1.613 1.547.734-.734-1.547L20 17l-1.613-.574.734-1.547-1.547.734z" class="ColorScheme-Text"/>
    <path fill="currentColor" d="M8 4C6.338 4 5 5.338 5 7v10c0 1.662 1.338 3 3 3h6v-1H8c-1.108 0-2-.892-2-2V7c0-1.108.892-2 2-2h6v2c0 1.108.892 2 2 2h2v5h1V8l-4-4z" class="ColorScheme-Text"/>
</svg>
