<svg xmlns="http://www.w3.org/2000/svg" viewBox="0 0 24 24">
    <defs>
        <style id="current-color-scheme" type="text/css">
            .ColorScheme-Text{color:#fdfdfd;opacity:.7}
        </style>
    </defs>
    <g fill="currentColor" class="ColorScheme-Text">
        <path d="M5 5c-1.108 0-2 .892-2 2v12c0 1.108.892 2 2 2h12c1.108 0 2-.892 2-2V9l-4-4zm0 1h2v3c0 1.108.892 2 2 2h4c1.108 0 2-.892 2-2V6.414l3 3V19c0 .554-.446 1-1 1v-2c0-1.108-.892-2-2-2H7c-1.108 0-2 .892-2 2v2c-.554 0-1-.446-1-1V7c0-.554.446-1 1-1zm3 0h3v4H9c-.554 0-1-.446-1-1zM7 17h8c.554 0 1.013.446 1 1v2H6v-2c0-.554.446-1 1-1z" class="ColorScheme-Text"/>
        <path d="M7 3c-1.108 0-2 .892-2 2h1c0-.554.446-1 1-1h2v1h1V4h3v1h2l2 2V4.414l3 3V17c0 .554-.446 1-1 1v1c1.108 0 2-.892 2-2V7l-4-4z" class="ColorScheme-Text"/>
    </g>
</svg>
