<svg xmlns="http://www.w3.org/2000/svg" viewBox="0 0 24 24">
    <defs>
        <style id="current-color-scheme" type="text/css">
            .ColorScheme-Text{color:#fdfdfd;opacity:.7}
        </style>
    </defs>
    <path fill="currentColor" d="m17 14-.574 1.613-1.547-.734.734 1.547L14 17l1.613.574-.734 1.547 1.547-.734L17 20l.574-1.613 1.547.734-.734-1.547L20 17l-1.613-.574.734-1.547-1.547.734z" class="ColorScheme-Text"/>
    <path fill="currentColor" d="M6 4c-1.108 0-2 .892-2 2v12c0 1.108.892 2 2 2h8v-1H7v-2c0-.554.446-1 1-1h6v-1H8c-1.108 0-2 .892-2 2v2c-.554 0-1-.446-1-1V6c0-.554.446-1 1-1h2v3c0 1.108.892 2 2 2h4c1.108 0 2-.892 2-2V5.414l3 3V14h1V8l-4-4zm3 1h3v4h-2c-.554 0-1-.446-1-1z" class="ColorScheme-Text"/>
</svg>
