<svg xmlns="http://www.w3.org/2000/svg" viewBox="0 0 24 24">
    <defs>
        <style id="current-color-scheme" type="text/css">
            .ColorScheme-Text{color:#fdfdfd;opacity:.7}
        </style>
    </defs>
    <path fill="currentColor" d="M11.5 7c-.277 0-.5.223-.5.5v6.793l-1.268-1.268a.499.499 0 1 0-.707.707l2.121 2.122a.497.497 0 0 0 .541.109.496.496 0 0 0 .167-.11l2.12-2.12a.499.499 0 1 0-.706-.708L12 14.293V7.5c0-.277-.223-.5-.5-.5z" class="ColorScheme-Text"/>
    <path fill="currentColor" d="M11.387 3A8.5 8.5 0 0 0 3 11.5a8.5 8.5 0 0 0 8.5 8.5 8.5 8.5 0 0 0 8.5-8.5A8.5 8.5 0 0 0 11.5 3a8.5 8.5 0 0 0-.113 0zm.076 1a7.5 7.5 0 0 1 .037 0 7.5 7.5 0 0 1 7.5 7.5 7.5 7.5 0 0 1-7.5 7.5A7.5 7.5 0 0 1 4 11.5 7.5 7.5 0 0 1 11.463 4z" class="ColorScheme-Text"/>
</svg>
