<svg xmlns="http://www.w3.org/2000/svg" viewBox="0 0 24 24">
    <defs id="defs3051">
        <style id="current-color-scheme" type="text/css">
            .ColorScheme-Highlight{color:#a0b6cb}
        </style>
    </defs>
    <path d="M3 3v16h16V3H3zm1 1h14v14H4V4z" style="fill:currentColor;fill-opacity:1;stroke:none;color:#fdfdfd;opacity:.7" transform="translate(1 1)"/>
    <path d="M10 4v5h2V4h-2zm0 9v5h2v-5h-2z" class="ColorScheme-Highlight" style="fill:#d98c8c;fill-opacity:1;stroke:none" transform="translate(1 1)"/>
    <path d="M11 8a3 3 0 1 0 0 6 3 3 0 0 0 0-6zm0 2a1 1 0 1 1 0 2 1 1 0 0 1 0-2z" class="ColorScheme-Highlight" style="fill:currentColor;fill-opacity:1;stroke:none" transform="translate(1 1)"/>
</svg>
