<svg xmlns="http://www.w3.org/2000/svg" width="24" height="24">
    <path fill="currentColor" d="M8 3.5c-1.108 0-2 .892-2 2v1c-1.662 0-3 1.338-3 3v8c0 1.662 1.338 3 3 3h12c1.662 0 3-1.338 3-3v-8c0-1.662-1.338-3-3-3v-1c0-1.108-.892-2-2-2zm0 1h8c.554 0 1 .446 1 1v6.158l-3.14 2.389c-1.03.783-2.69.783-3.72 0L7 11.658V5.5c0-.554.446-1 1-1zm.5 2a.499.499 0 1 0 0 1h7a.499.499 0 1 0 0-1zM6 7.5v3.398L4.012 9.387A1.99 1.99 0 0 1 6 7.5zm12 0a1.99 1.99 0 0 1 1.988 1.887L18 10.898zm-9.5 2a.499.499 0 1 0 0 1h7a.499.499 0 1 0 0-1zM4 10.61l3.8 2.89L4 16.389zm16 .001v5.778l-3.797-2.89L20 10.612zM8.609 14.115l.72.549c1.466 1.114 3.877 1.114 5.343 0l.718-.547 4.598 3.496A1.99 1.99 0 0 1 18 19.5H6a1.99 1.99 0 0 1-1.989-1.887l4.598-3.498z" style="color:#fdfdfd;opacity:.7"/>
</svg>
