<svg xmlns="http://www.w3.org/2000/svg" width="24" height="24">
    <path fill="currentColor" d="M6 5C4.338 5 3 6.338 3 8v8c0 1.662 1.338 3 3 3h12c1.662 0 3-1.338 3-3V8c0-1.662-1.338-3-3-3zm0 1h12a1.99 1.99 0 0 1 1.988 1.887l-6.129 4.66c-1.03.783-2.688.783-3.718 0l-6.13-4.66A1.99 1.99 0 0 1 6 6zM4 9.11 7.8 12 4 14.889zm16 .001v5.778L16.203 12 20 9.111zM8.609 12.615l.72.55c1.466 1.113 3.877 1.113 5.343 0l.718-.548 4.598 3.496A1.99 1.99 0 0 1 18 18H6a1.99 1.99 0 0 1-1.989-1.887l4.598-3.498z" style="color:#fdfdfd;opacity:.7"/>
</svg>
