<svg xmlns="http://www.w3.org/2000/svg" width="24" height="24">
    <path fill="currentColor" d="M11.5 3c-.277 0-.5.223-.5.5v6.793L9.732 9.026a.499.499 0 1 0-.707.707l2.121 2.12a.497.497 0 0 0 .541.11.496.496 0 0 0 .167-.11l2.12-2.12a.499.499 0 1 0-.706-.707L12 10.293V3.5c0-.277-.223-.5-.5-.5zM8 7.03a3.303 3.303 0 0 0-2.17 1.22l-2.625 3.428a1 1 0 0 0-.205.607V18c0 1.108.892 2 2 2h13a1.997 1.997 0 0 0 2-2v-5.715a1 1 0 0 0-.205-.607L17.17 8.25A3.303 3.303 0 0 0 15 7.03v1.015c.763.104 1.124.485 1.375.813L18.781 12H13.95a2.5 2.5 0 0 1-2.45 2 2.5 2.5 0 0 1-2.444-2H4.219l2.406-3.142c.25-.328.612-.709 1.375-.813V7.029zM4 13h4.342a3.5 3.5 0 0 0 3.158 2 3.5 3.5 0 0 0 3.152-2H19v5c0 .554-.446 1-1 1H5c-.554 0-1-.446-1-1z" style="color:#fdfdfd;opacity:.7"/>
</svg>
