<svg xmlns="http://www.w3.org/2000/svg" viewBox="0 0 24 24">
    <defs>
        <style id="current-color-scheme" type="text/css">
            .ColorScheme-Text{color:#fdfdfd;opacity:.7}
        </style>
    </defs>
    <path fill="currentColor" d="M16.5 14a3.5 3.5 0 0 0-3.5 3.5 3.5 3.5 0 0 0 3.5 3.5 3.5 3.5 0 0 0 3.5-3.5 3.5 3.5 0 0 0-3.5-3.5zm0 1 .479 1.346 1.289-.614-.614 1.29L19 17.5l-1.346.479.614 1.289-1.29-.614L16.5 20l-.479-1.346-1.289.614.614-1.29L14 17.5l1.346-.478-.614-1.29 1.29.614z" class="ColorScheme-Text"/>
    <path fill="currentColor" d="M12 3a2 2 0 0 0-2 2H8C6.338 5 5 6.338 5 8v9c0 1.662 1.338 3 3 3h4v-1H8c-1.108 0-2-.892-2-2V8c0-1.108.892-2 2-2h2v1S9 7 9 8h6c0-.75-.563-.953-.844-1H14V6h2c1.108 0 2 .892 2 2v5h1V8c0-1.662-1.338-3-3-3v.006c-.02 0-.04-.006-.06-.006H14c0-.138-.005-.276-.031-.406A2.008 2.008 0 0 0 11.999 3zm-.012 1A1 1 0 0 1 12 4c.414 0 .754.266.906.625A.94.94 0 0 1 13 5c0 .888-1.072 1.335-1.703.71-.632-.623-.197-1.7.691-1.71z" class="ColorScheme-Text"/>
</svg>
