<svg xmlns="http://www.w3.org/2000/svg" width="22" height="22">
    <path fill="currentColor" d="M9 3c-.554 0-1 .446-1 1v1H3.5a.499.499 0 1 0 0 1h.498l.547 11.06C4.606 18.077 5.45 19 6.543 19h7.914c1.092 0 1.937-.924 1.998-1.94L17.002 6h.498a.499.499 0 1 0 0-1H13V4c0-.554-.446-1-1-1H9zm0 1h3v1H9zM7.5 8c.277 0 .5.223.5.5v7a.499.499 0 1 1-1 0v-7c0-.277.223-.5.5-.5zm3 0c.277 0 .5.223.5.5v7a.499.499 0 1 1-1 0v-7c0-.277.223-.5.5-.5zm3 0c.277 0 .5.223.5.5v7a.499.499 0 1 1-1 0v-7c0-.277.223-.5.5-.5z" style="color:#050505;opacity:.7"/>
</svg>
