<svg xmlns="http://www.w3.org/2000/svg" width="22" height="22" version="1">
    <defs>
        <filter id="a" width="1.294" height="1.294" x="-.147" y="-.147" color-interpolation-filters="sRGB">
            <feGaussianBlur stdDeviation=".259"/>
        </filter>
    </defs>
    <rect width="4.234" height="4.234" x="-5.292" y="-5.027" filter="url(#a)" opacity=".25" rx="2.117" ry="2.117" transform="matrix(0 -3.7794 -3.7794 0 0 0)"/>
    <g transform="matrix(.4 0 0 .4 1.4 1.4)">
        <circle cx="24" cy="24" r="20" fill="#b8d65c" style="fill:#c5d691;fill-opacity:1"/>
        <path fill-opacity=".46" d="M26 38h-4v-4h4zm4.14-15.5-1.8 1.84C26.9 25.8 26 27 26 30h-4v-1c0-2.2.9-4.2 2.34-5.66l2.48-2.52A3.91 3.91 0 0 0 28 18c0-2.2-1.8-4-4-4s-4 1.8-4 4h-4c0-4.42 3.58-8 8-8s8 3.58 8 8c0 1.76-.72 3.36-1.86 4.5z"/>
    </g>
    <path d="M11 3a7.982 7.982 0 0 0-7.984 8.5C3.272 7.303 6.736 4 11 4s7.728 3.303 7.984 7.5A7.982 7.982 0 0 0 11 3z" opacity=".2"/>
</svg>
