<svg xmlns="http://www.w3.org/2000/svg" width="22" height="22" viewBox="0 0 5.821 5.821">
    <defs>
        <filter id="a" width="1.294" height="1.294" x="-.147" y="-.147" color-interpolation-filters="sRGB">
            <feGaussianBlur stdDeviation=".259"/>
        </filter>
    </defs>
    <rect width="4.234" height="4.234" x="-5.292" y="-5.027" filter="url(#a)" opacity=".25" rx="2.117" ry="2.117" transform="matrix(0 -.99999 -.99999 0 0 0)"/>
    <g transform="translate(0 -291.18)">
        <g transform="translate(3.969 1.588)">
            <rect width="4.233" height="4.233" x="-294.62" y="-1.058" fill="#eeac7c" rx="2.117" ry="2.117" transform="matrix(0 -1 -1 0 0 0)"/>
            <rect width="1.323" height="1.852" x="-1.72" y="291.31" fill="none" stroke="#000" stroke-linejoin="round" stroke-opacity=".46" stroke-width=".265" ry=".661"/>
            <path fill="#eeac7c" d="M-2.117 292.237H0v1.323h-2.117z"/>
            <path fill-opacity=".46" d="M-2.117 292.237H0v1.323h-2.117z"/>
        </g>
        <rect width="1.058" height=".265" x="1.852" y="293.56" fill="#eeac7c" paint-order="markers stroke fill" ry="0"/>
    </g>
    <path d="M2.91.794A2.112 2.112 0 0 0 .798 3.043c.068-1.11.984-1.985 2.113-1.985s2.044.874 2.112 1.985A2.112 2.112 0 0 0 2.91.794z" opacity=".2"/>
</svg>
