<svg xmlns="http://www.w3.org/2000/svg" width="22" height="22" viewBox="0 0 5.821 5.821">
    <defs>
        <filter id="a" width="1.294" height="1.294" x="-.147" y="-.147" color-interpolation-filters="sRGB">
            <feGaussianBlur stdDeviation=".259"/>
        </filter>
    </defs>
    <rect width="4.234" height="4.234" x="-5.292" y="-5.027" filter="url(#a)" opacity=".25" rx="2.117" ry="2.117" transform="matrix(0 -.99999 -.99999 0 0 0)"/>
    <g transform="translate(.53 -290.92)">
        <rect width="4.233" height="4.233" x="-295.94" y="-4.498" fill="#c5b3cd" rx="2.117" ry="2.117" transform="matrix(0 -1 -1 0 0 0)"/>
        <path fill-opacity=".46" d="M2.778 292.767a.397.397 0 0 0-.397.397c0 .03.006.058.013.086l-.426.265a.397.397 0 1 0 0 .62l.426.265a.38.38 0 0 0-.013.086.397.397 0 1 0 .15-.31l-.427-.264a.38.38 0 0 0 .013-.087.38.38 0 0 0-.013-.087l.426-.264a.397.397 0 1 0 .248-.707z"/>
    </g>
    <path d="M2.91.794A2.112 2.112 0 0 0 .798 3.043c.068-1.11.984-1.985 2.113-1.985s2.044.874 2.112 1.985A2.112 2.112 0 0 0 2.91.794z" opacity=".2"/>
</svg>
