<svg xmlns="http://www.w3.org/2000/svg" width="22" height="22">
    <defs>
        <filter id="filter976" width="1.294" height="1.294" x="-.147" y="-.147" color-interpolation-filters="sRGB">
            <feGaussianBlur stdDeviation=".259"/>
        </filter>
    </defs>
    <style id="current-color-scheme" type="text/css">
        .ColorScheme-Text{color:#232629}
    </style>
    <rect width="4.234" height="4.234" x="-5.292" y="-5.027" filter="url(#filter976)" opacity=".25" rx="2.117" ry="2.117" transform="matrix(0 -3.7794 -3.7794 0 0 0)"/>
    <rect width="16" height="16" x="-18.992" y="-18.998" fill="#d3a5a5" stroke-width="2.749" rx="7.999" ry="7.999" transform="matrix(0 -1 -1 0 0 0)"/>
    <path fill="none" stroke="#000" stroke-linecap="square" stroke-opacity=".46" stroke-width="1.817" d="m8.09 8.107 5.817 5.816m.003-5.816-5.822 5.816"/>
    <path stroke-width="3.78" d="M11 3a7.982 7.982 0 0 0-7.984 8.5C3.272 7.303 6.736 4 11 4s7.728 3.303 7.984 7.5A7.982 7.982 0 0 0 11 3z" opacity=".2"/>
</svg>
