<svg xmlns="http://www.w3.org/2000/svg" width="22" height="22" viewBox="0 0 5.821 5.821">
    <defs>
        <filter id="a" width="1.294" height="1.294" x="-.147" y="-.147" color-interpolation-filters="sRGB">
            <feGaussianBlur stdDeviation=".259"/>
        </filter>
    </defs>
    <rect width="4.234" height="4.234" x="-5.292" y="-5.027" filter="url(#a)" opacity=".25" rx="2.117" ry="2.117" transform="matrix(0 -.99999 -.99999 0 0 0)"/>
    <g transform="translate(3.295 -210.78) scale(.72727)">
        <rect width="5.821" height="5.821" x="-296.74" y="-2.381" fill="#d67171" rx="2.91" ry="2.91" transform="matrix(0 -1 -1 0 0 0)"/>
        <path fill="none" stroke="#000" stroke-linecap="square" stroke-opacity=".46" stroke-width=".661" d="m-1.587 292.77 2.116 2.116m.001-2.116-2.118 2.116"/>
    </g>
    <path d="M2.91.794A2.112 2.112 0 0 0 .798 3.043c.068-1.11.984-1.985 2.113-1.985s2.044.874 2.112 1.985A2.112 2.112 0 0 0 2.91.794z" opacity=".2"/>
</svg>
