<svg xmlns="http://www.w3.org/2000/svg" width="22" height="22">
    <defs>
        <filter id="filter976" width="1.294" height="1.294" x="-.147" y="-.147" color-interpolation-filters="sRGB">
            <feGaussianBlur stdDeviation=".259"/>
        </filter>
    </defs>
    <style id="current-color-scheme" type="text/css">
        .ColorScheme-NeutralText{color:#ffce99}.ColorScheme-Text{color:#232629}
    </style>
    <rect width="4.234" height="4.234" x="-5.292" y="-5.027" filter="url(#filter976)" opacity=".25" rx="2.117" ry="2.117" transform="matrix(0 -3.7794 -3.7794 0 0 0)"/>
    <g transform="translate(15 -1094.498) scale(3.7794)">
        <rect width="4.233" height="4.233" x="-294.62" y="-1.058" fill="#eeac7c" rx="2.117" ry="2.117" transform="matrix(0 -1 -1 0 0 0)"/>
        <rect width="1.323" height="1.852" x="-1.72" y="291.31" fill="none" stroke="#000" stroke-linejoin="round" stroke-opacity=".46" stroke-width=".265" ry=".661"/>
        <path fill="#eeac7c" d="M-2.117 292.24H0v1.323h-2.117z"/>
        <path fill-opacity=".46" d="M-2.117 292.24H0v1.323h-2.117z"/>
    </g>
    <path stroke-width="3.78" d="M11 3a7.982 7.982 0 0 0-7.984 8.5C3.272 7.303 6.736 4 11 4s7.728 3.303 7.984 7.5A7.982 7.982 0 0 0 11 3z" opacity=".2"/>
</svg>
