<svg xmlns="http://www.w3.org/2000/svg" viewBox="0 0 22 22">
    <defs>
        <filter id="filter976" width="1.294" height="1.294" x="-.147" y="-.147" color-interpolation-filters="sRGB">
            <feGaussianBlur stdDeviation=".259"/>
        </filter>
    </defs>
    <style id="current-color-scheme" type="text/css">
        .ColorScheme-NeutralText{color:#ffce99}.ColorScheme-Text{color:#232629}
    </style>
    <rect width="4.234" height="4.234" x="-5.292" y="-5.027" filter="url(#filter976)" opacity=".25" rx="2.117" ry="2.117" transform="matrix(0 -3.7794 -3.7794 0 0 0)"/>
    <rect width="15.998" height="15.998" x="-18.995" y="-18.999" fill="#ffb380" stroke-width="3.779" rx="8.001" ry="8.001" transform="matrix(0 -1 -1 0 0 0)"/>
    <path stroke-width="3.78" d="M11 3a7.982 7.982 0 0 0-7.984 8.5A7.981 7.981 0 0 1 11 4a7.981 7.981 0 0 1 7.985 7.5A7.982 7.982 0 0 0 11 3z" opacity=".2"/>
    <path fill-opacity=".46" stroke-width="3.779" d="M10.938 6.004a5 5 0 0 0-3.473 1.463A5 5 0 0 0 6.008 11H5.001l2 3 2-3h-.99a3 3 0 0 1 .868-2.12 3 3 0 0 1 2.288-.872l1.658-1.66a5 5 0 0 0-1.887-.344zM15.001 8l-2 3h1a3 3 0 0 1-.88 2.123 3 3 0 0 1-2.28.867l-1.66 1.662a5 5 0 0 0 5.355-1.115A5 5 0 0 0 15.996 11H17l-2-3z"/>
</svg>
