<svg xmlns="http://www.w3.org/2000/svg" viewBox="0 0 22 22">
    <defs>
        <filter id="filter976" width="1.294" height="1.294" x="-.147" y="-.147" color-interpolation-filters="sRGB">
            <feGaussianBlur stdDeviation=".259"/>
        </filter>
    </defs>
    <style id="current-color-scheme" type="text/css">
        .ColorScheme-NeutralText{color:#ffce99}.ColorScheme-Text{color:#232629}
    </style>
    <rect width="4.234" height="4.234" x="-5.292" y="-5.027" filter="url(#filter976)" opacity=".25" rx="2.117" ry="2.117" transform="matrix(0 -3.7794 -3.7794 0 0 0)"/>
    <g transform="matrix(0 -1 -1 0 22 22)">
        <rect width="16" height="16" x="-19" y="-19" fill="#ffb380" stroke-width="3.78" rx="8.002" ry="8.002" transform="matrix(0 -1 -1 0 0 0)"/>
        <path fill-opacity=".46" d="M13 8v2h-3c-1.662 0-3 1.338-3 3v4.934c.619.356 1.29.634 2 .816V13c0-.554.446-1 1-1h3v2l4-3z"/>
    </g>
    <path stroke-width="3.78" d="M11 3a7.982 7.982 0 0 0-7.984 8.5C3.272 7.303 6.736 4 11 4s7.728 3.303 7.984 7.5A7.982 7.982 0 0 0 11 3z" opacity=".2"/>
</svg>
