<svg xmlns="http://www.w3.org/2000/svg" width="16" height="16">
    <path fill="#fdfdfd" fill-opacity=".7" d="M4 5.019h.992v1h.992v1h-.992v1H4v-1h-.992v-1H4zm7.44 0c.273 0 .495.224.495.5s-.222.5-.496.5a.498.498 0 0 1-.496-.5c0-.276.222-.5.496-.5zm-.993 1c.274 0 .496.224.496.5s-.222.5-.496.5a.498.498 0 0 1-.496-.5c0-.276.222-.5.496-.5zm1.984 0c.274 0 .496.224.496.5s-.222.5-.496.5a.498.498 0 0 1-.496-.5c0-.276.222-.5.496-.5zm-.992 1c.274 0 .496.224.496.5s-.222.5-.496.5a.498.498 0 0 1-.496-.5c0-.276.222-.5.496-.5z"/>
    <path fill="#fdfdfd" fill-opacity=".7" d="M3 2C1.338 2 0 3.338 0 5v5c0 1.662 1.338 3 3 3h10c1.662 0 3-1.338 3-3V5c0-1.662-1.338-3-3-3H3zm0 1h10c1.108 0 2 .892 2 2v5c0 1.108-.892 2-2 2H3c-1.108 0-2-.892-2-2V5c0-1.108.892-2 2-2z" style="paint-order:stroke fill markers"/>
    <path fill="#fdfdfd" fill-opacity=".7" d="M5 10h2v1H5zM9 10h2v1H9z" style="paint-order:stroke fill markers"/>
</svg>
