<svg xmlns="http://www.w3.org/2000/svg" width="16" height="16">
    <path fill="#fdfdfd" fill-opacity=".7" d="M4 0c0 .948.328 1.816.875 2.5A3.987 3.987 0 0 0 4 5v1H3c-.554 0-1-.446-1-1V4H1v1c0 1.108.892 2 2 2h1v2H1v1h3v1H3c-1.108 0-2 .892-2 2v3h1v-3c0-.554.446-1 1-1h1c0 2.216 1.784 4 4 4s4-1.784 4-4h1c.554 0 1 .446 1 1v3h1v-3c0-1.108-.892-2-2-2h-1v-1h3V9h-3V7h1c1.108 0 2-.892 2-2V4h-1v1c0 .554-.446 1-1 1h-1V5c0-.948-.328-1.816-.875-2.5A3.987 3.987 0 0 0 12 0h-1a2.99 2.99 0 0 1-.596 1.799A3.99 3.99 0 0 0 8 1a3.99 3.99 0 0 0-2.404.799A2.99 2.99 0 0 1 5 0H4zm4 2c1.662 0 3 1.338 3 3v7c0 1.662-1.338 3-3 3s-3-1.338-3-3V5c0-1.662 1.338-3 3-3zm-.5 3v6h1V5h-1zm0 7v1h1v-1h-1z" style="paint-order:stroke fill markers"/>
</svg>
