<svg xmlns="http://www.w3.org/2000/svg" width="16.018" height="16">
    <path fill="#fdfdfd" d="m6.371 5.654-.707.707 1.647 1.647-1.647 1.646.707.707 2.354-2.353z" font-family="sans-serif" font-weight="400" opacity=".7" overflow="visible" style="font-feature-settings:normal;font-variant-alternates:normal;font-variant-caps:normal;font-variant-ligatures:normal;font-variant-numeric:normal;font-variant-position:normal;isolation:auto;mix-blend-mode:normal;shape-padding:0;text-decoration-color:#000;text-decoration-line:none;text-decoration-style:solid;text-indent:0;text-orientation:mixed;text-transform:none;white-space:normal"/>
    <path fill="#fdfdfd" fill-opacity=".7" fill-rule="evenodd" d="M4 3c-1.108 0-2 .892-2 2v6c0 1.108.892 2 2 2h8c1.108 0 2-.892 2-2V5c0-1.108-.892-2-2-2H4zm0 1h8c.554 0 1 .446 1 1v6c0 .554-.446 1-1 1H4c-.554 0-1-.446-1-1V5c0-.554.446-1 1-1zM4 1v1h2V1H4zm3 0v1h2V1H7zm3 0v1h2V1h-2zm-7.002.125A3.992 3.992 0 0 0 0 5h1a2.99 2.99 0 0 1 2-2.826V1.125h-.002zM13 1.129v1.045A2.99 2.99 0 0 1 15 5h1a3.989 3.989 0 0 0-3-3.871zM0 6v2h1V6H0zm15 0v2h1V6h-1zM0 9v2h1V9H0zm15 0v2h1V9h-1zM.129 12A3.992 3.992 0 0 0 3 14.875v-1.047A2.993 2.993 0 0 1 1.174 12H.129zm14.697 0A2.993 2.993 0 0 1 13 13.828v1.047A3.992 3.992 0 0 0 15.87 12h-1.044zM4 14v1h2v-1H4zm3 0v1h2v-1H7zm3 0v1h2v-1h-2z"/>
</svg>
