<svg xmlns="http://www.w3.org/2000/svg" width="16" height="16.007">
    <path fill="#fdfdfd" fill-opacity=".7" d="M5 .008c-1.108 0-2 .892-2 2v2H2c-1.108 0-2 .892-2 2v5c0 1.108.892 2 2 2h1v1c0 1.108.892 2 2 2h6a1.99 1.99 0 0 0 1.78-1.1l-.264-.263c-.382.157-.78.254-1.182.294a.992.992 0 0 1-.334.069H5c-.554 0-1-.446-1-1v-3c0-.554.446-1 1-1h2.147a3.96 3.96 0 0 1 .408-1H5c-1.108 0-2 .892-2 2v1H2c-.554 0-1-.446-1-1v-5c0-.554.446-1 1-1h12c.554 0 1 .446 1 1v5a.99.99 0 0 1-.074.367c-.043.389-.14.775-.293 1.145l.265.265A1.987 1.987 0 0 0 16 11.008v-5c0-1.108-.892-2-2-2h-1v-2c0-1.108-.892-2-2-2zm0 1h6c.554 0 1 .446 1 1v2H4v-2c0-.554.446-1 1-1zm8.5 5a.5.5 0 1 0 0 1 .5.5 0 0 0 0-1zm-8.5 5v1h2.147a4.038 4.038 0 0 1-.141-1zm0 2v1h3.373c-.067-.058-.138-.109-.201-.172a3.917 3.917 0 0 1-.617-.828z"/>
    <path fill="#fdfdfd" fill-opacity=".7" d="M10.957 8.008a3 3 0 0 0-2.078.877 3 3 0 0 0 0 4.244 3 3 0 0 0 3.86.324l1.796 1.797a.499.499 0 1 0 .707-.707l-1.8-1.8a3 3 0 0 0-.32-3.858 3 3 0 0 0-2.165-.877zm.072 1a2 2 0 0 1 1.385.586 2 2 0 0 1 0 2.828 2 2 0 0 1-2.828 0 2 2 0 0 1 0-2.828 2 2 0 0 1 1.443-.586z"/>
</svg>
