<svg xmlns="http://www.w3.org/2000/svg" width="16" height="16">
    <g fill="#fdfdfd" fill-opacity=".7" fill-rule="evenodd" stroke-linecap="round" stroke-linejoin="round" stroke-width="2">
        <path d="M6 1a5 5 0 0 0-5 5 5 5 0 0 0 5 5v4h9V6h-4a5 5 0 0 0-5-5zm0 1a4 4 0 0 1 .234.008 4 4 0 0 1 .08.006 4 4 0 0 1 .207.021 4 4 0 0 1 .26.041 4 4 0 0 1 .254.06 4 4 0 0 1 .236.073 4 4 0 0 1 .014.004 4 4 0 0 1 .012.004 4 4 0 0 1 .234.088 4 4 0 0 1 .18.08 4 4 0 0 1 .018.008 4 4 0 0 1 .12.062 4 4 0 0 1 .036.018 4 4 0 0 1 .043.023 4 4 0 0 1 .097.055 4 4 0 0 1 .198.123 4 4 0 0 1 .16.113 4 4 0 0 1 .02.016 4 4 0 0 1 .09.07 4 4 0 0 1 .044.035 4 4 0 0 1 .041.035 4 4 0 0 1 .094.082 4 4 0 0 1 .29.29 4 4 0 0 1 .013.013 4 4 0 0 1 .082.094 4 4 0 0 1 .035.04 4 4 0 0 1 .035.046 4 4 0 0 1 .07.09 4 4 0 0 1 .13.18 4 4 0 0 1 .122.197 4 4 0 0 1 .055.097 4 4 0 0 1 .023.043 4 4 0 0 1 .018.035 4 4 0 0 1 .062.121 4 4 0 0 1 .088.198 4 4 0 0 1 .088.234 4 4 0 0 1 .004.012 4 4 0 0 1 .004.014 4 4 0 0 1 .072.236 4 4 0 0 1 .06.254 4 4 0 0 1 .042.26 4 4 0 0 1 .021.207 4 4 0 0 1 .006.08A4 4 0 0 1 10 6a4 4 0 0 1-.143 1H14v7H7V9.857A4 4 0 0 1 6 10a4 4 0 0 1-.69-.066 4 4 0 0 1-.216-.05 4 4 0 0 1-.508-.154 4 4 0 0 1-.166-.06 4 4 0 0 1-.613-.328 4 4 0 0 1-.114-.084 4 4 0 0 1-.445-.367 4 4 0 0 1-.139-.139 4 4 0 0 1-.367-.445 4 4 0 0 1-.084-.114 4 4 0 0 1-.328-.613 4 4 0 0 1-.06-.166 4 4 0 0 1-.155-.508 4 4 0 0 1-.049-.217A4 4 0 0 1 2 6a4 4 0 0 1 .066-.69 4 4 0 0 1 .05-.216 4 4 0 0 1 .154-.508 4 4 0 0 1 .06-.166 4 4 0 0 1 .328-.613 4 4 0 0 1 .084-.114 4 4 0 0 1 .367-.445 4 4 0 0 1 .14-.139 4 4 0 0 1 .444-.367 4 4 0 0 1 .114-.084 4 4 0 0 1 .613-.328 4 4 0 0 1 .166-.06 4 4 0 0 1 .508-.155 4 4 0 0 1 .217-.049A4 4 0 0 1 6 2z" style="paint-order:stroke fill markers"/>
        <path d="M9.861 7A4 4 0 0 1 7 9.861v1.026A5 5 0 0 0 10.887 7zM6 6v4a4 4 0 0 0 1-.139V7h2.861A4 4 0 0 0 10 6z" opacity=".35" style="paint-order:stroke fill markers"/>
    </g>
</svg>
