<svg xmlns="http://www.w3.org/2000/svg" width="16" height="16">
    <path fill="#fdfdfd" fill-opacity=".7" fill-rule="evenodd" d="M4 1a3 3 0 0 1-3 3v7a4 4 0 0 1 .504.031 4 4 0 0 1 .014.002 4 4 0 0 1 .46.09 4 4 0 0 1 2.897 2.887 4 4 0 0 1 .008.031 4 4 0 0 1 .006.025 4 4 0 0 1 .025.106 4 4 0 0 1 .004.02 4 4 0 0 1 .002.013 4 4 0 0 1 .004.014 4 4 0 0 1 .021.117 4 4 0 0 1 .002.017 4 4 0 0 1 .002.016 4 4 0 0 1 .002.006 4 4 0 0 1 .004.025 4 4 0 0 1 .01.067 4 4 0 0 1 .004.033 4 4 0 0 1 .004.03 4 4 0 0 1 .007.07 4 4 0 0 1 .002.02 4 4 0 0 1 .004.046 4 4 0 0 1 .002.02 4 4 0 0 1 .002.052 4 4 0 0 1 .004.06 4 4 0 0 1 .002.036 4 4 0 0 1 .004.133A4 4 0 0 1 5 15h10V6c0-2.77-2.23-5-5-5H4zm.867 1H10c2.216 0 4 1.784 4 4v3h.01v4.977H5.895A5 5 0 0 0 2 10.102V4.867A4 4 0 0 0 4.867 2z" style="paint-order:stroke fill markers"/>
</svg>
