<svg xmlns="http://www.w3.org/2000/svg" width="16" height="16">
    <path fill="#fdfdfd" fill-opacity=".7" fill-rule="evenodd" d="M5 8a2 2 0 0 0-2 2 2 2 0 0 0 2 2 2 2 0 0 0 2-2 2 2 0 0 0-2-2zm0 1a1 1 0 0 1 1 1 1 1 0 0 1-1 1 1 1 0 0 1-1-1 1 1 0 0 1 1-1zM12 5a2 2 0 0 0-2 2 2 2 0 0 0 2 2 2 2 0 0 0 2-2 2 2 0 0 0-2-2zm0 1a1 1 0 0 1 1 1 1 1 0 0 1-1 1 1 1 0 0 1-1-1 1 1 0 0 1 1-1z" style="paint-order:stroke fill markers"/>
    <path fill="#fdfdfd" d="M13.471 6.424c-.211.001-.427.005-.645.013A1 1 0 0 1 13 7a1 1 0 0 1-.105.445 29.86 29.86 0 0 1 3.08.084l.094-.996s-.762-.076-1.787-.101c-.257-.007-.53-.01-.811-.008zm-2.389.183-.166.03c-1.9.37-3.888 1.613-5.39 2.513A1 1 0 0 1 6 10a1 1 0 0 1-.002.037c1.545-.91 3.49-2.105 5.108-2.42.031-.006.065-.01.097-.015A1 1 0 0 1 11 7a1 1 0 0 1 .082-.393zM4.008 9.898c-.64.188-1.437.305-2.144.356-1.018.073-1.84.039-1.84.039l-.043.998s.877.036 1.955-.041c.797-.057 1.703-.163 2.5-.426A1 1 0 0 1 4 10a1 1 0 0 1 .008-.102z" color="#000" opacity=".7" style="-inkscape-stroke:none"/>
</svg>
