<svg xmlns="http://www.w3.org/2000/svg" width="16" height="16">
    <g fill="#fdfdfd" opacity=".7">
        <path d="M2 0c-.212 0-.414.103-.568.266S1.16.652 1.084.93v.002l-1.072 4c-.002.006-.003.038-.004.064H.004v11.001h4V4.996H4a.545.545 0 0 0-.004-.064l-1.072-4-.002-.004c-.08-.279-.198-.502-.354-.664S2.212 0 2 0zm-.434 2.996h.875l.536 2H1.03l.535-2zm-.562 3h2v9h-2v-9z"/>
        <path d="M8 0c-.212 0-.414.103-.568.266S7.16.652 7.084.93v.002l-1.072 4c-.002.006-.003.039-.004.064h-.004v11h4v-11H10a.538.538 0 0 0-.004-.064l-1.072-4-.002-.004c-.08-.28-.198-.502-.354-.664S8.211 0 8 0zm-.434 2.996h.875l.536 2H7.03zm-.562 3h2v9h-2z" opacity=".6"/>
        <path d="M14 0c-.212 0-.414.103-.568.266s-.271.386-.348.664v.002l-1.072 4c-.002.006-.003.039-.004.064h-.004v11h4v-11H16a.538.538 0 0 0-.004-.064l-1.073-4c0-.001 0-.003-.002-.004-.08-.28-.197-.502-.353-.664S14.21 0 14 0zm-.434 2.996h.875l.536 2H13.03zm-.562 3h2v9h-2z" opacity=".35"/>
    </g>
</svg>
