<svg xmlns="http://www.w3.org/2000/svg" width="16" height="16">
    <rect width="8" height="1" x="6" y="4" fill="#fdfdfd" fill-opacity=".7" rx="0" ry="0"/>
    <rect width="8" height="1" x="6" y="8" fill="#fdfdfd" fill-opacity=".7" rx="0" ry="0"/>
    <rect width="8" height="1" x="6" y="12" fill="#fdfdfd" fill-opacity=".7" rx="0" ry="0"/>
    <path fill="#fdfdfd" fill-opacity=".7" d="M3.626 5.314h.747v-3h-.445l-1.206.6.281.537.623-.26z" aria-label="1"/>
    <path fill="#fdfdfd" fill-opacity=".7" d="M2.545 9.726h2.118v-.649H3.634c.636-.506.951-.99.951-1.465 0-.562-.44-.93-1.12-.93-.388 0-.743.121-1.032.36l.19.548c.242-.168.48-.255.696-.255.298 0 .488.16.488.393 0 .372-.48.822-1.262 1.47z" aria-label="2"/>
    <path fill="#fdfdfd" fill-opacity=".7" d="M3.353 14.137c.809 0 1.34-.35 1.34-.882 0-.38-.255-.666-.652-.743.298-.078.484-.32.484-.657 0-.502-.398-.804-1.064-.804-.354 0-.709.086-1.037.263l.169.558c.268-.117.5-.182.713-.182.268 0 .44.104.44.277 0 .199-.22.333-.548.333H2.99v.562h.208c.436 0 .717.142.717.359 0 .177-.19.276-.531.276a2.19 2.19 0 0 1-.809-.16l-.173.584c.32.151.597.216.951.216z" aria-label="3"/>
</svg>
