<svg xmlns="http://www.w3.org/2000/svg" width="16" height="16">
    <g fill="currentColor" fill-opacity=".7" class="ColorScheme-Text" color="#050505">
        <path d="M2.304 9.268A2 2 0 0 0 1.572 12a2 2 0 0 0 2.732.732 2 2 0 0 0 .926-2.267l9.582-5.532-.5-.866L4.728 9.6a2 2 0 0 0-2.424-.332zm.5.866a1 1 0 0 1 1.366.366 1 1 0 0 1-.366 1.366 1 1 0 0 1-1.366-.366 1 1 0 0 1 .366-1.366z"/>
        <path d="M10.5 14a2 2 0 0 1-2 2 2 2 0 0 1-2-2A2 2 0 0 1 8 12.064V1h1v11.066A2 2 0 0 1 10.5 14zm-1 0a1 1 0 0 0-1-1 1 1 0 0 0-1 1 1 1 0 0 0 1 1 1 1 0 0 0 1-1z"/>
        <path d="m7.193 8.263-.521.904a2 2 0 0 0 .73.735 2 2 0 0 0 1 .266l.523-.904-.237-.137c-.263.079-.298-.387-.536-.524-.238-.138-.659.065-.722-.203z"/>
    </g>
</svg>
