<svg xmlns="http://www.w3.org/2000/svg" width="16" height="16">
    <g transform="translate(-122 -490)">
        <path fill="#050505" fill-opacity=".7" d="M124 491c-1.108 0-2 .892-2 2v10c0 1.108.892 2 2 2h6.016a5 5 0 0 1-.592-1H124c-.554 0-1-.446-1-1v-10c0-.554.446-1 1-1h12c.554 0 1 .446 1 1v5.002a5 5 0 0 1 1 1V493c0-1.108-.892-2-2-2h-12z"/>
        <path fill="#050505" fill-opacity=".7" d="m126.177 500.832 2.828-2.829-.707-.707-2.828 2.829z"/>
        <path fill="#050505" fill-opacity=".7" d="m126.176 495.173 2.829 2.828-.708.707-2.828-2.828zM133.709 497.994a.627.627 0 0 0-.396.14.625.625 0 0 0-.208.381l.01-.048-.17.713c-.069.025-.135.052-.2.082l-.622-.381h-.002a.644.644 0 0 0-.396-.09.634.634 0 0 0-.346.164l-.008.006-.426.42-.008.01a.648.648 0 0 0-.164.377c-.009.15.04.274.086.355l.006.008.39.627c-.027.061-.05.126-.075.194l-.71.166-.003.002a.612.612 0 0 0-.33.2.628.628 0 0 0-.137.395v.575c0 .11.03.268.138.398a.63.63 0 0 0 .383.207l-.049-.01.713.17c.024.063.046.123.073.182l-.387.628a.624.624 0 0 0-.092.377c.014.162.106.31.195.393l.391.393h.002c.079.078.21.163.367.181.158.018.3-.036.39-.092l.628-.384c.062.028.124.054.19.078l.173.717-.01-.053a.635.635 0 0 0 .22.394.608.608 0 0 0 .384.125h.584a.625.625 0 0 0 .388-.13.625.625 0 0 0 .211-.356l.17-.695c.065-.025.128-.05.19-.078l.62.382c.091.056.235.11.393.092a.638.638 0 0 0 .367-.181l.002-.002.391-.395a.64.64 0 0 0 .195-.39.616.616 0 0 0-.084-.366l-.004-.008-.39-.63a2.88 2.88 0 0 0 .074-.182l.715-.17-.05.01a.631.631 0 0 0 .392-.22.617.617 0 0 0 .127-.386v-.574a.62.62 0 0 0-.125-.383.61.61 0 0 0-.338-.213l-.004-.002-.707-.166c-.027-.068-.049-.133-.077-.193l.377-.613v-.002a.618.618 0 0 0 .104-.375.64.64 0 0 0-.2-.405l-.396-.392.002.004a.641.641 0 0 0-.36-.182.634.634 0 0 0-.374.074l-.014.008-.63.387a3.239 3.239 0 0 0-.196-.08l-.168-.69a.627.627 0 0 0-.207-.36.625.625 0 0 0-.395-.137h-.376zm.293 1.062.219.899.295.072c.193.048.383.132.548.225l.256.144.768-.472-.469.761.135.254c.085.16.18.364.22.55l.069.304.883.209-.883.21-.07.3a2.015 2.015 0 0 1-.215.523l-.154.26.48.777-.78-.482-.263.162a1.76 1.76 0 0 1-.523.219l-.297.07-.219.898-.219-.898-.299-.072a1.796 1.796 0 0 1-.517-.213l-.264-.168-.783.482.475-.773-.15-.258a2.044 2.044 0 0 1-.214-.527l-.07-.3-.883-.21.883-.21.068-.304c.043-.19.136-.394.217-.54l.143-.259-.475-.763.78.478.261-.164c.111-.07.344-.168.54-.217l.294-.074z"/>
        <circle cx="134" cy="502" r="1" fill="#050505" fill-opacity=".7"/>
    </g>
</svg>
