<svg xmlns="http://www.w3.org/2000/svg" width="16" height="16">
    <path fill="#050505" d="M2 0C.891 0 0 .892 0 2v8c0 3.324 2.675 6 5.998 6h7.997c1.108 0 2-.892 2-2v-.1l.005-.005V8.719l-.006-.014V6c0-3.324-2.675-6-5.998-6H7.997zm4.876 1h2.871a5.238 5.238 0 0 1 5.248 5.25v.625a7.953 7.953 0 0 0-.627-.78c-.846-.91-2.104-1.672-3.405-1.954a5.026 5.026 0 0 0-.978-.118c-.976-.017-1.923.282-2.69 1.036-.351.344-.646.854-.75 1.377-.105.522-.02 1.057.394 1.453.131.125.326.232.523.267.196.036.393.001.535-.156-.159-.144-.194-.346-.158-.543.036-.199.143-.393.27-.525.397-.416.936-.503 1.46-.399.524.105 1.035.4 1.38.752.755.77 1.054 1.72 1.037 2.697a5.037 5.037 0 0 1-.117.981c-.283 1.304-1.046 2.562-1.958 3.41a7.89 7.89 0 0 1-.783.627h-2.88A5.238 5.238 0 0 1 1 9.75v-.639c.195.274.402.541.636.793.847.912 2.104 1.673 3.405 1.956 1.302.282 2.648.087 3.67-.918.351-.345.646-.855.75-1.377.105-.523.017-1.058-.396-1.454a1.06 1.06 0 0 0-.521-.267c-.196-.035-.393 0-.535.156.159.144.194.346.158.543a1.066 1.066 0 0 1-.27.525c-.397.416-.936.503-1.46.399a2.778 2.778 0 0 1-1.38-.752c-.755-.77-1.054-1.72-1.037-2.697.006-.326.046-.655.117-.98.283-1.305 1.044-2.563 1.956-3.411.25-.231.514-.434.783-.627z" color="#000" opacity=".7" overflow="visible"/>
</svg>
