<svg xmlns="http://www.w3.org/2000/svg" width="16" height="16" viewBox="0 0 4.234 4.234">
    <g transform="translate(-.794 -.793)">
        <rect width="4.233" height="4.233" x="-5.026" y="-5.027" fill="#a3c9dc" rx="2.117" ry="2.117" transform="matrix(0 -1 -1 0 0 0)"/>
        <path d="M2.91.794A2.112 2.112 0 0 0 .798 3.043c.068-1.11.984-1.985 2.113-1.985s2.044.874 2.112 1.985A2.112 2.112 0 0 0 2.91.794z" opacity=".2"/>
        <path fill-opacity=".46" d="M2.894 1.589a1.323 1.323 0 0 0-.919.387 1.323 1.323 0 0 0-.385.934h-.267l.53.794.528-.794H2.12a.794.794 0 0 1 .23-.56.794.794 0 0 1 .606-.231l.438-.44a1.323 1.323 0 0 0-.499-.09zm1.075.528-.53.793h.265a.794.794 0 0 1-.232.562.794.794 0 0 1-.604.23l-.439.44a1.323 1.323 0 0 0 1.417-.296 1.323 1.323 0 0 0 .387-.936h.265l-.529-.793z"/>
    </g>
</svg>
