<svg xmlns="http://www.w3.org/2000/svg" width="16" height="16" viewBox="0 0 4.234 4.234">
    <g transform="translate(-.264 -291.707)">
        <rect width="4.233" height="4.233" x="-295.94" y="-4.498" fill="#c5b3cd" rx="2.117" ry="2.117" transform="matrix(0 -1 -1 0 0 0)"/>
        <path fill-opacity=".46" d="M2.778 292.77a.397.397 0 0 0-.397.397c0 .03.006.058.013.086l-.426.265a.397.397 0 1 0 0 .62l.426.265a.38.38 0 0 0-.013.086.397.397 0 1 0 .15-.31l-.427-.264a.38.38 0 0 0 .013-.087.38.38 0 0 0-.013-.087l.426-.264a.397.397 0 1 0 .248-.707z"/>
    </g>
    <path d="M2.116.007A2.112 2.112 0 0 0 .004 2.256C.072 1.146.988.272 2.116.272s2.045.874 2.113 1.984A2.112 2.112 0 0 0 2.116.007z" opacity=".2"/>
</svg>
