<svg xmlns="http://www.w3.org/2000/svg" width="16" height="16">
    <style id="current-color-scheme" type="text/css">
        .ColorScheme-NeutralText{color:#ffce99}.ColorScheme-Text{color:#232629}
    </style>
    <g transform="translate(-3 -3)">
        <rect width="15.998" height="15.998" x="-18.999" y="-18.999" fill="#ffce99" stroke-width="3.779" rx="8.001" ry="8.001" transform="matrix(0 -1 -1 0 0 0)"/>
        <path stroke-width="3.78" d="M11 3a7.982 7.982 0 0 0-7.984 8.5C3.272 7.303 6.736 4 11 4s7.728 3.303 7.984 7.5A7.982 7.982 0 0 0 11 3z" opacity=".2"/>
        <path fill-opacity=".46" d="m15 6-2 2-1-1-1.75 1.75 3 3L15 10l-1-1 2-2v-.5c0-.277-.223-.5-.5-.5zm-6.25 4.25L7 12l1 1-2 2v.5c0 .277.223.5.5.5H7l2-2 1 1 1.75-1.75z"/>
    </g>
</svg>
