<svg xmlns="http://www.w3.org/2000/svg" width="16" height="16">
    <rect width="16" height="16" x="-15.998" y="-16" fill="#add49f" rx="3.002" ry="3" transform="matrix(0 -1 -1 0 0 0)"/>
    <rect width="16" height="16" x="-15.998" y="-16" opacity=".2" rx="3.002" ry="3" transform="matrix(0 -1 -1 0 0 0)"/>
    <rect width="14" height="14" x="-14.998" y="-15" fill="#add49f" rx="2.627" ry="2.625" transform="matrix(0 -1 -1 0 0 0)"/>
    <path fill-opacity=".46" d="M8 3a5 5 0 0 0-5 5 5 5 0 0 0 5 5 5 5 0 0 0 5-5h-2a3 3 0 0 1-3 3 3 3 0 0 1-3-3 3 3 0 0 1 3-3V3z" paint-order="stroke fill markers"/>
    <path fill-opacity=".46" d="m12 5 3 3H9z" paint-order="stroke fill markers"/>
</svg>
