<svg xmlns="http://www.w3.org/2000/svg" width="64" height="64" viewBox="0 0 16.933 16.933">
    <rect width="16.933" height="9.525" y="3.704" fill="#ccc" rx=".787" ry=".787"/>
    <g fill="#fff" transform="matrix(.15859 0 0 .15786 36.913 -26.251)">
        <rect width="6.569" height="3.754" x="-230.59" y="201.44" ry=".55"/>
        <rect width="6.569" height="3.754" x="-222.96" y="201.44" ry=".55"/>
        <rect width="6.569" height="3.754" x="-215.24" y="201.44" ry=".55"/>
        <rect width="6.569" height="3.754" x="-207.61" y="201.44" ry=".55"/>
        <rect width="6.569" height="3.754" x="-199.89" y="201.44" ry=".55"/>
        <rect width="6.569" height="3.754" x="-192.27" y="201.44" ry=".55"/>
        <rect width="6.569" height="3.754" x="-184.55" y="201.44" ry=".55"/>
        <rect width="6.569" height="3.754" x="-176.92" y="201.44" ry=".55"/>
        <rect width="6.569" height="3.754" x="-169.2" y="201.44" ry=".55"/>
        <rect width="6.569" height="3.754" x="-161.58" y="201.44" ry=".55"/>
        <rect width="6.569" height="3.754" x="-153.86" y="201.44" ry=".55"/>
        <rect width="6.569" height="3.754" x="-146.23" y="201.44" ry=".55"/>
        <rect width="4.553" height="3.754" x="-132.82" y="201.44" ry=".55"/>
        <rect width="7.097" height="7.332" x="-230.59" y="206.34" ry=".78"/>
        <rect width="7.097" height="7.332" x="-222.12" y="206.34" ry=".78"/>
        <rect width="7.097" height="7.332" x="-213.65" y="206.34" ry=".78"/>
        <rect width="7.097" height="7.332" x="-205.19" y="206.34" ry=".78"/>
        <rect width="7.097" height="7.332" x="-196.72" y="206.34" ry=".78"/>
        <rect width="7.097" height="7.332" x="-188.25" y="206.34" ry=".78"/>
        <rect width="7.097" height="7.332" x="-179.79" y="206.34" ry=".78"/>
        <rect width="7.097" height="7.332" x="-171.32" y="206.34" ry=".78"/>
        <rect width="7.097" height="7.332" x="-163.16" y="206.34" ry=".78"/>
        <rect width="7.097" height="7.332" x="-154.7" y="206.34" ry=".78"/>
        <rect width="7.097" height="7.332" x="-146.23" y="206.34" ry=".78"/>
        <rect width="9.508" height="7.332" x="-137.78" y="206.34" ry=".78"/>
        <rect width="4.553" height="3.754" x="-138.44" y="201.44" ry=".55"/>
        <rect width="10.264" height="7.214" x="-230.35" y="214.78" ry=".768"/>
        <rect width="6.78" height="7.214" x="-218.5" y="214.78" ry=".768"/>
        <rect width="6.78" height="7.214" x="-210.38" y="214.78" ry=".768"/>
        <rect width="6.78" height="7.214" x="-201.84" y="214.78" ry=".768"/>
        <rect width="6.78" height="7.214" x="-193.72" y="214.78" ry=".768"/>
        <rect width="6.78" height="7.214" x="-185.18" y="214.78" ry=".768"/>
        <rect width="6.78" height="7.214" x="-177.06" y="214.78" ry=".768"/>
        <rect width="6.78" height="7.214" x="-168.53" y="214.78" ry=".768"/>
        <rect width="6.78" height="7.214" x="-160.41" y="214.78" ry=".768"/>
        <rect width="6.78" height="7.214" x="-152.03" y="214.78" ry=".768"/>
        <rect width="6.78" height="7.214" x="-143.91" y="214.78" ry=".768"/>
        <rect width="6.78" height="7.214" x="-135.58" y="214.78" ry=".768"/>
        <rect width="12.732" height="7.214" x="-230.35" y="223.18" ry=".768"/>
        <rect width="6.78" height="7.214" x="-216.15" y="223.18" ry=".768"/>
        <rect width="6.78" height="7.214" x="-208.09" y="223.18" ry=".768"/>
        <rect width="6.78" height="7.214" x="-199.56" y="223.18" ry=".768"/>
        <rect width="6.78" height="7.214" x="-191.44" y="223.18" ry=".768"/>
        <rect width="6.78" height="7.214" x="-182.9" y="223.18" ry=".768"/>
        <rect width="6.78" height="7.214" x="-174.78" y="223.18" ry=".768"/>
        <rect width="6.78" height="7.214" x="-166.24" y="223.18" ry=".768"/>
        <rect width="6.78" height="7.214" x="-158.12" y="223.18" ry=".768"/>
        <rect width="6.78" height="7.214" x="-149.74" y="223.18" ry=".768"/>
        <rect width="13.063" height="7.214" x="-141.2" y="223.18" ry=".768"/>
        <rect width="15.175" height="7.214" x="-230.35" y="231.45" ry=".768"/>
        <rect width="6.78" height="7.214" x="-213.59" y="231.45" ry=".768"/>
        <rect width="6.78" height="7.214" x="-205.47" y="231.45" ry=".768"/>
        <rect width="6.78" height="7.214" x="-196.93" y="231.45" ry=".768"/>
        <rect width="6.78" height="7.214" x="-188.81" y="231.45" ry=".768"/>
        <rect width="6.78" height="7.214" x="-180.27" y="231.45" ry=".768"/>
        <rect width="6.78" height="7.214" x="-172.15" y="231.45" ry=".768"/>
        <rect width="6.78" height="7.214" x="-163.77" y="231.45" ry=".768"/>
        <rect width="18.862" height="7.214" x="-147" y="231.45" ry=".768"/>
        <rect width="6.78" height="7.214" x="-155.41" y="231.45" ry=".768"/>
        <rect width="6.78" height="7.214" x="-230.25" y="239.85" ry=".768"/>
        <rect width="6.78" height="7.214" x="-222.13" y="239.85" ry=".768"/>
        <rect width="6.78" height="7.214" x="-213.59" y="239.85" ry=".768"/>
        <rect width="6.78" height="7.214" x="-205.47" y="239.85" ry=".768"/>
        <rect width="32.258" height="7.214" x="-197.1" y="239.85" ry=".768"/>
        <rect width="6.78" height="7.214" x="-163.77" y="239.85" ry=".768"/>
        <rect width="6.78" height="7.214" x="-155.41" y="239.85" ry=".768"/>
        <rect width="6.78" height="7.214" x="-141.59" y="239.85" ry=".768"/>
        <rect width="5.385" height="3.986" x="-134.28" y="243.08" ry=".424"/>
        <rect width="5.385" height="3.986" x="-147.5" y="243.08" ry=".424"/>
    </g>
</svg>
