<svg xmlns="http://www.w3.org/2000/svg" width="16" height="16">
    <path fill="#050505" fill-opacity=".7" d="M10.791.938c-.778.044-1.24.628-1.56.986a.5.5 0 0 0-.022.025c-.32.413-.704.917-.818 1.582a.5.5 0 0 0-.01.08c0 .285.177.477.267.559.09.082.127.126.094.078a.5.5 0 0 0 .076.086c.128.115.247.255.3.363.05.104.05.14.02.207-.208.407-.678.755-1.136 1.264-.168.169-.337.334-.47.416-.135.083-.176.093-.272.059-.196-.074-.386-.352-.78-.668a.5.5 0 0 0-.351-.11c-.6.046-1.027.377-1.356.578a.5.5 0 0 0-.033.022c-.471.342-1.04.8-1.258 1.533a.5.5 0 0 0-.01.035c-.086.4.114.778.313.983.199.204.404.326.508.41a.5.5 0 0 0 .021.017c.862.624 1.977.695 2.926.352 1.428-.507 2.529-1.534 3.471-2.55a.5.5 0 0 0 .01-.01c.814-.926 1.652-2.06 1.767-3.467a.5.5 0 0 0 0-.002c.086-1.059-.437-2.056-1.224-2.682a.5.5 0 0 0-.123-.072l-.069-.028a.5.5 0 0 0-.1-.027l-.068-.014a.5.5 0 0 0-.086-.006.5.5 0 0 0-.025 0h-.002zm-.066 1.095c.462.438.818 1.044.77 1.653-.087 1.049-.755 2.016-1.52 2.886v.002c-.902.971-1.894 1.864-3.065 2.28a.5.5 0 0 0 0 .001c-.665.242-1.446.177-1.998-.22v-.002c-.169-.135-.325-.242-.398-.317-.062-.063-.048-.046-.041-.056.114-.35.451-.678.859-.975.303-.186.543-.306.754-.36.193.206.374.48.832.653a.5.5 0 0 0 0 .002c.422.156.855.035 1.146-.145.292-.179.5-.405.663-.568a.5.5 0 0 0 .02-.02c.358-.4.944-.795 1.3-1.503a.5.5 0 0 0 .01-.018c.168-.37.108-.773-.032-1.062a2.07 2.07 0 0 0-.488-.621c-.037-.046-.05-.056-.08-.083.092-.315.274-.64.535-.978.272-.303.51-.475.733-.549zM10.906 9a1 1 0 0 0-.636.23c-.72.597-1.535 1.126-2.541 1.483 0 .001-.01.002-.01.004-1.342.487-2.953.42-4.262-.528v-.002l-.07-.052-.018-.014-.135-.084.016.008-.219-.174a1 1 0 0 0-1.363.047L.293 11.293A1 1 0 0 0 0 12v3a1 1 0 0 0 1 1h14a1 1 0 0 0 1-1v-3a1 1 0 0 0-.293-.707l-2-2A1 1 0 0 0 13 9h-2.094zm-.004 1H13l2 2v3H1v-3l.803-.803.125-.127.443-.443c.245.213.433.327.375.28.041.031.083.063.125.093 1.606 1.163 3.574 1.242 5.188.656 1.14-.405 2.062-1.008 2.843-1.656zM10 12a1 1 0 0 0-1 1 1 1 0 0 0 1 1 1 1 0 0 0 1-1 1 1 0 0 0-1-1zm3 0a1 1 0 0 0-1 1 1 1 0 0 0 1 1 1 1 0 0 0 1-1 1 1 0 0 0-1-1z"/>
</svg>
