<svg xmlns="http://www.w3.org/2000/svg" width="22" height="22">
    <defs>
        <style id="current-color-scheme" type="text/css">
            .ColorScheme-Highlight{color:#a0b6cb}
        </style>
    </defs>
    <path fill="currentColor" d="M15.738 4.29c-.376.026-.625.487-.283.87A8 8 0 0 1 18 11a8 8 0 0 1-2.555 5.85c-.445.471.18 1.15.678.73A9 9 0 0 0 19 11a9 9 0 0 0-2.862-6.574.579.579 0 0 0-.4-.137zm-2.39 1.415c-.396.012-.643.534-.256.914A6 6 0 0 1 15 11a6 6 0 0 1-1.916 4.388c-.469.446.173 1.147.68.728A7 7 0 0 0 16 11a7 7 0 0 0-2.225-5.11c-.147-.135-.296-.187-.428-.183zM9 6 6 9H4c-.554 0-1 .446-1 1v2c0 .554.446 1 1 1h2l3 3zm2.017 1.184c-.376.016-.644.513-.29.896A4 4 0 0 1 12 11a4 4 0 0 1-1.278 2.926c-.472.43.14 1.152.68.73A5 5 0 0 0 13 11a5 5 0 0 0-1.59-3.65.536.536 0 0 0-.393-.166z" opacity=".5" style="color:#050505;opacity:.7"/>
</svg>
