<svg xmlns="http://www.w3.org/2000/svg" width="22" height="22">
    <defs>
        <style id="current-color-scheme" type="text/css">
            .ColorScheme-Highlight{color:#a0b6cb}
        </style>
    </defs>
    <g fill="currentColor" style="color:#050505;opacity:.7">
        <path d="M3 6c-1.108 0-2 .892-2 2v6c0 1.108.892 2 2 2h13c1.108 0 2-.892 2-2V8c0-1.108-.892-2-2-2zm0 1h13c.554 0 1 .446 1 1v6c0 .554-.446 1-1 1H3c-.554 0-1-.446-1-1V8c0-.554.446-1 1-1zm16 2v4a2 2 0 0 0 2-2 2 2 0 0 0-2-2z"/>
        <path d="M9.834 7 6.5 12h3l-.75 3h.416l3.334-5h-3l.75-3zM3.482 8C3.215 8 3 8.243 3 8.545v4.91c0 .303.215.545.482.545h2.036c.267 0 .482-.242.482-.545v-.592a.998.998 0 0 1-.332-1.418L6 10.947V8.545C6 8.243 5.785 8 5.518 8Z"/>
    </g>
</svg>
