<svg xmlns="http://www.w3.org/2000/svg" width="22" height="22">
    <defs>
        <style id="current-color-scheme" type="text/css">
            .ColorScheme-Highlight{color:#a0b6cb}
        </style>
    </defs>
    <g fill="currentColor" style="color:#050505;opacity:.7">
        <path d="M9.834 7 6.5 12h3l-.75 3h.416l3.334-5h-3l.75-3z"/>
        <path d="M3 6c-1.108 0-2 .892-2 2v6c0 1.108.892 2 2 2h13c1.108 0 2-.892 2-2V8c0-1.108-.892-2-2-2zm0 1h13c.554 0 1 .446 1 1v6c0 .554-.446 1-1 1H3c-.554 0-1-.446-1-1V8c0-.554.446-1 1-1z"/>
        <path d="M3.55 8a.55.55 0 0 0-.55.55v4.9c0 .304.246.55.55.55h4.42l.25-1H6.5a1 1 0 0 1-.832-1.555L7.965 8zm7.481 0-.25 1h1.72a.99.99 0 0 1 .5.137V8.55a.55.55 0 0 0-.553-.55H11.03zm1.97 3.053L11.034 14h1.414a.55.55 0 0 0 .551-.55v-2.397zM19 9v4a2 2 0 0 0 2-2 2 2 0 0 0-2-2z"/>
    </g>
</svg>
