<svg xmlns="http://www.w3.org/2000/svg" width="22" height="22">
    <defs>
        <style id="current-color-scheme" type="text/css">
            .ColorScheme-Text{color:#050505;opacity:.7}
        </style>
    </defs>
    <path fill="currentColor" d="M9.496 8c.493 0 .894.147 1.203.44.31.287.463.655.463 1.105 0 .195-.051.393-.154.594s-.194.343-.276.43a6.467 6.467 0 0 1-.326.318l-.039.04c-.33.299-.496.595-.496.893v.327h-.766v-.383a1.2 1.2 0 0 1 .155-.625c.103-.18.285-.389.545-.627.146-.136.249-.236.308-.301a1.22 1.22 0 0 0 .188-.283.82.82 0 0 0 .097-.383c0-.25-.081-.45-.244-.602-.157-.151-.376-.228-.658-.228-.466 0-.785.26-.959.781l-.7-.293a2.05 2.05 0 0 1 .587-.83C8.706 8.123 9.062 8 9.496 8zm-.008 4.894c.157 0 .288.054.39.163.11.108.163.238.163.39s-.054.282-.162.39a.511.511 0 0 1-.39.163.543.543 0 0 1-.553-.553.541.541 0 0 1 .553-.553z" class="ColorScheme-Text"/>
    <path fill="currentColor" d="M3 6c-1.108 0-2 .892-2 2v6c0 1.108.892 2 2 2h13c1.108 0 2-.892 2-2V8c0-1.108-.892-2-2-2zm0 1h13c.554 0 1 .446 1 1v6c0 .554-.446 1-1 1H3c-.554 0-1-.446-1-1V8c0-.554.446-1 1-1zm16 2v4a2 2 0 0 0 2-2 2 2 0 0 0-2-2z" class="ColorScheme-Text"/>
</svg>
