<svg xmlns="http://www.w3.org/2000/svg" width="22" height="22">
    <defs>
        <style id="current-color-scheme" type="text/css">
            .ColorScheme-Highlight{color:#a0b6cb}
        </style>
    </defs>
    <g fill="currentColor" style="color:#050505;opacity:.7">
        <path d="M11 3a8 8 0 0 0-8 8 8 8 0 0 0 8 8 8 8 0 0 0 8-8 8 8 0 0 0-8-8zm-.094 1A7 7 0 0 1 11 4a7 7 0 0 1 7 7 7 7 0 0 1-7 7 7 7 0 0 1-7-7 7 7 0 0 1 6.906-7z"/>
        <path d="M10.5 7v6.086l-2.328-2.328-.707.707L11 15l3.535-3.535-.707-.707-2.328 2.328V7h-1z"/>
    </g>
</svg>
