<svg xmlns="http://www.w3.org/2000/svg" width="22" height="22">
    <defs>
        <style id="current-color-scheme" type="text/css">
            .ColorScheme-Highlight{color:#a0b6cb}
        </style>
    </defs>
    <g fill="currentColor" style="color:#050505;opacity:.7">
        <path d="M8 9.987a1 1 0 1 0 0 2 1 1 0 0 0 0-2zm3 0a1 1 0 1 0 0 2 1 1 0 0 0 0-2zm3 0a1 1 0 1 0 0 2 1 1 0 0 0 0-2zM11 7.987a1.99 1.99 0 0 0-1.879 1.336c.14.09.27.193.377.312.002.002 0 .005.002.006.002-.001 0-.004.002-.006.35-.393.915-.648 1.498-.648s1.148.255 1.498.648c.002.002 0 .005.002.006.002-.001 0-.004.002-.006a1.82 1.82 0 0 1 .377-.312A1.99 1.99 0 0 0 11 7.987zm-1.5 4.346c-.002 0 0 .004-.002.006-.35.393-.915.648-1.498.648 0 .554.446 1 1 1h4c.554 0 1-.446 1-1-.583 0-1.148-.255-1.498-.648-.002-.002 0-.005-.002-.006-.002 0 0 .004-.002.006-.35.393-.915.648-1.498.648s-1.148-.255-1.498-.648c0-.002 0-.005-.002-.006zM5.002 5.987a1 1 0 0 0-.854.475l-2.894 3.86a1 1 0 0 0-.02 1.308l2.938 3.918a1 1 0 1 0 1.63-1.155l.003-.002-2.55-3.402 2.55-3.402-.004-.002a1 1 0 0 0-.799-1.598zm11.996 0a1 1 0 0 0-.799 1.598l-.004.002 2.551 3.402-2.55 3.402.001.002a1 1 0 1 0 1.63 1.154l2.94-3.917a1 1 0 0 0-.02-1.307l-2.895-3.861a1 1 0 0 0-.854-.475z"/>
    </g>
</svg>
