<svg xmlns="http://www.w3.org/2000/svg" width="22" height="22">
    <defs>
        <style id="current-color-scheme" type="text/css">
            .ColorScheme-Highlight{color:#a0b6cb}
        </style>
    </defs>
    <path fill="currentColor" d="M11 5.94c-2.651 0-5.302.828-7.622 2.485l.663.663c4.64-3.024 9.34-3.075 13.919 0l.662-.663C16.302 6.768 13.652 5.94 11 5.94zm0 3.106a9 9 0 0 0-5.634 1.989l.663.663c3.314-2.32 6.628-2.34 9.942 0l.663-.663A9 9 0 0 0 11 9.046zm0 2.817a5.14 5.14 0 0 0-3.645 1.492L11 17l3.645-3.645A5.14 5.14 0 0 0 11 11.863z" style="color:#050505;opacity:.7"/>
</svg>
