<svg xmlns="http://www.w3.org/2000/svg" width="22" height="22">
    <defs>
        <style id="current-color-scheme" type="text/css">
            .ColorScheme-Highlight{color:#a0b6cb}
        </style>
    </defs>
    <path fill="currentColor" d="M5.002 5.998a1 1 0 0 0-.854.475l-2.894 3.86a1 1 0 0 0-.254.663 1 1 0 0 0 .205.607 1 1 0 0 0 .03.038l2.937 3.918a1 1 0 0 0 .826.439A1 1 0 0 0 6 15a1 1 0 0 0-.197-.596l.002-.002L3.254 11l2.55-3.402-.003-.002a1 1 0 0 0 .2-.596 1 1 0 0 0-1-1.002zm11.996 0A1 1 0 0 0 16 7a1 1 0 0 0 .2.596l-.005.002L18.746 11l-.652.871A3.04 3.04 0 0 1 18.996 14l1.77-2.36a1 1 0 0 0 .029-.037 1 1 0 0 0 .205-.607 1 1 0 0 0-.254-.662l-2.894-3.861a1 1 0 0 0-.854-.475zM8 9.998a1 1 0 0 0 0 2 1 1 0 0 0 0-2zm3 0a1 1 0 0 0 0 2 1 1 0 0 0 0-2zm3 0a1 1 0 0 0-.19 1.98 3.02 3.02 0 0 1 1.17-.785A1 1 0 0 0 14 9.998zm2 2c-1.108 0-2 .91-2 2.031v.969h-.5s-.5 0-.5.5v3s0 .5.5.5h5s.5 0 .5-.5v-3c0-.5-.5-.5-.5-.5H18v-.969c0-1.12-.892-2.031-2-2.031zm0 1c.554 0 1 .442 1 1v1h-2v-1c0-.558.446-1 1-1z" style="color:#050505;opacity:.7"/>
</svg>
