<svg xmlns="http://www.w3.org/2000/svg" width="22" height="22">
    <defs>
        <style id="current-color-scheme" type="text/css">
            .ColorScheme-Highlight{color:#a0b6cb}
        </style>
    </defs>
    <g fill="currentColor" style="color:#050505;opacity:.7">
        <path fill-rule="evenodd" d="M11 5C8.16 5 5.568 6.007 3.514 7.658a.5.5 0 0 0-.096.072.5.5 0 0 0-.154.36.5.5 0 0 0 .5.5.5.5 0 0 0 .318-.113A10.919 10.919 0 0 1 11 6c2.628 0 5.027.938 6.918 2.477a.5.5 0 0 0 .318.113.5.5 0 0 0 .5-.5.5.5 0 0 0-.154-.36.5.5 0 0 0-.096-.072C16.433 6.008 13.841 5 11 5z" opacity=".35" paint-order="stroke fill markers"/>
        <path d="M11 11c-1.353 0-2.583.469-3.586 1.225a.507.507 0 0 0-.168.384.5.5 0 0 0 .836.37C8.904 12.375 9.902 12 11 12c.926 0 1.772.278 2.51.723a3.31 3.31 0 0 1 .55-.836C13.164 11.34 12.13 11 11 11Z" opacity=".35"/>
        <g fill-rule="evenodd" transform="translate(3 2)">
            <path d="M8 6a8.918 8.918 0 0 0-5.488 1.897.5.5 0 0 0-.102.074.5.5 0 0 0-.156.361.5.5 0 0 0 .5.5.5.5 0 0 0 .32-.115A7.936 7.936 0 0 1 8 7c1.863 0 3.567.648 4.926 1.717a.5.5 0 0 0 .32.115.5.5 0 0 0 .5-.5.5.5 0 0 0-.156-.361.5.5 0 0 0-.102-.075A8.919 8.919 0 0 0 8 6z" opacity=".35" paint-order="stroke fill markers"/>
            <circle cx="8" cy="13" r="1" paint-order="stroke fill markers"/>
            <path d="M13 10c-1.108 0-2 .892-2 2-.554 0-1 .446-1 1v2c0 .554.446 1 1 1h4c.554 0 1-.446 1-1v-2c0-.554-.446-1-1-1 0-1.108-.892-2-2-2zm0 1c.554 0 1 .446 1 1h-2c0-.554.446-1 1-1z"/>
        </g>
    </g>
</svg>
