<svg xmlns="http://www.w3.org/2000/svg" width="22" height="22">
    <defs>
        <style id="current-color-scheme" type="text/css">
            .ColorScheme-Highlight{color:#a0b6cb}
        </style>
    </defs>
    <path fill="currentColor" d="M10.125 4S7.798 4.017 7.5 6.625V13h-2V7h-1v5.75C4.5 14.5 6.25 14 6.25 14H7.5v1.375C7.5 18 10.125 18 10.125 18h4.75c2.625 0 2.625-2.625 2.625-2.625V10h-3v2h1l-3 4-3-4h1V7h4v1h3V6.625S17.5 4 14.875 4z" style="color:#050505;opacity:.7"/>
    <path fill="#a0b6cb" d="M11.5 8v4a1 1 0 0 1-.252.662l1.252 1.67 1.252-1.668A1 1 0 0 1 13.5 12V8z"/>
</svg>
