<svg xmlns="http://www.w3.org/2000/svg" width="22" height="22">
    <path fill="currentColor" d="M3 17c0 1.108.892 2 2 2h3c1.108 0 2-.892 2-2v-2c0-1.108-.892-2-2-2H5c-1.108 0-2 .892-2 2zm1 0v-2c0-.554.446-1 1-1h3c.554 0 1 .446 1 1v2c0 .554-.446 1-1 1H5c-.554 0-1-.446-1-1zM4 7c0 1.108.892 2 2 2h2c1.108 0 2-.892 2-2V5c0-1.108-.892-2-2-2H6c-1.108 0-2 .892-2 2zm1 0V5c0-.554.446-1 1-1h2c.554 0 1 .446 1 1v2c0 .554-.446 1-1 1H6c-.554 0-1-.446-1-1zm7 11.5a.499.499 0 1 0 1 0v-15a.499.499 0 1 0-1 0zM15 8c0 .554.446 1 1 1h2c.554 0 1-.446 1-1V4c0-.554-.446-1-1-1h-2c-.554 0-1 .446-1 1z" style="color:#050505;opacity:.7"/>
</svg>
