<svg xmlns="http://www.w3.org/2000/svg" width="22" height="22">
    <defs>
        <filter id="a" width="1.096" height="1.096" x="-.048" y="-.048" color-interpolation-filters="sRGB">
            <feGaussianBlur stdDeviation=".4"/>
        </filter>
    </defs>
    <path d="M1.002 1a1 1 0 0 0-1 1.004l.035 9.002C.06 16.514 4.541 21 10.035 21c5.493 0 9.963-4.488 9.965-9.994v-.004a1 1 0 0 0 .002-.002c0-5.508-4.471-9.997-9.965-9.998z" color="#000" filter="url(#a)" opacity=".15" style="paint-order:stroke fill markers"/>
    <path fill="#fff" d="M1 0a1 1 0 0 0-1 1.004l.035 9.002C.058 15.514 4.54 20 10.033 20c5.493 0 9.963-4.488 9.965-9.994v-.004A1 1 0 0 0 20 10C20 4.492 15.529.003 10.035.002L1 0z" color="#000" style="paint-order:stroke fill markers"/>
    <path d="M18.999 10.001c0 4.97-4.014 8.999-8.965 8.999C5.082 19 1.056 14.97 1.036 10L1 1l9.034.002C14.986 1.002 19 5.03 19 10z" style="paint-order:stroke fill markers"/>
    <circle cx="10" cy="10" r="7" fill="#a8decc" color="#000" style="paint-order:normal"/>
</svg>
