<svg xmlns="http://www.w3.org/2000/svg" viewBox="0 0 22 22">
    <defs>
        <style id="current-color-scheme" type="text/css">
            .ColorScheme-Text{color:#050505;opacity:.7}
        </style>
    </defs>
    <path fill="currentColor" d="m17 10-6 6v2h2v-.031L14 17l5-5zm-.281 1.688.562.593-4.969 5-.593-.593z" class="ColorScheme-Text"/>
    <path fill="currentColor" d="M5 5c-1.108 0-2 .892-2 2v9c0 1.108.892 2 2 2h5v-2a1 1 0 0 1 .293-.707l3.5-3.5L13 11l-3.478 4L7 13l-3 3V7c0-.554.446-1 1-1h12c.554 0 1 .446 1 1v2.586l1 1V7c0-1.108-.892-2-2-2H5zm2.5 3a1.5 1.5 0 1 0 0 3 1.5 1.5 0 0 0 0-3zM19 13.414l-1 1V16l-.793-.793-2.5 2.5a1 1 0 0 1-.012.012l-.29.281H17c1.108 0 2-.892 2-2v-2.586z" class="ColorScheme-Text"/>
</svg>
