<svg xmlns="http://www.w3.org/2000/svg" viewBox="0 0 22 22">
    <defs>
        <style id="current-color-scheme" type="text/css">
            .ColorScheme-Text{color:#050505;opacity:.7}
        </style>
    </defs>
    <path fill="currentColor" d="m5 12-3 3 3 3v-2h2v-2H5z" class="ColorScheme-Text"/>
    <path fill="currentColor" d="M5 4C3.338 4 2 5.338 2 7v5h1V8.11L6.8 11l.81.615.72.55c1.465 1.113 3.876 1.113 5.342 0l.719-.548 4.597 3.496A1.99 1.99 0 0 1 17 17H7v1h10c1.662 0 3-1.338 3-3V7c0-1.662-1.338-3-3-3zm0 1h12a1.99 1.99 0 0 1 1.988 1.887l-6.129 4.66c-1.03.783-2.688.783-3.718 0l-6.13-4.66A1.99 1.99 0 0 1 5 5zm14 3.111v5.778l-3.797-2.89z" class="ColorScheme-Text"/>
</svg>
