<svg xmlns="http://www.w3.org/2000/svg" viewBox="0 0 22 22">
    <defs>
        <style id="current-color-scheme" type="text/css">
            .ColorScheme-Text{color:#050505;opacity:.7}
        </style>
    </defs>
    <path fill="currentColor" d="m4 12-3 3 3 3v-2h2v-2H4z" class="ColorScheme-Text"/>
    <path fill="currentColor" d="M15 1c1.108 0 2 .892 2 2v1c1.662 0 3 1.338 3 3v8c0 1.662-1.338 3-3 3H6v-1h11a1.99 1.99 0 0 0 1.988-1.887l-4.597-3.498-.721.55c-1.465 1.114-3.877 1.114-5.342 0l-.719-.548L6.797 11 3 8.111V12H2V7c0-1.662 1.338-3 3-3V3c0-1.108.892-2 2-2zm0 1H7c-.554 0-1 .446-1 1v6.158l3.14 2.389c1.03.783 2.69.783 3.72 0L16 9.158V3c0-.554-.446-1-1-1zm-.5 2a.499.499 0 1 1 0 1h-7a.499.499 0 1 1 0-1zM17 5v3.398l1.988-1.511A1.99 1.99 0 0 0 17 5zM5 5a1.99 1.99 0 0 0-1.988 1.887L5 8.398zm9.5 2a.499.499 0 1 1 0 1h-7a.499.499 0 1 1 0-1zM19 8.11 15.2 11l3.8 2.889z" class="ColorScheme-Text"/>
</svg>
