<svg xmlns="http://www.w3.org/2000/svg" viewBox="0 0 22 22">
    <defs>
        <style id="current-color-scheme" type="text/css">
            .ColorScheme-Text{color:#050505;opacity:.7}
        </style>
    </defs>
    <path fill="currentColor" d="m5 12-3 3 3 3v-2h2v-2H5zm10 1v1h5v-1zm0 2v1h5v-1zm0 2v1h5v-1z" class="ColorScheme-Text"/>
    <path fill="currentColor" d="M5 4C3.338 4 2 5.338 2 7v5h1V8.11L6.8 11l1.53 1.164c1.465 1.114 3.877 1.114 5.342 0l.719-.547.812-.617L19 8.111V12h1V7c0-1.662-1.338-3-3-3zm0 1h12a1.99 1.99 0 0 1 1.988 1.887l-6.129 4.66c-1.03.783-2.688.783-3.718 0l-6.13-4.66A1.99 1.99 0 0 1 5 5zm2 12v1h7v-1z" class="ColorScheme-Text"/>
</svg>
