<svg xmlns="http://www.w3.org/2000/svg" viewBox="0 0 22 22">
    <defs>
        <style id="current-color-scheme" type="text/css">
            .ColorScheme-Text{color:#050505;opacity:.7}
        </style>
    </defs>
    <path fill="currentColor" d="m16 13-.574 1.613-1.547-.734.734 1.547L13 16l1.613.574-.734 1.547 1.547-.734L16 19l.574-1.613 1.547.734-.734-1.547L19 16l-1.613-.574.734-1.547-1.547.734z" class="ColorScheme-Text"/>
    <path fill="currentColor" d="M6 3C4.338 3 3 4.338 3 6v10c0 1.662 1.338 3 3 3h7v-1H6c-1.108 0-2-.892-2-2V9c0-1.108.892-2 2-2h10c1.108 0 2 .892 2 2v4h1V6c0-1.662-1.338-3-3-3H6z" class="ColorScheme-Text"/>
</svg>
