<svg xmlns="http://www.w3.org/2000/svg" viewBox="0 0 22 22">
    <defs>
        <style id="current-color-scheme" type="text/css">
            .ColorScheme-Text{color:#050505;opacity:.7}
        </style>
    </defs>
    <path fill="currentColor" d="m15.5 3-.709.707-2.121 2.121.707.707L15 4.915V9.57h.998V4.914l1.623 1.621.707-.707zM5 3c-1.108 0-2 .892-2 2v1h1V5c0-.554.446-1 1-1h1V3zm3 0v1h2V3zM3 8v2h1V8zm15 4v2h1v-2zM5 13c-1.108 0-2 .892-2 2v2c0 1.108.892 2 2 2h2c1.108 0 2-.892 2-2v-2c0-1.108-.892-2-2-2zm0 1h2c.554 0 1 .446 1 1v2c0 .554-.446 1-1 1H5c-.554 0-1-.446-1-1v-2c0-.554.446-1 1-1zm13 2v1c0 .554-.446 1-1 1h-1v1h1c1.108 0 2-.892 2-2v-1zm-6 2v1h2v-1z" class="ColorScheme-Text"/>
</svg>
