<svg xmlns="http://www.w3.org/2000/svg" width="16" height="16" viewBox="0 0 4.233 4.233">
    <path fill="#050505" fill-opacity=".7" d="M4.233 1.852h-.661v.265h.661zM3.704.661a.132.132 0 0 0-.132-.132H2.249a.132.132 0 0 0-.132.132v.963a.265.265 0 0 1 .132-.036h.132V.793H3.44v.831a.265.265 0 0 1 .131-.036h.133zm0 1.718h-.133a.265.265 0 0 1-.131-.036v.832H2.38V2.38h-.13a.265.265 0 0 1-.132-.038v.966c0 .073.059.132.132.132h1.323c.073 0 .133-.06.132-.133zm-.661-.527h-.794v.264h.794zM1.853.132A.132.132 0 0 0 1.72 0H.397a.132.132 0 0 0-.132.132v1.456h.132c.046 0 .092.012.132.035V.265h1.058v1.324h.133c.046 0 .092.013.132.036zm0 2.21a.265.265 0 0 1-.133.037h-.133v1.325H.53v-1.36a.265.265 0 0 1-.132.036H.265v1.457c0 .074.059.133.132.133H1.72c.073 0 .133-.06.132-.133zm-.133-.49H.926v.265h.794zm-1.323 0H0v.265h.397z"/>
</svg>
