<svg xmlns="http://www.w3.org/2000/svg" width="16" height="16">
    <path fill="#050505" fill-opacity=".7" d="M6 2C4.5 2 3.458 3.037 3.068 4.033L1.164 9h1.072L4 4.397C4.292 3.65 4.892 3 6 3h4c1.108 0 1.709.65 2 1.396l2.188 5.711A2.49 2.49 0 0 0 13.5 10H8v1h5.5c.831 0 1.5.669 1.5 1.5s-.669 1.5-1.5 1.5H8v1h5.5c1.385 0 2.5-1.115 2.5-2.5 0-.285-.057-.554-.144-.809h.011l-.058-.15-.004-.016-.004-.007-2.87-7.485C12.544 3.037 11.5 2 10.002 2H6zM.5 10a.499.499 0 1 0 0 1h6a.499.499 0 1 0 0-1h-6zm0 2a.499.499 0 1 0 0 1h6a.499.499 0 1 0 0-1h-6zm8 0a.5.5 0 0 0-.5.5.5.5 0 0 0 .5.5.5.5 0 0 0 .5-.5.5.5 0 0 0-.5-.5zm2 0a.5.5 0 0 0-.5.5.5.5 0 0 0 .5.5.5.5 0 0 0 .5-.5.5.5 0 0 0-.5-.5zm2 0a.5.5 0 0 0-.5.5.5.5 0 0 0 .5.5.5.5 0 0 0 .5-.5.5.5 0 0 0-.5-.5zm-12 2a.499.499 0 1 0 0 1h6a.499.499 0 1 0 0-1h-6z"/>
</svg>
