<svg xmlns="http://www.w3.org/2000/svg" width="16" height="16">
    <path fill="#050505" fill-opacity=".7" d="M4.998 0c-.022 0-.045.002-.068.004a.47.47 0 0 0-.235.101C4.332.387 4.027.735 4 1.207c-.023.473.277.883.707 1.2C5 2.62 5 2.71 5 2.737c-.004.028-.066.176-.313.367a.517.517 0 0 0-.183.336.506.506 0 0 0 .101.372.517.517 0 0 0 .336.183.506.506 0 0 0 .371-.101c.348-.278.653-.614.688-1.086.031-.473-.266-.895-.707-1.215C5.008 1.383 5 1.285 5 1.258c0-.027.055-.168.305-.363a.498.498 0 0 0-.243-.891C5.041.002 5.02 0 4.998 0zm2 0c-.022 0-.045.002-.068.004a.47.47 0 0 0-.235.101C6.332.387 6.027.735 6 1.207c-.023.473.277.883.707 1.2C7 2.62 7 2.71 7 2.737c-.004.028-.066.176-.313.367a.517.517 0 0 0-.183.336.506.506 0 0 0 .101.372.517.517 0 0 0 .336.183.506.506 0 0 0 .371-.101c.348-.278.653-.614.688-1.086.031-.473-.266-.895-.707-1.215C7.008 1.383 7 1.285 7 1.258c0-.027.055-.168.305-.363a.498.498 0 0 0-.243-.891C7.041.002 7.02 0 6.998 0zm2 0c-.022 0-.045.002-.068.004a.47.47 0 0 0-.235.101C8.332.387 8.027.735 8 1.207c-.023.473.277.883.707 1.2C9 2.62 9 2.71 9 2.737c-.004.028-.066.176-.313.367a.517.517 0 0 0-.183.336.506.506 0 0 0 .101.372.517.517 0 0 0 .336.183.506.506 0 0 0 .371-.101c.348-.278.653-.614.688-1.086.031-.473-.266-.895-.707-1.215C9.008 1.383 9 1.285 9 1.258c0-.027.055-.168.305-.363a.498.498 0 0 0-.243-.891C9.041.002 9.02 0 8.998 0zm2 0c-.022 0-.045.002-.068.004a.47.47 0 0 0-.235.101c-.363.282-.668.63-.695 1.102-.023.473.277.883.707 1.2.293.214.293.304.293.331-.004.028-.066.176-.313.367a.517.517 0 0 0-.183.336.506.506 0 0 0 .101.372.517.517 0 0 0 .336.183.506.506 0 0 0 .371-.101c.348-.278.653-.614.688-1.086.031-.473-.266-.895-.707-1.215-.285-.211-.293-.309-.293-.336 0-.027.055-.168.305-.363a.498.498 0 0 0-.243-.891C11.041.002 11.02 0 10.998 0zM2 5a6 6 0 0 0 3.307 5.348L2.885 16h1.088l.857-2h6.34l.857 2h1.088l-2.422-5.652A6 6 0 0 0 14 5H2zm1.113 1h9.774A5 5 0 0 1 8 10a5 5 0 0 1-4.887-4zm3.121 4.723A6 6 0 0 0 8 11a6 6 0 0 0 1.766-.277L10.742 13H5.258l.976-2.277z"/>
</svg>
