<svg xmlns="http://www.w3.org/2000/svg" width="16" height="16">
    <path fill="#050505" fill-opacity=".7" d="M2 1C.892 1 0 1.892 0 3v2c0 1.108.892 2 2 2h3c1.108 0 2-.892 2-2V3c0-1.108-.892-2-2-2zm0 1h3c.554 0 1 .446 1 1v2c0 .554-.446 1-1 1H2c-.554 0-1-.446-1-1V3c0-.554.446-1 1-1zM10 0C8.892 0 8 .892 8 2v3c0 1.108.892 2 2 2h3c1.108 0 2-.892 2-2V2c0-1.108-.892-2-2-2zm0 1h3c.554 0 1 .446 1 1v3c0 .554-.446 1-1 1h-3c-.554 0-1-.446-1-1V2c0-.554.446-1 1-1zM2 8c-1.108 0-2 .892-2 2v3c0 1.108.892 2 2 2h8c1.108 0 2-.892 2-2v-3c0-1.108-.892-2-2-2zm0 1h8c.554 0 1 .446 1 1v3c0 .554-.446 1-1 1H2c-.554 0-1-.446-1-1v-3c0-.554.446-1 1-1z"/>
    <path fill="#050505" d="M1 4v1c0 .554.446 1 1 1h3c.554 0 1-.446 1-1V4c0 .554-.446 1-1 1H2c-.554 0-1-.446-1-1zM9 4v1c0 .554.446 1 1 1h3c.554 0 1-.446 1-1V4c0 .554-.446 1-1 1h-3c-.554 0-1-.446-1-1zM1 12v1c0 .554.446 1 1 1h8c.554 0 1-.446 1-1v-1c0 .554-.446 1-1 1H2c-.554 0-1-.446-1-1z" opacity=".35" style="paint-order:stroke fill markers"/>
</svg>
