<svg xmlns="http://www.w3.org/2000/svg" width="16" height="16">
    <path fill="#050505" fill-opacity=".7" d="M6 0v4H5v2H4v9H3V6H0v10h16v-1h-1v-4h-1V3l-3 3v5h-1v4H9V6H8V4H7V0H6zm0 5h1v1H6V5zm6.5 1c.277 0 .5.223.5.5s-.223.5-.5.5-.5-.223-.5-.5.223-.5.5-.5zM1 7h1v1H1V7zm4 0h3v1H5V7zm7.5 1c.277 0 .5.223.5.5s-.223.5-.5.5-.5-.223-.5-.5.223-.5.5-.5zM1 9h1v1H1V9zm4 0h3v1H5V9zm7.5 1.008c.277 0 .5.222.5.5 0 .277-.223.5-.5.5s-.5-.223-.5-.5c0-.278.223-.5.5-.5zM1 11h1v1H1v-1zm4 0h3v1H5v-1zm6 1h3v1h-3v-1zM1 13h1v1H1v-1zm4 0h3v1H5v-1zm6 1h3v1h-3v-1z"/>
</svg>
