<svg xmlns="http://www.w3.org/2000/svg" width="16" height="16">
    <path fill="#050505" d="M5 2a2 2 0 0 0-2 2 2 2 0 0 0 2 2 2 2 0 0 0 2-2 2 2 0 0 0-2-2zm0 1a1 1 0 0 1 1 1 1 1 0 0 1-1 1 1 1 0 0 1-1-1 1 1 0 0 1 1-1zm6 1a2 2 0 0 0-2 2 2 2 0 0 0 2 2 2 2 0 0 0 2-2 2 2 0 0 0-2-2zm0 1a1 1 0 0 1 1 1 1 1 0 0 1-1 1 1 1 0 0 1-1-1 1 1 0 0 1 1-1zM4 7c-1.662 0-3 1.338-3 3v1c0 .554.446 1 1 1h4c0-.348.048-.682.135-1H2v-1c0-1.108.892-2 2-2h2c.683 0 1.28.34 1.64.86a4.18 4.18 0 0 1 .878-.485A2.986 2.986 0 0 0 6 7H4zm6 2c-1.662 0-3 1.338-3 3v1c0 .554.446 1 1 1h6c.554 0 1-.446 1-1v-1c0-1.662-1.338-3-3-3h-2zm0 1h2c1.108 0 2 .892 2 2v1H8v-1c0-1.108.892-2 2-2z" opacity=".35"/>
    <rect width="22" height="1" x=".314" y="-.5" fill="#050505" fill-opacity=".7" rx=".5" ry=".5" transform="rotate(45)"/>
</svg>
