<svg xmlns="http://www.w3.org/2000/svg" width="16" height="16">
    <path fill="#050505" d="M4.8 4v1l2.1 2.309L7.2 10h1.6l.3-2.691 2.035-2.239a3.5 3.5 0 0 1-.79-1.07zm1.352 1h3.696L8.359 6.637a1 1 0 0 0-.254.56L8 8.152l-.105-.955a1 1 0 0 0-.254-.56z" opacity=".5"/>
    <path fill="#050505" fill-opacity=".7" d="M3 1C1.338 1 0 2.338 0 4v6c0 1.662 1.338 3 3 3h10c1.662 0 3-1.338 3-3V4c0-1.662-1.338-3-3-3zm0 1h10c1.108 0 2 .892 2 2v6c0 1.108-.892 2-2 2H3c-1.108 0-2-.892-2-2V4c0-1.108.892-2 2-2z"/>
    <rect width="8" height="1" x="4" y="14" fill="#050505" fill-opacity=".7" rx=".5" ry=".5"/>
</svg>
