<svg xmlns="http://www.w3.org/2000/svg" width="16" height="16">
    <path fill="#050505" fill-opacity=".7" d="M2 0a2 2.5 0 0 0-2 2.5 2 2.5 0 0 0 1 2.158V10c0 2.216 1.784 4 4 4h5.174A2.99 2.99 0 0 0 13 16c1.662 0 3-1.338 3-3V4c0-1.662-1.338-3-3-3H8.826A2.99 2.99 0 0 1 6 3H3.955A2 2.5 0 0 0 4 2.5 2 2.5 0 0 0 2 0zm0 1a1 1.5 0 0 1 1 1.5A1 1.5 0 0 1 2 4a1 1.5 0 0 1-1-1.5A1 1.5 0 0 1 2 1zm7.463 1h1.303A2.986 2.986 0 0 0 10 4v9H5c-1.662 0-3-1.338-3-3V5a2 2.5 0 0 0 1.594-1H6a3.984 3.984 0 0 0 3.463-2zM13 2c1.108 0 2 .892 2 2v9c0 1.108-.892 2-2 2s-2-.892-2-2V4c0-1.108.892-2 2-2zM8 5a1 1 0 0 0-1 1 1 1 0 0 0 1 1 1 1 0 0 0 1-1 1 1 0 0 0-1-1z" style="paint-order:stroke fill markers"/>
</svg>
