<svg xmlns="http://www.w3.org/2000/svg" width="16" height="16">
    <path fill="#050505" fill-opacity=".7" d="M8 0a8 8 0 0 0-8 8 8 8 0 0 0 8 8 8 8 0 0 0 8-8 8 8 0 0 0-8-8zm-.094 1A7 7 0 0 1 8 1a7 7 0 0 1 7 7 7 7 0 0 1-7 7 7 7 0 0 1-7-7 7 7 0 0 1 6.906-7z"/>
    <path fill="#050505" fill-opacity=".7" d="M-2.828 13.142h4v1h-4z" style="paint-order:fill markers stroke" transform="rotate(-45)"/>
    <path fill="#050505" fill-opacity=".7" d="M-14.142 1.828h4v1h-4z" style="paint-order:fill markers stroke" transform="scale(-1 1) rotate(-45)"/>
    <path fill="#050505" fill-opacity=".7" d="M7.5 4h1v7h-1z" style="paint-order:fill markers stroke"/>
</svg>
