<svg xmlns="http://www.w3.org/2000/svg" width="16" height="16">
    <path fill="#050505" d="M12 1H5.5C4 1 3.007 1.64 2.526 2.558c-.482.918-.525 2.018-.525 3.07v.373h-2c.347.76.736 1.537 1.166 2.325.43.78.875 1.533 1.334 2.258.449-.725.889-1.478 1.32-2.258A43.07 43.07 0 0 0 5 6H3v-.37c0-1.013.079-1.975.41-2.606C3.74 2.393 4.25 2 5.5 2H12z" font-family="sans-serif" font-weight="400" opacity=".7" overflow="visible" style="font-feature-settings:normal;font-variant-alternates:normal;font-variant-caps:normal;font-variant-ligatures:none;font-variant-numeric:normal;font-variant-position:normal;isolation:auto;mix-blend-mode:normal;shape-padding:0;text-decoration-color:#000;text-decoration-line:none;text-decoration-style:solid;text-indent:0;text-transform:none"/>
    <path fill="#050505" fill-opacity=".7" d="M4.121 10.05 2 15l4.95-2.122 9.192-9.192L13.314.858 4.828 9.343zm1.414 0 7.779-7.778 1.414 1.414-7.778 7.778zm-.651.762 1.303 1.304-2.284.98z" color="#000"/>
</svg>
