<svg xmlns="http://www.w3.org/2000/svg" width="16" height="16">
    <g fill="#050505" fill-opacity=".7" fill-rule="evenodd" stroke-linecap="round" stroke-linejoin="round">
        <path d="M0 0v16h13v-4h-1v3H1V1h7v4h5V4L9 0H0zm9 1.414L11.586 4H9V1.414z" style="paint-order:stroke fill markers"/>
        <path d="M6.5 6a2.495 2.495 0 0 0-2.496 2.627v.01A2.494 2.494 0 0 0 6.5 11h1.56a3.537 3.537 0 0 1-.718-1H6.5a1.497 1.497 0 0 1-1.467-1.187c0-.005 0-.01-.002-.014a1.493 1.493 0 0 1-.02-.117l-.003-.041a1.5 1.5 0 0 1 0-.295A1.496 1.496 0 0 1 6.5 7h3a1.497 1.497 0 0 1 1.467 1.188 1.48 1.48 0 0 1 .022.13l.005.051a1.5 1.5 0 0 1-.08.63h1.037a2.463 2.463 0 0 0 .045-.628v-.008A2.494 2.494 0 0 0 9.5 6H8.06zm5.44 0c.294.287.539.625.718 1h.842a1.497 1.497 0 0 1 1.467 1.188 1.48 1.48 0 0 1 .022.13l.003.041a1.528 1.528 0 0 1 0 .295A1.496 1.496 0 0 1 13.5 10h-3a1.497 1.497 0 0 1-1.467-1.188c0-.004 0-.009-.002-.013a1.48 1.48 0 0 1-.02-.117l-.005-.051a1.5 1.5 0 0 1 .08-.63H8.049a2.463 2.463 0 0 0-.045.628v.008A2.494 2.494 0 0 0 10.5 11h3a2.495 2.495 0 0 0 2.496-2.627v-.01A2.494 2.494 0 0 0 13.5 6z" color="#000" style="-inkscape-stroke:none;paint-order:stroke fill markers"/>
    </g>
</svg>
