<svg xmlns="http://www.w3.org/2000/svg" width="16" height="16">
    <path fill="#050505" fill-opacity=".7" fill-rule="evenodd" d="M8 0a8 8 0 0 0-3.602.875A8 8 0 0 0 .875 4.398 8 8 0 0 0 0 8a8 8 0 0 0 .883 3.617 8 8 0 0 0 0 .002 8 8 0 0 0 3.515 3.506A8 8 0 0 0 8 16a8 8 0 0 0 3.602-.875 8 8 0 0 0 3.507-3.492 8 8 0 0 0 .018-.031A8 8 0 0 0 16 8a8 8 0 0 0-.865-3.615 8 8 0 0 0-.01-.016 8 8 0 0 0-.41-.715A8 8 0 0 0 14.242 3a8 8 0 0 0-.035-.045 8 8 0 0 0-.55-.611 8 8 0 0 0-.624-.559 8 8 0 0 0-1.402-.91A8 8 0 0 0 8 0zm0 1a7 7 0 0 1 3.106.729L9.446 5.05A2.015 2.015 0 0 0 9 5H7c-.153 0-.302.018-.445.05L4.896 1.733A7 7 0 0 1 8 1zm3.97 1.236a7 7 0 0 1 .98.815 7 7 0 0 1 .814.978l-3.272 1.635a2.034 2.034 0 0 0-.156-.156l1.635-3.272zm-7.937.008 1.631 3.264a2.034 2.034 0 0 0-.156.156l-3.264-1.63a7 7 0 0 1 .807-.983 7 7 0 0 1 .982-.807zm10.238 2.65A7 7 0 0 1 15 8a7 7 0 0 1-.733 3.104L10.95 9.445c.032-.143.05-.292.05-.445V7c0-.153-.018-.302-.05-.445l3.322-1.66zm-12.539.002 3.319 1.659C5.018 6.698 5 6.847 5 7v2c0 .153.018.302.05.445l-3.318 1.658A7 7 0 0 1 1 8a7 7 0 0 1 .732-3.104zM7 6h2c.554 0 1 .446 1 1v2c0 .554-.446 1-1 1H7c-.554 0-1-.446-1-1V7c0-.554.446-1 1-1zm-1.492 4.336c.048.054.101.107.156.156l-1.631 3.264a7 7 0 0 1-.982-.807 7 7 0 0 1-.807-.982l3.264-1.631zm4.984 0 3.264 1.63a7 7 0 0 1-.807.983 7 7 0 0 1-.982.807l-1.631-3.264c.054-.049.107-.102.156-.156zm-3.937.613c.143.033.291.05.445.05h2c.153 0 .302-.017.445-.05l1.658 3.319A7 7 0 0 1 8 15a7 7 0 0 1-3.104-.732l1.659-3.319z" style="paint-order:stroke fill markers"/>
</svg>
