<svg xmlns="http://www.w3.org/2000/svg" width="16" height="16">
    <path fill="#050505" fill-opacity=".7" d="M8 1a3 3 0 0 0-3 3 3 3 0 0 0 3 3 3 3 0 0 0 3-3 3 3 0 0 0-3-3zm0 1a2 2 0 0 1 2 2 2 2 0 0 1-2 2 2 2 0 0 1-2-2 2 2 0 0 1 2-2zM6 8c-2.216 0-4 1.784-4 4v2h7v-1H3v-1c0-1.662 1.338-3 3-3h4c.771 0 1.47.292 2 .768V8.533A3.993 3.993 0 0 0 10 8z"/>
    <path fill="#050505" fill-opacity=".7" d="M13 8v3.27a2 2 0 0 0-1-.27 2 2 0 0 0-2 2 2 2 0 0 0 2 2 2 2 0 0 0 2-2V9h2V8h-3zm-1 4a1 1 0 0 1 1 1 1 1 0 0 1-1 1 1 1 0 0 1-1-1 1 1 0 0 1 1-1z"/>
</svg>
