<svg xmlns="http://www.w3.org/2000/svg" width="16" height="16">
    <path fill="#050505" d="M8 2c-.554 0-1 .446-1 1v3.127A4 4 0 0 1 9.873 9H13c.554 0 1-.446 1-1V3c0-.554-.446-1-1-1z" opacity=".403" style="paint-order:stroke fill markers"/>
    <path fill="#050505" d="M7 6.127V8c0 .554.446 1 1 1h1.873A4 4 0 0 0 7 6.127z" opacity=".801" style="paint-order:stroke fill markers"/>
    <path fill="#050505" fill-opacity=".7" d="M7.5 0A2.506 2.506 0 0 0 5 2.5v1.584C2.167 4.562 0 7.034 0 10c0 3.308 2.692 6 6 6 2.967 0 5.438-2.167 5.916-5H13.5c1.376 0 2.5-1.124 2.5-2.5v-6C16 1.124 14.876 0 13.5 0zm0 1h6c.84 0 1.5.66 1.5 1.5v6c0 .84-.66 1.5-1.5 1.5H11a5 5 0 0 1-.113 1h.013A4.992 4.992 0 0 1 6 15c-2.767 0-5-2.233-5-5a4.992 4.992 0 0 1 4-4.9v.013A5 5 0 0 1 6 5V2.5C6 1.66 6.66 1 7.5 1z" color="#000" style="-inkscape-stroke:none;paint-order:stroke fill markers"/>
    <path fill="#050505" d="M6 6a4 4 0 1 0 4 4H8c-1.1 0-2-.9-2-2z" opacity=".7" style="paint-order:stroke fill markers"/>
</svg>
