<svg xmlns="http://www.w3.org/2000/svg" width="16" height="16">
    <path fill="#050505" fill-opacity=".7" d="M7 1v1H6c-1.108 0-2 .892-2 2v2.5l-2 .762c0 1.96 1.656 4.351 2.723 5.695a7.94 7.94 0 0 0 1.084-.387c.645-.27 1.372-.586 2.213-.584.837 0 1.543.314 2.162.58.388.168.74.306 1.066.387C12.323 11.585 14 9.145 14 7.262l-2-.764V4c0-1.108-.892-2-2-2H9V1H7zM6 3h4c.554 0 1 .446 1 1v2.023c0 .03-.015.056-.018.086L8.078 5h-.133L5.018 6.113c0-.03-.018-.058-.018-.09V4c0-.554.446-1 1-1zm2.01 3.045L11 7.185l.848.325.94.36c-.257 1.176-1.093 2.695-1.944 3.878-.098-.039-.159-.055-.268-.101-.61-.263-1.469-.66-2.555-.66H8.02c-1.09 0-1.963.392-2.6.66-.116.049-.188.064-.294.105-.844-1.159-1.672-2.654-1.92-3.88l.813-.31L5 7.188l3.01-1.142zm.01 6.936c-.841 0-1.568.315-2.213.585-.646.271-1.208.489-1.684.467-1.015-.046-2.46-.967-2.46-.967l-.563.828s1.473 1.07 2.978 1.137c.784.035 1.471-.273 2.115-.543.644-.27 1.245-.509 1.825-.508.582 0 1.153.233 1.77.498.615.266 1.278.572 2.054.543.75-.028 1.491-.317 2.066-.586.575-.268.99-.533.99-.533l-.539-.843s-.36.23-.875.47c-.514.24-1.177.474-1.68.492-.476.018-1.004-.194-1.622-.46-.619-.267-1.325-.579-2.162-.58z" color="#000"/>
</svg>
