<svg xmlns="http://www.w3.org/2000/svg" width="16" height="16">
    <g fill="#050505" fill-opacity=".7" stroke-linecap="round" stroke-linejoin="round" stroke-width="2">
        <path d="M1 3v1h2.09A1.5 1.5 0 0 1 3 3.5a1.5 1.5 0 0 1 .09-.5H1zm4.914 0A1.5 1.5 0 0 1 6 3.5a1.5 1.5 0 0 1-.09.5H15V3H5.914z"/>
        <path d="M4.5 1A2.5 2.5 0 0 0 2 3.5 2.5 2.5 0 0 0 4.5 6 2.5 2.5 0 0 0 7 3.5 2.5 2.5 0 0 0 4.5 1zm0 1A1.5 1.5 0 0 1 6 3.5 1.5 1.5 0 0 1 4.5 5 1.5 1.5 0 0 1 3 3.5 1.5 1.5 0 0 1 4.5 2zM1 8v1h9.09a1.5 1.5 0 0 1-.09-.5 1.5 1.5 0 0 1 .09-.5H1zm11.914 0a1.5 1.5 0 0 1 .086.5 1.5 1.5 0 0 1-.09.5H15V8h-2.086zM1 13v1h2.09a1.5 1.5 0 0 1-.09-.5 1.5 1.5 0 0 1 .09-.5H1zm4.914 0a1.5 1.5 0 0 1 .086.5 1.5 1.5 0 0 1-.09.5H15v-1H5.914z"/>
        <path d="M11.5 6A2.5 2.5 0 0 0 9 8.5a2.5 2.5 0 0 0 2.5 2.5A2.5 2.5 0 0 0 14 8.5 2.5 2.5 0 0 0 11.5 6zm0 1A1.5 1.5 0 0 1 13 8.5a1.5 1.5 0 0 1-1.5 1.5A1.5 1.5 0 0 1 10 8.5 1.5 1.5 0 0 1 11.5 7zM4.5 11A2.5 2.5 0 0 0 2 13.5 2.5 2.5 0 0 0 4.5 16 2.5 2.5 0 0 0 7 13.5 2.5 2.5 0 0 0 4.5 11zm0 1A1.5 1.5 0 0 1 6 13.5 1.5 1.5 0 0 1 4.5 15 1.5 1.5 0 0 1 3 13.5 1.5 1.5 0 0 1 4.5 12z"/>
    </g>
</svg>
