<svg xmlns="http://www.w3.org/2000/svg" width="16" height="16">
    <path fill="#050505" fill-opacity=".7" d="M8.5 0A7.5 7.5 0 0 0 1 7.5 7.5 7.5 0 0 0 8.5 15 7.5 7.5 0 0 0 16 7.5 7.5 7.5 0 0 0 8.5 0Zm0 1A6.5 6.5 0 0 1 15 7.5 6.5 6.5 0 0 1 8.5 14 6.5 6.5 0 0 1 2 7.5 6.5 6.5 0 0 1 8.5 1Z"/>
    <rect width="4" height="4" x="4" y="3" fill="#050505" fill-opacity=".7" rx="1" ry="1"/>
    <path fill="#050505" fill-opacity=".7" d="M10 3c-.554 0-1 .446-1 1v2c0 .554.446 1 1 1h2c.554 0 1-.446 1-1V4c0-.554-.446-1-1-1h-2zm0 1h2v2h-2V4zM5 8c-.554 0-1 .446-1 1v2c0 .554.446 1 1 1h2c.554 0 1-.446 1-1V9c0-.554-.446-1-1-1H5zm0 1h2v2H5V9z"/>
    <rect width="4" height="4" x="9" y="8" fill="#050505" fill-opacity=".7" rx="1" ry="1"/>
</svg>
