<svg xmlns="http://www.w3.org/2000/svg" width="16" height="16">
    <path fill="#050505" fill-opacity=".7" fill-rule="evenodd" d="M3 1c-1.108 0-2 .892-2 2v7c0 1.108.892 2 2 2h10c1.108 0 2-.892 2-2V3c0-1.108-.892-2-2-2H3zm0 1h10c.554 0 1 .446 1 1v7c0 .554-.446 1-1 1H3c-.554 0-1-.446-1-1V3c0-.554.446-1 1-1z"/>
    <rect width="8" height="1" x="4" y="4" fill="#050505" fill-opacity=".7" fill-rule="evenodd" rx="0" ry="0"/>
    <rect width="8" height="1" x="4" y="6" fill="#050505" fill-opacity=".7" fill-rule="evenodd" rx="0" ry="0"/>
    <rect width="5" height="1" x="4" y="8" fill="#050505" fill-opacity=".7" fill-rule="evenodd" rx="0" ry="0"/>
    <path fill="#050505" fill-opacity=".7" d="M9 11h4v4z"/>
</svg>
