<svg xmlns="http://www.w3.org/2000/svg" width="16" height="16">
    <path fill="currentColor" fill-opacity=".7" d="M7.984.002c-.38.032-.38.351-.515 1.138a6.912 6.877 0 0 0-.764.107C6.37.437 6.251.153 5.933.261c-.365.123-.28.436-.223 1.256A6.912 6.877 0 0 0 5 1.81c-.567-.684-.762-.923-1.035-.726-.309.223-.144.498.145 1.241a6.912 6.877 0 0 0-.616.474c-.716-.528-.963-.71-1.18-.453-.248.29-.017.514.448 1.176a6.912 6.877 0 0 0-.464.6c-.75-.278-1.027-.44-1.246-.129-.193.275.047.468.737 1.022a6.912 6.877 0 0 0-.297.712C.703 5.653.394 5.571.264 5.926c-.114.313.165.438.958.788a6.912 6.877 0 0 0-.098.754c-.778.15-1.099.156-1.123.534-.02.328.28.373 1.114.482a6.912 6.877 0 0 0 .11.804C.51 9.6.201 9.68.261 10.05c.053.33.358.302 1.232.221a6.912 6.877 0 0 0 .31.741c-.609.471-.886.626-.738.969.133.308.424.205 1.259-.09a6.912 6.877 0 0 0 .45.583c-.46.673-.69.9-.437 1.19.22.252.465.067 1.163-.462a6.912 6.877 0 0 0 .618.475c-.28.777-.448 1.056-.13 1.275.28.191.468-.053 1.025-.755l-.136-.08a6.912 6.877 0 0 0 .812.346c-.054.798-.131 1.11.23 1.23.313.104.431-.173.752-.953a6.912 6.877 0 0 0 .784.105c.147.882.196 1.185.533 1.152.378-.038.372-.358.495-1.143a6.912 6.877 0 0 0 .79-.103c.326.791.445 1.071.76.967.36-.121.283-.432.23-1.23a6.912 6.877 0 0 0 .716-.293c.54.682.73.921 1.006.732.313-.214.155-.491-.116-1.236a6.912 6.877 0 0 0 .639-.487c.668.507.913.683 1.129.435.246-.282.03-.512-.406-1.147a6.912 6.877 0 0 0 .466-.594c.816.288 1.105.388 1.236.083.148-.341-.125-.495-.727-.96a6.912 6.877 0 0 0 .315-.75c.858.08 1.163.107 1.216-.221.06-.367-.244-.452-.944-.757a6.912 6.877 0 0 0 .103-.81c.824-.108 1.123-.156 1.102-.482-.024-.373-.341-.384-1.1-.53a6.912 6.877 0 0 0-.105-.767c.78-.344 1.055-.469.942-.78-.129-.352-.435-.274-1.21-.2a6.912 6.877 0 0 0-.3-.723c.677-.544.913-.736.722-1.01-.218-.309-.494-.148-1.237.128a6.912 6.877 0 0 0-.477-.614c.501-.707.676-.957.417-1.167-.29-.236-.513-.014-1.136.444a6.912 6.877 0 0 0-.631-.482c.332-.809.448-1.09.147-1.237-.346-.169-.506.111-1.045.732a6.912 6.877 0 0 0-.716-.292c.074-.885.104-1.19-.23-1.241-.374-.057-.45.252-.761.975a6.912 6.877 0 0 0-.783-.096C8.363.276 8.319-.026 7.984.002zm-.276 2.114c.765-.013 1.673.122 1.968.25 1.285.39 2.472 1.11 3.484 2.781.188.311.325.613.386.888.06.29.038.63-.15.895-.16.212-.36.41-.638.436-.865.08-2.04.034-2.966.024-.156-.001-.303-.064-.348-.114-.274-.172-.46-.546-.766-.651-.488-.226-.686-.037-.962-.375a47.863 47.863 0 0 1-1.448-2.476c-.327-.567-.113-1.136.38-1.442.192-.149.6-.209 1.06-.216zm-3.41 1.747c.04 0 .08 0 .12.005.263.036.535.112.694.341.495.713 1.032 1.755 1.477 2.565.075.136.093.297.072.36-.016.323-.252.666-.194.984.042.535.305.615.145 1.02-.46.84-.95 1.677-1.453 2.476-.335.562-.936.652-1.444.375-.6-.252-1.405-2.137-1.458-2.648-.289-1.308-.244-2.695.719-4.395.18-.317.376-.582.587-.77.196-.17.455-.304.734-.313zM8 7.428A.571.571 0 0 1 8.57 8 .571.571 0 0 1 8 8.57.571.571 0 0 1 7.428 8 .571.571 0 0 1 8 7.428zm3.142 1.197h.003c.48.002.959.011 1.43.029.656.008 1.036.484 1.05 1.062.08.644-1.155 2.282-1.572 2.583-.991.904-2.217 1.558-4.173 1.576a3.057 3.057 0 0 1-.962-.123c-.281-.096-.56-.286-.694-.583-.101-.245-.171-.52-.052-.772.371-.784 1.007-1.768 1.487-2.558.08-.133.211-.228.276-.241.289-.148.706-.115.953-.324.444-.304.38-.571.813-.636a51.21 51.21 0 0 1 1.442-.013z" class="ColorScheme-Text" color="#050505"/>
</svg>
